<svg width="56" height="56" viewBox="0 0 56 56" fill="none" xmlns="http://www.w3.org/2000/svg">
<g filter="url(#filter0_i_971_14927)">
<path d="M27.0195 23.5801C29.0388 23.5801 30.6758 21.9432 30.6758 19.9239C30.6758 17.9046 29.0388 16.2676 27.0195 16.2676C25.0002 16.2676 23.3633 17.9046 23.3633 19.9239C23.3633 21.9432 25.0002 23.5801 27.0195 23.5801Z" fill="url(#paint0_radial_971_14927)"/>
</g>
<g filter="url(#filter1_f_971_14927)">
<path d="M27.0199 22.3091C28.3372 22.3091 29.4051 21.2412 29.4051 19.9239C29.4051 18.6066 28.3372 17.5387 27.0199 17.5387C25.7026 17.5387 24.6348 18.6066 24.6348 19.9239C24.6348 21.2412 25.7026 22.3091 27.0199 22.3091Z" fill="url(#paint1_linear_971_14927)"/>
</g>
<g filter="url(#filter2_i_971_14927)">
<path d="M48.9805 23.5801C50.9998 23.5801 52.6367 21.9432 52.6367 19.9239C52.6367 17.9046 50.9998 16.2676 48.9805 16.2676C46.9612 16.2676 45.3242 17.9046 45.3242 19.9239C45.3242 21.9432 46.9612 23.5801 48.9805 23.5801Z" fill="url(#paint2_linear_971_14927)"/>
<path d="M48.9805 23.5801C50.9998 23.5801 52.6367 21.9432 52.6367 19.9239C52.6367 17.9046 50.9998 16.2676 48.9805 16.2676C46.9612 16.2676 45.3242 17.9046 45.3242 19.9239C45.3242 21.9432 46.9612 23.5801 48.9805 23.5801Z" fill="url(#paint3_radial_971_14927)"/>
</g>
<g filter="url(#filter3_f_971_14927)">
<path d="M48.9809 22.3091C50.2982 22.3091 51.3661 21.2412 51.3661 19.9239C51.3661 18.6066 50.2982 17.5387 48.9809 17.5387C47.6636 17.5387 46.5957 18.6066 46.5957 19.9239C46.5957 21.2412 47.6636 22.3091 48.9809 22.3091Z" fill="#E4AF9A"/>
<path d="M48.9809 22.3091C50.2982 22.3091 51.3661 21.2412 51.3661 19.9239C51.3661 18.6066 50.2982 17.5387 48.9809 17.5387C47.6636 17.5387 46.5957 18.6066 46.5957 19.9239C46.5957 21.2412 47.6636 22.3091 48.9809 22.3091Z" fill="url(#paint4_radial_971_14927)"/>
<path d="M48.9809 22.3091C50.2982 22.3091 51.3661 21.2412 51.3661 19.9239C51.3661 18.6066 50.2982 17.5387 48.9809 17.5387C47.6636 17.5387 46.5957 18.6066 46.5957 19.9239C46.5957 21.2412 47.6636 22.3091 48.9809 22.3091Z" fill="url(#paint5_radial_971_14927)"/>
</g>
<g filter="url(#filter4_i_971_14927)">
<path d="M35.0583 4.52362C30.1732 4.52362 26.2628 8.60894 26.4645 13.5158L26.7782 22.7669C27.0471 29.3507 31.9883 33.7736 37.9939 33.7736C43.9995 33.7736 48.9406 29.3507 49.2095 22.7669L49.304 18.1195L49.5121 13.5158C49.7137 8.60894 45.8034 4.52362 40.9182 4.52362H35.0583Z" fill="url(#paint6_radial_971_14927)"/>
<path d="M35.0583 4.52362C30.1732 4.52362 26.2628 8.60894 26.4645 13.5158L26.7782 22.7669C27.0471 29.3507 31.9883 33.7736 37.9939 33.7736C43.9995 33.7736 48.9406 29.3507 49.2095 22.7669L49.304 18.1195L49.5121 13.5158C49.7137 8.60894 45.8034 4.52362 40.9182 4.52362H35.0583Z" fill="url(#paint7_radial_971_14927)"/>
<path d="M35.0583 4.52362C30.1732 4.52362 26.2628 8.60894 26.4645 13.5158L26.7782 22.7669C27.0471 29.3507 31.9883 33.7736 37.9939 33.7736C43.9995 33.7736 48.9406 29.3507 49.2095 22.7669L49.304 18.1195L49.5121 13.5158C49.7137 8.60894 45.8034 4.52362 40.9182 4.52362H35.0583Z" fill="url(#paint8_radial_971_14927)"/>
<path d="M35.0583 4.52362C30.1732 4.52362 26.2628 8.60894 26.4645 13.5158L26.7782 22.7669C27.0471 29.3507 31.9883 33.7736 37.9939 33.7736C43.9995 33.7736 48.9406 29.3507 49.2095 22.7669L49.304 18.1195L49.5121 13.5158C49.7137 8.60894 45.8034 4.52362 40.9182 4.52362H35.0583Z" fill="url(#paint9_radial_971_14927)"/>
<path d="M35.0583 4.52362C30.1732 4.52362 26.2628 8.60894 26.4645 13.5158L26.7782 22.7669C27.0471 29.3507 31.9883 33.7736 37.9939 33.7736C43.9995 33.7736 48.9406 29.3507 49.2095 22.7669L49.304 18.1195L49.5121 13.5158C49.7137 8.60894 45.8034 4.52362 40.9182 4.52362H35.0583Z" fill="url(#paint10_linear_971_14927)"/>
</g>
<path d="M35.0583 4.52362C30.1732 4.52362 26.2628 8.60894 26.4645 13.5158L26.7782 22.7669C27.0471 29.3507 31.9883 33.7736 37.9939 33.7736C43.9995 33.7736 48.9406 29.3507 49.2095 22.7669L49.304 18.1195L49.5121 13.5158C49.7137 8.60894 45.8034 4.52362 40.9182 4.52362H35.0583Z" fill="url(#paint11_radial_971_14927)"/>
<path d="M35.0583 4.52362C30.1732 4.52362 26.2628 8.60894 26.4645 13.5158L26.7782 22.7669C27.0471 29.3507 31.9883 33.7736 37.9939 33.7736C43.9995 33.7736 48.9406 29.3507 49.2095 22.7669L49.304 18.1195L49.5121 13.5158C49.7137 8.60894 45.8034 4.52362 40.9182 4.52362H35.0583Z" fill="url(#paint12_radial_971_14927)"/>
<path d="M35.0583 4.52362C30.1732 4.52362 26.2628 8.60894 26.4645 13.5158L26.7782 22.7669C27.0471 29.3507 31.9883 33.7736 37.9939 33.7736C43.9995 33.7736 48.9406 29.3507 49.2095 22.7669L49.304 18.1195L49.5121 13.5158C49.7137 8.60894 45.8034 4.52362 40.9182 4.52362H35.0583Z" fill="url(#paint13_radial_971_14927)"/>
<path d="M35.0583 4.52362C30.1732 4.52362 26.2628 8.60894 26.4645 13.5158L26.7782 22.7669C27.0471 29.3507 31.9883 33.7736 37.9939 33.7736C43.9995 33.7736 48.9406 29.3507 49.2095 22.7669L49.304 18.1195L49.5121 13.5158C49.7137 8.60894 45.8034 4.52362 40.9182 4.52362H35.0583Z" fill="url(#paint14_radial_971_14927)"/>
<path d="M35.0583 4.52362C30.1732 4.52362 26.2628 8.60894 26.4645 13.5158L26.7782 22.7669C27.0471 29.3507 31.9883 33.7736 37.9939 33.7736C43.9995 33.7736 48.9406 29.3507 49.2095 22.7669L49.304 18.1195L49.5121 13.5158C49.7137 8.60894 45.8034 4.52362 40.9182 4.52362H35.0583Z" fill="url(#paint15_radial_971_14927)"/>
<path d="M37.9905 26.0257C36.7436 26.0257 35.5865 25.7209 34.598 25.2014C34.261 25.0207 33.9015 25.4047 34.115 25.7321C34.935 27.0082 36.3729 27.8551 37.9905 27.8551C39.6081 27.8551 41.0459 27.0082 41.866 25.7321C42.0682 25.416 41.72 25.032 41.383 25.2014C40.3944 25.7321 39.2374 26.0257 37.9905 26.0257Z" fill="#88024E"/>
<g filter="url(#filter5_i_971_14927)">
<path d="M30.6094 15.8088C31.2731 15.5726 32.1956 15.4038 33.3881 15.5163" stroke="#140E1A" stroke-miterlimit="10" stroke-linecap="round" stroke-linejoin="round"/>
</g>
<g filter="url(#filter6_f_971_14927)">
<path d="M30.6094 15.8088C31.2731 15.5726 32.1956 15.4038 33.3881 15.5163" stroke="url(#paint16_linear_971_14927)" stroke-width="0.3" stroke-miterlimit="10" stroke-linecap="round" stroke-linejoin="round"/>
</g>
<g filter="url(#filter7_i_971_14927)">
<path d="M44.7495 15.8088C44.0857 15.5726 43.1632 15.4038 41.9707 15.5163" stroke="#140E1A" stroke-miterlimit="10" stroke-linecap="round" stroke-linejoin="round"/>
</g>
<g filter="url(#filter8_f_971_14927)">
<path d="M44.7495 15.8088C44.0857 15.5726 43.1632 15.4038 41.9707 15.5163" stroke="url(#paint17_linear_971_14927)" stroke-width="0.3" stroke-miterlimit="10" stroke-linecap="round" stroke-linejoin="round"/>
</g>
<g filter="url(#filter9_i_971_14927)">
<path d="M25.2924 14.4571L25.4022 19.045C25.4022 19.9216 26.1533 20.1797 26.5798 20.2069C26.6405 20.2108 26.6888 20.161 26.6888 20.1001L26.6283 15.7052C26.6283 15.0196 26.837 14.2582 27.472 13.6661C28.1224 13.0597 28.5267 12.4444 28.6146 11.7237C28.6803 11.1848 28.7863 10.8969 28.8855 10.7169C28.9578 10.5856 29.2038 10.6159 29.2687 10.7511C30.22 12.7342 32.0296 13.3847 33.3998 13.4888C34.0051 13.5348 34.4256 12.9757 34.4218 12.3687C34.4169 11.5718 34.4947 10.7881 34.6439 10.5196C37.1224 13.5606 40.7435 13.4903 41.8158 13.4552C42.888 13.42 45.5248 13.4903 47.4408 13.6485C48.9736 13.7751 49.2689 15.2657 49.2689 15.7755V20.0751C49.2689 20.1372 49.3193 20.1876 49.3814 20.1876H49.508C50.0588 20.1876 50.5003 19.7473 50.4924 19.1965C50.4834 18.5719 50.474 17.8171 50.4994 17.1993C50.5521 15.9161 50.5169 15.6876 51.431 13.9474C52.2263 12.4333 52.6527 11.381 52.1693 9.51767C51.758 7.93237 50.0423 6.96885 49.3919 6.63486C48.7784 6.31978 48.4339 6.01084 48.1351 5.43076C47.8363 4.85068 47.4104 3.56351 45.1556 2.61826C43.1429 1.77451 41.8158 2.52158 40.9896 2.89072C40.1634 3.25986 39.3548 3.33017 38.0013 2.67978C35.9798 1.80088 34.1166 2.27549 33.0267 3.45322C31.9369 4.63095 30.7943 4.71884 29.7044 5.17588C28.6146 5.63291 27.806 6.33603 26.7338 7.90048C25.3117 9.76254 25.181 12.9981 25.2924 14.4571Z" fill="#2C2726"/>
<path d="M25.2924 14.4571L25.4022 19.045C25.4022 19.9216 26.1533 20.1797 26.5798 20.2069C26.6405 20.2108 26.6888 20.161 26.6888 20.1001L26.6283 15.7052C26.6283 15.0196 26.837 14.2582 27.472 13.6661C28.1224 13.0597 28.5267 12.4444 28.6146 11.7237C28.6803 11.1848 28.7863 10.8969 28.8855 10.7169C28.9578 10.5856 29.2038 10.6159 29.2687 10.7511C30.22 12.7342 32.0296 13.3847 33.3998 13.4888C34.0051 13.5348 34.4256 12.9757 34.4218 12.3687C34.4169 11.5718 34.4947 10.7881 34.6439 10.5196C37.1224 13.5606 40.7435 13.4903 41.8158 13.4552C42.888 13.42 45.5248 13.4903 47.4408 13.6485C48.9736 13.7751 49.2689 15.2657 49.2689 15.7755V20.0751C49.2689 20.1372 49.3193 20.1876 49.3814 20.1876H49.508C50.0588 20.1876 50.5003 19.7473 50.4924 19.1965C50.4834 18.5719 50.474 17.8171 50.4994 17.1993C50.5521 15.9161 50.5169 15.6876 51.431 13.9474C52.2263 12.4333 52.6527 11.381 52.1693 9.51767C51.758 7.93237 50.0423 6.96885 49.3919 6.63486C48.7784 6.31978 48.4339 6.01084 48.1351 5.43076C47.8363 4.85068 47.4104 3.56351 45.1556 2.61826C43.1429 1.77451 41.8158 2.52158 40.9896 2.89072C40.1634 3.25986 39.3548 3.33017 38.0013 2.67978C35.9798 1.80088 34.1166 2.27549 33.0267 3.45322C31.9369 4.63095 30.7943 4.71884 29.7044 5.17588C28.6146 5.63291 27.806 6.33603 26.7338 7.90048C25.3117 9.76254 25.181 12.9981 25.2924 14.4571Z" fill="url(#paint18_radial_971_14927)"/>
<path d="M25.2924 14.4571L25.4022 19.045C25.4022 19.9216 26.1533 20.1797 26.5798 20.2069C26.6405 20.2108 26.6888 20.161 26.6888 20.1001L26.6283 15.7052C26.6283 15.0196 26.837 14.2582 27.472 13.6661C28.1224 13.0597 28.5267 12.4444 28.6146 11.7237C28.6803 11.1848 28.7863 10.8969 28.8855 10.7169C28.9578 10.5856 29.2038 10.6159 29.2687 10.7511C30.22 12.7342 32.0296 13.3847 33.3998 13.4888C34.0051 13.5348 34.4256 12.9757 34.4218 12.3687C34.4169 11.5718 34.4947 10.7881 34.6439 10.5196C37.1224 13.5606 40.7435 13.4903 41.8158 13.4552C42.888 13.42 45.5248 13.4903 47.4408 13.6485C48.9736 13.7751 49.2689 15.2657 49.2689 15.7755V20.0751C49.2689 20.1372 49.3193 20.1876 49.3814 20.1876H49.508C50.0588 20.1876 50.5003 19.7473 50.4924 19.1965C50.4834 18.5719 50.474 17.8171 50.4994 17.1993C50.5521 15.9161 50.5169 15.6876 51.431 13.9474C52.2263 12.4333 52.6527 11.381 52.1693 9.51767C51.758 7.93237 50.0423 6.96885 49.3919 6.63486C48.7784 6.31978 48.4339 6.01084 48.1351 5.43076C47.8363 4.85068 47.4104 3.56351 45.1556 2.61826C43.1429 1.77451 41.8158 2.52158 40.9896 2.89072C40.1634 3.25986 39.3548 3.33017 38.0013 2.67978C35.9798 1.80088 34.1166 2.27549 33.0267 3.45322C31.9369 4.63095 30.7943 4.71884 29.7044 5.17588C28.6146 5.63291 27.806 6.33603 26.7338 7.90048C25.3117 9.76254 25.181 12.9981 25.2924 14.4571Z" fill="url(#paint19_radial_971_14927)"/>
<path d="M25.2924 14.4571L25.4022 19.045C25.4022 19.9216 26.1533 20.1797 26.5798 20.2069C26.6405 20.2108 26.6888 20.161 26.6888 20.1001L26.6283 15.7052C26.6283 15.0196 26.837 14.2582 27.472 13.6661C28.1224 13.0597 28.5267 12.4444 28.6146 11.7237C28.6803 11.1848 28.7863 10.8969 28.8855 10.7169C28.9578 10.5856 29.2038 10.6159 29.2687 10.7511C30.22 12.7342 32.0296 13.3847 33.3998 13.4888C34.0051 13.5348 34.4256 12.9757 34.4218 12.3687C34.4169 11.5718 34.4947 10.7881 34.6439 10.5196C37.1224 13.5606 40.7435 13.4903 41.8158 13.4552C42.888 13.42 45.5248 13.4903 47.4408 13.6485C48.9736 13.7751 49.2689 15.2657 49.2689 15.7755V20.0751C49.2689 20.1372 49.3193 20.1876 49.3814 20.1876H49.508C50.0588 20.1876 50.5003 19.7473 50.4924 19.1965C50.4834 18.5719 50.474 17.8171 50.4994 17.1993C50.5521 15.9161 50.5169 15.6876 51.431 13.9474C52.2263 12.4333 52.6527 11.381 52.1693 9.51767C51.758 7.93237 50.0423 6.96885 49.3919 6.63486C48.7784 6.31978 48.4339 6.01084 48.1351 5.43076C47.8363 4.85068 47.4104 3.56351 45.1556 2.61826C43.1429 1.77451 41.8158 2.52158 40.9896 2.89072C40.1634 3.25986 39.3548 3.33017 38.0013 2.67978C35.9798 1.80088 34.1166 2.27549 33.0267 3.45322C31.9369 4.63095 30.7943 4.71884 29.7044 5.17588C28.6146 5.63291 27.806 6.33603 26.7338 7.90048C25.3117 9.76254 25.181 12.9981 25.2924 14.4571Z" fill="url(#paint20_radial_971_14927)"/>
<path d="M25.2924 14.4571L25.4022 19.045C25.4022 19.9216 26.1533 20.1797 26.5798 20.2069C26.6405 20.2108 26.6888 20.161 26.6888 20.1001L26.6283 15.7052C26.6283 15.0196 26.837 14.2582 27.472 13.6661C28.1224 13.0597 28.5267 12.4444 28.6146 11.7237C28.6803 11.1848 28.7863 10.8969 28.8855 10.7169C28.9578 10.5856 29.2038 10.6159 29.2687 10.7511C30.22 12.7342 32.0296 13.3847 33.3998 13.4888C34.0051 13.5348 34.4256 12.9757 34.4218 12.3687C34.4169 11.5718 34.4947 10.7881 34.6439 10.5196C37.1224 13.5606 40.7435 13.4903 41.8158 13.4552C42.888 13.42 45.5248 13.4903 47.4408 13.6485C48.9736 13.7751 49.2689 15.2657 49.2689 15.7755V20.0751C49.2689 20.1372 49.3193 20.1876 49.3814 20.1876H49.508C50.0588 20.1876 50.5003 19.7473 50.4924 19.1965C50.4834 18.5719 50.474 17.8171 50.4994 17.1993C50.5521 15.9161 50.5169 15.6876 51.431 13.9474C52.2263 12.4333 52.6527 11.381 52.1693 9.51767C51.758 7.93237 50.0423 6.96885 49.3919 6.63486C48.7784 6.31978 48.4339 6.01084 48.1351 5.43076C47.8363 4.85068 47.4104 3.56351 45.1556 2.61826C43.1429 1.77451 41.8158 2.52158 40.9896 2.89072C40.1634 3.25986 39.3548 3.33017 38.0013 2.67978C35.9798 1.80088 34.1166 2.27549 33.0267 3.45322C31.9369 4.63095 30.7943 4.71884 29.7044 5.17588C28.6146 5.63291 27.806 6.33603 26.7338 7.90048C25.3117 9.76254 25.181 12.9981 25.2924 14.4571Z" fill="url(#paint21_radial_971_14927)"/>
<path d="M25.2924 14.4571L25.4022 19.045C25.4022 19.9216 26.1533 20.1797 26.5798 20.2069C26.6405 20.2108 26.6888 20.161 26.6888 20.1001L26.6283 15.7052C26.6283 15.0196 26.837 14.2582 27.472 13.6661C28.1224 13.0597 28.5267 12.4444 28.6146 11.7237C28.6803 11.1848 28.7863 10.8969 28.8855 10.7169C28.9578 10.5856 29.2038 10.6159 29.2687 10.7511C30.22 12.7342 32.0296 13.3847 33.3998 13.4888C34.0051 13.5348 34.4256 12.9757 34.4218 12.3687C34.4169 11.5718 34.4947 10.7881 34.6439 10.5196C37.1224 13.5606 40.7435 13.4903 41.8158 13.4552C42.888 13.42 45.5248 13.4903 47.4408 13.6485C48.9736 13.7751 49.2689 15.2657 49.2689 15.7755V20.0751C49.2689 20.1372 49.3193 20.1876 49.3814 20.1876H49.508C50.0588 20.1876 50.5003 19.7473 50.4924 19.1965C50.4834 18.5719 50.474 17.8171 50.4994 17.1993C50.5521 15.9161 50.5169 15.6876 51.431 13.9474C52.2263 12.4333 52.6527 11.381 52.1693 9.51767C51.758 7.93237 50.0423 6.96885 49.3919 6.63486C48.7784 6.31978 48.4339 6.01084 48.1351 5.43076C47.8363 4.85068 47.4104 3.56351 45.1556 2.61826C43.1429 1.77451 41.8158 2.52158 40.9896 2.89072C40.1634 3.25986 39.3548 3.33017 38.0013 2.67978C35.9798 1.80088 34.1166 2.27549 33.0267 3.45322C31.9369 4.63095 30.7943 4.71884 29.7044 5.17588C28.6146 5.63291 27.806 6.33603 26.7338 7.90048C25.3117 9.76254 25.181 12.9981 25.2924 14.4571Z" fill="url(#paint22_radial_971_14927)"/>
</g>
<g filter="url(#filter10_f_971_14927)">
<path d="M29.4043 9.57611C29.6424 10.5219 30.6744 12.5022 32.8979 12.8574" stroke="url(#paint23_linear_971_14927)" stroke-width="0.4" stroke-linecap="round"/>
</g>
<g filter="url(#filter11_f_971_14927)">
<path d="M35.8037 23.0298L37.455 20.4768C37.5433 20.3403 37.6948 20.2579 37.8573 20.2579C38.0507 20.2579 38.2251 20.3741 38.2996 20.5527L39.3321 23.0298H39.322C39.4537 23.2799 39.4598 23.5977 39.2794 23.8668C38.8744 24.4607 38.3616 24.8458 37.5966 24.8458C36.8429 24.8458 36.1974 24.4607 35.8037 23.8668C35.6063 23.5726 35.6345 23.2883 35.8037 23.0298Z" fill="#CF928D"/>
</g>
<g filter="url(#filter12_f_971_14927)">
<path d="M36.1579 22.8175L37.5635 19.8878C37.6405 19.7272 37.8029 19.6251 37.981 19.6251C38.1577 19.6251 38.3189 19.7256 38.3968 19.8842L39.8692 22.8858H39.8591C39.9909 23.1359 39.997 23.4538 39.8165 23.7229C39.4115 24.3168 38.7478 24.7051 37.9828 24.7051C37.229 24.7051 36.554 24.3168 36.1603 23.7229C35.9629 23.4286 35.9887 23.076 36.1579 22.8175Z" fill="#FAC4B1"/>
<path d="M36.1579 22.8175L37.5635 19.8878C37.6405 19.7272 37.8029 19.6251 37.981 19.6251C38.1577 19.6251 38.3189 19.7256 38.3968 19.8842L39.8692 22.8858H39.8591C39.9909 23.1359 39.997 23.4538 39.8165 23.7229C39.4115 24.3168 38.7478 24.7051 37.9828 24.7051C37.229 24.7051 36.554 24.3168 36.1603 23.7229C35.9629 23.4286 35.9887 23.076 36.1579 22.8175Z" fill="url(#paint24_linear_971_14927)"/>
<path d="M36.1579 22.8175L37.5635 19.8878C37.6405 19.7272 37.8029 19.6251 37.981 19.6251C38.1577 19.6251 38.3189 19.7256 38.3968 19.8842L39.8692 22.8858H39.8591C39.9909 23.1359 39.997 23.4538 39.8165 23.7229C39.4115 24.3168 38.7478 24.7051 37.9828 24.7051C37.229 24.7051 36.554 24.3168 36.1603 23.7229C35.9629 23.4286 35.9887 23.076 36.1579 22.8175Z" fill="url(#paint25_linear_971_14927)"/>
<path d="M36.1579 22.8175L37.5635 19.8878C37.6405 19.7272 37.8029 19.6251 37.981 19.6251C38.1577 19.6251 38.3189 19.7256 38.3968 19.8842L39.8692 22.8858H39.8591C39.9909 23.1359 39.997 23.4538 39.8165 23.7229C39.4115 24.3168 38.7478 24.7051 37.9828 24.7051C37.229 24.7051 36.554 24.3168 36.1603 23.7229C35.9629 23.4286 35.9887 23.076 36.1579 22.8175Z" fill="url(#paint26_linear_971_14927)"/>
<path d="M36.1579 22.8175L37.5635 19.8878C37.6405 19.7272 37.8029 19.6251 37.981 19.6251C38.1577 19.6251 38.3189 19.7256 38.3968 19.8842L39.8692 22.8858H39.8591C39.9909 23.1359 39.997 23.4538 39.8165 23.7229C39.4115 24.3168 38.7478 24.7051 37.9828 24.7051C37.229 24.7051 36.554 24.3168 36.1603 23.7229C35.9629 23.4286 35.9887 23.076 36.1579 22.8175Z" fill="url(#paint27_radial_971_14927)"/>
</g>
<path d="M36.1579 22.8175L37.5635 19.8878C37.6405 19.7272 37.8029 19.6251 37.981 19.6251C38.1577 19.6251 38.3189 19.7256 38.3968 19.8842L39.8692 22.8858H39.8591C39.9909 23.1359 39.997 23.4538 39.8165 23.7229C39.4115 24.3168 38.7478 24.7051 37.9828 24.7051C37.229 24.7051 36.554 24.3168 36.1603 23.7229C35.9629 23.4286 35.9887 23.076 36.1579 22.8175Z" fill="url(#paint28_radial_971_14927)"/>
<path d="M43.3911 17.3947C45.0281 17.3947 46.411 18.5233 46.7872 20.0485C46.899 20.4857 46.5635 20.9026 46.1161 20.9026H40.5237C40.1679 20.9026 39.8832 20.5772 39.9543 20.2213C40.2695 18.6148 41.6829 17.3947 43.3911 17.3947Z" fill="white"/>
<path d="M42.8721 18.0759C44.1126 18.0759 45.1091 19.0826 45.1091 20.3129C45.1091 20.5162 45.0786 20.7196 45.0277 20.9026H40.7063C40.6555 20.7094 40.625 20.5162 40.625 20.3129C40.625 19.0826 41.6316 18.0759 42.8721 18.0759Z" fill="url(#paint29_radial_971_14927)"/>
<path d="M41.5898 20.3128C41.5898 19.6011 42.1592 19.0317 42.871 19.0317C43.5828 19.0317 44.1522 19.6011 44.1522 20.3128C44.1522 20.5264 44.1013 20.7297 44.0098 20.9026H41.7424C41.6407 20.7297 41.5898 20.5264 41.5898 20.3128Z" fill="#111111"/>
<g filter="url(#filter13_f_971_14927)">
<path d="M42.7071 18.5488C42.8665 18.762 42.5334 19.0218 42.1546 19.305C41.7758 19.5882 41.4948 19.7875 41.3354 19.5744C41.1761 19.3612 41.3539 18.9588 41.7327 18.6756C42.1115 18.3924 42.5477 18.3357 42.7071 18.5488Z" fill="#C7A7A3"/>
<path d="M42.7071 18.5488C42.8665 18.762 42.5334 19.0218 42.1546 19.305C41.7758 19.5882 41.4948 19.7875 41.3354 19.5744C41.1761 19.3612 41.3539 18.9588 41.7327 18.6756C42.1115 18.3924 42.5477 18.3357 42.7071 18.5488Z" fill="url(#paint30_radial_971_14927)"/>
</g>
<g filter="url(#filter14_f_971_14927)">
<path d="M44.8641 20.0183C44.7815 19.44 44.4431 19.0042 44.2842 18.8585L43.6328 19.5735L43.9267 20.1454L44.8641 20.0183Z" fill="url(#paint31_linear_971_14927)"/>
</g>
<path d="M32.5746 17.4081C30.9439 17.4081 29.5663 18.5324 29.1915 20.0518C29.0801 20.4873 29.4144 20.9026 29.86 20.9026H35.4311C35.7856 20.9026 36.0692 20.5785 35.9983 20.224C35.6843 18.6236 34.2662 17.4081 32.5746 17.4081Z" fill="white"/>
<path d="M33.0917 18.0867C31.8559 18.0867 30.8633 19.0895 30.8633 20.3151C30.8633 20.5177 30.8937 20.7202 30.9443 20.9026H35.2492C35.2998 20.7101 35.3302 20.5177 35.3302 20.3151C35.3201 19.0895 34.3274 18.0867 33.0917 18.0867Z" fill="url(#paint32_radial_971_14927)"/>
<path d="M34.367 20.3151C34.367 19.606 33.7998 19.0388 33.0907 19.0388C32.3817 19.0388 31.8145 19.606 31.8145 20.3151C31.8145 20.5278 31.8651 20.7304 31.9563 20.9026H34.2151C34.3062 20.7304 34.367 20.5278 34.367 20.3151Z" fill="#111111"/>
<g filter="url(#filter15_f_971_14927)">
<path d="M35.1261 20.0533C35.1261 19.3332 34.5405 18.8531 34.3822 18.7081L33.6621 19.4044L34.1053 20.3066L35.1261 20.0533Z" fill="url(#paint33_linear_971_14927)"/>
</g>
<g filter="url(#filter16_f_971_14927)">
<ellipse cx="32.4182" cy="19.0388" rx="0.972818" ry="0.492336" transform="rotate(-27.914 32.4182 19.0388)" fill="#C7A7A3" fill-opacity="0.9"/>
<ellipse cx="32.4182" cy="19.0388" rx="0.972818" ry="0.492336" transform="rotate(-27.914 32.4182 19.0388)" fill="url(#paint34_radial_971_14927)"/>
</g>
<g filter="url(#filter17_f_971_14927)">
<path d="M39.6532 12.3682C36.0154 12.3682 34.0069 8.16048 33.6016 5.86361C38.875 1.55697 45.2161 5.3692 48.8196 8.07623C51.7024 10.2419 50.6067 13.3145 49.8567 14.3692C49.6024 13.4551 48.5667 12.7252 47.4227 12.5411C45.8934 12.295 43.2909 12.3682 39.6532 12.3682Z" fill="url(#paint35_radial_971_14927)"/>
<path d="M39.6532 12.3682C36.0154 12.3682 34.0069 8.16048 33.6016 5.86361C38.875 1.55697 45.2161 5.3692 48.8196 8.07623C51.7024 10.2419 50.6067 13.3145 49.8567 14.3692C49.6024 13.4551 48.5667 12.7252 47.4227 12.5411C45.8934 12.295 43.2909 12.3682 39.6532 12.3682Z" fill="url(#paint36_radial_971_14927)"/>
</g>
<g filter="url(#filter18_f_971_14927)">
<path d="M33.6016 7.33948C33.6543 7.74963 33.9953 8.88987 34.9375 10.1696" stroke="url(#paint37_linear_971_14927)" stroke-width="0.15"/>
</g>
<g filter="url(#filter19_f_971_14927)">
<path d="M45.4849 7.19507H40.8492C40.0588 7.19507 39.418 7.83585 39.418 8.6263C39.418 9.41674 40.058 10.0575 40.8485 10.0575H46.3613C48.7881 10.0575 49.8217 10.7391 50.0352 11.0798C49.2532 7.97202 46.6759 7.19507 45.4849 7.19507Z" fill="#504A4C"/>
</g>
<g filter="url(#filter20_f_971_14927)">
<path d="M50.0352 19.2015V16.2676" stroke="url(#paint38_linear_971_14927)" stroke-width="0.4" stroke-linecap="round"/>
</g>
<g filter="url(#filter21_f_971_14927)">
<path d="M33.9487 12.5419C33.9294 12.2234 33.9487 10.8048 34.2478 9.84937" stroke="url(#paint39_linear_971_14927)" stroke-width="0.4" stroke-linecap="round"/>
</g>
<g filter="url(#filter22_f_971_14927)">
<path d="M33.9473 7.2533C34.2046 8.10899 35.0397 10.0752 36.3213 11.0943" stroke="url(#paint40_linear_971_14927)" stroke-width="0.4" stroke-linecap="round"/>
</g>
<g filter="url(#filter23_i_971_14927)">
<path d="M7.29883 44.0655C9.31812 44.0655 10.9551 42.4285 10.9551 40.4092C10.9551 38.39 9.31812 36.753 7.29883 36.753C5.27954 36.753 3.64258 38.39 3.64258 40.4092C3.64258 42.4285 5.27954 44.0655 7.29883 44.0655Z" fill="url(#paint41_linear_971_14927)"/>
<path d="M7.29883 44.0655C9.31812 44.0655 10.9551 42.4285 10.9551 40.4092C10.9551 38.39 9.31812 36.753 7.29883 36.753C5.27954 36.753 3.64258 38.39 3.64258 40.4092C3.64258 42.4285 5.27954 44.0655 7.29883 44.0655Z" fill="url(#paint42_radial_971_14927)"/>
</g>
<g filter="url(#filter24_i_971_14927)">
<path d="M28.6738 44.0655C30.6931 44.0655 32.3301 42.4285 32.3301 40.4092C32.3301 38.39 30.6931 36.753 28.6738 36.753C26.6545 36.753 25.0176 38.39 25.0176 40.4092C25.0176 42.4285 26.6545 44.0655 28.6738 44.0655Z" fill="url(#paint43_radial_971_14927)"/>
<path d="M28.6738 44.0655C30.6931 44.0655 32.3301 42.4285 32.3301 40.4092C32.3301 38.39 30.6931 36.753 28.6738 36.753C26.6545 36.753 25.0176 38.39 25.0176 40.4092C25.0176 42.4285 26.6545 44.0655 28.6738 44.0655Z" fill="url(#paint44_radial_971_14927)"/>
</g>
<g filter="url(#filter25_f_971_14927)">
<path d="M28.6736 42.6922C29.9344 42.6922 30.9565 41.6701 30.9565 40.4093C30.9565 39.1485 29.9344 38.1263 28.6736 38.1263C27.4127 38.1263 26.3906 39.1485 26.3906 40.4093C26.3906 41.6701 27.4127 42.6922 28.6736 42.6922Z" fill="#F8BFA5"/>
<path d="M28.6736 42.6922C29.9344 42.6922 30.9565 41.6701 30.9565 40.4093C30.9565 39.1485 29.9344 38.1263 28.6736 38.1263C27.4127 38.1263 26.3906 39.1485 26.3906 40.4093C26.3906 41.6701 27.4127 42.6922 28.6736 42.6922Z" fill="url(#paint45_radial_971_14927)"/>
</g>
<g filter="url(#filter26_f_971_14927)">
<path d="M7.29857 42.6922C8.5594 42.6922 9.58151 41.6701 9.58151 40.4093C9.58151 39.1485 8.5594 38.1263 7.29857 38.1263C6.03773 38.1263 5.01562 39.1485 5.01562 40.4093C5.01562 41.6701 6.03773 42.6922 7.29857 42.6922Z" fill="#C88A7B"/>
</g>
<g filter="url(#filter27_i_971_14927)">
<path d="M26.5691 44.313L33.3191 48.8467C33.9378 49.263 33.9828 50.163 33.4091 50.6467L29.8203 53.808C29.0103 54.528 27.7391 54.1905 27.3678 53.178L24.7578 45.8767L26.5691 44.313Z" fill="#262229"/>
<path d="M26.5691 44.313L33.3191 48.8467C33.9378 49.263 33.9828 50.163 33.4091 50.6467L29.8203 53.808C29.0103 54.528 27.7391 54.1905 27.3678 53.178L24.7578 45.8767L26.5691 44.313Z" fill="url(#paint46_linear_971_14927)"/>
<path d="M26.5691 44.313L33.3191 48.8467C33.9378 49.263 33.9828 50.163 33.4091 50.6467L29.8203 53.808C29.0103 54.528 27.7391 54.1905 27.3678 53.178L24.7578 45.8767L26.5691 44.313Z" fill="url(#paint47_radial_971_14927)"/>
<path d="M26.5691 44.313L33.3191 48.8467C33.9378 49.263 33.9828 50.163 33.4091 50.6467L29.8203 53.808C29.0103 54.528 27.7391 54.1905 27.3678 53.178L24.7578 45.8767L26.5691 44.313Z" fill="url(#paint48_radial_971_14927)"/>
<path d="M26.5691 44.313L33.3191 48.8467C33.9378 49.263 33.9828 50.163 33.4091 50.6467L29.8203 53.808C29.0103 54.528 27.7391 54.1905 27.3678 53.178L24.7578 45.8767L26.5691 44.313Z" fill="url(#paint49_radial_971_14927)"/>
</g>
<g filter="url(#filter28_i_971_14927)">
<path d="M9.47995 44.313L2.72995 48.8467C2.1112 49.263 2.0662 50.163 2.63995 50.6467L6.2287 53.808C7.0387 54.528 8.30995 54.1905 8.6812 53.178L11.2912 45.8767L9.47995 44.313Z" fill="#221F26"/>
<path d="M9.47995 44.313L2.72995 48.8467C2.1112 49.263 2.0662 50.163 2.63995 50.6467L6.2287 53.808C7.0387 54.528 8.30995 54.1905 8.6812 53.178L11.2912 45.8767L9.47995 44.313Z" fill="url(#paint50_radial_971_14927)"/>
<path d="M9.47995 44.313L2.72995 48.8467C2.1112 49.263 2.0662 50.163 2.63995 50.6467L6.2287 53.808C7.0387 54.528 8.30995 54.1905 8.6812 53.178L11.2912 45.8767L9.47995 44.313Z" fill="url(#paint51_linear_971_14927)"/>
</g>
<g filter="url(#filter29_i_971_14927)">
<path d="M21.2034 35.0655C17.1523 34.3824 13.7991 32.3871 12.2373 29.2802C11.806 31.8852 10.5992 34.3798 7.37505 35.7687C6.99983 35.9303 6.62303 36.1311 6.56055 36.7899L6.77742 43.1823C7.04649 49.7737 11.9788 54.1905 17.9873 54.1905C23.9846 54.1905 28.9282 49.7737 29.1972 43.1823L29.434 36.203C29.4435 35.9238 29.2469 35.6793 28.97 35.6425C28.0145 35.5156 26.7472 35.4503 25.4189 35.3818C23.9789 35.3075 22.4671 35.2296 21.2034 35.0655Z" fill="url(#paint52_radial_971_14927)"/>
<path d="M21.2034 35.0655C17.1523 34.3824 13.7991 32.3871 12.2373 29.2802C11.806 31.8852 10.5992 34.3798 7.37505 35.7687C6.99983 35.9303 6.62303 36.1311 6.56055 36.7899L6.77742 43.1823C7.04649 49.7737 11.9788 54.1905 17.9873 54.1905C23.9846 54.1905 28.9282 49.7737 29.1972 43.1823L29.434 36.203C29.4435 35.9238 29.2469 35.6793 28.97 35.6425C28.0145 35.5156 26.7472 35.4503 25.4189 35.3818C23.9789 35.3075 22.4671 35.2296 21.2034 35.0655Z" fill="url(#paint53_radial_971_14927)"/>
<path d="M21.2034 35.0655C17.1523 34.3824 13.7991 32.3871 12.2373 29.2802C11.806 31.8852 10.5992 34.3798 7.37505 35.7687C6.99983 35.9303 6.62303 36.1311 6.56055 36.7899L6.77742 43.1823C7.04649 49.7737 11.9788 54.1905 17.9873 54.1905C23.9846 54.1905 28.9282 49.7737 29.1972 43.1823L29.434 36.203C29.4435 35.9238 29.2469 35.6793 28.97 35.6425C28.0145 35.5156 26.7472 35.4503 25.4189 35.3818C23.9789 35.3075 22.4671 35.2296 21.2034 35.0655Z" fill="url(#paint54_radial_971_14927)"/>
</g>
<path d="M21.2034 35.0655C17.1523 34.3824 13.7991 32.3871 12.2373 29.2802C11.806 31.8852 10.5992 34.3798 7.37505 35.7687C6.99983 35.9303 6.62303 36.1311 6.56055 36.7899L6.77742 43.1823C7.04649 49.7737 11.9788 54.1905 17.9873 54.1905C23.9846 54.1905 28.9282 49.7737 29.1972 43.1823L29.434 36.203C29.4435 35.9238 29.2469 35.6793 28.97 35.6425C28.0145 35.5156 26.7472 35.4503 25.4189 35.3818C23.9789 35.3075 22.4671 35.2296 21.2034 35.0655Z" fill="url(#paint55_radial_971_14927)"/>
<path d="M21.2034 35.0655C17.1523 34.3824 13.7991 32.3871 12.2373 29.2802C11.806 31.8852 10.5992 34.3798 7.37505 35.7687C6.99983 35.9303 6.62303 36.1311 6.56055 36.7899L6.77742 43.1823C7.04649 49.7737 11.9788 54.1905 17.9873 54.1905C23.9846 54.1905 28.9282 49.7737 29.1972 43.1823L29.434 36.203C29.4435 35.9238 29.2469 35.6793 28.97 35.6425C28.0145 35.5156 26.7472 35.4503 25.4189 35.3818C23.9789 35.3075 22.4671 35.2296 21.2034 35.0655Z" fill="url(#paint56_radial_971_14927)"/>
<path d="M21.2034 35.0655C17.1523 34.3824 13.7991 32.3871 12.2373 29.2802C11.806 31.8852 10.5992 34.3798 7.37505 35.7687C6.99983 35.9303 6.62303 36.1311 6.56055 36.7899L6.77742 43.1823C7.04649 49.7737 11.9788 54.1905 17.9873 54.1905C23.9846 54.1905 28.9282 49.7737 29.1972 43.1823L29.434 36.203C29.4435 35.9238 29.2469 35.6793 28.97 35.6425C28.0145 35.5156 26.7472 35.4503 25.4189 35.3818C23.9789 35.3075 22.4671 35.2296 21.2034 35.0655Z" fill="url(#paint57_radial_971_14927)"/>
<path d="M14.6332 45.8665C14.251 45.6619 13.8429 46.0976 14.0848 46.4687L14.1267 46.4414L14.6332 45.8665Z" fill="#89014E" stroke="url(#paint58_linear_971_14927)" stroke-width="0.1"/>
<g filter="url(#filter30_i_971_14927)">
<path d="M10.7988 36.2925C11.4626 36.0562 12.3397 35.9374 13.5322 36.0499" stroke="#110A18" stroke-width="1.1" stroke-miterlimit="10" stroke-linecap="round" stroke-linejoin="round"/>
</g>
<g filter="url(#filter31_f_971_14927)">
<path d="M10.7988 36.2925C11.4626 36.0562 12.3397 35.9374 13.5322 36.0499" stroke="url(#paint59_linear_971_14927)" stroke-width="0.5" stroke-miterlimit="10" stroke-linecap="round" stroke-linejoin="round"/>
</g>
<g filter="url(#filter32_i_971_14927)">
<path d="M25.1752 36.3138C24.5115 36.0776 23.589 35.9088 22.3965 36.0213" stroke="#110A18" stroke-width="1.1" stroke-miterlimit="10" stroke-linecap="round" stroke-linejoin="round"/>
</g>
<g filter="url(#filter33_f_971_14927)">
<path d="M25.1752 36.3138C24.5115 36.0776 23.589 35.9088 22.3965 36.0213" stroke="url(#paint60_linear_971_14927)" stroke-width="0.5" stroke-miterlimit="10" stroke-linecap="round" stroke-linejoin="round"/>
</g>
<g filter="url(#filter34_i_971_14927)">
<path d="M4.51953 32.883C4.51953 28.4955 8.07453 24.9405 12.462 24.9405V26.0317C12.462 29.6092 11.9452 33.7999 7.37488 35.7686C6.99337 35.933 6.61023 36.1378 6.5575 36.8233C5.88074 36.9815 5.10574 37.3598 4.53904 38.0118C4.52608 37.8293 4.51953 37.6458 4.51953 37.4617V32.883Z" fill="url(#paint61_radial_971_14927)"/>
</g>
<path d="M4.51953 32.883C4.51953 28.4955 8.07453 24.9405 12.462 24.9405V26.0317C12.462 29.6092 11.9452 33.7999 7.37488 35.7686C6.99337 35.933 6.61023 36.1378 6.5575 36.8233C5.88074 36.9815 5.10574 37.3598 4.53904 38.0118C4.52608 37.8293 4.51953 37.6458 4.51953 37.4617V32.883Z" fill="url(#paint62_radial_971_14927)"/>
<g filter="url(#filter35_f_971_14927)">
<path d="M19.4728 44.1328C19.5224 44.3487 19.4823 44.5878 19.3251 44.7862C18.9077 45.319 18.2394 45.6361 17.5257 45.5795C16.8119 45.5229 16.2019 45.1046 15.863 44.5118C15.7001 44.2218 15.7479 43.8942 15.9224 43.6625L17.3921 40.9312C17.4947 40.7406 17.7002 40.6286 17.916 40.6457C18.1318 40.6628 18.3172 40.8058 18.3884 41.0102L19.4386 44.0218C19.4456 44.0398 19.4519 44.058 19.4576 44.0764L19.4774 44.1331L19.4728 44.1328Z" fill="url(#paint63_linear_971_14927)"/>
</g>
<g filter="url(#filter36_f_971_14927)">
<path d="M19.9152 43.5103C19.9852 43.7327 19.963 43.987 19.8146 44.2083C19.4208 44.8022 18.7458 45.1905 17.9921 45.1905C17.2383 45.1905 16.5633 44.8022 16.1583 44.2083C15.9633 43.9175 15.9862 43.5697 16.1501 43.312L17.4653 40.3235C17.5571 40.1149 17.7635 39.9802 17.9914 39.9802C18.2193 39.9802 18.4257 40.1149 18.5175 40.3235L19.87 43.3967C19.8789 43.415 19.8871 43.4335 19.8946 43.4524L19.92 43.5103H19.9152Z" fill="#ECC1AC"/>
<path d="M19.9152 43.5103C19.9852 43.7327 19.963 43.987 19.8146 44.2083C19.4208 44.8022 18.7458 45.1905 17.9921 45.1905C17.2383 45.1905 16.5633 44.8022 16.1583 44.2083C15.9633 43.9175 15.9862 43.5697 16.1501 43.312L17.4653 40.3235C17.5571 40.1149 17.7635 39.9802 17.9914 39.9802C18.2193 39.9802 18.4257 40.1149 18.5175 40.3235L19.87 43.3967C19.8789 43.415 19.8871 43.4335 19.8946 43.4524L19.92 43.5103H19.9152Z" fill="url(#paint64_radial_971_14927)"/>
<path d="M19.9152 43.5103C19.9852 43.7327 19.963 43.987 19.8146 44.2083C19.4208 44.8022 18.7458 45.1905 17.9921 45.1905C17.2383 45.1905 16.5633 44.8022 16.1583 44.2083C15.9633 43.9175 15.9862 43.5697 16.1501 43.312L17.4653 40.3235C17.5571 40.1149 17.7635 39.9802 17.9914 39.9802C18.2193 39.9802 18.4257 40.1149 18.5175 40.3235L19.87 43.3967C19.8789 43.415 19.8871 43.4335 19.8946 43.4524L19.92 43.5103H19.9152Z" fill="url(#paint65_radial_971_14927)"/>
<path d="M19.9152 43.5103C19.9852 43.7327 19.963 43.987 19.8146 44.2083C19.4208 44.8022 18.7458 45.1905 17.9921 45.1905C17.2383 45.1905 16.5633 44.8022 16.1583 44.2083C15.9633 43.9175 15.9862 43.5697 16.1501 43.312L17.4653 40.3235C17.5571 40.1149 17.7635 39.9802 17.9914 39.9802C18.2193 39.9802 18.4257 40.1149 18.5175 40.3235L19.87 43.3967C19.8789 43.415 19.8871 43.4335 19.8946 43.4524L19.92 43.5103H19.9152Z" fill="url(#paint66_linear_971_14927)"/>
<path d="M19.9152 43.5103C19.9852 43.7327 19.963 43.987 19.8146 44.2083C19.4208 44.8022 18.7458 45.1905 17.9921 45.1905C17.2383 45.1905 16.5633 44.8022 16.1583 44.2083C15.9633 43.9175 15.9862 43.5697 16.1501 43.312L17.4653 40.3235C17.5571 40.1149 17.7635 39.9802 17.9914 39.9802C18.2193 39.9802 18.4257 40.1149 18.5175 40.3235L19.87 43.3967C19.8789 43.415 19.8871 43.4335 19.8946 43.4524L19.92 43.5103H19.9152Z" fill="url(#paint67_linear_971_14927)"/>
</g>
<path d="M19.9152 43.5103C19.9852 43.7327 19.963 43.987 19.8146 44.2083C19.4208 44.8022 18.7458 45.1905 17.9921 45.1905C17.2383 45.1905 16.5633 44.8022 16.1583 44.2083C15.9633 43.9175 15.9862 43.5697 16.1501 43.312L17.4653 40.3235C17.5571 40.1149 17.7635 39.9802 17.9914 39.9802C18.2193 39.9802 18.4257 40.1149 18.5175 40.3235L19.87 43.3967C19.8789 43.415 19.8871 43.4335 19.8946 43.4524L19.92 43.5103H19.9152Z" fill="url(#paint68_radial_971_14927)"/>
<path d="M19.9152 43.5103C19.9852 43.7327 19.963 43.987 19.8146 44.2083C19.4208 44.8022 18.7458 45.1905 17.9921 45.1905C17.2383 45.1905 16.5633 44.8022 16.1583 44.2083C15.9633 43.9175 15.9862 43.5697 16.1501 43.312L17.4653 40.3235C17.5571 40.1149 17.7635 39.9802 17.9914 39.9802C18.2193 39.9802 18.4257 40.1149 18.5175 40.3235L19.87 43.3967C19.8789 43.415 19.8871 43.4335 19.8946 43.4524L19.92 43.5103H19.9152Z" fill="url(#paint69_linear_971_14927)"/>
<g filter="url(#filter37_i_971_14927)">
<path d="M21.2023 35.0655C15.5727 34.1163 11.291 30.633 11.291 25.1542C11.291 23.793 12.3935 22.6905 13.7435 22.6905H20.2798C26.4898 22.6905 31.5298 27.7305 31.5298 33.9405V38.1263C31.0063 37.4723 30.2629 37.002 29.4117 36.8275L29.4347 36.1489C29.4431 35.9008 29.2685 35.6835 29.0225 35.6498C28.0611 35.5181 26.7711 35.4516 25.4178 35.3818C23.9777 35.3075 22.466 35.2296 21.2023 35.0655Z" fill="#32272A"/>
<path d="M21.2023 35.0655C15.5727 34.1163 11.291 30.633 11.291 25.1542C11.291 23.793 12.3935 22.6905 13.7435 22.6905H20.2798C26.4898 22.6905 31.5298 27.7305 31.5298 33.9405V38.1263C31.0063 37.4723 30.2629 37.002 29.4117 36.8275L29.4347 36.1489C29.4431 35.9008 29.2685 35.6835 29.0225 35.6498C28.0611 35.5181 26.7711 35.4516 25.4178 35.3818C23.9777 35.3075 22.466 35.2296 21.2023 35.0655Z" fill="url(#paint70_radial_971_14927)"/>
<path d="M21.2023 35.0655C15.5727 34.1163 11.291 30.633 11.291 25.1542C11.291 23.793 12.3935 22.6905 13.7435 22.6905H20.2798C26.4898 22.6905 31.5298 27.7305 31.5298 33.9405V38.1263C31.0063 37.4723 30.2629 37.002 29.4117 36.8275L29.4347 36.1489C29.4431 35.9008 29.2685 35.6835 29.0225 35.6498C28.0611 35.5181 26.7711 35.4516 25.4178 35.3818C23.9777 35.3075 22.466 35.2296 21.2023 35.0655Z" fill="url(#paint71_radial_971_14927)"/>
</g>
<path d="M23.3936 38.5624C25.0272 38.5624 26.4071 39.6887 26.7825 41.2107C26.8941 41.647 26.5593 42.063 26.1129 42.063H20.5323C20.1772 42.063 19.8931 41.7383 19.9641 41.3832C20.2786 39.78 21.689 38.5624 23.3936 38.5624Z" fill="white"/>
<path d="M22.8771 39.2423C24.115 39.2423 25.1094 40.2468 25.1094 41.4745C25.1094 41.6775 25.0789 41.8804 25.0282 42.063H20.7159C20.6652 41.8703 20.6348 41.6775 20.6348 41.4745C20.6348 40.2468 21.6393 39.2423 22.8771 39.2423Z" fill="url(#paint72_radial_971_14927)"/>
<path d="M21.5977 41.4745C21.5977 40.7642 22.1659 40.196 22.8761 40.196C23.5864 40.196 24.1546 40.7642 24.1546 41.4745C24.1546 41.6876 24.1038 41.8905 24.0125 42.063H21.7499C21.6484 41.8905 21.5977 41.6876 21.5977 41.4745Z" fill="#111111"/>
<g filter="url(#filter38_f_971_14927)">
<path d="M22.7134 39.7142C22.8724 39.9269 22.54 40.1862 22.162 40.4688C21.784 40.7514 21.5036 40.9503 21.3446 40.7376C21.1856 40.5249 21.363 40.1233 21.741 39.8407C22.119 39.5581 22.5543 39.5015 22.7134 39.7142Z" fill="#C7A7A3"/>
<path d="M22.7134 39.7142C22.8724 39.9269 22.54 40.1862 22.162 40.4688C21.784 40.7514 21.5036 40.9503 21.3446 40.7376C21.1856 40.5249 21.363 40.1233 21.741 39.8407C22.119 39.5581 22.5543 39.5015 22.7134 39.7142Z" fill="url(#paint73_radial_971_14927)"/>
</g>
<g filter="url(#filter39_f_971_14927)">
<path d="M24.8654 41.1806C24.783 40.6035 24.4453 40.1686 24.2867 40.0233L23.6367 40.7367L23.93 41.3074L24.8654 41.1806Z" fill="url(#paint74_linear_971_14927)"/>
</g>
<path d="M12.6151 38.5867C10.9846 38.5867 9.60724 39.7109 9.23253 41.23C9.12113 41.6654 9.45533 42.0807 9.90094 42.0807H15.471C15.8254 42.0807 16.109 41.7566 16.0381 41.4021C15.7242 39.802 14.3063 38.5867 12.6151 38.5867Z" fill="white"/>
<path d="M13.1323 39.2653C11.8968 39.2653 10.9043 40.2679 10.9043 41.4933C10.9043 41.6958 10.9347 41.8984 10.9853 42.0807H15.2894C15.3401 41.8882 15.3705 41.6958 15.3705 41.4933C15.3603 40.2679 14.3679 39.2653 13.1323 39.2653Z" fill="url(#paint75_radial_971_14927)"/>
<path d="M14.4076 41.4933C14.4076 40.7844 13.8404 40.2172 13.1315 40.2172C12.4226 40.2172 11.8555 40.7844 11.8555 41.4933C11.8555 41.7059 11.9061 41.9085 11.9973 42.0807H14.2557C14.3468 41.9085 14.4076 41.7059 14.4076 41.4933Z" fill="#111111"/>
<g filter="url(#filter40_f_971_14927)">
<path d="M15.1668 41.2316C15.1668 40.5116 14.5814 40.0316 14.4231 39.8865L13.7031 40.5828L14.1462 41.4848L15.1668 41.2316Z" fill="url(#paint76_linear_971_14927)"/>
</g>
<g filter="url(#filter41_f_971_14927)">
<ellipse cx="12.4591" cy="40.2172" rx="0.972649" ry="0.49225" transform="rotate(-27.914 12.4591 40.2172)" fill="#C7A7A3" fill-opacity="0.9"/>
<ellipse cx="12.4591" cy="40.2172" rx="0.972649" ry="0.49225" transform="rotate(-27.914 12.4591 40.2172)" fill="url(#paint77_radial_971_14927)"/>
</g>
<g filter="url(#filter42_f_971_14927)">
<path d="M30.3229 34.2934C18.1237 35.2303 13.0898 29.3312 13.0898 23.6749H20.0703C28.2724 23.6749 30.3229 30.7539 30.3229 34.2934Z" fill="url(#paint78_radial_971_14927)"/>
</g>
<g filter="url(#filter43_f_971_14927)">
<path d="M10.7227 26.0117C9.23438 26.4956 6.13828 28.4598 5.66016 32.4453" stroke="url(#paint79_linear_971_14927)" stroke-width="0.4" stroke-linecap="round"/>
</g>
<defs>
<filter id="filter0_i_971_14927" x="23.3633" y="16.2676" width="7.5125" height="7.3125" filterUnits="userSpaceOnUse" color-interpolation-filters="sRGB">
<feFlood flood-opacity="0" result="BackgroundImageFix"/>
<feBlend mode="normal" in="SourceGraphic" in2="BackgroundImageFix" result="shape"/>
<feColorMatrix in="SourceAlpha" type="matrix" values="0 0 0 0 0 0 0 0 0 0 0 0 0 0 0 0 0 0 127 0" result="hardAlpha"/>
<feOffset dx="0.2"/>
<feGaussianBlur stdDeviation="0.15"/>
<feComposite in2="hardAlpha" operator="arithmetic" k2="-1" k3="1"/>
<feColorMatrix type="matrix" values="0 0 0 0 0.917647 0 0 0 0 0.694118 0 0 0 0 0.607843 0 0 0 1 0"/>
<feBlend mode="normal" in2="shape" result="effect1_innerShadow_971_14927"/>
</filter>
<filter id="filter1_f_971_14927" x="24.1348" y="17.0387" width="5.76953" height="5.77039" filterUnits="userSpaceOnUse" color-interpolation-filters="sRGB">
<feFlood flood-opacity="0" result="BackgroundImageFix"/>
<feBlend mode="normal" in="SourceGraphic" in2="BackgroundImageFix" result="shape"/>
<feGaussianBlur stdDeviation="0.25" result="effect1_foregroundBlur_971_14927"/>
</filter>
<filter id="filter2_i_971_14927" x="45.3242" y="16.0176" width="7.5625" height="7.5625" filterUnits="userSpaceOnUse" color-interpolation-filters="sRGB">
<feFlood flood-opacity="0" result="BackgroundImageFix"/>
<feBlend mode="normal" in="SourceGraphic" in2="BackgroundImageFix" result="shape"/>
<feColorMatrix in="SourceAlpha" type="matrix" values="0 0 0 0 0 0 0 0 0 0 0 0 0 0 0 0 0 0 127 0" result="hardAlpha"/>
<feOffset dx="0.25" dy="-0.25"/>
<feGaussianBlur stdDeviation="0.25"/>
<feComposite in2="hardAlpha" operator="arithmetic" k2="-1" k3="1"/>
<feColorMatrix type="matrix" values="0 0 0 0 0.843137 0 0 0 0 0.623529 0 0 0 0 0.580392 0 0 0 1 0"/>
<feBlend mode="normal" in2="shape" result="effect1_innerShadow_971_14927"/>
</filter>
<filter id="filter3_f_971_14927" x="46.0957" y="17.0387" width="5.76953" height="5.77039" filterUnits="userSpaceOnUse" color-interpolation-filters="sRGB">
<feFlood flood-opacity="0" result="BackgroundImageFix"/>
<feBlend mode="normal" in="SourceGraphic" in2="BackgroundImageFix" result="shape"/>
<feGaussianBlur stdDeviation="0.25" result="effect1_foregroundBlur_971_14927"/>
</filter>
<filter id="filter4_i_971_14927" x="26.457" y="4.52362" width="24.0625" height="29.25" filterUnits="userSpaceOnUse" color-interpolation-filters="sRGB">
<feFlood flood-opacity="0" result="BackgroundImageFix"/>
<feBlend mode="normal" in="SourceGraphic" in2="BackgroundImageFix" result="shape"/>
<feColorMatrix in="SourceAlpha" type="matrix" values="0 0 0 0 0 0 0 0 0 0 0 0 0 0 0 0 0 0 127 0" result="hardAlpha"/>
<feOffset dx="1"/>
<feGaussianBlur stdDeviation="1.25"/>
<feComposite in2="hardAlpha" operator="arithmetic" k2="-1" k3="1"/>
<feColorMatrix type="matrix" values="0 0 0 0 0.913725 0 0 0 0 0.686275 0 0 0 0 0.592157 0 0 0 1 0"/>
<feBlend mode="normal" in2="shape" result="effect1_innerShadow_971_14927"/>
</filter>
<filter id="filter5_i_971_14927" x="30.1094" y="14.7807" width="3.9793" height="1.52831" filterUnits="userSpaceOnUse" color-interpolation-filters="sRGB">
<feFlood flood-opacity="0" result="BackgroundImageFix"/>
<feBlend mode="normal" in="SourceGraphic" in2="BackgroundImageFix" result="shape"/>
<feColorMatrix in="SourceAlpha" type="matrix" values="0 0 0 0 0 0 0 0 0 0 0 0 0 0 0 0 0 0 127 0" result="hardAlpha"/>
<feOffset dx="0.2" dy="-0.2"/>
<feGaussianBlur stdDeviation="0.2"/>
<feComposite in2="hardAlpha" operator="arithmetic" k2="-1" k3="1"/>
<feColorMatrix type="matrix" values="0 0 0 0 0.0352941 0 0 0 0 0.027451 0 0 0 0 0.0313726 0 0 0 1 0"/>
<feBlend mode="normal" in2="shape" result="effect1_innerShadow_971_14927"/>
</filter>
<filter id="filter6_f_971_14927" x="30.159" y="15.0306" width="3.68008" height="1.22823" filterUnits="userSpaceOnUse" color-interpolation-filters="sRGB">
<feFlood flood-opacity="0" result="BackgroundImageFix"/>
<feBlend mode="normal" in="SourceGraphic" in2="BackgroundImageFix" result="shape"/>
<feGaussianBlur stdDeviation="0.15" result="effect1_foregroundBlur_971_14927"/>
</filter>
<filter id="filter7_i_971_14927" x="41.4707" y="14.7807" width="3.9793" height="1.52831" filterUnits="userSpaceOnUse" color-interpolation-filters="sRGB">
<feFlood flood-opacity="0" result="BackgroundImageFix"/>
<feBlend mode="normal" in="SourceGraphic" in2="BackgroundImageFix" result="shape"/>
<feColorMatrix in="SourceAlpha" type="matrix" values="0 0 0 0 0 0 0 0 0 0 0 0 0 0 0 0 0 0 127 0" result="hardAlpha"/>
<feOffset dx="0.2" dy="-0.2"/>
<feGaussianBlur stdDeviation="0.2"/>
<feComposite in2="hardAlpha" operator="arithmetic" k2="-1" k3="1"/>
<feColorMatrix type="matrix" values="0 0 0 0 0.0352941 0 0 0 0 0.027451 0 0 0 0 0.0313726 0 0 0 1 0"/>
<feBlend mode="normal" in2="shape" result="effect1_innerShadow_971_14927"/>
</filter>
<filter id="filter8_f_971_14927" x="41.5203" y="15.0306" width="3.68008" height="1.22823" filterUnits="userSpaceOnUse" color-interpolation-filters="sRGB">
<feFlood flood-opacity="0" result="BackgroundImageFix"/>
<feBlend mode="normal" in="SourceGraphic" in2="BackgroundImageFix" result="shape"/>
<feGaussianBlur stdDeviation="0.15" result="effect1_foregroundBlur_971_14927"/>
</filter>
<filter id="filter9_i_971_14927" x="25.2617" y="1.22638" width="27.1113" height="18.9808" filterUnits="userSpaceOnUse" color-interpolation-filters="sRGB">
<feFlood flood-opacity="0" result="BackgroundImageFix"/>
<feBlend mode="normal" in="SourceGraphic" in2="BackgroundImageFix" result="shape"/>
<feColorMatrix in="SourceAlpha" type="matrix" values="0 0 0 0 0 0 0 0 0 0 0 0 0 0 0 0 0 0 127 0" result="hardAlpha"/>
<feOffset dy="-1"/>
<feGaussianBlur stdDeviation="0.5"/>
<feComposite in2="hardAlpha" operator="arithmetic" k2="-1" k3="1"/>
<feColorMatrix type="matrix" values="0 0 0 0 0.105882 0 0 0 0 0.0588235 0 0 0 0 0.0745098 0 0 0 1 0"/>
<feBlend mode="normal" in2="shape" result="effect1_innerShadow_971_14927"/>
</filter>
<filter id="filter10_f_971_14927" x="29.0051" y="9.17604" width="4.29258" height="4.08134" filterUnits="userSpaceOnUse" color-interpolation-filters="sRGB">
<feFlood flood-opacity="0" result="BackgroundImageFix"/>
<feBlend mode="normal" in="SourceGraphic" in2="BackgroundImageFix" result="shape"/>
<feGaussianBlur stdDeviation="0.1" result="effect1_foregroundBlur_971_14927"/>
</filter>
<filter id="filter11_f_971_14927" x="35.166" y="19.7579" width="4.75195" height="5.58789" filterUnits="userSpaceOnUse" color-interpolation-filters="sRGB">
<feFlood flood-opacity="0" result="BackgroundImageFix"/>
<feBlend mode="normal" in="SourceGraphic" in2="BackgroundImageFix" result="shape"/>
<feGaussianBlur stdDeviation="0.25" result="effect1_foregroundBlur_971_14927"/>
</filter>
<filter id="filter12_f_971_14927" x="35.7715" y="19.3751" width="4.43359" height="5.58002" filterUnits="userSpaceOnUse" color-interpolation-filters="sRGB">
<feFlood flood-opacity="0" result="BackgroundImageFix"/>
<feBlend mode="normal" in="SourceGraphic" in2="BackgroundImageFix" result="shape"/>
<feGaussianBlur stdDeviation="0.125" result="effect1_foregroundBlur_971_14927"/>
</filter>
<filter id="filter13_f_971_14927" x="41.1773" y="18.3198" width="1.6707" height="1.44396" filterUnits="userSpaceOnUse" color-interpolation-filters="sRGB">
<feFlood flood-opacity="0" result="BackgroundImageFix"/>
<feBlend mode="normal" in="SourceGraphic" in2="BackgroundImageFix" result="shape"/>
<feGaussianBlur stdDeviation="0.05" result="effect1_foregroundBlur_971_14927"/>
</filter>
<filter id="filter14_f_971_14927" x="43.4328" y="18.6585" width="1.63047" height="1.68687" filterUnits="userSpaceOnUse" color-interpolation-filters="sRGB">
<feFlood flood-opacity="0" result="BackgroundImageFix"/>
<feBlend mode="normal" in="SourceGraphic" in2="BackgroundImageFix" result="shape"/>
<feGaussianBlur stdDeviation="0.1" result="effect1_foregroundBlur_971_14927"/>
</filter>
<filter id="filter15_f_971_14927" x="33.4621" y="18.5081" width="1.86484" height="1.99851" filterUnits="userSpaceOnUse" color-interpolation-filters="sRGB">
<feFlood flood-opacity="0" result="BackgroundImageFix"/>
<feBlend mode="normal" in="SourceGraphic" in2="BackgroundImageFix" result="shape"/>
<feGaussianBlur stdDeviation="0.1" result="effect1_foregroundBlur_971_14927"/>
</filter>
<filter id="filter16_f_971_14927" x="31.4273" y="18.309" width="1.98125" height="1.45964" filterUnits="userSpaceOnUse" color-interpolation-filters="sRGB">
<feFlood flood-opacity="0" result="BackgroundImageFix"/>
<feBlend mode="normal" in="SourceGraphic" in2="BackgroundImageFix" result="shape"/>
<feGaussianBlur stdDeviation="0.05" result="effect1_foregroundBlur_971_14927"/>
</filter>
<filter id="filter17_f_971_14927" x="32.6016" y="2.92065" width="19.0996" height="12.4485" filterUnits="userSpaceOnUse" color-interpolation-filters="sRGB">
<feFlood flood-opacity="0" result="BackgroundImageFix"/>
<feBlend mode="normal" in="SourceGraphic" in2="BackgroundImageFix" result="shape"/>
<feGaussianBlur stdDeviation="0.5" result="effect1_foregroundBlur_971_14927"/>
</filter>
<filter id="filter18_f_971_14927" x="33.2773" y="7.0799" width="1.9707" height="3.38416" filterUnits="userSpaceOnUse" color-interpolation-filters="sRGB">
<feFlood flood-opacity="0" result="BackgroundImageFix"/>
<feBlend mode="normal" in="SourceGraphic" in2="BackgroundImageFix" result="shape"/>
<feGaussianBlur stdDeviation="0.125" result="effect1_foregroundBlur_971_14927"/>
</filter>
<filter id="filter19_f_971_14927" x="37.918" y="5.69507" width="13.6172" height="6.88477" filterUnits="userSpaceOnUse" color-interpolation-filters="sRGB">
<feFlood flood-opacity="0" result="BackgroundImageFix"/>
<feBlend mode="normal" in="SourceGraphic" in2="BackgroundImageFix" result="shape"/>
<feGaussianBlur stdDeviation="0.75" result="effect1_foregroundBlur_971_14927"/>
</filter>
<filter id="filter20_f_971_14927" x="49.4359" y="15.6676" width="1.19844" height="4.13386" filterUnits="userSpaceOnUse" color-interpolation-filters="sRGB">
<feFlood flood-opacity="0" result="BackgroundImageFix"/>
<feBlend mode="normal" in="SourceGraphic" in2="BackgroundImageFix" result="shape"/>
<feGaussianBlur stdDeviation="0.2" result="effect1_foregroundBlur_971_14927"/>
</filter>
<filter id="filter21_f_971_14927" x="33.5441" y="9.44929" width="1.10313" height="3.49265" filterUnits="userSpaceOnUse" color-interpolation-filters="sRGB">
<feFlood flood-opacity="0" result="BackgroundImageFix"/>
<feBlend mode="normal" in="SourceGraphic" in2="BackgroundImageFix" result="shape"/>
<feGaussianBlur stdDeviation="0.1" result="effect1_foregroundBlur_971_14927"/>
</filter>
<filter id="filter22_f_971_14927" x="33.548" y="6.85322" width="3.17344" height="4.64109" filterUnits="userSpaceOnUse" color-interpolation-filters="sRGB">
<feFlood flood-opacity="0" result="BackgroundImageFix"/>
<feBlend mode="normal" in="SourceGraphic" in2="BackgroundImageFix" result="shape"/>
<feGaussianBlur stdDeviation="0.1" result="effect1_foregroundBlur_971_14927"/>
</filter>
<filter id="filter23_i_971_14927" x="3.64258" y="36.353" width="7.3125" height="7.7125" filterUnits="userSpaceOnUse" color-interpolation-filters="sRGB">
<feFlood flood-opacity="0" result="BackgroundImageFix"/>
<feBlend mode="normal" in="SourceGraphic" in2="BackgroundImageFix" result="shape"/>
<feColorMatrix in="SourceAlpha" type="matrix" values="0 0 0 0 0 0 0 0 0 0 0 0 0 0 0 0 0 0 127 0" result="hardAlpha"/>
<feOffset dy="-0.4"/>
<feGaussianBlur stdDeviation="0.2"/>
<feComposite in2="hardAlpha" operator="arithmetic" k2="-1" k3="1"/>
<feColorMatrix type="matrix" values="0 0 0 0 0.776471 0 0 0 0 0.52549 0 0 0 0 0.458824 0 0 0 1 0"/>
<feBlend mode="normal" in2="shape" result="effect1_innerShadow_971_14927"/>
</filter>
<filter id="filter24_i_971_14927" x="25.0176" y="36.503" width="7.5125" height="7.5625" filterUnits="userSpaceOnUse" color-interpolation-filters="sRGB">
<feFlood flood-opacity="0" result="BackgroundImageFix"/>
<feBlend mode="normal" in="SourceGraphic" in2="BackgroundImageFix" result="shape"/>
<feColorMatrix in="SourceAlpha" type="matrix" values="0 0 0 0 0 0 0 0 0 0 0 0 0 0 0 0 0 0 127 0" result="hardAlpha"/>
<feOffset dx="0.2" dy="-0.25"/>
<feGaussianBlur stdDeviation="0.25"/>
<feComposite in2="hardAlpha" operator="arithmetic" k2="-1" k3="1"/>
<feColorMatrix type="matrix" values="0 0 0 0 0.831373 0 0 0 0 0.619608 0 0 0 0 0.537255 0 0 0 1 0"/>
<feBlend mode="normal" in2="shape" result="effect1_innerShadow_971_14927"/>
</filter>
<filter id="filter25_f_971_14927" x="25.8906" y="37.6263" width="5.56641" height="5.56586" filterUnits="userSpaceOnUse" color-interpolation-filters="sRGB">
<feFlood flood-opacity="0" result="BackgroundImageFix"/>
<feBlend mode="normal" in="SourceGraphic" in2="BackgroundImageFix" result="shape"/>
<feGaussianBlur stdDeviation="0.25" result="effect1_foregroundBlur_971_14927"/>
</filter>
<filter id="filter26_f_971_14927" x="4.51562" y="37.6263" width="5.56641" height="5.56586" filterUnits="userSpaceOnUse" color-interpolation-filters="sRGB">
<feFlood flood-opacity="0" result="BackgroundImageFix"/>
<feBlend mode="normal" in="SourceGraphic" in2="BackgroundImageFix" result="shape"/>
<feGaussianBlur stdDeviation="0.25" result="effect1_foregroundBlur_971_14927"/>
</filter>
<filter id="filter27_i_971_14927" x="24.7578" y="43.513" width="9.70469" height="10.6793" filterUnits="userSpaceOnUse" color-interpolation-filters="sRGB">
<feFlood flood-opacity="0" result="BackgroundImageFix"/>
<feBlend mode="normal" in="SourceGraphic" in2="BackgroundImageFix" result="shape"/>
<feColorMatrix in="SourceAlpha" type="matrix" values="0 0 0 0 0 0 0 0 0 0 0 0 0 0 0 0 0 0 127 0" result="hardAlpha"/>
<feOffset dx="0.65" dy="-0.8"/>
<feGaussianBlur stdDeviation="0.75"/>
<feComposite in2="hardAlpha" operator="arithmetic" k2="-1" k3="1"/>
<feColorMatrix type="matrix" values="0 0 0 0 0.113725 0 0 0 0 0.0666667 0 0 0 0 0.152941 0 0 0 1 0"/>
<feBlend mode="normal" in2="shape" result="effect1_innerShadow_971_14927"/>
</filter>
<filter id="filter28_i_971_14927" x="1.98633" y="43.563" width="9.30469" height="10.6293" filterUnits="userSpaceOnUse" color-interpolation-filters="sRGB">
<feFlood flood-opacity="0" result="BackgroundImageFix"/>
<feBlend mode="normal" in="SourceGraphic" in2="BackgroundImageFix" result="shape"/>
<feColorMatrix in="SourceAlpha" type="matrix" values="0 0 0 0 0 0 0 0 0 0 0 0 0 0 0 0 0 0 127 0" result="hardAlpha"/>
<feOffset dx="-0.25" dy="-0.75"/>
<feGaussianBlur stdDeviation="0.5"/>
<feComposite in2="hardAlpha" operator="arithmetic" k2="-1" k3="1"/>
<feColorMatrix type="matrix" values="0 0 0 0 0.0941176 0 0 0 0 0.054902 0 0 0 0 0.12549 0 0 0 1 0"/>
<feBlend mode="normal" in2="shape" result="effect1_innerShadow_971_14927"/>
</filter>
<filter id="filter29_i_971_14927" x="6.56055" y="29.2802" width="22.873" height="25.3103" filterUnits="userSpaceOnUse" color-interpolation-filters="sRGB">
<feFlood flood-opacity="0" result="BackgroundImageFix"/>
<feBlend mode="normal" in="SourceGraphic" in2="BackgroundImageFix" result="shape"/>
<feColorMatrix in="SourceAlpha" type="matrix" values="0 0 0 0 0 0 0 0 0 0 0 0 0 0 0 0 0 0 127 0" result="hardAlpha"/>
<feOffset dy="0.4"/>
<feGaussianBlur stdDeviation="0.3"/>
<feComposite in2="hardAlpha" operator="arithmetic" k2="-1" k3="1"/>
<feColorMatrix type="matrix" values="0 0 0 0 0.772549 0 0 0 0 0.552941 0 0 0 0 0.509804 0 0 0 1 0"/>
<feBlend mode="normal" in2="shape" result="effect1_innerShadow_971_14927"/>
</filter>
<filter id="filter30_i_971_14927" x="10.248" y="35.2571" width="4.03398" height="1.5855" filterUnits="userSpaceOnUse" color-interpolation-filters="sRGB">
<feFlood flood-opacity="0" result="BackgroundImageFix"/>
<feBlend mode="normal" in="SourceGraphic" in2="BackgroundImageFix" result="shape"/>
<feColorMatrix in="SourceAlpha" type="matrix" values="0 0 0 0 0 0 0 0 0 0 0 0 0 0 0 0 0 0 127 0" result="hardAlpha"/>
<feOffset dx="0.2" dy="-0.2"/>
<feGaussianBlur stdDeviation="0.1"/>
<feComposite in2="hardAlpha" operator="arithmetic" k2="-1" k3="1"/>
<feColorMatrix type="matrix" values="0 0 0 0 0.0431373 0 0 0 0 0.0196078 0 0 0 0 0.0431373 0 0 0 1 0"/>
<feBlend mode="normal" in2="shape" result="effect1_innerShadow_971_14927"/>
</filter>
<filter id="filter31_f_971_14927" x="10.0488" y="35.2571" width="4.23242" height="1.78546" filterUnits="userSpaceOnUse" color-interpolation-filters="sRGB">
<feFlood flood-opacity="0" result="BackgroundImageFix"/>
<feBlend mode="normal" in="SourceGraphic" in2="BackgroundImageFix" result="shape"/>
<feGaussianBlur stdDeviation="0.25" result="effect1_foregroundBlur_971_14927"/>
</filter>
<filter id="filter32_i_971_14927" x="21.8457" y="35.2357" width="4.07891" height="1.62834" filterUnits="userSpaceOnUse" color-interpolation-filters="sRGB">
<feFlood flood-opacity="0" result="BackgroundImageFix"/>
<feBlend mode="normal" in="SourceGraphic" in2="BackgroundImageFix" result="shape"/>
<feColorMatrix in="SourceAlpha" type="matrix" values="0 0 0 0 0 0 0 0 0 0 0 0 0 0 0 0 0 0 127 0" result="hardAlpha"/>
<feOffset dx="0.2" dy="-0.2"/>
<feGaussianBlur stdDeviation="0.1"/>
<feComposite in2="hardAlpha" operator="arithmetic" k2="-1" k3="1"/>
<feColorMatrix type="matrix" values="0 0 0 0 0.0431373 0 0 0 0 0.0196078 0 0 0 0 0.0431373 0 0 0 1 0"/>
<feBlend mode="normal" in2="shape" result="effect1_innerShadow_971_14927"/>
</filter>
<filter id="filter33_f_971_14927" x="21.6465" y="35.2357" width="4.2793" height="1.82825" filterUnits="userSpaceOnUse" color-interpolation-filters="sRGB">
<feFlood flood-opacity="0" result="BackgroundImageFix"/>
<feBlend mode="normal" in="SourceGraphic" in2="BackgroundImageFix" result="shape"/>
<feGaussianBlur stdDeviation="0.25" result="effect1_foregroundBlur_971_14927"/>
</filter>
<filter id="filter34_i_971_14927" x="4.01953" y="24.4405" width="8.44336" height="13.5714" filterUnits="userSpaceOnUse" color-interpolation-filters="sRGB">
<feFlood flood-opacity="0" result="BackgroundImageFix"/>
<feBlend mode="normal" in="SourceGraphic" in2="BackgroundImageFix" result="shape"/>
<feColorMatrix in="SourceAlpha" type="matrix" values="0 0 0 0 0 0 0 0 0 0 0 0 0 0 0 0 0 0 127 0" result="hardAlpha"/>
<feOffset dx="-0.5" dy="-0.5"/>
<feGaussianBlur stdDeviation="0.5"/>
<feComposite in2="hardAlpha" operator="arithmetic" k2="-1" k3="1"/>
<feColorMatrix type="matrix" values="0 0 0 0 0.0784314 0 0 0 0 0.0117647 0 0 0 0 0.0470588 0 0 0 1 0"/>
<feBlend mode="normal" in2="shape" result="effect1_innerShadow_971_14927"/>
</filter>
<filter id="filter35_f_971_14927" x="15.0137" y="39.894" width="5.22852" height="6.44202" filterUnits="userSpaceOnUse" color-interpolation-filters="sRGB">
<feFlood flood-opacity="0" result="BackgroundImageFix"/>
<feBlend mode="normal" in="SourceGraphic" in2="BackgroundImageFix" result="shape"/>
<feGaussianBlur stdDeviation="0.375" result="effect1_foregroundBlur_971_14927"/>
</filter>
<filter id="filter36_f_971_14927" x="15.7695" y="39.7302" width="4.43359" height="5.71033" filterUnits="userSpaceOnUse" color-interpolation-filters="sRGB">
<feFlood flood-opacity="0" result="BackgroundImageFix"/>
<feBlend mode="normal" in="SourceGraphic" in2="BackgroundImageFix" result="shape"/>
<feGaussianBlur stdDeviation="0.125" result="effect1_foregroundBlur_971_14927"/>
</filter>
<filter id="filter37_i_971_14927" x="11.291" y="21.9405" width="20.9883" height="16.1858" filterUnits="userSpaceOnUse" color-interpolation-filters="sRGB">
<feFlood flood-opacity="0" result="BackgroundImageFix"/>
<feBlend mode="normal" in="SourceGraphic" in2="BackgroundImageFix" result="shape"/>
<feColorMatrix in="SourceAlpha" type="matrix" values="0 0 0 0 0 0 0 0 0 0 0 0 0 0 0 0 0 0 127 0" result="hardAlpha"/>
<feOffset dx="0.75" dy="-0.75"/>
<feGaussianBlur stdDeviation="0.625"/>
<feComposite in2="hardAlpha" operator="arithmetic" k2="-1" k3="1"/>
<feColorMatrix type="matrix" values="0 0 0 0 0.0745098 0 0 0 0 0.0156863 0 0 0 0 0.054902 0 0 0 1 0"/>
<feBlend mode="normal" in2="shape" result="effect1_innerShadow_971_14927"/>
</filter>
<filter id="filter38_f_971_14927" x="21.1871" y="39.4854" width="1.6668" height="1.44139" filterUnits="userSpaceOnUse" color-interpolation-filters="sRGB">
<feFlood flood-opacity="0" result="BackgroundImageFix"/>
<feBlend mode="normal" in="SourceGraphic" in2="BackgroundImageFix" result="shape"/>
<feGaussianBlur stdDeviation="0.05" result="effect1_foregroundBlur_971_14927"/>
</filter>
<filter id="filter39_f_971_14927" x="23.4367" y="39.8233" width="1.62852" height="1.68418" filterUnits="userSpaceOnUse" color-interpolation-filters="sRGB">
<feFlood flood-opacity="0" result="BackgroundImageFix"/>
<feBlend mode="normal" in="SourceGraphic" in2="BackgroundImageFix" result="shape"/>
<feGaussianBlur stdDeviation="0.1" result="effect1_foregroundBlur_971_14927"/>
</filter>
<filter id="filter40_f_971_14927" x="13.5031" y="39.6865" width="1.86289" height="1.99821" filterUnits="userSpaceOnUse" color-interpolation-filters="sRGB">
<feFlood flood-opacity="0" result="BackgroundImageFix"/>
<feBlend mode="normal" in="SourceGraphic" in2="BackgroundImageFix" result="shape"/>
<feGaussianBlur stdDeviation="0.1" result="effect1_foregroundBlur_971_14927"/>
</filter>
<filter id="filter41_f_971_14927" x="11.4684" y="39.4875" width="1.98125" height="1.45946" filterUnits="userSpaceOnUse" color-interpolation-filters="sRGB">
<feFlood flood-opacity="0" result="BackgroundImageFix"/>
<feBlend mode="normal" in="SourceGraphic" in2="BackgroundImageFix" result="shape"/>
<feGaussianBlur stdDeviation="0.05" result="effect1_foregroundBlur_971_14927"/>
</filter>
<filter id="filter42_f_971_14927" x="11.0898" y="21.6749" width="21.2324" height="14.7172" filterUnits="userSpaceOnUse" color-interpolation-filters="sRGB">
<feFlood flood-opacity="0" result="BackgroundImageFix"/>
<feBlend mode="normal" in="SourceGraphic" in2="BackgroundImageFix" result="shape"/>
<feGaussianBlur stdDeviation="1" result="effect1_foregroundBlur_971_14927"/>
</filter>
<filter id="filter43_f_971_14927" x="4.71094" y="25.0616" width="6.96094" height="8.33368" filterUnits="userSpaceOnUse" color-interpolation-filters="sRGB">
<feFlood flood-opacity="0" result="BackgroundImageFix"/>
<feBlend mode="normal" in="SourceGraphic" in2="BackgroundImageFix" result="shape"/>
<feGaussianBlur stdDeviation="0.375" result="effect1_foregroundBlur_971_14927"/>
</filter>
<radialGradient id="paint0_radial_971_14927" cx="0" cy="0" r="1" gradientUnits="userSpaceOnUse" gradientTransform="translate(23.3633 19.9239) scale(3.84329 6.7258)">
<stop offset="0.350532" stop-color="#CF9888"/>
<stop offset="1" stop-color="#BE8C77"/>
</radialGradient>
<linearGradient id="paint1_linear_971_14927" x1="27.0199" y1="20.5919" x2="25.4844" y2="20.5919" gradientUnits="userSpaceOnUse">
<stop stop-color="#BA7C6B"/>
<stop offset="1" stop-color="#BE8474"/>
</linearGradient>
<linearGradient id="paint2_linear_971_14927" x1="51.3598" y1="17.5333" x2="49.5669" y2="23.088" gradientUnits="userSpaceOnUse">
<stop stop-color="#FBD3BD"/>
<stop offset="1" stop-color="#F0B8A4"/>
</linearGradient>
<radialGradient id="paint3_radial_971_14927" cx="0" cy="0" r="1" gradientUnits="userSpaceOnUse" gradientTransform="translate(49.7954 19.3438) rotate(-36.0604) scale(2.23968 2.5563)">
<stop offset="0.542503" stop-color="#D9AA94"/>
<stop offset="1" stop-color="#D9AA94" stop-opacity="0"/>
</radialGradient>
<radialGradient id="paint4_radial_971_14927" cx="0" cy="0" r="1" gradientUnits="userSpaceOnUse" gradientTransform="translate(48.8818 21.8927) rotate(-61.4675) scale(4.12169 2.41244)">
<stop offset="0.754913" stop-color="#D6A38D" stop-opacity="0"/>
<stop offset="0.915553" stop-color="#D6A38D"/>
</radialGradient>
<radialGradient id="paint5_radial_971_14927" cx="0" cy="0" r="1" gradientUnits="userSpaceOnUse" gradientTransform="translate(48.9809 19.9239) rotate(44.7077) scale(0.874588 1.12747)">
<stop stop-color="#D5A58E"/>
<stop offset="1" stop-color="#D5A58E" stop-opacity="0"/>
</radialGradient>
<radialGradient id="paint6_radial_971_14927" cx="0" cy="0" r="1" gradientUnits="userSpaceOnUse" gradientTransform="translate(45.8042 19.1486) rotate(152.58) scale(19.3277 21.8898)">
<stop stop-color="#FFDCC1"/>
<stop offset="0.400728" stop-color="#EEB8A8"/>
<stop offset="0.854306" stop-color="#D7A296"/>
</radialGradient>
<radialGradient id="paint7_radial_971_14927" cx="0" cy="0" r="1" gradientUnits="userSpaceOnUse" gradientTransform="translate(42.2183 20.6665) rotate(180) scale(5.34375 3.3539)">
<stop stop-color="#FFE0C1"/>
<stop offset="1" stop-color="#FFE0C1" stop-opacity="0"/>
</radialGradient>
<radialGradient id="paint8_radial_971_14927" cx="0" cy="0" r="1" gradientUnits="userSpaceOnUse" gradientTransform="translate(43.5191 18.1074) rotate(-90) scale(2.7847 3.62855)">
<stop offset="0.232329" stop-color="#F9BDAB"/>
<stop offset="1" stop-color="#F9BDAB" stop-opacity="0"/>
</radialGradient>
<radialGradient id="paint9_radial_971_14927" cx="0" cy="0" r="1" gradientUnits="userSpaceOnUse" gradientTransform="translate(33.8511 18.5141) rotate(-90) scale(2.55855 2.76928)">
<stop offset="0.0531246" stop-color="#CF968E"/>
<stop offset="1" stop-color="#CF968E" stop-opacity="0"/>
</radialGradient>
<linearGradient id="paint10_linear_971_14927" x1="50.7243" y1="19.1486" x2="47.2988" y2="19.1486" gradientUnits="userSpaceOnUse">
<stop stop-color="#FFD4B8"/>
<stop offset="1" stop-color="#FFD4B8" stop-opacity="0"/>
</linearGradient>
<radialGradient id="paint11_radial_971_14927" cx="0" cy="0" r="1" gradientUnits="userSpaceOnUse" gradientTransform="translate(36.1363 9.80321) rotate(40.6013) scale(5.51012 3.27556)">
<stop offset="0.0152249" stop-color="#AB7A6E"/>
<stop offset="1" stop-color="#AB7A6E" stop-opacity="0"/>
</radialGradient>
<radialGradient id="paint12_radial_971_14927" cx="0" cy="0" r="1" gradientUnits="userSpaceOnUse" gradientTransform="translate(30.0542 10.2427) rotate(42.842) scale(4.29126 2.24597)">
<stop stop-color="#B48276"/>
<stop offset="1" stop-color="#B48276" stop-opacity="0"/>
</radialGradient>
<radialGradient id="paint13_radial_971_14927" cx="0" cy="0" r="1" gradientUnits="userSpaceOnUse" gradientTransform="translate(26.8826 11.233) rotate(106.302) scale(3.64255 2.7638)">
<stop offset="0.509935" stop-color="#AD7966"/>
<stop offset="1" stop-color="#AD7966" stop-opacity="0"/>
</radialGradient>
<radialGradient id="paint14_radial_971_14927" cx="0" cy="0" r="1" gradientUnits="userSpaceOnUse" gradientTransform="translate(39.6167 17.0102) rotate(96.8158) scale(17.774 20.1281)">
<stop offset="0.638443" stop-color="#B57894" stop-opacity="0"/>
<stop offset="1" stop-color="#B57894"/>
</radialGradient>
<radialGradient id="paint15_radial_971_14927" cx="0" cy="0" r="1" gradientUnits="userSpaceOnUse" gradientTransform="translate(31.9175 12.5454) rotate(120.256) scale(1.22102 2.60619)">
<stop offset="0.150479" stop-color="#B28075"/>
<stop offset="1" stop-color="#B28075" stop-opacity="0"/>
</radialGradient>
<linearGradient id="paint16_linear_971_14927" x1="33.1139" y1="15.6447" x2="30.3541" y2="16.127" gradientUnits="userSpaceOnUse">
<stop stop-color="#353535"/>
<stop offset="1" stop-color="#353535" stop-opacity="0"/>
</linearGradient>
<linearGradient id="paint17_linear_971_14927" x1="44.4752" y1="15.6447" x2="41.7155" y2="16.127" gradientUnits="userSpaceOnUse">
<stop stop-color="#353535"/>
<stop offset="1" stop-color="#353535" stop-opacity="0"/>
</linearGradient>
<radialGradient id="paint18_radial_971_14927" cx="0" cy="0" r="1" gradientUnits="userSpaceOnUse" gradientTransform="translate(26.4697 18.7286) rotate(-90) scale(7.05522 8.23175)">
<stop stop-color="#1A151A"/>
<stop offset="1" stop-color="#1A151A" stop-opacity="0"/>
</radialGradient>
<radialGradient id="paint19_radial_971_14927" cx="0" cy="0" r="1" gradientUnits="userSpaceOnUse" gradientTransform="translate(48.5796 4.84067) rotate(65.8978) scale(6.42806 4.40384)">
<stop stop-color="#4F484B"/>
<stop offset="1" stop-color="#4F484B" stop-opacity="0"/>
</radialGradient>
<radialGradient id="paint20_radial_971_14927" cx="0" cy="0" r="1" gradientUnits="userSpaceOnUse" gradientTransform="translate(31.0538 3.60537) rotate(149.036) scale(5.40221 5.08443)">
<stop stop-color="#434041"/>
<stop offset="1" stop-color="#434041" stop-opacity="0"/>
</radialGradient>
<radialGradient id="paint21_radial_971_14927" cx="0" cy="0" r="1" gradientUnits="userSpaceOnUse" gradientTransform="translate(24.723 11.5576) rotate(28.1237) scale(5.07742 7.86443)">
<stop stop-color="#514745"/>
<stop offset="1" stop-color="#514745" stop-opacity="0"/>
</radialGradient>
<radialGradient id="paint22_radial_971_14927" cx="0" cy="0" r="1" gradientUnits="userSpaceOnUse" gradientTransform="translate(49.3989 5.88852) rotate(67.9952) scale(7.93887 2.18289)">
<stop stop-color="#514B4D"/>
<stop offset="1" stop-color="#514B4D" stop-opacity="0"/>
</radialGradient>
<linearGradient id="paint23_linear_971_14927" x1="30.0991" y1="10.1938" x2="33.0137" y2="13.1855" gradientUnits="userSpaceOnUse">
<stop stop-color="#3D383A"/>
<stop offset="1" stop-color="#3D383A" stop-opacity="0"/>
</linearGradient>
<linearGradient id="paint24_linear_971_14927" x1="39.5411" y1="21.8044" x2="38.2471" y2="21.9708" gradientUnits="userSpaceOnUse">
<stop stop-color="#FFDAC2"/>
<stop offset="1" stop-color="#FFDAC2" stop-opacity="0"/>
</linearGradient>
<linearGradient id="paint25_linear_971_14927" x1="35.7496" y1="23.4044" x2="37.5778" y2="23.6856" gradientUnits="userSpaceOnUse">
<stop stop-color="#DEA790"/>
<stop offset="1" stop-color="#DEA790" stop-opacity="0"/>
</linearGradient>
<linearGradient id="paint26_linear_971_14927" x1="37.9884" y1="24.8282" x2="37.9884" y2="23.1407" gradientUnits="userSpaceOnUse">
<stop stop-color="#D49597"/>
<stop offset="1" stop-color="#D49597" stop-opacity="0"/>
</linearGradient>
<radialGradient id="paint27_radial_971_14927" cx="0" cy="0" r="1" gradientUnits="userSpaceOnUse" gradientTransform="translate(38.6815 23.3571) rotate(180) scale(1.31242 0.41174)">
<stop stop-color="#FFD6C2"/>
<stop offset="1" stop-color="#FFD6C2" stop-opacity="0"/>
</radialGradient>
<radialGradient id="paint28_radial_971_14927" cx="0" cy="0" r="1" gradientUnits="userSpaceOnUse" gradientTransform="translate(37.9884 21.1544) rotate(90) scale(3.69141 3.0825)">
<stop offset="0.866667" stop-color="#CD8D8E" stop-opacity="0"/>
<stop offset="1" stop-color="#CD8D8E"/>
</radialGradient>
<radialGradient id="paint29_radial_971_14927" cx="0" cy="0" r="1" gradientUnits="userSpaceOnUse" gradientTransform="translate(42.867 19.2716) rotate(90) scale(2.03359 3.23465)">
<stop offset="0.80198" stop-color="#7D574A"/>
<stop offset="1" stop-color="#694B43"/>
<stop offset="1" stop-color="#804D49"/>
<stop offset="1" stop-color="#664944"/>
</radialGradient>
<radialGradient id="paint30_radial_971_14927" cx="0" cy="0" r="1" gradientUnits="userSpaceOnUse" gradientTransform="translate(42.2945 19.4825) rotate(-127.812) scale(0.948184 1.30542)">
<stop offset="0.765532" stop-color="#FFE6E2" stop-opacity="0"/>
<stop offset="0.966159" stop-color="#FFE6E2"/>
</radialGradient>
<linearGradient id="paint31_linear_971_14927" x1="44.8164" y1="19.4066" x2="44.03" y2="19.8912" gradientUnits="userSpaceOnUse">
<stop stop-color="#B4948D"/>
<stop offset="1" stop-color="#B4948D" stop-opacity="0"/>
</linearGradient>
<radialGradient id="paint32_radial_971_14927" cx="0" cy="0" r="1" gradientUnits="userSpaceOnUse" gradientTransform="translate(33.0968 19.2778) rotate(90) scale(2.02582 3.2223)">
<stop offset="0.80198" stop-color="#7D574A"/>
<stop offset="1" stop-color="#694B43"/>
<stop offset="1" stop-color="#804D49"/>
<stop offset="1" stop-color="#664944"/>
</radialGradient>
<linearGradient id="paint33_linear_971_14927" x1="34.9526" y1="19.4124" x2="34.1691" y2="19.8951" gradientUnits="userSpaceOnUse">
<stop stop-color="#B4948D"/>
<stop offset="1" stop-color="#B4948D" stop-opacity="0"/>
</linearGradient>
<radialGradient id="paint34_radial_971_14927" cx="0" cy="0" r="1" gradientUnits="userSpaceOnUse" gradientTransform="translate(32.3805 19.8251) rotate(-90.897) scale(1.23379 1.48307)">
<stop offset="0.765532" stop-color="#FFE6E2" stop-opacity="0"/>
<stop offset="0.966159" stop-color="#FFE6E2"/>
</radialGradient>
<radialGradient id="paint35_radial_971_14927" cx="0" cy="0" r="1" gradientUnits="userSpaceOnUse" gradientTransform="translate(41.2835 13.0245) rotate(-66.9876) scale(7.80095 12.7662)">
<stop offset="0.913828" stop-color="#4C4749" stop-opacity="0"/>
<stop offset="1" stop-color="#4C4749"/>
</radialGradient>
<radialGradient id="paint36_radial_971_14927" cx="0" cy="0" r="1" gradientUnits="userSpaceOnUse" gradientTransform="translate(41.438 4.80203) rotate(101.203) scale(8.14604 13.331)">
<stop offset="0.73932" stop-color="#221C27" stop-opacity="0"/>
<stop offset="1" stop-color="#221C27"/>
</radialGradient>
<linearGradient id="paint37_linear_971_14927" x1="33.6016" y1="8.04467" x2="35.8202" y2="11.3838" gradientUnits="userSpaceOnUse">
<stop stop-color="#261C1C"/>
<stop offset="1" stop-color="#261C1C" stop-opacity="0"/>
</linearGradient>
<linearGradient id="paint38_linear_971_14927" x1="49.8807" y1="18.9312" x2="49.8807" y2="16.0548" gradientUnits="userSpaceOnUse">
<stop offset="0.356259" stop-color="#3B3739"/>
<stop offset="1" stop-color="#3B3739" stop-opacity="0"/>
</linearGradient>
<linearGradient id="paint39_linear_971_14927" x1="33.916" y1="12.3481" x2="34.1802" y2="9.71426" gradientUnits="userSpaceOnUse">
<stop offset="0.3704" stop-color="#3D383A"/>
<stop offset="1" stop-color="#3D383A" stop-opacity="0"/>
</linearGradient>
<linearGradient id="paint40_linear_971_14927" x1="34.0824" y1="7.2533" x2="36.495" y2="10.8434" gradientUnits="userSpaceOnUse">
<stop stop-color="#3D383A"/>
<stop offset="1" stop-color="#3D383A" stop-opacity="0"/>
</linearGradient>
<linearGradient id="paint41_linear_971_14927" x1="4.69339" y1="41.4899" x2="7.55388" y2="41.4899" gradientUnits="userSpaceOnUse">
<stop stop-color="#D19888"/>
<stop offset="1" stop-color="#C0866F"/>
</linearGradient>
<radialGradient id="paint42_radial_971_14927" cx="0" cy="0" r="1" gradientUnits="userSpaceOnUse" gradientTransform="translate(7.1889 40.0566) rotate(-180) scale(3.16406 3.61462)">
<stop offset="0.56973" stop-color="#CF9384"/>
<stop offset="1" stop-color="#CF9384" stop-opacity="0"/>
</radialGradient>
<radialGradient id="paint43_radial_971_14927" cx="0" cy="0" r="1" gradientUnits="userSpaceOnUse" gradientTransform="translate(28.3002 42.0781) rotate(-38.1374) scale(5.12357 4.10941)">
<stop offset="0.573409" stop-color="#F2BCAA"/>
<stop offset="1" stop-color="#FFD3BB"/>
</radialGradient>
<radialGradient id="paint44_radial_971_14927" cx="0" cy="0" r="1" gradientUnits="userSpaceOnUse" gradientTransform="translate(28.6738 41.1816) rotate(-69.0399) scale(4.95063 4.80417)">
<stop offset="0.760545" stop-color="#CEA084" stop-opacity="0"/>
<stop offset="1" stop-color="#CEA084"/>
</radialGradient>
<radialGradient id="paint45_radial_971_14927" cx="0" cy="0" r="1" gradientUnits="userSpaceOnUse" gradientTransform="translate(27.8611 40.4093) scale(3.25195)">
<stop offset="0.733391" stop-color="#F3B79C" stop-opacity="0"/>
<stop offset="1" stop-color="#F3B79C"/>
</radialGradient>
<linearGradient id="paint46_linear_971_14927" x1="31.4125" y1="47.5636" x2="30.2172" y2="49.4093" gradientUnits="userSpaceOnUse">
<stop stop-color="#323131"/>
<stop offset="1" stop-color="#323131" stop-opacity="0"/>
</linearGradient>
<radialGradient id="paint47_radial_971_14927" cx="0" cy="0" r="1" gradientUnits="userSpaceOnUse" gradientTransform="translate(27.7381 46.5605) rotate(38.4802) scale(6.13015 1.05678)">
<stop stop-color="#3C3B3B"/>
<stop offset="1" stop-color="#3C3B3B" stop-opacity="0"/>
</radialGradient>
<radialGradient id="paint48_radial_971_14927" cx="0" cy="0" r="1" gradientUnits="userSpaceOnUse" gradientTransform="translate(34.0311 49.4961) rotate(170.242) scale(2.80028 0.629616)">
<stop offset="0.152652" stop-color="#494949"/>
<stop offset="1" stop-color="#494949" stop-opacity="0"/>
</radialGradient>
<radialGradient id="paint49_radial_971_14927" cx="0" cy="0" r="1" gradientUnits="userSpaceOnUse" gradientTransform="translate(25.5233 48.7226) rotate(32.9977) scale(3.22768 5.83885)">
<stop stop-color="#09040C"/>
<stop offset="1" stop-color="#09040C" stop-opacity="0"/>
</radialGradient>
<radialGradient id="paint50_radial_971_14927" cx="0" cy="0" r="1" gradientUnits="userSpaceOnUse" gradientTransform="translate(9.15823 49.6905) rotate(153.831) scale(2.66795 6.09017)">
<stop stop-color="#140F18"/>
<stop offset="1" stop-color="#140F18" stop-opacity="0"/>
</radialGradient>
<linearGradient id="paint51_linear_971_14927" x1="4.48245" y1="47.1944" x2="5.60745" y2="48.8116" gradientUnits="userSpaceOnUse">
<stop stop-color="#3C3A3A"/>
<stop offset="1" stop-color="#3C3A3A" stop-opacity="0"/>
</linearGradient>
<radialGradient id="paint52_radial_971_14927" cx="0" cy="0" r="1" gradientUnits="userSpaceOnUse" gradientTransform="translate(25.7348 41.2344) rotate(131.847) scale(14.9385 15.6456)">
<stop offset="0.102798" stop-color="#FFDCBF"/>
<stop offset="1" stop-color="#D49F95"/>
</radialGradient>
<radialGradient id="paint53_radial_971_14927" cx="0" cy="0" r="1" gradientUnits="userSpaceOnUse" gradientTransform="translate(19.5655 36.6124) rotate(94.8333) scale(18.61 17.5045)">
<stop offset="0.67285" stop-color="#B57894" stop-opacity="0"/>
<stop offset="1" stop-color="#B57894"/>
</radialGradient>
<radialGradient id="paint54_radial_971_14927" cx="0" cy="0" r="1" gradientUnits="userSpaceOnUse" gradientTransform="translate(25.2426 41.7353) rotate(180) scale(18.6821 20.1182)">
<stop offset="0.875045" stop-color="#E9AE96" stop-opacity="0"/>
<stop offset="1" stop-color="#E9AE96"/>
</radialGradient>
<radialGradient id="paint55_radial_971_14927" cx="0" cy="0" r="1" gradientUnits="userSpaceOnUse" gradientTransform="translate(29.4344 41.7353) rotate(180) scale(2.43928 13.4889)">
<stop stop-color="#FFD5B8"/>
<stop offset="1" stop-color="#FFD5B8" stop-opacity="0"/>
</radialGradient>
<radialGradient id="paint56_radial_971_14927" cx="0" cy="0" r="1" gradientUnits="userSpaceOnUse" gradientTransform="translate(23.6665 39.4414) rotate(-90) scale(2.62566 3.65033)">
<stop offset="0.374906" stop-color="#F1B7A7"/>
<stop offset="1" stop-color="#F1B7A7" stop-opacity="0"/>
</radialGradient>
<radialGradient id="paint57_radial_971_14927" cx="0" cy="0" r="1" gradientUnits="userSpaceOnUse" gradientTransform="translate(13.0083 39.3711) rotate(-80.4413) scale(2.77087 2.93982)">
<stop offset="0.146341" stop-color="#D0968F"/>
<stop offset="1" stop-color="#D0968F" stop-opacity="0"/>
</radialGradient>
<linearGradient id="paint58_linear_971_14927" x1="15.6621" y1="48.0723" x2="16.207" y2="47.2144" gradientUnits="userSpaceOnUse">
<stop stop-color="#D8A2A1"/>
<stop offset="1" stop-color="#D8A2A1" stop-opacity="0"/>
</linearGradient>
<linearGradient id="paint59_linear_971_14927" x1="13.5322" y1="36.2925" x2="10.5557" y2="36.2925" gradientUnits="userSpaceOnUse">
<stop stop-color="#353535"/>
<stop offset="1" stop-color="#353535" stop-opacity="0"/>
</linearGradient>
<linearGradient id="paint60_linear_971_14927" x1="25.1752" y1="36.3138" x2="22.1493" y2="36.3138" gradientUnits="userSpaceOnUse">
<stop stop-color="#353535"/>
<stop offset="1" stop-color="#353535" stop-opacity="0"/>
</linearGradient>
<radialGradient id="paint61_radial_971_14927" cx="0" cy="0" r="1" gradientUnits="userSpaceOnUse" gradientTransform="translate(11.4 30.9052) rotate(-176.074) scale(7.47807 12.4815)">
<stop offset="0.412383" stop-color="#22181C"/>
<stop offset="1" stop-color="#5E5959"/>
</radialGradient>
<radialGradient id="paint62_radial_971_14927" cx="0" cy="0" r="1" gradientUnits="userSpaceOnUse" gradientTransform="translate(10.632 29.9177) rotate(110.487) scale(3.55268 1.02471)">
<stop offset="0.209947" stop-color="#3B3438"/>
<stop offset="1" stop-color="#3B3438" stop-opacity="0"/>
</radialGradient>
<linearGradient id="paint63_linear_971_14927" x1="16.119" y1="44.931" x2="20.0442" y2="42.9162" gradientUnits="userSpaceOnUse">
<stop offset="0.274389" stop-color="#D0938D"/>
<stop offset="1" stop-color="#FFDBC0"/>
</linearGradient>
<radialGradient id="paint64_radial_971_14927" cx="0" cy="0" r="1" gradientUnits="userSpaceOnUse" gradientTransform="translate(19.7351 43.6145) rotate(-103.678) scale(4.11814 1.75024)">
<stop stop-color="#FFD9C1"/>
<stop offset="1" stop-color="#FFD9C1" stop-opacity="0"/>
</radialGradient>
<radialGradient id="paint65_radial_971_14927" cx="0" cy="0" r="1" gradientUnits="userSpaceOnUse" gradientTransform="translate(19.7046 43.8008) rotate(-180) scale(2.39062 0.404297)">
<stop offset="0.360294" stop-color="#FFD9C1"/>
<stop offset="1" stop-color="#FFD9C1" stop-opacity="0"/>
</radialGradient>
<linearGradient id="paint66_linear_971_14927" x1="15.84" y1="43.0834" x2="17.4157" y2="43.1542" gradientUnits="userSpaceOnUse">
<stop stop-color="#DFA790"/>
<stop offset="1" stop-color="#DFA790" stop-opacity="0"/>
</linearGradient>
<linearGradient id="paint67_linear_971_14927" x1="17.7875" y1="45.5267" x2="17.7875" y2="43.5437" gradientUnits="userSpaceOnUse">
<stop stop-color="#D29294"/>
<stop offset="1" stop-color="#D29294" stop-opacity="0"/>
</linearGradient>
<radialGradient id="paint68_radial_971_14927" cx="0" cy="0" r="1" gradientUnits="userSpaceOnUse" gradientTransform="translate(17.9864 41.5684) rotate(90) scale(3.95508 2.98611)">
<stop offset="0.826667" stop-color="#D08F90" stop-opacity="0"/>
<stop offset="1" stop-color="#D08F90"/>
</radialGradient>
<linearGradient id="paint69_linear_971_14927" x1="16.7339" y1="42.8164" x2="15.7495" y2="42.5854" gradientUnits="userSpaceOnUse">
<stop stop-color="#D08F90" stop-opacity="0"/>
<stop offset="0.897776" stop-color="#D08F90"/>
</linearGradient>
<radialGradient id="paint70_radial_971_14927" cx="0" cy="0" r="1" gradientUnits="userSpaceOnUse" gradientTransform="translate(20.1761 20.8115) rotate(90) scale(5.55882 11.5565)">
<stop stop-color="#433D3F"/>
<stop offset="1" stop-color="#433D3F" stop-opacity="0"/>
</radialGradient>
<radialGradient id="paint71_radial_971_14927" cx="0" cy="0" r="1" gradientUnits="userSpaceOnUse" gradientTransform="translate(34.1711 35.1172) rotate(180) scale(8.01562 8.64844)">
<stop stop-color="#565253"/>
<stop offset="1" stop-color="#565253" stop-opacity="0"/>
</radialGradient>
<radialGradient id="paint72_radial_971_14927" cx="0" cy="0" r="1" gradientUnits="userSpaceOnUse" gradientTransform="translate(22.8721 40.4355) rotate(90) scale(2.0293 3.22783)">
<stop offset="0.80198" stop-color="#7D574A"/>
<stop offset="1" stop-color="#694B43"/>
<stop offset="1" stop-color="#804D49"/>
<stop offset="1" stop-color="#644945"/>
</radialGradient>
<radialGradient id="paint73_radial_971_14927" cx="0" cy="0" r="1" gradientUnits="userSpaceOnUse" gradientTransform="translate(22.3017 40.6459) rotate(-127.812) scale(0.946185 1.30267)">
<stop offset="0.765532" stop-color="#FFE6E2" stop-opacity="0"/>
<stop offset="0.966159" stop-color="#FFE6E2"/>
</radialGradient>
<linearGradient id="paint74_linear_971_14927" x1="24.8178" y1="40.5702" x2="24.0331" y2="41.0538" gradientUnits="userSpaceOnUse">
<stop stop-color="#B4948D"/>
<stop offset="1" stop-color="#B4948D" stop-opacity="0"/>
</linearGradient>
<radialGradient id="paint75_radial_971_14927" cx="0" cy="0" r="1" gradientUnits="userSpaceOnUse" gradientTransform="translate(13.1374 40.4562) rotate(90) scale(2.02547 3.22174)">
<stop offset="0.80198" stop-color="#7D574A"/>
<stop offset="1" stop-color="#694B43"/>
<stop offset="1" stop-color="#804D49"/>
<stop offset="1" stop-color="#644945"/>
</radialGradient>
<linearGradient id="paint76_linear_971_14927" x1="14.9934" y1="40.5907" x2="14.2101" y2="41.0733" gradientUnits="userSpaceOnUse">
<stop stop-color="#B4948D"/>
<stop offset="1" stop-color="#B4948D" stop-opacity="0"/>
</linearGradient>
<radialGradient id="paint77_radial_971_14927" cx="0" cy="0" r="1" gradientUnits="userSpaceOnUse" gradientTransform="translate(12.4214 41.0034) rotate(-90.897) scale(1.23358 1.48281)">
<stop offset="0.765532" stop-color="#FFE6E2" stop-opacity="0"/>
<stop offset="0.966159" stop-color="#FFE6E2"/>
</radialGradient>
<radialGradient id="paint78_radial_971_14927" cx="0" cy="0" r="1" gradientUnits="userSpaceOnUse" gradientTransform="translate(25.1506 33.8309) rotate(-147.45) scale(12.2349 4.50831)">
<stop offset="0.212415" stop-color="#4A4446"/>
<stop offset="1" stop-color="#4A4446" stop-opacity="0"/>
</radialGradient>
<linearGradient id="paint79_linear_971_14927" x1="10.3711" y1="26.2757" x2="6.07275" y2="33.4194" gradientUnits="userSpaceOnUse">
<stop stop-color="#504E4E"/>
<stop offset="1" stop-color="#504E4E" stop-opacity="0"/>
</linearGradient>
</defs>
</svg>
