<svg width="56" height="56" viewBox="0 0 56 56" fill="none" xmlns="http://www.w3.org/2000/svg">
<g id="Boy">
<g id="Ears" filter="url(#filter0_i_971_15519)">
<path d="M10.9199 36.6802C14.061 36.6802 16.6074 34.1338 16.6074 30.9927C16.6074 27.8516 14.061 25.3052 10.9199 25.3052C7.7788 25.3052 5.23242 27.8516 5.23242 30.9927C5.23242 34.1338 7.7788 36.6802 10.9199 36.6802Z" fill="url(#paint0_radial_971_15519)"/>
</g>
<g id="Ears_2" filter="url(#filter1_f_971_15519)">
<path d="M10.9193 34.7029C12.9684 34.7029 14.6295 33.0418 14.6295 30.9926C14.6295 28.9435 12.9684 27.2823 10.9193 27.2823C8.87013 27.2823 7.20898 28.9435 7.20898 30.9926C7.20898 33.0418 8.87013 34.7029 10.9193 34.7029Z" fill="url(#paint1_linear_971_15519)"/>
</g>
<g id="Ears_3" filter="url(#filter2_i_971_15519)">
<path d="M45.0801 36.6802C48.2212 36.6802 50.7676 34.1338 50.7676 30.9927C50.7676 27.8516 48.2212 25.3052 45.0801 25.3052C41.939 25.3052 39.3926 27.8516 39.3926 30.9927C39.3926 34.1338 41.939 36.6802 45.0801 36.6802Z" fill="url(#paint2_linear_971_15519)"/>
<path d="M45.0801 36.6802C48.2212 36.6802 50.7676 34.1338 50.7676 30.9927C50.7676 27.8516 48.2212 25.3052 45.0801 25.3052C41.939 25.3052 39.3926 27.8516 39.3926 30.9927C39.3926 34.1338 41.939 36.6802 45.0801 36.6802Z" fill="url(#paint3_radial_971_15519)"/>
</g>
<g id="Ears_4" filter="url(#filter3_f_971_15519)">
<path d="M45.0794 34.7029C47.1285 34.7029 48.7897 33.0418 48.7897 30.9926C48.7897 28.9435 47.1285 27.2823 45.0794 27.2823C43.0303 27.2823 41.3691 28.9435 41.3691 30.9926C41.3691 33.0418 43.0303 34.7029 45.0794 34.7029Z" fill="#E4AF9A"/>
<path d="M45.0794 34.7029C47.1285 34.7029 48.7897 33.0418 48.7897 30.9926C48.7897 28.9435 47.1285 27.2823 45.0794 27.2823C43.0303 27.2823 41.3691 28.9435 41.3691 30.9926C41.3691 33.0418 43.0303 34.7029 45.0794 34.7029Z" fill="url(#paint4_radial_971_15519)"/>
<path d="M45.0794 34.7029C47.1285 34.7029 48.7897 33.0418 48.7897 30.9926C48.7897 28.9435 47.1285 27.2823 45.0794 27.2823C43.0303 27.2823 41.3691 28.9435 41.3691 30.9926C41.3691 33.0418 43.0303 34.7029 45.0794 34.7029Z" fill="url(#paint5_radial_971_15519)"/>
</g>
<g id="Head" filter="url(#filter4_i_971_15519)">
<path d="M23.4247 7.03674C15.8256 7.03674 9.74281 13.3917 10.0565 21.0246L10.5446 35.4152C10.9629 45.6566 18.6491 52.5367 27.9911 52.5367C37.3332 52.5367 45.0194 45.6566 45.4377 35.4152L45.5847 28.1859L45.9083 21.0246C46.222 13.3917 40.1393 7.03674 32.5401 7.03674H23.4247Z" fill="url(#paint6_radial_971_15519)"/>
<path d="M23.4247 7.03674C15.8256 7.03674 9.74281 13.3917 10.0565 21.0246L10.5446 35.4152C10.9629 45.6566 18.6491 52.5367 27.9911 52.5367C37.3332 52.5367 45.0194 45.6566 45.4377 35.4152L45.5847 28.1859L45.9083 21.0246C46.222 13.3917 40.1393 7.03674 32.5401 7.03674H23.4247Z" fill="url(#paint7_radial_971_15519)"/>
<path d="M23.4247 7.03674C15.8256 7.03674 9.74281 13.3917 10.0565 21.0246L10.5446 35.4152C10.9629 45.6566 18.6491 52.5367 27.9911 52.5367C37.3332 52.5367 45.0194 45.6566 45.4377 35.4152L45.5847 28.1859L45.9083 21.0246C46.222 13.3917 40.1393 7.03674 32.5401 7.03674H23.4247Z" fill="url(#paint8_radial_971_15519)"/>
<path d="M23.4247 7.03674C15.8256 7.03674 9.74281 13.3917 10.0565 21.0246L10.5446 35.4152C10.9629 45.6566 18.6491 52.5367 27.9911 52.5367C37.3332 52.5367 45.0194 45.6566 45.4377 35.4152L45.5847 28.1859L45.9083 21.0246C46.222 13.3917 40.1393 7.03674 32.5401 7.03674H23.4247Z" fill="url(#paint9_radial_971_15519)"/>
<path d="M23.4247 7.03674C15.8256 7.03674 9.74281 13.3917 10.0565 21.0246L10.5446 35.4152C10.9629 45.6566 18.6491 52.5367 27.9911 52.5367C37.3332 52.5367 45.0194 45.6566 45.4377 35.4152L45.5847 28.1859L45.9083 21.0246C46.222 13.3917 40.1393 7.03674 32.5401 7.03674H23.4247Z" fill="url(#paint10_linear_971_15519)"/>
</g>
<g id="Head_2">
<path d="M23.4247 7.03674C15.8256 7.03674 9.74281 13.3917 10.0565 21.0246L10.5446 35.4152C10.9629 45.6566 18.6491 52.5367 27.9911 52.5367C37.3332 52.5367 45.0194 45.6566 45.4377 35.4152L45.5847 28.1859L45.9083 21.0246C46.222 13.3917 40.1393 7.03674 32.5401 7.03674H23.4247Z" fill="url(#paint11_radial_971_15519)"/>
<path d="M23.4247 7.03674C15.8256 7.03674 9.74281 13.3917 10.0565 21.0246L10.5446 35.4152C10.9629 45.6566 18.6491 52.5367 27.9911 52.5367C37.3332 52.5367 45.0194 45.6566 45.4377 35.4152L45.5847 28.1859L45.9083 21.0246C46.222 13.3917 40.1393 7.03674 32.5401 7.03674H23.4247Z" fill="url(#paint12_radial_971_15519)"/>
<path d="M23.4247 7.03674C15.8256 7.03674 9.74281 13.3917 10.0565 21.0246L10.5446 35.4152C10.9629 45.6566 18.6491 52.5367 27.9911 52.5367C37.3332 52.5367 45.0194 45.6566 45.4377 35.4152L45.5847 28.1859L45.9083 21.0246C46.222 13.3917 40.1393 7.03674 32.5401 7.03674H23.4247Z" fill="url(#paint13_radial_971_15519)"/>
<path d="M23.4247 7.03674C15.8256 7.03674 9.74281 13.3917 10.0565 21.0246L10.5446 35.4152C10.9629 45.6566 18.6491 52.5367 27.9911 52.5367C37.3332 52.5367 45.0194 45.6566 45.4377 35.4152L45.5847 28.1859L45.9083 21.0246C46.222 13.3917 40.1393 7.03674 32.5401 7.03674H23.4247Z" fill="url(#paint14_radial_971_15519)"/>
<path d="M23.4247 7.03674C15.8256 7.03674 9.74281 13.3917 10.0565 21.0246L10.5446 35.4152C10.9629 45.6566 18.6491 52.5367 27.9911 52.5367C37.3332 52.5367 45.0194 45.6566 45.4377 35.4152L45.5847 28.1859L45.9083 21.0246C46.222 13.3917 40.1393 7.03674 32.5401 7.03674H23.4247Z" fill="url(#paint15_radial_971_15519)"/>
</g>
<path id="Mouth" d="M27.9858 40.4845C26.0462 40.4845 24.2464 40.0103 22.7086 39.2022C22.1844 38.9212 21.6253 39.5184 21.9573 40.0278C23.2329 42.0128 25.4696 43.3302 27.9858 43.3302C30.5021 43.3302 32.7388 42.0128 34.0144 40.0278C34.3289 39.536 33.7872 38.9388 33.263 39.2022C31.7253 40.0278 29.9255 40.4845 27.9858 40.4845Z" fill="#88024E"/>
<g id="Eyebrows" filter="url(#filter5_i_971_15519)">
<path d="M16.502 24.5916C17.5345 24.2241 18.9695 23.9616 20.8245 24.1366" stroke="#140E1A" stroke-miterlimit="10" stroke-linecap="round" stroke-linejoin="round"/>
</g>
<g id="Eyebrows_2" filter="url(#filter6_f_971_15519)">
<path d="M16.502 24.5916C17.5345 24.2241 18.9695 23.9616 20.8245 24.1366" stroke="url(#paint16_linear_971_15519)" stroke-width="0.3" stroke-miterlimit="10" stroke-linecap="round" stroke-linejoin="round"/>
</g>
<g id="Eyebrows_3" filter="url(#filter7_i_971_15519)">
<path d="M38.5002 24.5916C37.4677 24.2241 36.0327 23.9616 34.1777 24.1366" stroke="#140E1A" stroke-miterlimit="10" stroke-linecap="round" stroke-linejoin="round"/>
</g>
<g id="Eyebrows_4" filter="url(#filter8_f_971_15519)">
<path d="M38.5002 24.5916C37.4677 24.2241 36.0327 23.9616 34.1777 24.1366" stroke="url(#paint17_linear_971_15519)" stroke-width="0.3" stroke-miterlimit="10" stroke-linecap="round" stroke-linejoin="round"/>
</g>
<g id="Hair" filter="url(#filter9_i_971_15519)">
<path d="M8.23127 22.4889L8.40212 29.6256C8.40212 30.9892 9.57048 31.3906 10.2339 31.433C10.3284 31.4391 10.4035 31.3616 10.4035 31.2669L10.3093 24.4303C10.3093 23.3639 10.634 22.1795 11.6218 21.2584C12.6336 20.315 13.2625 19.358 13.3992 18.2369C13.5014 17.3987 13.6663 16.9508 13.8206 16.6708C13.9331 16.4664 14.3158 16.5136 14.4167 16.724C15.8965 19.8088 18.7114 20.8207 20.8428 20.9826C21.7844 21.0541 22.4385 20.1845 22.4326 19.2402C22.4249 18.0007 22.5461 16.7815 22.7781 16.3639C26.6336 21.0943 32.2664 20.985 33.9343 20.9303C35.6023 20.8756 39.7039 20.985 42.6843 21.2311C45.0687 21.4279 45.5281 23.7467 45.5281 24.5396V31.2279C45.5281 31.3246 45.6064 31.4029 45.7031 31.4029H45.9C46.7569 31.4029 47.4436 30.718 47.4312 29.8612C47.4173 28.8897 47.4027 27.7155 47.4422 26.7545C47.5242 24.7584 47.4695 24.4029 48.8914 21.6959C50.1285 19.3406 50.7918 17.7037 50.0398 14.8053C49.4 12.3392 46.7312 10.8404 45.7195 10.3209C44.765 9.83077 44.2293 9.35019 43.7644 8.44785C43.2996 7.5455 42.6372 5.54324 39.1297 4.07285C35.9988 2.76035 33.9343 3.92246 32.6492 4.49667C31.364 5.07089 30.1062 5.18027 28.0007 4.16855C24.8562 2.80136 21.9578 3.53964 20.2625 5.37167C18.5672 7.20371 16.7898 7.34043 15.0945 8.05136C13.3992 8.7623 12.1414 9.85605 10.4735 12.2896C8.26128 15.1862 8.05809 20.2193 8.23127 22.4889Z" fill="#2C2726"/>
<path d="M8.23127 22.4889L8.40212 29.6256C8.40212 30.9892 9.57048 31.3906 10.2339 31.433C10.3284 31.4391 10.4035 31.3616 10.4035 31.2669L10.3093 24.4303C10.3093 23.3639 10.634 22.1795 11.6218 21.2584C12.6336 20.315 13.2625 19.358 13.3992 18.2369C13.5014 17.3987 13.6663 16.9508 13.8206 16.6708C13.9331 16.4664 14.3158 16.5136 14.4167 16.724C15.8965 19.8088 18.7114 20.8207 20.8428 20.9826C21.7844 21.0541 22.4385 20.1845 22.4326 19.2402C22.4249 18.0007 22.5461 16.7815 22.7781 16.3639C26.6336 21.0943 32.2664 20.985 33.9343 20.9303C35.6023 20.8756 39.7039 20.985 42.6843 21.2311C45.0687 21.4279 45.5281 23.7467 45.5281 24.5396V31.2279C45.5281 31.3246 45.6064 31.4029 45.7031 31.4029H45.9C46.7569 31.4029 47.4436 30.718 47.4312 29.8612C47.4173 28.8897 47.4027 27.7155 47.4422 26.7545C47.5242 24.7584 47.4695 24.4029 48.8914 21.6959C50.1285 19.3406 50.7918 17.7037 50.0398 14.8053C49.4 12.3392 46.7312 10.8404 45.7195 10.3209C44.765 9.83077 44.2293 9.35019 43.7644 8.44785C43.2996 7.5455 42.6372 5.54324 39.1297 4.07285C35.9988 2.76035 33.9343 3.92246 32.6492 4.49667C31.364 5.07089 30.1062 5.18027 28.0007 4.16855C24.8562 2.80136 21.9578 3.53964 20.2625 5.37167C18.5672 7.20371 16.7898 7.34043 15.0945 8.05136C13.3992 8.7623 12.1414 9.85605 10.4735 12.2896C8.26128 15.1862 8.05809 20.2193 8.23127 22.4889Z" fill="url(#paint18_radial_971_15519)"/>
<path d="M8.23127 22.4889L8.40212 29.6256C8.40212 30.9892 9.57048 31.3906 10.2339 31.433C10.3284 31.4391 10.4035 31.3616 10.4035 31.2669L10.3093 24.4303C10.3093 23.3639 10.634 22.1795 11.6218 21.2584C12.6336 20.315 13.2625 19.358 13.3992 18.2369C13.5014 17.3987 13.6663 16.9508 13.8206 16.6708C13.9331 16.4664 14.3158 16.5136 14.4167 16.724C15.8965 19.8088 18.7114 20.8207 20.8428 20.9826C21.7844 21.0541 22.4385 20.1845 22.4326 19.2402C22.4249 18.0007 22.5461 16.7815 22.7781 16.3639C26.6336 21.0943 32.2664 20.985 33.9343 20.9303C35.6023 20.8756 39.7039 20.985 42.6843 21.2311C45.0687 21.4279 45.5281 23.7467 45.5281 24.5396V31.2279C45.5281 31.3246 45.6064 31.4029 45.7031 31.4029H45.9C46.7569 31.4029 47.4436 30.718 47.4312 29.8612C47.4173 28.8897 47.4027 27.7155 47.4422 26.7545C47.5242 24.7584 47.4695 24.4029 48.8914 21.6959C50.1285 19.3406 50.7918 17.7037 50.0398 14.8053C49.4 12.3392 46.7312 10.8404 45.7195 10.3209C44.765 9.83077 44.2293 9.35019 43.7644 8.44785C43.2996 7.5455 42.6372 5.54324 39.1297 4.07285C35.9988 2.76035 33.9343 3.92246 32.6492 4.49667C31.364 5.07089 30.1062 5.18027 28.0007 4.16855C24.8562 2.80136 21.9578 3.53964 20.2625 5.37167C18.5672 7.20371 16.7898 7.34043 15.0945 8.05136C13.3992 8.7623 12.1414 9.85605 10.4735 12.2896C8.26128 15.1862 8.05809 20.2193 8.23127 22.4889Z" fill="url(#paint19_radial_971_15519)"/>
<path d="M8.23127 22.4889L8.40212 29.6256C8.40212 30.9892 9.57048 31.3906 10.2339 31.433C10.3284 31.4391 10.4035 31.3616 10.4035 31.2669L10.3093 24.4303C10.3093 23.3639 10.634 22.1795 11.6218 21.2584C12.6336 20.315 13.2625 19.358 13.3992 18.2369C13.5014 17.3987 13.6663 16.9508 13.8206 16.6708C13.9331 16.4664 14.3158 16.5136 14.4167 16.724C15.8965 19.8088 18.7114 20.8207 20.8428 20.9826C21.7844 21.0541 22.4385 20.1845 22.4326 19.2402C22.4249 18.0007 22.5461 16.7815 22.7781 16.3639C26.6336 21.0943 32.2664 20.985 33.9343 20.9303C35.6023 20.8756 39.7039 20.985 42.6843 21.2311C45.0687 21.4279 45.5281 23.7467 45.5281 24.5396V31.2279C45.5281 31.3246 45.6064 31.4029 45.7031 31.4029H45.9C46.7569 31.4029 47.4436 30.718 47.4312 29.8612C47.4173 28.8897 47.4027 27.7155 47.4422 26.7545C47.5242 24.7584 47.4695 24.4029 48.8914 21.6959C50.1285 19.3406 50.7918 17.7037 50.0398 14.8053C49.4 12.3392 46.7312 10.8404 45.7195 10.3209C44.765 9.83077 44.2293 9.35019 43.7644 8.44785C43.2996 7.5455 42.6372 5.54324 39.1297 4.07285C35.9988 2.76035 33.9343 3.92246 32.6492 4.49667C31.364 5.07089 30.1062 5.18027 28.0007 4.16855C24.8562 2.80136 21.9578 3.53964 20.2625 5.37167C18.5672 7.20371 16.7898 7.34043 15.0945 8.05136C13.3992 8.7623 12.1414 9.85605 10.4735 12.2896C8.26128 15.1862 8.05809 20.2193 8.23127 22.4889Z" fill="url(#paint20_radial_971_15519)"/>
<path d="M8.23127 22.4889L8.40212 29.6256C8.40212 30.9892 9.57048 31.3906 10.2339 31.433C10.3284 31.4391 10.4035 31.3616 10.4035 31.2669L10.3093 24.4303C10.3093 23.3639 10.634 22.1795 11.6218 21.2584C12.6336 20.315 13.2625 19.358 13.3992 18.2369C13.5014 17.3987 13.6663 16.9508 13.8206 16.6708C13.9331 16.4664 14.3158 16.5136 14.4167 16.724C15.8965 19.8088 18.7114 20.8207 20.8428 20.9826C21.7844 21.0541 22.4385 20.1845 22.4326 19.2402C22.4249 18.0007 22.5461 16.7815 22.7781 16.3639C26.6336 21.0943 32.2664 20.985 33.9343 20.9303C35.6023 20.8756 39.7039 20.985 42.6843 21.2311C45.0687 21.4279 45.5281 23.7467 45.5281 24.5396V31.2279C45.5281 31.3246 45.6064 31.4029 45.7031 31.4029H45.9C46.7569 31.4029 47.4436 30.718 47.4312 29.8612C47.4173 28.8897 47.4027 27.7155 47.4422 26.7545C47.5242 24.7584 47.4695 24.4029 48.8914 21.6959C50.1285 19.3406 50.7918 17.7037 50.0398 14.8053C49.4 12.3392 46.7312 10.8404 45.7195 10.3209C44.765 9.83077 44.2293 9.35019 43.7644 8.44785C43.2996 7.5455 42.6372 5.54324 39.1297 4.07285C35.9988 2.76035 33.9343 3.92246 32.6492 4.49667C31.364 5.07089 30.1062 5.18027 28.0007 4.16855C24.8562 2.80136 21.9578 3.53964 20.2625 5.37167C18.5672 7.20371 16.7898 7.34043 15.0945 8.05136C13.3992 8.7623 12.1414 9.85605 10.4735 12.2896C8.26128 15.1862 8.05809 20.2193 8.23127 22.4889Z" fill="url(#paint21_radial_971_15519)"/>
<path d="M8.23127 22.4889L8.40212 29.6256C8.40212 30.9892 9.57048 31.3906 10.2339 31.433C10.3284 31.4391 10.4035 31.3616 10.4035 31.2669L10.3093 24.4303C10.3093 23.3639 10.634 22.1795 11.6218 21.2584C12.6336 20.315 13.2625 19.358 13.3992 18.2369C13.5014 17.3987 13.6663 16.9508 13.8206 16.6708C13.9331 16.4664 14.3158 16.5136 14.4167 16.724C15.8965 19.8088 18.7114 20.8207 20.8428 20.9826C21.7844 21.0541 22.4385 20.1845 22.4326 19.2402C22.4249 18.0007 22.5461 16.7815 22.7781 16.3639C26.6336 21.0943 32.2664 20.985 33.9343 20.9303C35.6023 20.8756 39.7039 20.985 42.6843 21.2311C45.0687 21.4279 45.5281 23.7467 45.5281 24.5396V31.2279C45.5281 31.3246 45.6064 31.4029 45.7031 31.4029H45.9C46.7569 31.4029 47.4436 30.718 47.4312 29.8612C47.4173 28.8897 47.4027 27.7155 47.4422 26.7545C47.5242 24.7584 47.4695 24.4029 48.8914 21.6959C50.1285 19.3406 50.7918 17.7037 50.0398 14.8053C49.4 12.3392 46.7312 10.8404 45.7195 10.3209C44.765 9.83077 44.2293 9.35019 43.7644 8.44785C43.2996 7.5455 42.6372 5.54324 39.1297 4.07285C35.9988 2.76035 33.9343 3.92246 32.6492 4.49667C31.364 5.07089 30.1062 5.18027 28.0007 4.16855C24.8562 2.80136 21.9578 3.53964 20.2625 5.37167C18.5672 7.20371 16.7898 7.34043 15.0945 8.05136C13.3992 8.7623 12.1414 9.85605 10.4735 12.2896C8.26128 15.1862 8.05809 20.2193 8.23127 22.4889Z" fill="url(#paint22_radial_971_15519)"/>
</g>
<g id="Vector 374" filter="url(#filter10_f_971_15519)">
<path d="M14.6309 14.8962C15.0012 16.3674 16.6065 19.448 20.0653 20.0004" stroke="url(#paint23_linear_971_15519)" stroke-width="0.4" stroke-linecap="round"/>
</g>
<g id="Nose shadow" filter="url(#filter11_f_971_15519)">
<path d="M24.5813 35.8241L27.1501 31.8528C27.2874 31.6405 27.523 31.5123 27.7759 31.5123C28.0767 31.5123 28.3481 31.6932 28.4638 31.9709L30.07 35.8241H30.0542C30.2592 36.2132 30.2687 36.7077 29.988 37.1263C29.358 38.0501 28.5603 38.649 27.3703 38.649C26.1978 38.649 25.1938 38.0501 24.5813 37.1263C24.2744 36.6685 24.3181 36.2263 24.5813 35.8241Z" fill="#CF928D"/>
</g>
<g id="Nose" filter="url(#filter12_f_971_15519)">
<path d="M25.136 35.4939L27.3225 30.9367C27.4423 30.6869 27.6949 30.528 27.972 30.528C28.2468 30.528 28.4977 30.6843 28.6187 30.931L30.9092 35.6002H30.8935C31.0984 35.9893 31.1079 36.4838 30.8272 36.9023C30.1972 37.8262 29.1647 38.4303 27.9747 38.4303C26.8022 38.4303 25.7522 37.8262 25.1397 36.9023C24.8327 36.4446 24.8728 35.8961 25.136 35.4939Z" fill="#FAC4B1"/>
<path d="M25.136 35.4939L27.3225 30.9367C27.4423 30.6869 27.6949 30.528 27.972 30.528C28.2468 30.528 28.4977 30.6843 28.6187 30.931L30.9092 35.6002H30.8935C31.0984 35.9893 31.1079 36.4838 30.8272 36.9023C30.1972 37.8262 29.1647 38.4303 27.9747 38.4303C26.8022 38.4303 25.7522 37.8262 25.1397 36.9023C24.8327 36.4446 24.8728 35.8961 25.136 35.4939Z" fill="url(#paint24_linear_971_15519)"/>
<path d="M25.136 35.4939L27.3225 30.9367C27.4423 30.6869 27.6949 30.528 27.972 30.528C28.2468 30.528 28.4977 30.6843 28.6187 30.931L30.9092 35.6002H30.8935C31.0984 35.9893 31.1079 36.4838 30.8272 36.9023C30.1972 37.8262 29.1647 38.4303 27.9747 38.4303C26.8022 38.4303 25.7522 37.8262 25.1397 36.9023C24.8327 36.4446 24.8728 35.8961 25.136 35.4939Z" fill="url(#paint25_linear_971_15519)"/>
<path d="M25.136 35.4939L27.3225 30.9367C27.4423 30.6869 27.6949 30.528 27.972 30.528C28.2468 30.528 28.4977 30.6843 28.6187 30.931L30.9092 35.6002H30.8935C31.0984 35.9893 31.1079 36.4838 30.8272 36.9023C30.1972 37.8262 29.1647 38.4303 27.9747 38.4303C26.8022 38.4303 25.7522 37.8262 25.1397 36.9023C24.8327 36.4446 24.8728 35.8961 25.136 35.4939Z" fill="url(#paint26_linear_971_15519)"/>
<path d="M25.136 35.4939L27.3225 30.9367C27.4423 30.6869 27.6949 30.528 27.972 30.528C28.2468 30.528 28.4977 30.6843 28.6187 30.931L30.9092 35.6002H30.8935C31.0984 35.9893 31.1079 36.4838 30.8272 36.9023C30.1972 37.8262 29.1647 38.4303 27.9747 38.4303C26.8022 38.4303 25.7522 37.8262 25.1397 36.9023C24.8327 36.4446 24.8728 35.8961 25.136 35.4939Z" fill="url(#paint27_radial_971_15519)"/>
</g>
<path id="Nose highlight" d="M25.136 35.4939L27.3225 30.9367C27.4423 30.6869 27.6949 30.528 27.972 30.528C28.2468 30.528 28.4977 30.6843 28.6187 30.931L30.9092 35.6002H30.8935C31.0984 35.9893 31.1079 36.4838 30.8272 36.9023C30.1972 37.8262 29.1647 38.4303 27.9747 38.4303C26.8022 38.4303 25.7522 37.8262 25.1397 36.9023C24.8327 36.4446 24.8728 35.8961 25.136 35.4939Z" fill="url(#paint28_radial_971_15519)"/>
<path id="Eyes" d="M36.3846 27.0583C38.9311 27.0583 41.0822 28.814 41.6674 31.1865C41.8414 31.8667 41.3195 32.5151 40.6235 32.5151H31.9243C31.3707 32.5151 30.9278 32.009 31.0386 31.4554C31.5289 28.9564 33.7274 27.0583 36.3846 27.0583Z" fill="white"/>
<path id="Iris" d="M35.5775 28.1182C37.5072 28.1182 39.0572 29.684 39.0572 31.5979C39.0572 31.9142 39.0098 32.2305 38.9307 32.5152H32.2086C32.1295 32.2147 32.082 31.9142 32.082 31.5979C32.082 29.684 33.6479 28.1182 35.5775 28.1182Z" fill="url(#paint29_radial_971_15519)"/>
<path id="Pupils" d="M33.5859 31.5978C33.5859 30.4906 34.4717 29.6049 35.5789 29.6049C36.686 29.6049 37.5718 30.4906 37.5718 31.5978C37.5718 31.9299 37.4927 32.2463 37.3503 32.5151H33.8232C33.665 32.2463 33.5859 31.9299 33.5859 31.5978Z" fill="#111111"/>
<g id="Ellipse 4" filter="url(#filter13_f_971_15519)">
<path d="M35.3228 28.8537C35.5707 29.1853 35.0525 29.5895 34.4633 30.03C33.8741 30.4706 33.437 30.7806 33.1891 30.449C32.9412 30.1174 33.2179 29.4915 33.8071 29.051C34.3963 28.6105 35.0749 28.5221 35.3228 28.8537Z" fill="#C7A7A3"/>
<path d="M35.3228 28.8537C35.5707 29.1853 35.0525 29.5895 34.4633 30.03C33.8741 30.4706 33.437 30.7806 33.1891 30.449C32.9412 30.1174 33.2179 29.4915 33.8071 29.051C34.3963 28.6105 35.0749 28.5221 35.3228 28.8537Z" fill="url(#paint30_radial_971_15519)"/>
</g>
<g id="Vector 10" filter="url(#filter14_f_971_15519)">
<path d="M38.677 31.1396C38.5485 30.24 38.0221 29.562 37.775 29.3354L36.7617 30.4476L37.2189 31.3373L38.677 31.1396Z" fill="url(#paint31_linear_971_15519)"/>
</g>
<path id="Eyes_2" d="M19.5599 27.0792C17.0231 27.0792 14.8803 28.8282 14.2973 31.1916C14.1239 31.8692 14.6439 32.5152 15.3372 32.5152H24.0032C24.5547 32.5152 24.9959 32.011 24.8856 31.4595C24.3971 28.97 22.1912 27.0792 19.5599 27.0792Z" fill="white"/>
<path id="Iris_2" d="M20.3629 28.1349C18.4406 28.1349 16.8965 29.6948 16.8965 31.6013C16.8965 31.9164 16.9438 32.2316 17.0225 32.5152H23.719C23.7978 32.2158 23.8451 31.9164 23.8451 31.6013C23.8293 29.6948 22.2852 28.1349 20.3629 28.1349Z" fill="url(#paint32_radial_971_15519)"/>
<path id="Pupils_2" d="M22.3495 31.6013C22.3495 30.4983 21.4672 29.616 20.3642 29.616C19.2613 29.616 18.3789 30.4983 18.3789 31.6013C18.3789 31.9322 18.4577 32.2473 18.5995 32.5151H22.1132C22.255 32.2473 22.3495 31.9322 22.3495 31.6013Z" fill="#111111"/>
<g id="Vector 11" filter="url(#filter15_f_971_15519)">
<path d="M23.5312 31.1941C23.5312 30.0739 22.6203 29.3271 22.3741 29.1014L21.2539 30.1847L21.9432 31.588L23.5312 31.1941Z" fill="url(#paint33_linear_971_15519)"/>
</g>
<g id="Ellipse 5" filter="url(#filter16_f_971_15519)">
<ellipse cx="19.3168" cy="29.616" rx="1.51327" ry="0.765855" transform="rotate(-27.914 19.3168 29.616)" fill="#C7A7A3" fill-opacity="0.9"/>
<ellipse cx="19.3168" cy="29.616" rx="1.51327" ry="0.765855" transform="rotate(-27.914 19.3168 29.616)" fill="url(#paint34_radial_971_15519)"/>
</g>
<g id="Hair part" filter="url(#filter17_f_971_15519)">
<path d="M30.5698 19.2395C24.9111 19.2395 21.7868 12.6942 21.1562 9.12125C29.3594 2.42203 39.2233 8.35218 44.8288 12.5631C49.3131 15.9319 47.6087 20.7115 46.442 22.3522C46.0464 20.9303 44.4354 19.7948 42.6558 19.5084C40.2769 19.1256 36.2285 19.2395 30.5698 19.2395Z" fill="url(#paint35_radial_971_15519)"/>
<path d="M30.5698 19.2395C24.9111 19.2395 21.7868 12.6942 21.1562 9.12125C29.3594 2.42203 39.2233 8.35218 44.8288 12.5631C49.3131 15.9319 47.6087 20.7115 46.442 22.3522C46.0464 20.9303 44.4354 19.7948 42.6558 19.5084C40.2769 19.1256 36.2285 19.2395 30.5698 19.2395Z" fill="url(#paint36_radial_971_15519)"/>
</g>
<g id="Vector 368" filter="url(#filter18_f_971_15519)">
<path d="M21.1582 11.417C21.2402 12.055 21.7707 13.8287 23.2363 15.8193" stroke="url(#paint37_linear_971_15519)" stroke-width="0.15"/>
</g>
<g id="Vector 370" filter="url(#filter19_f_971_15519)">
<path d="M39.6426 11.1924H32.4314C31.2019 11.1924 30.2051 12.1892 30.2051 13.4187C30.2051 14.6483 31.2007 15.6451 32.4303 15.6451H41.0058C44.7808 15.6451 46.3886 16.7053 46.7207 17.2354C45.5043 12.401 41.4951 11.1924 39.6426 11.1924Z" fill="#504A4C"/>
</g>
<g id="Vector 371" filter="url(#filter20_f_971_15519)">
<path d="M46.7207 29.8689V25.3052" stroke="url(#paint38_linear_971_15519)" stroke-width="0.4" stroke-linecap="round"/>
</g>
<g id="Vector 372" filter="url(#filter21_f_971_15519)">
<path d="M21.6977 19.5097C21.6677 19.0143 21.6977 16.8075 22.163 15.3213" stroke="url(#paint39_linear_971_15519)" stroke-width="0.4" stroke-linecap="round"/>
</g>
<g id="Vector 373" filter="url(#filter22_f_971_15519)">
<path d="M21.6973 11.283C22.0976 12.614 23.3967 15.6725 25.3903 17.2578" stroke="url(#paint40_linear_971_15519)" stroke-width="0.4" stroke-linecap="round"/>
</g>
</g>
<defs>
<filter id="filter0_i_971_15519" x="5.23242" y="25.3052" width="11.575" height="11.375" filterUnits="userSpaceOnUse" color-interpolation-filters="sRGB">
<feFlood flood-opacity="0" result="BackgroundImageFix"/>
<feBlend mode="normal" in="SourceGraphic" in2="BackgroundImageFix" result="shape"/>
<feColorMatrix in="SourceAlpha" type="matrix" values="0 0 0 0 0 0 0 0 0 0 0 0 0 0 0 0 0 0 127 0" result="hardAlpha"/>
<feOffset dx="0.2"/>
<feGaussianBlur stdDeviation="0.15"/>
<feComposite in2="hardAlpha" operator="arithmetic" k2="-1" k3="1"/>
<feColorMatrix type="matrix" values="0 0 0 0 0.917647 0 0 0 0 0.694118 0 0 0 0 0.607843 0 0 0 1 0"/>
<feBlend mode="normal" in2="shape" result="effect1_innerShadow_971_15519"/>
</filter>
<filter id="filter1_f_971_15519" x="6.70898" y="26.7823" width="8.41992" height="8.42053" filterUnits="userSpaceOnUse" color-interpolation-filters="sRGB">
<feFlood flood-opacity="0" result="BackgroundImageFix"/>
<feBlend mode="normal" in="SourceGraphic" in2="BackgroundImageFix" result="shape"/>
<feGaussianBlur stdDeviation="0.25" result="effect1_foregroundBlur_971_15519"/>
</filter>
<filter id="filter2_i_971_15519" x="39.3926" y="25.0552" width="11.625" height="11.625" filterUnits="userSpaceOnUse" color-interpolation-filters="sRGB">
<feFlood flood-opacity="0" result="BackgroundImageFix"/>
<feBlend mode="normal" in="SourceGraphic" in2="BackgroundImageFix" result="shape"/>
<feColorMatrix in="SourceAlpha" type="matrix" values="0 0 0 0 0 0 0 0 0 0 0 0 0 0 0 0 0 0 127 0" result="hardAlpha"/>
<feOffset dx="0.25" dy="-0.25"/>
<feGaussianBlur stdDeviation="0.25"/>
<feComposite in2="hardAlpha" operator="arithmetic" k2="-1" k3="1"/>
<feColorMatrix type="matrix" values="0 0 0 0 0.843137 0 0 0 0 0.623529 0 0 0 0 0.580392 0 0 0 1 0"/>
<feBlend mode="normal" in2="shape" result="effect1_innerShadow_971_15519"/>
</filter>
<filter id="filter3_f_971_15519" x="40.8691" y="26.7823" width="8.41992" height="8.42053" filterUnits="userSpaceOnUse" color-interpolation-filters="sRGB">
<feFlood flood-opacity="0" result="BackgroundImageFix"/>
<feBlend mode="normal" in="SourceGraphic" in2="BackgroundImageFix" result="shape"/>
<feGaussianBlur stdDeviation="0.25" result="effect1_foregroundBlur_971_15519"/>
</filter>
<filter id="filter4_i_971_15519" x="10.0449" y="7.03674" width="36.875" height="45.5" filterUnits="userSpaceOnUse" color-interpolation-filters="sRGB">
<feFlood flood-opacity="0" result="BackgroundImageFix"/>
<feBlend mode="normal" in="SourceGraphic" in2="BackgroundImageFix" result="shape"/>
<feColorMatrix in="SourceAlpha" type="matrix" values="0 0 0 0 0 0 0 0 0 0 0 0 0 0 0 0 0 0 127 0" result="hardAlpha"/>
<feOffset dx="1"/>
<feGaussianBlur stdDeviation="1.25"/>
<feComposite in2="hardAlpha" operator="arithmetic" k2="-1" k3="1"/>
<feColorMatrix type="matrix" values="0 0 0 0 0.913725 0 0 0 0 0.686275 0 0 0 0 0.592157 0 0 0 1 0"/>
<feBlend mode="normal" in2="shape" result="effect1_innerShadow_971_15519"/>
</filter>
<filter id="filter5_i_971_15519" x="16.002" y="23.3811" width="5.52227" height="1.71062" filterUnits="userSpaceOnUse" color-interpolation-filters="sRGB">
<feFlood flood-opacity="0" result="BackgroundImageFix"/>
<feBlend mode="normal" in="SourceGraphic" in2="BackgroundImageFix" result="shape"/>
<feColorMatrix in="SourceAlpha" type="matrix" values="0 0 0 0 0 0 0 0 0 0 0 0 0 0 0 0 0 0 127 0" result="hardAlpha"/>
<feOffset dx="0.2" dy="-0.2"/>
<feGaussianBlur stdDeviation="0.2"/>
<feComposite in2="hardAlpha" operator="arithmetic" k2="-1" k3="1"/>
<feColorMatrix type="matrix" values="0 0 0 0 0.0352941 0 0 0 0 0.027451 0 0 0 0 0.0313726 0 0 0 1 0"/>
<feBlend mode="normal" in2="shape" result="effect1_innerShadow_971_15519"/>
</filter>
<filter id="filter6_f_971_15519" x="16.0516" y="23.631" width="5.22305" height="1.41055" filterUnits="userSpaceOnUse" color-interpolation-filters="sRGB">
<feFlood flood-opacity="0" result="BackgroundImageFix"/>
<feBlend mode="normal" in="SourceGraphic" in2="BackgroundImageFix" result="shape"/>
<feGaussianBlur stdDeviation="0.15" result="effect1_foregroundBlur_971_15519"/>
</filter>
<filter id="filter7_i_971_15519" x="33.6777" y="23.3811" width="5.52227" height="1.71062" filterUnits="userSpaceOnUse" color-interpolation-filters="sRGB">
<feFlood flood-opacity="0" result="BackgroundImageFix"/>
<feBlend mode="normal" in="SourceGraphic" in2="BackgroundImageFix" result="shape"/>
<feColorMatrix in="SourceAlpha" type="matrix" values="0 0 0 0 0 0 0 0 0 0 0 0 0 0 0 0 0 0 127 0" result="hardAlpha"/>
<feOffset dx="0.2" dy="-0.2"/>
<feGaussianBlur stdDeviation="0.2"/>
<feComposite in2="hardAlpha" operator="arithmetic" k2="-1" k3="1"/>
<feColorMatrix type="matrix" values="0 0 0 0 0.0352941 0 0 0 0 0.027451 0 0 0 0 0.0313726 0 0 0 1 0"/>
<feBlend mode="normal" in2="shape" result="effect1_innerShadow_971_15519"/>
</filter>
<filter id="filter8_f_971_15519" x="33.7273" y="23.631" width="5.22305" height="1.41055" filterUnits="userSpaceOnUse" color-interpolation-filters="sRGB">
<feFlood flood-opacity="0" result="BackgroundImageFix"/>
<feBlend mode="normal" in="SourceGraphic" in2="BackgroundImageFix" result="shape"/>
<feGaussianBlur stdDeviation="0.15" result="effect1_foregroundBlur_971_15519"/>
</filter>
<filter id="filter9_i_971_15519" x="8.18359" y="2.46326" width="42.1738" height="28.9701" filterUnits="userSpaceOnUse" color-interpolation-filters="sRGB">
<feFlood flood-opacity="0" result="BackgroundImageFix"/>
<feBlend mode="normal" in="SourceGraphic" in2="BackgroundImageFix" result="shape"/>
<feColorMatrix in="SourceAlpha" type="matrix" values="0 0 0 0 0 0 0 0 0 0 0 0 0 0 0 0 0 0 127 0" result="hardAlpha"/>
<feOffset dy="-1"/>
<feGaussianBlur stdDeviation="0.5"/>
<feComposite in2="hardAlpha" operator="arithmetic" k2="-1" k3="1"/>
<feColorMatrix type="matrix" values="0 0 0 0 0.105882 0 0 0 0 0.0588235 0 0 0 0 0.0745098 0 0 0 1 0"/>
<feBlend mode="normal" in2="shape" result="effect1_innerShadow_971_15519"/>
</filter>
<filter id="filter10_f_971_15519" x="14.2316" y="14.4962" width="6.23398" height="5.90427" filterUnits="userSpaceOnUse" color-interpolation-filters="sRGB">
<feFlood flood-opacity="0" result="BackgroundImageFix"/>
<feBlend mode="normal" in="SourceGraphic" in2="BackgroundImageFix" result="shape"/>
<feGaussianBlur stdDeviation="0.1" result="effect1_foregroundBlur_971_15519"/>
</filter>
<filter id="filter11_f_971_15519" x="23.8672" y="31.0123" width="6.83594" height="8.13672" filterUnits="userSpaceOnUse" color-interpolation-filters="sRGB">
<feFlood flood-opacity="0" result="BackgroundImageFix"/>
<feBlend mode="normal" in="SourceGraphic" in2="BackgroundImageFix" result="shape"/>
<feGaussianBlur stdDeviation="0.25" result="effect1_foregroundBlur_971_15519"/>
</filter>
<filter id="filter12_f_971_15519" x="24.6738" y="30.278" width="6.61914" height="8.40228" filterUnits="userSpaceOnUse" color-interpolation-filters="sRGB">
<feFlood flood-opacity="0" result="BackgroundImageFix"/>
<feBlend mode="normal" in="SourceGraphic" in2="BackgroundImageFix" result="shape"/>
<feGaussianBlur stdDeviation="0.125" result="effect1_foregroundBlur_971_15519"/>
</filter>
<filter id="filter13_f_971_15519" x="32.9977" y="28.553" width="2.48906" height="2.13518" filterUnits="userSpaceOnUse" color-interpolation-filters="sRGB">
<feFlood flood-opacity="0" result="BackgroundImageFix"/>
<feBlend mode="normal" in="SourceGraphic" in2="BackgroundImageFix" result="shape"/>
<feGaussianBlur stdDeviation="0.05" result="effect1_foregroundBlur_971_15519"/>
</filter>
<filter id="filter14_f_971_15519" x="36.5617" y="29.1354" width="2.31602" height="2.40183" filterUnits="userSpaceOnUse" color-interpolation-filters="sRGB">
<feFlood flood-opacity="0" result="BackgroundImageFix"/>
<feBlend mode="normal" in="SourceGraphic" in2="BackgroundImageFix" result="shape"/>
<feGaussianBlur stdDeviation="0.1" result="effect1_foregroundBlur_971_15519"/>
</filter>
<filter id="filter15_f_971_15519" x="21.0539" y="28.9014" width="2.67734" height="2.88657" filterUnits="userSpaceOnUse" color-interpolation-filters="sRGB">
<feFlood flood-opacity="0" result="BackgroundImageFix"/>
<feBlend mode="normal" in="SourceGraphic" in2="BackgroundImageFix" result="shape"/>
<feGaussianBlur stdDeviation="0.1" result="effect1_foregroundBlur_971_15519"/>
</filter>
<filter id="filter16_f_971_15519" x="17.8316" y="28.5364" width="2.96953" height="2.15935" filterUnits="userSpaceOnUse" color-interpolation-filters="sRGB">
<feFlood flood-opacity="0" result="BackgroundImageFix"/>
<feBlend mode="normal" in="SourceGraphic" in2="BackgroundImageFix" result="shape"/>
<feGaussianBlur stdDeviation="0.05" result="effect1_foregroundBlur_971_15519"/>
</filter>
<filter id="filter17_f_971_15519" x="20.1562" y="5.09888" width="28.5977" height="18.2533" filterUnits="userSpaceOnUse" color-interpolation-filters="sRGB">
<feFlood flood-opacity="0" result="BackgroundImageFix"/>
<feBlend mode="normal" in="SourceGraphic" in2="BackgroundImageFix" result="shape"/>
<feGaussianBlur stdDeviation="0.5" result="effect1_foregroundBlur_971_15519"/>
</filter>
<filter id="filter18_f_971_15519" x="20.834" y="11.1575" width="2.71289" height="4.9563" filterUnits="userSpaceOnUse" color-interpolation-filters="sRGB">
<feFlood flood-opacity="0" result="BackgroundImageFix"/>
<feBlend mode="normal" in="SourceGraphic" in2="BackgroundImageFix" result="shape"/>
<feGaussianBlur stdDeviation="0.125" result="effect1_foregroundBlur_971_15519"/>
</filter>
<filter id="filter19_f_971_15519" x="28.7051" y="9.69238" width="19.5156" height="9.04297" filterUnits="userSpaceOnUse" color-interpolation-filters="sRGB">
<feFlood flood-opacity="0" result="BackgroundImageFix"/>
<feBlend mode="normal" in="SourceGraphic" in2="BackgroundImageFix" result="shape"/>
<feGaussianBlur stdDeviation="0.75" result="effect1_foregroundBlur_971_15519"/>
</filter>
<filter id="filter20_f_971_15519" x="46.1215" y="24.7052" width="1.19844" height="5.76362" filterUnits="userSpaceOnUse" color-interpolation-filters="sRGB">
<feFlood flood-opacity="0" result="BackgroundImageFix"/>
<feBlend mode="normal" in="SourceGraphic" in2="BackgroundImageFix" result="shape"/>
<feGaussianBlur stdDeviation="0.2" result="effect1_foregroundBlur_971_15519"/>
</filter>
<filter id="filter21_f_971_15519" x="21.2902" y="14.9212" width="1.27305" height="4.9885" filterUnits="userSpaceOnUse" color-interpolation-filters="sRGB">
<feFlood flood-opacity="0" result="BackgroundImageFix"/>
<feBlend mode="normal" in="SourceGraphic" in2="BackgroundImageFix" result="shape"/>
<feGaussianBlur stdDeviation="0.1" result="effect1_foregroundBlur_971_15519"/>
</filter>
<filter id="filter22_f_971_15519" x="21.298" y="10.8829" width="4.4918" height="6.775" filterUnits="userSpaceOnUse" color-interpolation-filters="sRGB">
<feFlood flood-opacity="0" result="BackgroundImageFix"/>
<feBlend mode="normal" in="SourceGraphic" in2="BackgroundImageFix" result="shape"/>
<feGaussianBlur stdDeviation="0.1" result="effect1_foregroundBlur_971_15519"/>
</filter>
<radialGradient id="paint0_radial_971_15519" cx="0" cy="0" r="1" gradientUnits="userSpaceOnUse" gradientTransform="translate(5.23242 30.9927) scale(5.97845 10.4623)">
<stop offset="0.350532" stop-color="#CF9888"/>
<stop offset="1" stop-color="#BE8C77"/>
</radialGradient>
<linearGradient id="paint1_linear_971_15519" x1="10.9192" y1="32.0317" x2="8.53056" y2="32.0317" gradientUnits="userSpaceOnUse">
<stop stop-color="#BA7C6B"/>
<stop offset="1" stop-color="#BE8474"/>
</linearGradient>
<linearGradient id="paint2_linear_971_15519" x1="48.7813" y1="27.274" x2="45.9922" y2="35.9146" gradientUnits="userSpaceOnUse">
<stop stop-color="#FBD3BD"/>
<stop offset="1" stop-color="#F0B8A4"/>
</linearGradient>
<radialGradient id="paint3_radial_971_15519" cx="0" cy="0" r="1" gradientUnits="userSpaceOnUse" gradientTransform="translate(46.3477 30.0904) rotate(-36.0604) scale(3.48394 3.97647)">
<stop offset="0.542503" stop-color="#D9AA94"/>
<stop offset="1" stop-color="#D9AA94" stop-opacity="0"/>
</radialGradient>
<radialGradient id="paint4_radial_971_15519" cx="0" cy="0" r="1" gradientUnits="userSpaceOnUse" gradientTransform="translate(44.9252 34.0552) rotate(-61.4675) scale(6.41151 3.75268)">
<stop offset="0.754913" stop-color="#D6A38D" stop-opacity="0"/>
<stop offset="0.915553" stop-color="#D6A38D"/>
</radialGradient>
<radialGradient id="paint5_radial_971_15519" cx="0" cy="0" r="1" gradientUnits="userSpaceOnUse" gradientTransform="translate(45.0794 30.9926) rotate(44.7077) scale(1.36047 1.75384)">
<stop stop-color="#D5A58E"/>
<stop offset="1" stop-color="#D5A58E" stop-opacity="0"/>
</radialGradient>
<radialGradient id="paint6_radial_971_15519" cx="0" cy="0" r="1" gradientUnits="userSpaceOnUse" gradientTransform="translate(40.1406 29.7867) rotate(152.58) scale(30.0653 34.0508)">
<stop stop-color="#FFDCC1"/>
<stop offset="0.400728" stop-color="#EEB8A8"/>
<stop offset="0.854306" stop-color="#D7A296"/>
</radialGradient>
<radialGradient id="paint7_radial_971_15519" cx="0" cy="0" r="1" gradientUnits="userSpaceOnUse" gradientTransform="translate(34.5624 32.1479) rotate(180) scale(8.3125 5.21718)">
<stop stop-color="#FFE0C1"/>
<stop offset="1" stop-color="#FFE0C1" stop-opacity="0"/>
</radialGradient>
<radialGradient id="paint8_radial_971_15519" cx="0" cy="0" r="1" gradientUnits="userSpaceOnUse" gradientTransform="translate(36.5859 28.1671) rotate(-90) scale(4.33175 5.64441)">
<stop offset="0.232329" stop-color="#F9BDAB"/>
<stop offset="1" stop-color="#F9BDAB" stop-opacity="0"/>
</radialGradient>
<radialGradient id="paint9_radial_971_15519" cx="0" cy="0" r="1" gradientUnits="userSpaceOnUse" gradientTransform="translate(21.5468 28.7997) rotate(-90) scale(3.97997 4.30777)">
<stop offset="0.0531246" stop-color="#CF968E"/>
<stop offset="1" stop-color="#CF968E" stop-opacity="0"/>
</radialGradient>
<linearGradient id="paint10_linear_971_15519" x1="47.794" y1="29.7867" x2="42.4654" y2="29.7867" gradientUnits="userSpaceOnUse">
<stop stop-color="#FFD4B8"/>
<stop offset="1" stop-color="#FFD4B8" stop-opacity="0"/>
</linearGradient>
<radialGradient id="paint11_radial_971_15519" cx="0" cy="0" r="1" gradientUnits="userSpaceOnUse" gradientTransform="translate(25.1015 15.2494) rotate(40.6013) scale(8.5713 5.09532)">
<stop offset="0.0152249" stop-color="#AB7A6E"/>
<stop offset="1" stop-color="#AB7A6E" stop-opacity="0"/>
</radialGradient>
<radialGradient id="paint12_radial_971_15519" cx="0" cy="0" r="1" gradientUnits="userSpaceOnUse" gradientTransform="translate(15.6406 15.933) rotate(42.842) scale(6.67529 3.49373)">
<stop stop-color="#B48276"/>
<stop offset="1" stop-color="#B48276" stop-opacity="0"/>
</radialGradient>
<radialGradient id="paint13_radial_971_15519" cx="0" cy="0" r="1" gradientUnits="userSpaceOnUse" gradientTransform="translate(10.707 17.4736) rotate(106.302) scale(5.66619 4.29925)">
<stop offset="0.509935" stop-color="#AD7966"/>
<stop offset="1" stop-color="#AD7966" stop-opacity="0"/>
</radialGradient>
<radialGradient id="paint14_radial_971_15519" cx="0" cy="0" r="1" gradientUnits="userSpaceOnUse" gradientTransform="translate(30.5156 26.4604) rotate(96.8158) scale(27.6485 31.3104)">
<stop offset="0.638443" stop-color="#B57894" stop-opacity="0"/>
<stop offset="1" stop-color="#B57894"/>
</radialGradient>
<radialGradient id="paint15_radial_971_15519" cx="0" cy="0" r="1" gradientUnits="userSpaceOnUse" gradientTransform="translate(18.539 19.5151) rotate(120.256) scale(1.89936 4.05407)">
<stop offset="0.150479" stop-color="#B28075"/>
<stop offset="1" stop-color="#B28075" stop-opacity="0"/>
</radialGradient>
<linearGradient id="paint16_linear_971_15519" x1="20.3979" y1="24.3363" x2="16.1049" y2="25.0865" gradientUnits="userSpaceOnUse">
<stop stop-color="#353535"/>
<stop offset="1" stop-color="#353535" stop-opacity="0"/>
</linearGradient>
<linearGradient id="paint17_linear_971_15519" x1="38.0737" y1="24.3363" x2="33.7807" y2="25.0865" gradientUnits="userSpaceOnUse">
<stop stop-color="#353535"/>
<stop offset="1" stop-color="#353535" stop-opacity="0"/>
</linearGradient>
<radialGradient id="paint18_radial_971_15519" cx="0" cy="0" r="1" gradientUnits="userSpaceOnUse" gradientTransform="translate(10.0626 29.1334) rotate(-90) scale(10.9748 12.8049)">
<stop stop-color="#1A151A"/>
<stop offset="1" stop-color="#1A151A" stop-opacity="0"/>
</radialGradient>
<radialGradient id="paint19_radial_971_15519" cx="0" cy="0" r="1" gradientUnits="userSpaceOnUse" gradientTransform="translate(44.4558 7.52993) rotate(65.8978) scale(9.9992 6.85042)">
<stop stop-color="#4F484B"/>
<stop offset="1" stop-color="#4F484B" stop-opacity="0"/>
</radialGradient>
<radialGradient id="paint20_radial_971_15519" cx="0" cy="0" r="1" gradientUnits="userSpaceOnUse" gradientTransform="translate(17.1936 5.60836) rotate(149.036) scale(8.40343 7.90911)">
<stop stop-color="#434041"/>
<stop offset="1" stop-color="#434041" stop-opacity="0"/>
</radialGradient>
<radialGradient id="paint21_radial_971_15519" cx="0" cy="0" r="1" gradientUnits="userSpaceOnUse" gradientTransform="translate(7.34553 17.9785) rotate(28.1237) scale(7.89822 12.2336)">
<stop stop-color="#514745"/>
<stop offset="1" stop-color="#514745" stop-opacity="0"/>
</radialGradient>
<radialGradient id="paint22_radial_971_15519" cx="0" cy="0" r="1" gradientUnits="userSpaceOnUse" gradientTransform="translate(45.7304 9.15992) rotate(67.9952) scale(12.3494 3.39561)">
<stop stop-color="#514B4D"/>
<stop offset="1" stop-color="#514B4D" stop-opacity="0"/>
</radialGradient>
<linearGradient id="paint23_linear_971_15519" x1="15.7117" y1="15.857" x2="20.2454" y2="20.5108" gradientUnits="userSpaceOnUse">
<stop stop-color="#3D383A"/>
<stop offset="1" stop-color="#3D383A" stop-opacity="0"/>
</linearGradient>
<linearGradient id="paint24_linear_971_15519" x1="30.3988" y1="33.9181" x2="28.386" y2="34.1768" gradientUnits="userSpaceOnUse">
<stop stop-color="#FFDAC2"/>
<stop offset="1" stop-color="#FFDAC2" stop-opacity="0"/>
</linearGradient>
<linearGradient id="paint25_linear_971_15519" x1="24.501" y1="36.4069" x2="27.3447" y2="36.8444" gradientUnits="userSpaceOnUse">
<stop stop-color="#DEA790"/>
<stop offset="1" stop-color="#DEA790" stop-opacity="0"/>
</linearGradient>
<linearGradient id="paint26_linear_971_15519" x1="27.9834" y1="38.6217" x2="27.9834" y2="35.9967" gradientUnits="userSpaceOnUse">
<stop stop-color="#D49597"/>
<stop offset="1" stop-color="#D49597" stop-opacity="0"/>
</linearGradient>
<radialGradient id="paint27_radial_971_15519" cx="0" cy="0" r="1" gradientUnits="userSpaceOnUse" gradientTransform="translate(29.0617 36.3334) rotate(180) scale(2.04154 0.640484)">
<stop stop-color="#FFD6C2"/>
<stop offset="1" stop-color="#FFD6C2" stop-opacity="0"/>
</radialGradient>
<radialGradient id="paint28_radial_971_15519" cx="0" cy="0" r="1" gradientUnits="userSpaceOnUse" gradientTransform="translate(27.9835 32.9069) rotate(90) scale(5.74219 4.79499)">
<stop offset="0.866667" stop-color="#CD8D8E" stop-opacity="0"/>
<stop offset="1" stop-color="#CD8D8E"/>
</radialGradient>
<radialGradient id="paint29_radial_971_15519" cx="0" cy="0" r="1" gradientUnits="userSpaceOnUse" gradientTransform="translate(35.5696 29.9781) rotate(90) scale(3.16336 5.03167)">
<stop offset="0.80198" stop-color="#7D574A"/>
<stop offset="1" stop-color="#694B43"/>
<stop offset="1" stop-color="#804D49"/>
<stop offset="1" stop-color="#664944"/>
</radialGradient>
<radialGradient id="paint30_radial_971_15519" cx="0" cy="0" r="1" gradientUnits="userSpaceOnUse" gradientTransform="translate(34.681 30.3061) rotate(-127.812) scale(1.47495 2.03066)">
<stop offset="0.765532" stop-color="#FFE6E2" stop-opacity="0"/>
<stop offset="0.966159" stop-color="#FFE6E2"/>
</radialGradient>
<linearGradient id="paint31_linear_971_15519" x1="38.6029" y1="30.1881" x2="37.3796" y2="30.9418" gradientUnits="userSpaceOnUse">
<stop stop-color="#B4948D"/>
<stop offset="1" stop-color="#B4948D" stop-opacity="0"/>
</linearGradient>
<radialGradient id="paint32_radial_971_15519" cx="0" cy="0" r="1" gradientUnits="userSpaceOnUse" gradientTransform="translate(20.3708 29.9877) rotate(90) scale(3.15128 5.01246)">
<stop offset="0.80198" stop-color="#7D574A"/>
<stop offset="1" stop-color="#694B43"/>
<stop offset="1" stop-color="#804D49"/>
<stop offset="1" stop-color="#664944"/>
</radialGradient>
<linearGradient id="paint33_linear_971_15519" x1="23.2613" y1="30.197" x2="22.0426" y2="30.9479" gradientUnits="userSpaceOnUse">
<stop stop-color="#B4948D"/>
<stop offset="1" stop-color="#B4948D" stop-opacity="0"/>
</linearGradient>
<radialGradient id="paint34_radial_971_15519" cx="0" cy="0" r="1" gradientUnits="userSpaceOnUse" gradientTransform="translate(19.2582 30.8392) rotate(-90.897) scale(1.91923 2.30699)">
<stop offset="0.765532" stop-color="#FFE6E2" stop-opacity="0"/>
<stop offset="0.966159" stop-color="#FFE6E2"/>
</radialGradient>
<radialGradient id="paint35_radial_971_15519" cx="0" cy="0" r="1" gradientUnits="userSpaceOnUse" gradientTransform="translate(33.106 20.2603) rotate(-66.9876) scale(12.1348 19.8585)">
<stop offset="0.913828" stop-color="#4C4749" stop-opacity="0"/>
<stop offset="1" stop-color="#4C4749"/>
</radialGradient>
<radialGradient id="paint36_radial_971_15519" cx="0" cy="0" r="1" gradientUnits="userSpaceOnUse" gradientTransform="translate(33.3462 7.4699) rotate(101.203) scale(12.6716 20.737)">
<stop offset="0.73932" stop-color="#221C27" stop-opacity="0"/>
<stop offset="1" stop-color="#221C27"/>
</radialGradient>
<linearGradient id="paint37_linear_971_15519" x1="21.1582" y1="12.514" x2="24.6094" y2="17.7082" gradientUnits="userSpaceOnUse">
<stop stop-color="#261C1C"/>
<stop offset="1" stop-color="#261C1C" stop-opacity="0"/>
</linearGradient>
<linearGradient id="paint38_linear_971_15519" x1="46.5663" y1="29.4486" x2="46.5663" y2="24.9741" gradientUnits="userSpaceOnUse">
<stop offset="0.356259" stop-color="#3B3739"/>
<stop offset="1" stop-color="#3B3739" stop-opacity="0"/>
</linearGradient>
<linearGradient id="paint39_linear_971_15519" x1="21.6468" y1="19.2083" x2="22.0579" y2="15.1111" gradientUnits="userSpaceOnUse">
<stop offset="0.3704" stop-color="#3D383A"/>
<stop offset="1" stop-color="#3D383A" stop-opacity="0"/>
</linearGradient>
<linearGradient id="paint40_linear_971_15519" x1="21.9074" y1="11.283" x2="25.6605" y2="16.8675" gradientUnits="userSpaceOnUse">
<stop stop-color="#3D383A"/>
<stop offset="1" stop-color="#3D383A" stop-opacity="0"/>
</linearGradient>
</defs>
</svg>
