<svg width="60" height="60" viewBox="0 0 60 60" fill="none" xmlns="http://www.w3.org/2000/svg">
<g id="&#240;&#159;&#166;&#134; icon &#34;Verified Check&#34;">
<path id="Vector" fill-rule="evenodd" clip-rule="evenodd" d="M22.7772 3.60082C22.0466 4.22341 21.6813 4.53475 21.2912 4.79623C20.3969 5.39563 19.3925 5.81164 18.3363 6.02017C17.8755 6.11116 17.3971 6.14932 16.4402 6.22567C14.0361 6.41755 12.834 6.51346 11.8311 6.8677C9.51154 7.687 7.687 9.51154 6.8677 11.8311C6.51346 12.834 6.41755 14.0361 6.22567 16.4402C6.14932 17.3971 6.11116 17.8755 6.02017 18.3363C5.81164 19.3925 5.39563 20.3969 4.79623 21.2912C4.53475 21.6813 4.22344 22.0466 3.60082 22.7772C2.0365 24.6129 1.25431 25.5306 0.795667 26.4903C-0.265223 28.71 -0.265223 31.29 0.795667 33.5097C1.25434 34.4694 2.0365 35.3871 3.60082 37.2228C4.22335 37.9533 4.53475 38.3187 4.79623 38.7087C5.39563 39.603 5.81164 40.6074 6.02017 41.6637C6.11116 42.1245 6.14932 42.603 6.22567 43.5597C6.41755 45.9639 6.51346 47.166 6.8677 48.1689C7.687 50.4885 9.51154 52.3131 11.8311 53.1324C12.834 53.4864 14.0361 53.5824 16.4402 53.7744C17.3971 53.8506 17.8755 53.889 18.3363 53.9799C19.3925 54.1884 20.3969 54.6045 21.2912 55.2039C21.6813 55.4652 22.0466 55.7766 22.7772 56.3991C24.6129 57.9636 25.5306 58.7457 26.4903 59.2044C28.71 60.2652 31.29 60.2652 33.5097 59.2044C34.4694 58.7457 35.3871 57.9636 37.2228 56.3991C37.9533 55.7766 38.3187 55.4652 38.7087 55.2039C39.603 54.6045 40.6074 54.1884 41.6637 53.9799C42.1245 53.889 42.603 53.8506 43.5597 53.7744C45.9639 53.5824 47.166 53.4864 48.1689 53.1324C50.4885 52.3131 52.3131 50.4885 53.1324 48.1689C53.4864 47.166 53.5824 45.9639 53.7744 43.5597C53.8506 42.603 53.889 42.1245 53.9799 41.6637C54.1884 40.6074 54.6045 39.603 55.2039 38.7087C55.4652 38.3187 55.7766 37.9533 56.3991 37.2228C57.9636 35.3871 58.7457 34.4694 59.2044 33.5097C60.2652 31.29 60.2652 28.71 59.2044 26.4903C58.7457 25.5306 57.9636 24.6129 56.3991 22.7772C55.7766 22.0466 55.4652 21.6813 55.2039 21.2912C54.6045 20.3969 54.1884 19.3925 53.9799 18.3363C53.889 17.8755 53.8506 17.3971 53.7744 16.4402C53.5824 14.0361 53.4864 12.834 53.1324 11.8311C52.3131 9.51154 50.4885 7.687 48.1689 6.8677C47.166 6.51346 45.9639 6.41755 43.5597 6.22567C42.603 6.14932 42.1245 6.11116 41.6637 6.02017C40.6074 5.81164 39.603 5.39563 38.7087 4.79623C38.3187 4.53475 37.9533 4.22344 37.2228 3.60082C35.3871 2.0365 34.4694 1.25434 33.5097 0.795667C31.29 -0.265223 28.71 -0.265223 26.4903 0.795667C25.5306 1.25431 24.6129 2.0365 22.7772 3.60082ZM43.1205 23.5894C44.0739 22.6359 44.0739 21.09 43.1205 20.1365C42.1671 19.183 40.6209 19.183 39.6675 20.1365L25.1169 34.6872L20.3324 29.9028C19.3789 28.9494 17.833 28.9494 16.8795 29.9028C15.926 30.8562 15.926 32.4021 16.8795 33.3558L23.3903 39.8667C24.3438 40.8201 25.8897 40.8201 26.8434 39.8667L43.1205 23.5894Z" fill="#F1DBFE"/>
</g>
</svg>
