<svg width="28" height="28" viewBox="0 0 28 28" fill="none" xmlns="http://www.w3.org/2000/svg">
<path d="M11.5505 15.5737C13.1549 15.5737 14.4555 14.2731 14.4555 12.6687C14.4555 11.0643 13.1549 9.76367 11.5505 9.76367C9.94612 9.76367 8.64551 11.0643 8.64551 12.6687C8.64551 14.2731 9.94612 15.5737 11.5505 15.5737Z" fill="#A30FFA" fill-opacity="0.15" stroke="#A30FFA" stroke-width="1.17833" stroke-miterlimit="10"/>
<path d="M11.5508 7.81641C11.4341 7.81641 11.3291 7.78141 11.2241 7.72307C10.8741 7.48974 10.4191 7.16307 10.0808 6.70807C9.96413 6.55641 9.60246 6.01974 9.77746 5.58807C9.85913 5.40141 10.0575 5.23807 10.2558 5.20307C10.3141 5.20307 10.3725 5.19141 10.4308 5.19141C10.5475 5.19141 10.6408 5.19141 10.7225 5.21474C10.8975 5.24974 11.0608 5.30807 11.2241 5.38974C11.3291 5.44807 11.4341 5.50641 11.5275 5.58807C11.6208 5.51807 11.7258 5.44807 11.8308 5.38974C11.9941 5.30807 12.1575 5.24974 12.3325 5.21474C12.4258 5.20307 12.5191 5.19141 12.6125 5.19141C12.6475 5.19141 12.7758 5.19141 12.8108 5.20307C13.0325 5.23807 13.2075 5.37807 13.2891 5.58807C13.4525 5.99641 13.1258 6.50974 12.9858 6.70807C12.6475 7.16307 12.2041 7.48974 11.8425 7.72307C11.7491 7.79307 11.6325 7.81641 11.5158 7.81641H11.5508Z" fill="#A30FFA" fill-opacity="0.15"/>
<path d="M12.6355 5.77409C12.6705 5.77409 12.7055 5.77409 12.7289 5.77409C12.8805 5.79742 12.5655 6.29909 12.5305 6.35742C12.2739 6.70742 11.9005 6.98742 11.5389 7.23242C11.1772 6.98742 10.8155 6.70742 10.5472 6.35742C10.5122 6.31075 10.1972 5.79742 10.3489 5.77409C10.3839 5.77409 10.4189 5.77409 10.4422 5.77409C10.5005 5.77409 10.5589 5.77409 10.6172 5.78576C10.7339 5.80909 10.8389 5.84409 10.9439 5.90242C11.1655 6.01909 11.3755 6.20576 11.5155 6.41576C11.6555 6.20576 11.8655 6.01909 12.0872 5.90242C12.1922 5.84409 12.2972 5.80909 12.4139 5.78576C12.4722 5.78576 12.5305 5.77409 12.5889 5.77409M12.6355 4.60742C12.5072 4.60742 12.3789 4.61909 12.2505 4.64242C12.0172 4.68909 11.7955 4.75909 11.5855 4.87575C11.5855 4.87575 11.5622 4.87576 11.5505 4.88742C11.5505 4.88742 11.5272 4.88742 11.5155 4.87575C11.3055 4.75909 11.0722 4.67742 10.8505 4.64242C10.7222 4.61909 10.5939 4.60742 10.4655 4.60742C10.3605 4.60742 10.2672 4.60742 10.1739 4.63076C9.77719 4.68909 9.39219 4.99242 9.24052 5.36576C8.97219 6.01909 9.35719 6.70742 9.61386 7.05742C10.0105 7.58242 10.5005 7.95575 10.8972 8.21242C11.0955 8.34075 11.3172 8.41076 11.5389 8.41076C11.7605 8.41076 11.9822 8.34075 12.1805 8.21242C12.5772 7.95575 13.0789 7.58242 13.4639 7.05742C13.7205 6.70742 14.1055 6.03076 13.8372 5.36576C13.6855 4.99242 13.3122 4.68909 12.9039 4.63076C12.8105 4.61909 12.7289 4.60742 12.6355 4.60742Z" fill="#A30FFA"/>
<path d="M19.8343 8.64422C19.7526 8.64422 19.6826 8.62089 19.6126 8.57422C19.3676 8.41089 19.0643 8.18922 18.8309 7.87422C18.7259 7.73422 18.5043 7.38422 18.6209 7.10422C18.6793 6.97589 18.8193 6.85922 18.9593 6.83589L19.0759 7.23255V6.83589C19.1576 6.83589 19.2276 6.83589 19.2859 6.85922C19.4026 6.88255 19.5193 6.91755 19.6243 6.97589C19.6943 7.01089 19.7643 7.05755 19.8343 7.10422C19.9043 7.05755 19.9743 7.01089 20.0443 6.96422C20.1493 6.90589 20.2659 6.85922 20.3826 6.84755C20.4409 6.84755 20.5109 6.82422 20.5693 6.82422C20.5926 6.82422 20.6859 6.82422 20.7093 6.82422C20.8493 6.84755 20.9893 6.95255 21.0476 7.09255C21.1643 7.37255 20.9426 7.72255 20.8376 7.86255C20.6043 8.17755 20.2893 8.39922 20.0559 8.56255C19.9859 8.60922 19.9159 8.63255 19.8343 8.63255V8.64422Z" fill="#A30FFA" fill-opacity="0.15"/>
<path d="M20.5812 7.23273C20.6045 7.23273 20.6279 7.23273 20.6512 7.23273C20.7562 7.2444 20.5345 7.5944 20.5112 7.6294C20.3245 7.8744 20.0795 8.06107 19.8345 8.23607C19.5779 8.07273 19.3329 7.8744 19.1579 7.6294C19.1345 7.5944 18.9129 7.2444 19.0179 7.23273C19.0412 7.23273 19.0645 7.23273 19.0879 7.23273C19.1345 7.23273 19.1695 7.23273 19.2045 7.23273C19.2862 7.2444 19.3562 7.2794 19.4379 7.3144C19.5895 7.39607 19.7295 7.5244 19.8345 7.6644C19.9395 7.5244 20.0795 7.39607 20.2312 7.3144C20.3012 7.2794 20.3829 7.2444 20.4645 7.23273C20.4995 7.23273 20.5462 7.23273 20.5812 7.23273ZM20.5812 6.42773C20.4879 6.42773 20.4062 6.42773 20.3129 6.45107C20.1495 6.4744 19.9979 6.53273 19.8462 6.6144C19.8462 6.6144 19.8345 6.6144 19.8229 6.6144C19.8229 6.6144 19.8112 6.6144 19.7995 6.6144C19.6479 6.53273 19.4962 6.48607 19.3445 6.45107C19.2512 6.4394 19.1695 6.42773 19.0762 6.42773C18.9945 6.42773 18.9362 6.42773 18.8779 6.4394C18.5979 6.48607 18.3412 6.6844 18.2362 6.95273C18.0495 7.40773 18.3179 7.8744 18.4929 8.1194C18.7612 8.48107 19.1112 8.73773 19.3795 8.91273C19.5195 9.00607 19.6712 9.04107 19.8229 9.04107C19.9745 9.04107 20.1262 8.9944 20.2662 8.91273C20.5345 8.73773 20.8845 8.48107 21.1529 8.1194C21.3279 7.8744 21.5962 7.40773 21.4095 6.95273C21.3045 6.69607 21.0479 6.48607 20.7679 6.4394C20.7095 6.4394 20.6395 6.42773 20.5812 6.42773Z" fill="#A30FFA"/>
<path d="M19.8342 13.1587C20.6525 13.1587 21.3159 12.5006 21.3159 11.6888C21.3159 10.8769 20.6525 10.2188 19.8342 10.2188C19.0159 10.2188 18.3525 10.8769 18.3525 11.6888C18.3525 12.5006 19.0159 13.1587 19.8342 13.1587Z" fill="#A30FFA" fill-opacity="0.15" stroke="#A30FFA" stroke-width="1.16667" stroke-miterlimit="10"/>
<path d="M19.4717 21.2205H23.1467C23.5667 21.2205 23.9167 20.8938 23.9167 20.5088V17.6155C23.9167 16.4488 22.89 15.4805 21.63 15.4805H18.0367C16.7883 15.4805 15.7617 16.4371 15.75 17.6038V18.0821C15.75 18.0821 19.4717 17.6971 19.4717 21.2205Z" fill="#A30FFA" fill-opacity="0.15" stroke="#A30FFA" stroke-width="1.16667" stroke-miterlimit="10"/>
<path d="M4.45638 23.9738C4.12971 23.9738 3.87305 23.7171 3.87305 23.3905V21.0221C3.87305 19.4121 5.17971 18.1055 6.78971 18.1055H16.5314C18.1414 18.1055 19.448 19.4121 19.448 21.0221V23.3905C19.448 23.7171 19.1914 23.9738 18.8647 23.9738H4.45638Z" fill="#A30FFA" fill-opacity="0.15"/>
<path d="M16.5434 18.6882C17.8267 18.6882 18.8767 19.7382 18.8767 21.0215V23.3898H4.45671V21.0215C4.45671 19.7382 5.50671 18.6882 6.79004 18.6882H16.5317M16.5434 17.5215H6.79004C4.86504 17.5215 3.29004 19.0965 3.29004 21.0215V23.3898C3.29004 24.0315 3.81504 24.5565 4.45671 24.5565H18.865C19.5067 24.5565 20.0317 24.0315 20.0317 23.3898V21.0215C20.0317 19.0965 18.4567 17.5215 16.5317 17.5215H16.5434Z" fill="#A30FFA"/>
</svg>
