<svg width="218" height="248" viewBox="0 0 218 248" fill="none" xmlns="http://www.w3.org/2000/svg">
<path id="Polygon 8" d="M97.8436 5.44116L101.281 3.45645L101.531 3.88947L103.25 2.89711C103.688 2.64407 104.139 2.42222 104.599 2.23156L104.408 1.76964C105.385 1.36484 106.402 1.09461 107.434 0.958959L107.499 1.45469C108.495 1.32364 109.505 1.32364 110.501 1.45469L110.566 0.958961C111.598 1.09461 112.615 1.36484 113.592 1.76965L113.401 2.23156C113.861 2.42223 114.312 2.64407 114.75 2.89711L116.469 3.88947L116.719 3.45646L120.156 5.44116L119.906 5.87418L123.344 7.85888L123.594 7.42587L127.032 9.41058L126.782 9.84359L130.219 11.8283L130.469 11.3953L133.907 13.38L133.657 13.813L137.094 15.7977L137.344 15.3647L140.782 17.3494L140.532 17.7824L143.97 19.7671L144.22 19.3341L147.657 21.3188L147.407 21.7518L150.845 23.7365L151.095 23.3035L154.533 25.2882L154.283 25.7212L157.72 27.706L157.97 27.2729L161.408 29.2576L161.158 29.6907L164.595 31.6754L164.845 31.2424L168.283 33.2271L168.033 33.6601L171.471 35.6448L171.721 35.2118L175.158 37.1965L174.908 37.6295L178.346 39.6142L178.596 39.1812L182.033 41.1659L181.783 41.5989L185.221 43.5836L185.471 43.1506L188.909 45.1353L188.659 45.5683L192.096 47.553L192.346 47.12L195.784 49.1047L195.534 49.5377L198.972 51.5224L199.222 51.0894L202.659 53.0741L202.409 53.5071L205.847 55.4919L206.097 55.0588L209.534 57.0435L209.284 57.4766L211.003 58.4689C211.441 58.722 211.859 59.0014 212.254 59.3046L212.558 58.9078C213.397 59.5515 214.14 60.2977 214.773 61.123L214.377 61.4273C214.988 62.2246 215.493 63.099 215.878 64.0274L216.34 63.836C216.738 64.7969 217.013 65.8134 217.151 66.8618L216.655 66.927C216.72 67.4208 216.753 67.9221 216.753 68.4282V70.4129H217.253V74.3823H216.753V78.3518H217.253V82.3212H216.753V86.2906H217.253V90.26H216.753V94.2294H217.253V98.1988H216.753V102.168H217.253V106.138H216.753V110.107H217.253V114.076H216.753V118.046H217.253V122.015H216.753V125.985H217.253V129.954H216.753V133.924H217.253V137.893H216.753V141.862H217.253V145.832H216.753V149.801H217.253V153.771H216.753V157.74H217.253V161.709H216.753V165.679H217.253V169.648H216.753V173.618H217.253V177.587H216.753V179.572C216.753 180.078 216.72 180.579 216.655 181.073L217.151 181.138C217.013 182.187 216.738 183.203 216.34 184.164L215.878 183.973C215.493 184.901 214.988 185.775 214.377 186.573L214.773 186.877C214.14 187.702 213.397 188.449 212.558 189.092L212.254 188.695C211.859 188.999 211.441 189.278 211.003 189.531L209.284 190.523L209.534 190.956L206.097 192.941L205.847 192.508L202.409 194.493L202.659 194.926L199.222 196.911L198.972 196.478L195.534 198.462L195.784 198.895L192.346 200.88L192.096 200.447L188.659 202.432L188.909 202.865L185.471 204.849L185.221 204.416L181.783 206.401L182.033 206.834L178.596 208.819L178.346 208.386L174.908 210.371L175.158 210.804L171.721 212.788L171.471 212.355L168.033 214.34L168.283 214.773L164.845 216.758L164.595 216.325L161.158 218.309L161.408 218.742L157.97 220.727L157.72 220.294L154.283 222.279L154.533 222.712L151.095 224.696L150.845 224.263L147.407 226.248L147.657 226.681L144.22 228.666L143.97 228.233L140.532 230.218L140.782 230.651L137.344 232.635L137.094 232.202L133.657 234.187L133.907 234.62L130.469 236.605L130.219 236.172L126.782 238.156L127.032 238.589L123.594 240.574L123.344 240.141L119.906 242.126L120.156 242.559L116.719 244.544L116.469 244.111L114.75 245.103C114.312 245.356 113.861 245.578 113.401 245.768L113.592 246.23C112.615 246.635 111.598 246.905 110.566 247.041L110.501 246.545C109.505 246.676 108.495 246.676 107.499 246.545L107.434 247.041C106.402 246.905 105.385 246.635 104.408 246.23L104.599 245.768C104.139 245.578 103.688 245.356 103.25 245.103L101.531 244.111L101.281 244.544L97.8436 242.559L98.0936 242.126L94.656 240.141L94.406 240.574L90.9683 238.589L91.2183 238.156L87.7807 236.172L87.5307 236.605L84.0931 234.62L84.3431 234.187L80.9055 232.202L80.6555 232.635L77.2179 230.651L77.4679 230.218L74.0303 228.233L73.7803 228.666L70.3427 226.681L70.5927 226.248L67.1551 224.263L66.9051 224.696L63.4674 222.712L63.7174 222.279L60.2798 220.294L60.0298 220.727L56.5922 218.742L56.8422 218.309L53.4046 216.325L53.1546 216.758L49.717 214.773L49.967 214.34L46.5294 212.355L46.2794 212.788L42.8418 210.804L43.0918 210.371L39.6541 208.386L39.4041 208.819L35.9665 206.834L36.2165 206.401L32.7789 204.416L32.5289 204.849L29.0913 202.865L29.3413 202.432L25.9037 200.447L25.6537 200.88L22.2161 198.895L22.4661 198.462L19.0285 196.478L18.7785 196.911L15.3409 194.926L15.5909 194.493L12.1532 192.508L11.9032 192.941L8.46563 190.956L8.71563 190.523L6.99682 189.531C6.55854 189.278 6.14104 188.999 5.74585 188.695L5.44152 189.092C4.6025 188.449 3.85964 187.702 3.2265 186.877L3.62321 186.573C3.01157 185.775 2.50675 184.901 2.12209 183.973L1.66017 184.164C1.26198 183.203 0.987173 182.187 0.849291 181.138L1.34502 181.073C1.28008 180.579 1.24683 180.078 1.24683 179.572V177.587H0.746826V173.618H1.24683V169.648H0.746826V165.679H1.24683V161.709H0.746826V157.74H1.24683V153.771H0.746826V149.801H1.24683V145.832H0.746826V141.862H1.24683V137.893H0.746826V133.924H1.24683V129.954H0.746826V125.985H1.24683V122.015H0.746826V118.046H1.24683V114.076H0.746826V110.107H1.24683V106.138H0.746826V102.168H1.24683V98.1988H0.746826V94.2294H1.24683V90.26H0.746826V86.2906H1.24683V82.3212H0.746826V78.3517H1.24683V74.3823H0.746826V70.4129H1.24683V68.4282C1.24683 67.9221 1.28008 67.4208 1.34502 66.927L0.849291 66.8618C0.987173 65.8134 1.26198 64.7969 1.66017 63.836L2.12209 64.0274C2.50675 63.099 3.01157 62.2246 3.62322 61.4273L3.2265 61.123C3.85965 60.2977 4.6025 59.5515 5.44153 58.9078L5.74585 59.3046C6.14105 59.0014 6.55854 58.722 6.99683 58.4689L8.71564 57.4766L8.46564 57.0435L11.9033 55.0588L12.1533 55.4918L15.5909 53.5071L15.3409 53.0741L18.7785 51.0894L19.0285 51.5224L22.4661 49.5377L22.2161 49.1047L25.6537 47.12L25.9037 47.553L29.3413 45.5683L29.0913 45.1353L32.5289 43.1506L32.7789 43.5836L36.2165 41.5989L35.9665 41.1659L39.4042 39.1812L39.6542 39.6142L43.0918 37.6295L42.8418 37.1965L46.2794 35.2118L46.5294 35.6448L49.967 33.6601L49.717 33.2271L53.1546 31.2424L53.4046 31.6754L56.8422 29.6907L56.5922 29.2576L60.0298 27.2729L60.2798 27.7059L63.7175 25.7212L63.4675 25.2882L66.9051 23.3035L67.1551 23.7365L70.5927 21.7518L70.3427 21.3188L73.7803 19.3341L74.0303 19.7671L77.4679 17.7824L77.2179 17.3494L80.6555 15.3647L80.9055 15.7977L84.3431 13.813L84.0931 13.38L87.5307 11.3953L87.7807 11.8283L91.2184 9.84359L90.9684 9.41057L94.406 7.42587L94.656 7.85888L98.0936 5.87417L97.8436 5.44116Z" fill="#F1F1F5" stroke="#CACAD7" stroke-dasharray="4 4"/>
</svg>
