<svg width="28" height="28" viewBox="0 0 28 28" fill="none" xmlns="http://www.w3.org/2000/svg">
<path d="M21.687 11.7838C21.652 11.6438 21.6053 11.5154 21.5353 11.3871L20.2053 8.76208C19.9603 8.27208 19.4587 7.96875 18.9103 7.96875H15.247C15.0253 8.17875 14.792 8.36542 14.5587 8.55208H13.532C13.2987 8.37708 13.0653 8.19042 12.8437 7.96875H9.08701C8.53867 7.96875 8.03701 8.27208 7.79201 8.76208L6.46201 11.3871C6.40367 11.5154 6.34534 11.6438 6.31034 11.7838C6.28701 11.9354 6.26367 12.0871 6.26367 12.2387V21.3271C6.26367 22.3888 7.12701 23.2404 8.18867 23.2404H19.8087C20.8703 23.2404 21.7453 22.3888 21.7453 21.3271V12.2387C21.7453 12.0871 21.722 11.9354 21.687 11.7838ZM11.7237 15.1554H16.2737H11.7237ZM21.687 11.7838H6.31034H21.687Z" fill="#A30FFA" fill-opacity="0.15"/>
<path d="M16.2739 14.5714H11.7239C11.3973 14.5714 11.1406 14.8281 11.1406 15.1548C11.1406 15.4814 11.3973 15.7381 11.7239 15.7381H16.2739C16.6006 15.7381 16.8573 15.4814 16.8573 15.1548C16.8573 14.8281 16.6006 14.5714 16.2739 14.5714ZM16.2739 14.5714H11.7239C11.3973 14.5714 11.1406 14.8281 11.1406 15.1548C11.1406 15.4814 11.3973 15.7381 11.7239 15.7381H16.2739C16.6006 15.7381 16.8573 15.4814 16.8573 15.1548C16.8573 14.8281 16.6006 14.5714 16.2739 14.5714ZM22.2589 11.6664C22.2589 11.6664 22.2589 11.6431 22.2473 11.6198C22.2006 11.4448 22.1423 11.2814 22.0606 11.1181L20.7306 8.4931C20.3806 7.80477 19.6806 7.38477 18.9106 7.38477H15.7956C15.6323 7.59477 15.4456 7.7931 15.2473 7.9681C15.0256 8.1781 14.7923 8.36477 14.5589 8.55143H18.9106C19.2373 8.55143 19.5406 8.72643 19.6923 9.0181L20.7889 11.1998H7.19728L8.30561 9.0181C8.44561 8.72643 8.74895 8.55143 9.07561 8.55143H13.5206C13.2873 8.37643 13.0539 8.18977 12.8323 7.9681C12.6339 7.7931 12.4473 7.59477 12.2839 7.38477H9.07561C8.30561 7.38477 7.60561 7.80477 7.25561 8.4931L5.92561 11.1181C5.85561 11.2698 5.78561 11.4448 5.75061 11.6081C5.73894 11.6314 5.72728 11.6548 5.72728 11.6781C5.68061 11.8648 5.66895 12.0514 5.66895 12.2381V21.3264C5.66895 22.7031 6.78895 23.8231 8.17728 23.8231H19.7973C21.1856 23.8231 22.3173 22.7031 22.3173 21.3264V12.2381C22.3173 12.0398 22.2939 11.8531 22.2473 11.6664H22.2589ZM21.1623 21.3264C21.1623 22.0614 20.5556 22.6564 19.8089 22.6564H8.18895C7.44228 22.6564 6.84728 22.0614 6.84728 21.3264V12.3664H21.1623V21.3264ZM11.7239 15.7381H16.2739C16.6006 15.7381 16.8573 15.4814 16.8573 15.1548C16.8573 14.8281 16.6006 14.5714 16.2739 14.5714H11.7239C11.3973 14.5714 11.1406 14.8281 11.1406 15.1548C11.1406 15.4814 11.3973 15.7381 11.7239 15.7381Z" fill="#A30FFA"/>
<path d="M14.0367 8.68172C13.92 8.68172 13.815 8.64672 13.71 8.58839C13.08 8.18005 12.2867 7.59672 11.7033 6.80339C11.6217 6.69839 10.9567 5.76505 11.19 5.19339C11.2717 5.00672 11.505 4.82005 11.7033 4.78505C11.7967 4.77339 11.89 4.77339 11.9717 4.76172C12.1467 4.76172 12.2867 4.77339 12.4267 4.79672C12.695 4.84339 12.9633 4.93672 13.22 5.07672C13.5117 5.22839 13.7917 5.42672 14.0367 5.67172C14.2817 5.43839 14.5617 5.24005 14.8533 5.07672C15.11 4.93672 15.3783 4.84339 15.6467 4.79672C15.7867 4.77339 15.9383 4.76172 16.0783 4.76172C16.195 4.76172 16.2883 4.76172 16.37 4.78505C16.5683 4.82005 16.8017 5.00672 16.8833 5.19339C17.1167 5.76505 16.44 6.69839 16.37 6.80339C15.7867 7.59672 14.9933 8.18005 14.3633 8.58839C14.27 8.65839 14.1533 8.68172 14.0367 8.68172Z" fill="#A30FFA" fill-opacity="0.15"/>
<path d="M16.0783 5.3444C16.0783 5.3444 16.09 5.3444 16.1016 5.3444C16.16 5.3444 16.23 5.3444 16.2883 5.3444C16.5683 5.39107 15.9733 6.33607 15.9033 6.44107C15.4133 7.10607 14.725 7.63107 14.0366 8.08607C13.3483 7.63107 12.6716 7.10607 12.17 6.44107C12.1 6.34773 11.505 5.39107 11.785 5.3444C11.8433 5.3444 11.9133 5.3444 11.9716 5.3444C11.9716 5.3444 11.9833 5.3444 11.995 5.3444C12.1116 5.3444 12.2166 5.3444 12.3333 5.3794C12.555 5.4144 12.765 5.49607 12.9516 5.60107C13.3716 5.82273 13.7683 6.17273 14.0366 6.5694C14.3166 6.17273 14.7016 5.82273 15.1216 5.60107C15.32 5.49607 15.53 5.4144 15.74 5.3794C15.845 5.35607 15.9616 5.3444 16.0783 5.3444ZM16.0783 4.17773C15.9033 4.17773 15.7166 4.1894 15.5416 4.2244C15.215 4.28273 14.8883 4.3994 14.585 4.56273C14.3983 4.65607 14.2233 4.77273 14.0483 4.90107C13.8733 4.77273 13.6983 4.65607 13.5116 4.56273C13.1966 4.3994 12.8816 4.28273 12.555 4.2244C12.38 4.1894 12.1933 4.17773 12.0183 4.17773C11.8666 4.17773 11.75 4.17773 11.6333 4.20107C11.2016 4.27107 10.84 4.55107 10.6766 4.9594C10.35 5.7644 10.98 6.7444 11.26 7.1294C11.9016 7.99273 12.7533 8.61107 13.4183 9.0544C13.6166 9.18273 13.8383 9.25273 14.06 9.25273C14.2816 9.25273 14.5033 9.18273 14.7016 9.0544C15.3666 8.61107 16.2183 7.99273 16.86 7.1294C17.14 6.7444 17.77 5.75273 17.4433 4.9594C17.28 4.55107 16.9183 4.27107 16.475 4.20107C16.3583 4.17773 16.2416 4.17773 16.125 4.17773C16.125 4.17773 16.1016 4.17773 16.09 4.17773H16.0783Z" fill="#A30FFA"/>
</svg>
