<svg width="56" height="56" viewBox="0 0 56 56" fill="none" xmlns="http://www.w3.org/2000/svg">
<g id="Girl">
<g id="Ears" filter="url(#filter0_i_971_15520)">
<path d="M11.3555 37.4353C14.4966 37.4353 17.043 34.8889 17.043 31.7478C17.043 28.6067 14.4966 26.0603 11.3555 26.0603C8.21435 26.0603 5.66797 28.6067 5.66797 31.7478C5.66797 34.8889 8.21435 37.4353 11.3555 37.4353Z" fill="url(#paint0_linear_971_15520)"/>
<path d="M11.3555 37.4353C14.4966 37.4353 17.043 34.8889 17.043 31.7478C17.043 28.6067 14.4966 26.0603 11.3555 26.0603C8.21435 26.0603 5.66797 28.6067 5.66797 31.7478C5.66797 34.8889 8.21435 37.4353 11.3555 37.4353Z" fill="url(#paint1_radial_971_15520)"/>
</g>
<g id="Ears_2" filter="url(#filter1_i_971_15520)">
<path d="M44.6055 37.4353C47.7466 37.4353 50.293 34.8889 50.293 31.7478C50.293 28.6067 47.7466 26.0603 44.6055 26.0603C41.4643 26.0603 38.918 28.6067 38.918 31.7478C38.918 34.8889 41.4643 37.4353 44.6055 37.4353Z" fill="url(#paint2_radial_971_15520)"/>
<path d="M44.6055 37.4353C47.7466 37.4353 50.293 34.8889 50.293 31.7478C50.293 28.6067 47.7466 26.0603 44.6055 26.0603C41.4643 26.0603 38.918 28.6067 38.918 31.7478C38.918 34.8889 41.4643 37.4353 44.6055 37.4353Z" fill="url(#paint3_radial_971_15520)"/>
</g>
<g id="Ears_3" filter="url(#filter2_f_971_15520)">
<path d="M44.604 35.299C46.5653 35.299 48.1552 33.7091 48.1552 31.7478C48.1552 29.7865 46.5653 28.1965 44.604 28.1965C42.6427 28.1965 41.0527 29.7865 41.0527 31.7478C41.0527 33.7091 42.6427 35.299 44.604 35.299Z" fill="#F8BFA5"/>
<path d="M44.604 35.299C46.5653 35.299 48.1552 33.7091 48.1552 31.7478C48.1552 29.7865 46.5653 28.1965 44.604 28.1965C42.6427 28.1965 41.0527 29.7865 41.0527 31.7478C41.0527 33.7091 42.6427 35.299 44.604 35.299Z" fill="url(#paint4_radial_971_15520)"/>
</g>
<g id="Ears_4" filter="url(#filter3_f_971_15520)">
<path d="M11.354 35.299C13.3153 35.299 14.9052 33.7091 14.9052 31.7478C14.9052 29.7865 13.3153 28.1965 11.354 28.1965C9.39268 28.1965 7.80273 29.7865 7.80273 31.7478C7.80273 33.7091 9.39268 35.299 11.354 35.299Z" fill="#C88A7B"/>
</g>
<g id="Hair" filter="url(#filter4_i_971_15520)">
<path d="M41.3292 37.8203L51.8292 44.8728C52.7917 45.5203 52.8617 46.9203 51.9692 47.6728L46.3867 52.5903C45.1267 53.7103 43.1492 53.1853 42.5717 51.6103L38.5117 40.2528L41.3292 37.8203Z" fill="#262229"/>
<path d="M41.3292 37.8203L51.8292 44.8728C52.7917 45.5203 52.8617 46.9203 51.9692 47.6728L46.3867 52.5903C45.1267 53.7103 43.1492 53.1853 42.5717 51.6103L38.5117 40.2528L41.3292 37.8203Z" fill="url(#paint5_linear_971_15520)"/>
<path d="M41.3292 37.8203L51.8292 44.8728C52.7917 45.5203 52.8617 46.9203 51.9692 47.6728L46.3867 52.5903C45.1267 53.7103 43.1492 53.1853 42.5717 51.6103L38.5117 40.2528L41.3292 37.8203Z" fill="url(#paint6_radial_971_15520)"/>
<path d="M41.3292 37.8203L51.8292 44.8728C52.7917 45.5203 52.8617 46.9203 51.9692 47.6728L46.3867 52.5903C45.1267 53.7103 43.1492 53.1853 42.5717 51.6103L38.5117 40.2528L41.3292 37.8203Z" fill="url(#paint7_radial_971_15520)"/>
<path d="M41.3292 37.8203L51.8292 44.8728C52.7917 45.5203 52.8617 46.9203 51.9692 47.6728L46.3867 52.5903C45.1267 53.7103 43.1492 53.1853 42.5717 51.6103L38.5117 40.2528L41.3292 37.8203Z" fill="url(#paint8_radial_971_15520)"/>
</g>
<g id="Hair_2" filter="url(#filter5_i_971_15520)">
<path d="M14.7483 37.8203L4.24832 44.8728C3.28582 45.5203 3.21582 46.9203 4.10832 47.6728L9.69082 52.5903C10.9508 53.7103 12.9283 53.1853 13.5058 51.6103L17.5658 40.2528L14.7483 37.8203Z" fill="#221F26"/>
<path d="M14.7483 37.8203L4.24832 44.8728C3.28582 45.5203 3.21582 46.9203 4.10832 47.6728L9.69082 52.5903C10.9508 53.7103 12.9283 53.1853 13.5058 51.6103L17.5658 40.2528L14.7483 37.8203Z" fill="url(#paint9_radial_971_15520)"/>
<path d="M14.7483 37.8203L4.24832 44.8728C3.28582 45.5203 3.21582 46.9203 4.10832 47.6728L9.69082 52.5903C10.9508 53.7103 12.9283 53.1853 13.5058 51.6103L17.5658 40.2528L14.7483 37.8203Z" fill="url(#paint10_linear_971_15520)"/>
</g>
<g id="Head 1" filter="url(#filter6_i_971_15520)">
<path d="M32.9829 23.4352C26.6811 22.3727 21.465 19.2688 19.0356 14.4358C18.3647 18.4881 16.4874 22.3686 11.4721 24.529C10.8884 24.7805 10.3023 25.0928 10.2051 26.1176L10.5424 36.0614C10.961 46.3147 18.6335 53.1852 27.9801 53.1852C37.3092 53.1852 44.9991 46.3147 45.4177 36.0614L45.786 25.2046C45.8008 24.7704 45.4949 24.39 45.0642 24.3328C43.578 24.1354 41.6066 24.0338 39.5403 23.9272C37.3003 23.8117 34.9487 23.6905 32.9829 23.4352Z" fill="url(#paint11_radial_971_15520)"/>
<path d="M32.9829 23.4352C26.6811 22.3727 21.465 19.2688 19.0356 14.4358C18.3647 18.4881 16.4874 22.3686 11.4721 24.529C10.8884 24.7805 10.3023 25.0928 10.2051 26.1176L10.5424 36.0614C10.961 46.3147 18.6335 53.1852 27.9801 53.1852C37.3092 53.1852 44.9991 46.3147 45.4177 36.0614L45.786 25.2046C45.8008 24.7704 45.4949 24.39 45.0642 24.3328C43.578 24.1354 41.6066 24.0338 39.5403 23.9272C37.3003 23.8117 34.9487 23.6905 32.9829 23.4352Z" fill="url(#paint12_radial_971_15520)"/>
<path d="M32.9829 23.4352C26.6811 22.3727 21.465 19.2688 19.0356 14.4358C18.3647 18.4881 16.4874 22.3686 11.4721 24.529C10.8884 24.7805 10.3023 25.0928 10.2051 26.1176L10.5424 36.0614C10.961 46.3147 18.6335 53.1852 27.9801 53.1852C37.3092 53.1852 44.9991 46.3147 45.4177 36.0614L45.786 25.2046C45.8008 24.7704 45.4949 24.39 45.0642 24.3328C43.578 24.1354 41.6066 24.0338 39.5403 23.9272C37.3003 23.8117 34.9487 23.6905 32.9829 23.4352Z" fill="url(#paint13_radial_971_15520)"/>
</g>
<g id="Head 2">
<path d="M32.9829 23.4352C26.6811 22.3727 21.465 19.2688 19.0356 14.4358C18.3647 18.4881 16.4874 22.3686 11.4721 24.529C10.8884 24.7805 10.3023 25.0928 10.2051 26.1176L10.5424 36.0614C10.961 46.3147 18.6335 53.1852 27.9801 53.1852C37.3092 53.1852 44.9991 46.3147 45.4177 36.0614L45.786 25.2046C45.8008 24.7704 45.4949 24.39 45.0642 24.3328C43.578 24.1354 41.6066 24.0338 39.5403 23.9272C37.3003 23.8117 34.9487 23.6905 32.9829 23.4352Z" fill="url(#paint14_radial_971_15520)"/>
<path d="M32.9829 23.4352C26.6811 22.3727 21.465 19.2688 19.0356 14.4358C18.3647 18.4881 16.4874 22.3686 11.4721 24.529C10.8884 24.7805 10.3023 25.0928 10.2051 26.1176L10.5424 36.0614C10.961 46.3147 18.6335 53.1852 27.9801 53.1852C37.3092 53.1852 44.9991 46.3147 45.4177 36.0614L45.786 25.2046C45.8008 24.7704 45.4949 24.39 45.0642 24.3328C43.578 24.1354 41.6066 24.0338 39.5403 23.9272C37.3003 23.8117 34.9487 23.6905 32.9829 23.4352Z" fill="url(#paint15_radial_971_15520)"/>
<path d="M32.9829 23.4352C26.6811 22.3727 21.465 19.2688 19.0356 14.4358C18.3647 18.4881 16.4874 22.3686 11.4721 24.529C10.8884 24.7805 10.3023 25.0928 10.2051 26.1176L10.5424 36.0614C10.961 46.3147 18.6335 53.1852 27.9801 53.1852C37.3092 53.1852 44.9991 46.3147 45.4177 36.0614L45.786 25.2046C45.8008 24.7704 45.4949 24.39 45.0642 24.3328C43.578 24.1354 41.6066 24.0338 39.5403 23.9272C37.3003 23.8117 34.9487 23.6905 32.9829 23.4352Z" fill="url(#paint16_radial_971_15520)"/>
</g>
<path id="Mouth" d="M22.7497 40.2613C22.1803 39.9563 21.5725 40.6053 21.933 41.1584L21.9748 41.1311L22.7497 40.2613Z" fill="#89014E" stroke="url(#paint17_linear_971_15520)" stroke-width="0.1"/>
<g id="Eyebrows" filter="url(#filter7_i_971_15520)">
<path d="M16.7988 25.3438C17.8313 24.9763 19.1957 24.7916 21.0507 24.9666" stroke="#110A18" stroke-width="1.1" stroke-miterlimit="10" stroke-linecap="round" stroke-linejoin="round"/>
</g>
<g id="Eyebrows_2" filter="url(#filter8_f_971_15520)">
<path d="M16.7988 25.3438C17.8313 24.9763 19.1957 24.7916 21.0507 24.9666" stroke="url(#paint18_linear_971_15520)" stroke-width="0.5" stroke-miterlimit="10" stroke-linecap="round" stroke-linejoin="round"/>
</g>
<g id="Eyebrows_3" filter="url(#filter9_i_971_15520)">
<path d="M39.1604 25.3771C38.1279 25.0096 36.6929 24.7471 34.8379 24.9221" stroke="#110A18" stroke-width="1.1" stroke-miterlimit="10" stroke-linecap="round" stroke-linejoin="round"/>
</g>
<g id="Eyebrows_4" filter="url(#filter10_f_971_15520)">
<path d="M39.1604 25.3771C38.1279 25.0096 36.6929 24.7471 34.8379 24.9221" stroke="url(#paint19_linear_971_15520)" stroke-width="0.5" stroke-miterlimit="10" stroke-linecap="round" stroke-linejoin="round"/>
</g>
<g id="Hair_3" filter="url(#filter11_i_971_15520)">
<path d="M7.0293 20.0403C7.0293 13.2153 12.5593 7.6853 19.3843 7.6853V9.3828C19.3843 14.9478 18.5803 21.4666 11.4709 24.5291C10.8775 24.7847 10.2815 25.1033 10.1995 26.1697C9.14673 26.4158 7.94117 27.0043 7.05964 28.0185C7.03948 27.7346 7.0293 27.4492 7.0293 27.1628V20.0403Z" fill="url(#paint20_radial_971_15520)"/>
</g>
<path id="Hair_4" d="M7.0293 20.0403C7.0293 13.2153 12.5593 7.6853 19.3843 7.6853V9.3828C19.3843 14.9478 18.5803 21.4666 11.4709 24.5291C10.8775 24.7847 10.2815 25.1033 10.1995 26.1697C9.14673 26.4158 7.94117 27.0043 7.05964 28.0185C7.03948 27.7346 7.0293 27.4492 7.0293 27.1628V20.0403Z" fill="url(#paint21_radial_971_15520)"/>
<g id="Union" filter="url(#filter12_f_971_15520)">
<path d="M30.291 37.5398C30.3682 37.8757 30.3058 38.2477 30.0613 38.5563C29.412 39.3851 28.3724 39.8783 27.2622 39.7903C26.1519 39.7024 25.203 39.0516 24.6757 38.1295C24.4224 37.6783 24.4967 37.1687 24.7682 36.8083L27.0544 32.5597C27.214 32.2632 27.5337 32.089 27.8694 32.1156C28.2051 32.1422 28.4934 32.3646 28.6042 32.6825L30.2378 37.3673C30.2487 37.3952 30.2586 37.4235 30.2674 37.4522L30.2982 37.5404L30.291 37.5398Z" fill="url(#paint22_linear_971_15520)"/>
</g>
<g id="Union_2" filter="url(#filter13_f_971_15520)">
<path d="M30.9798 36.5715C31.0887 36.9176 31.0542 37.3131 30.8233 37.6573C30.2108 38.5812 29.1608 39.1852 27.9883 39.1852C26.8158 39.1852 25.7658 38.5812 25.1358 37.6573C24.8324 37.2049 24.868 36.6639 25.123 36.2631L27.169 31.6142C27.3118 31.2898 27.6328 31.0803 27.9873 31.0803C28.3418 31.0803 28.6628 31.2898 28.8056 31.6142L30.9096 36.3949C30.9233 36.4232 30.9361 36.4521 30.9477 36.4815L30.9874 36.5715H30.9798Z" fill="#ECC1AC"/>
<path d="M30.9798 36.5715C31.0887 36.9176 31.0542 37.3131 30.8233 37.6573C30.2108 38.5812 29.1608 39.1852 27.9883 39.1852C26.8158 39.1852 25.7658 38.5812 25.1358 37.6573C24.8324 37.2049 24.868 36.6639 25.123 36.2631L27.169 31.6142C27.3118 31.2898 27.6328 31.0803 27.9873 31.0803C28.3418 31.0803 28.6628 31.2898 28.8056 31.6142L30.9096 36.3949C30.9233 36.4232 30.9361 36.4521 30.9477 36.4815L30.9874 36.5715H30.9798Z" fill="url(#paint23_radial_971_15520)"/>
<path d="M30.9798 36.5715C31.0887 36.9176 31.0542 37.3131 30.8233 37.6573C30.2108 38.5812 29.1608 39.1852 27.9883 39.1852C26.8158 39.1852 25.7658 38.5812 25.1358 37.6573C24.8324 37.2049 24.868 36.6639 25.123 36.2631L27.169 31.6142C27.3118 31.2898 27.6328 31.0803 27.9873 31.0803C28.3418 31.0803 28.6628 31.2898 28.8056 31.6142L30.9096 36.3949C30.9233 36.4232 30.9361 36.4521 30.9477 36.4815L30.9874 36.5715H30.9798Z" fill="url(#paint24_radial_971_15520)"/>
<path d="M30.9798 36.5715C31.0887 36.9176 31.0542 37.3131 30.8233 37.6573C30.2108 38.5812 29.1608 39.1852 27.9883 39.1852C26.8158 39.1852 25.7658 38.5812 25.1358 37.6573C24.8324 37.2049 24.868 36.6639 25.123 36.2631L27.169 31.6142C27.3118 31.2898 27.6328 31.0803 27.9873 31.0803C28.3418 31.0803 28.6628 31.2898 28.8056 31.6142L30.9096 36.3949C30.9233 36.4232 30.9361 36.4521 30.9477 36.4815L30.9874 36.5715H30.9798Z" fill="url(#paint25_linear_971_15520)"/>
<path d="M30.9798 36.5715C31.0887 36.9176 31.0542 37.3131 30.8233 37.6573C30.2108 38.5812 29.1608 39.1852 27.9883 39.1852C26.8158 39.1852 25.7658 38.5812 25.1358 37.6573C24.8324 37.2049 24.868 36.6639 25.123 36.2631L27.169 31.6142C27.3118 31.2898 27.6328 31.0803 27.9873 31.0803C28.3418 31.0803 28.6628 31.2898 28.8056 31.6142L30.9096 36.3949C30.9233 36.4232 30.9361 36.4521 30.9477 36.4815L30.9874 36.5715H30.9798Z" fill="url(#paint26_linear_971_15520)"/>
</g>
<g id="Union_3">
<path d="M30.9798 36.5715C31.0887 36.9176 31.0542 37.3131 30.8233 37.6573C30.2108 38.5812 29.1608 39.1852 27.9883 39.1852C26.8158 39.1852 25.7658 38.5812 25.1358 37.6573C24.8324 37.2049 24.868 36.6639 25.123 36.2631L27.169 31.6142C27.3118 31.2898 27.6328 31.0803 27.9873 31.0803C28.3418 31.0803 28.6628 31.2898 28.8056 31.6142L30.9096 36.3949C30.9233 36.4232 30.9361 36.4521 30.9477 36.4815L30.9874 36.5715H30.9798Z" fill="url(#paint27_radial_971_15520)"/>
<path d="M30.9798 36.5715C31.0887 36.9176 31.0542 37.3131 30.8233 37.6573C30.2108 38.5812 29.1608 39.1852 27.9883 39.1852C26.8158 39.1852 25.7658 38.5812 25.1358 37.6573C24.8324 37.2049 24.868 36.6639 25.123 36.2631L27.169 31.6142C27.3118 31.2898 27.6328 31.0803 27.9873 31.0803C28.3418 31.0803 28.6628 31.2898 28.8056 31.6142L30.9096 36.3949C30.9233 36.4232 30.9361 36.4521 30.9477 36.4815L30.9874 36.5715H30.9798Z" fill="url(#paint28_linear_971_15520)"/>
</g>
<g id="Union_4" filter="url(#filter14_i_971_15520)">
<path d="M32.9819 23.4353C24.2248 21.9588 17.5645 16.5403 17.5645 8.0178C17.5645 5.9003 19.2795 4.1853 21.3794 4.1853H31.5469C41.207 4.1853 49.0469 12.0253 49.0469 21.6853V28.1966C48.2327 27.1792 47.0763 26.4476 45.7521 26.1762L45.7961 24.8806C45.8045 24.6324 45.6299 24.4151 45.3844 24.3783C43.8677 24.1505 41.7582 24.0417 39.5394 23.9273C37.2993 23.8118 34.9477 23.6906 32.9819 23.4353Z" fill="#32272A"/>
<path d="M32.9819 23.4353C24.2248 21.9588 17.5645 16.5403 17.5645 8.0178C17.5645 5.9003 19.2795 4.1853 21.3794 4.1853H31.5469C41.207 4.1853 49.0469 12.0253 49.0469 21.6853V28.1966C48.2327 27.1792 47.0763 26.4476 45.7521 26.1762L45.7961 24.8806C45.8045 24.6324 45.6299 24.4151 45.3844 24.3783C43.8677 24.1505 41.7582 24.0417 39.5394 23.9273C37.2993 23.8118 34.9477 23.6906 32.9819 23.4353Z" fill="url(#paint29_radial_971_15520)"/>
<path d="M32.9819 23.4353C24.2248 21.9588 17.5645 16.5403 17.5645 8.0178C17.5645 5.9003 19.2795 4.1853 21.3794 4.1853H31.5469C41.207 4.1853 49.0469 12.0253 49.0469 21.6853V28.1966C48.2327 27.1792 47.0763 26.4476 45.7521 26.1762L45.7961 24.8806C45.8045 24.6324 45.6299 24.4151 45.3844 24.3783C43.8677 24.1505 41.7582 24.0417 39.5394 23.9273C37.2993 23.8118 34.9477 23.6906 32.9819 23.4353Z" fill="url(#paint30_radial_971_15520)"/>
</g>
<path id="Eyes" d="M36.3909 28.875C38.932 28.875 41.0786 30.627 41.6626 32.9945C41.8362 33.6732 41.3153 34.3203 40.6209 34.3203H31.94C31.3876 34.3203 30.9456 33.8152 31.0561 33.2628C31.5454 30.769 33.7393 28.875 36.3909 28.875Z" fill="white"/>
<path id="Iris" d="M35.5858 29.9324C37.5114 29.9324 39.0582 31.4949 39.0582 33.4047C39.0582 33.7204 39.0108 34.0361 38.9319 34.3202H32.2239C32.145 34.0203 32.0977 33.7204 32.0977 33.4047C32.0977 31.4949 33.6602 29.9324 35.5858 29.9324Z" fill="url(#paint31_radial_971_15520)"/>
<path id="Pupils" d="M33.5977 33.4047C33.5977 32.2999 34.4815 31.416 35.5864 31.416C36.6912 31.416 37.5751 32.2999 37.5751 33.4047C37.5751 33.7362 37.4962 34.0518 37.3541 34.3202H33.8344C33.6766 34.0518 33.5977 33.7362 33.5977 33.4047Z" fill="#111111"/>
<g id="Ellipse 5" filter="url(#filter15_f_971_15520)">
<path d="M35.331 30.6665C35.5784 30.9974 35.0613 31.4007 34.4734 31.8403C33.8854 32.2799 33.4492 32.5893 33.2018 32.2584C32.9545 31.9275 33.2305 31.3029 33.8185 30.8633C34.4065 30.4237 35.0836 30.3356 35.331 30.6665Z" fill="#C7A7A3"/>
<path d="M35.331 30.6665C35.5784 30.9974 35.0613 31.4007 34.4734 31.8403C33.8854 32.2799 33.4492 32.5893 33.2018 32.2584C32.9545 31.9275 33.2305 31.3029 33.8185 30.8633C34.4065 30.4237 35.0836 30.3356 35.331 30.6665Z" fill="url(#paint32_radial_971_15520)"/>
</g>
<g id="Vector 326" filter="url(#filter16_f_971_15520)">
<path d="M38.6789 32.9475C38.5506 32.0498 38.0253 31.3733 37.7787 31.1472L36.7676 32.257L37.2238 33.1448L38.6789 32.9475Z" fill="url(#paint33_linear_971_15520)"/>
</g>
<path id="Eyes_2" d="M19.6234 28.9127C17.0871 28.9127 14.9446 30.6614 14.3617 33.0244C14.1884 33.7018 14.7083 34.3477 15.4015 34.3477H24.066C24.6174 34.3477 25.0585 33.8436 24.9482 33.2922C24.4598 30.8032 22.2543 28.9127 19.6234 28.9127Z" fill="white"/>
<path id="Iris_2" d="M20.4267 29.9683C18.5048 29.9683 16.9609 31.5279 16.9609 33.4341C16.9609 33.7491 17.0082 34.0642 17.087 34.3478H23.7823C23.861 34.0485 23.9083 33.7491 23.9083 33.4341C23.8926 31.5279 22.3487 29.9683 20.4267 29.9683Z" fill="url(#paint34_radial_971_15520)"/>
<path id="Pupils_2" d="M22.4113 33.4341C22.4113 32.3313 21.5291 31.4491 20.4264 31.4491C19.3236 31.4491 18.4414 32.3313 18.4414 33.4341C18.4414 33.7649 18.5202 34.08 18.662 34.3478H22.175C22.3168 34.08 22.4113 33.7649 22.4113 33.4341Z" fill="#111111"/>
<g id="Vector 327" filter="url(#filter17_f_971_15520)">
<path d="M23.5933 33.0269C23.5933 31.9069 22.6825 31.1602 22.4364 30.9346L21.3164 32.0176L22.0056 33.4207L23.5933 33.0269Z" fill="url(#paint35_linear_971_15520)"/>
</g>
<g id="Ellipse 6" filter="url(#filter18_f_971_15520)">
<ellipse cx="19.381" cy="31.449" rx="1.51301" ry="0.765723" transform="rotate(-27.914 19.381 31.449)" fill="#C7A7A3" fill-opacity="0.9"/>
<ellipse cx="19.381" cy="31.449" rx="1.51301" ry="0.765723" transform="rotate(-27.914 19.381 31.449)" fill="url(#paint36_radial_971_15520)"/>
</g>
<g id="Vector 328" filter="url(#filter19_f_971_15520)">
<path d="M47.1683 22.2342C28.1917 23.6916 20.3613 14.5152 20.3613 5.71655H31.2198C43.9786 5.71655 47.1683 16.7283 47.1683 22.2342Z" fill="url(#paint37_radial_971_15520)"/>
</g>
<g id="Vector 329" filter="url(#filter20_f_971_15520)">
<path d="M16.6797 9.35156C14.3646 10.1043 9.54844 13.1597 8.80469 19.3594" stroke="url(#paint38_linear_971_15520)" stroke-width="0.4" stroke-linecap="round"/>
</g>
</g>
<defs>
<filter id="filter0_i_971_15520" x="5.66797" y="25.6603" width="11.375" height="11.775" filterUnits="userSpaceOnUse" color-interpolation-filters="sRGB">
<feFlood flood-opacity="0" result="BackgroundImageFix"/>
<feBlend mode="normal" in="SourceGraphic" in2="BackgroundImageFix" result="shape"/>
<feColorMatrix in="SourceAlpha" type="matrix" values="0 0 0 0 0 0 0 0 0 0 0 0 0 0 0 0 0 0 127 0" result="hardAlpha"/>
<feOffset dy="-0.4"/>
<feGaussianBlur stdDeviation="0.2"/>
<feComposite in2="hardAlpha" operator="arithmetic" k2="-1" k3="1"/>
<feColorMatrix type="matrix" values="0 0 0 0 0.776471 0 0 0 0 0.52549 0 0 0 0 0.458824 0 0 0 1 0"/>
<feBlend mode="normal" in2="shape" result="effect1_innerShadow_971_15520"/>
</filter>
<filter id="filter1_i_971_15520" x="38.918" y="25.8103" width="11.575" height="11.625" filterUnits="userSpaceOnUse" color-interpolation-filters="sRGB">
<feFlood flood-opacity="0" result="BackgroundImageFix"/>
<feBlend mode="normal" in="SourceGraphic" in2="BackgroundImageFix" result="shape"/>
<feColorMatrix in="SourceAlpha" type="matrix" values="0 0 0 0 0 0 0 0 0 0 0 0 0 0 0 0 0 0 127 0" result="hardAlpha"/>
<feOffset dx="0.2" dy="-0.25"/>
<feGaussianBlur stdDeviation="0.25"/>
<feComposite in2="hardAlpha" operator="arithmetic" k2="-1" k3="1"/>
<feColorMatrix type="matrix" values="0 0 0 0 0.831373 0 0 0 0 0.619608 0 0 0 0 0.537255 0 0 0 1 0"/>
<feBlend mode="normal" in2="shape" result="effect1_innerShadow_971_15520"/>
</filter>
<filter id="filter2_f_971_15520" x="40.5527" y="27.6965" width="8.10156" height="8.10248" filterUnits="userSpaceOnUse" color-interpolation-filters="sRGB">
<feFlood flood-opacity="0" result="BackgroundImageFix"/>
<feBlend mode="normal" in="SourceGraphic" in2="BackgroundImageFix" result="shape"/>
<feGaussianBlur stdDeviation="0.25" result="effect1_foregroundBlur_971_15520"/>
</filter>
<filter id="filter3_f_971_15520" x="7.30273" y="27.6965" width="8.10156" height="8.10248" filterUnits="userSpaceOnUse" color-interpolation-filters="sRGB">
<feFlood flood-opacity="0" result="BackgroundImageFix"/>
<feBlend mode="normal" in="SourceGraphic" in2="BackgroundImageFix" result="shape"/>
<feGaussianBlur stdDeviation="0.25" result="effect1_foregroundBlur_971_15520"/>
</filter>
<filter id="filter4_i_971_15520" x="38.5117" y="37.0203" width="14.7359" height="16.1679" filterUnits="userSpaceOnUse" color-interpolation-filters="sRGB">
<feFlood flood-opacity="0" result="BackgroundImageFix"/>
<feBlend mode="normal" in="SourceGraphic" in2="BackgroundImageFix" result="shape"/>
<feColorMatrix in="SourceAlpha" type="matrix" values="0 0 0 0 0 0 0 0 0 0 0 0 0 0 0 0 0 0 127 0" result="hardAlpha"/>
<feOffset dx="0.65" dy="-0.8"/>
<feGaussianBlur stdDeviation="0.75"/>
<feComposite in2="hardAlpha" operator="arithmetic" k2="-1" k3="1"/>
<feColorMatrix type="matrix" values="0 0 0 0 0.113725 0 0 0 0 0.0666667 0 0 0 0 0.152941 0 0 0 1 0"/>
<feBlend mode="normal" in2="shape" result="effect1_innerShadow_971_15520"/>
</filter>
<filter id="filter5_i_971_15520" x="3.23047" y="37.0703" width="14.3359" height="16.1179" filterUnits="userSpaceOnUse" color-interpolation-filters="sRGB">
<feFlood flood-opacity="0" result="BackgroundImageFix"/>
<feBlend mode="normal" in="SourceGraphic" in2="BackgroundImageFix" result="shape"/>
<feColorMatrix in="SourceAlpha" type="matrix" values="0 0 0 0 0 0 0 0 0 0 0 0 0 0 0 0 0 0 127 0" result="hardAlpha"/>
<feOffset dx="-0.25" dy="-0.75"/>
<feGaussianBlur stdDeviation="0.5"/>
<feComposite in2="hardAlpha" operator="arithmetic" k2="-1" k3="1"/>
<feColorMatrix type="matrix" values="0 0 0 0 0.0941176 0 0 0 0 0.054902 0 0 0 0 0.12549 0 0 0 1 0"/>
<feBlend mode="normal" in2="shape" result="effect1_innerShadow_971_15520"/>
</filter>
<filter id="filter6_i_971_15520" x="10.2051" y="14.4358" width="35.582" height="39.1495" filterUnits="userSpaceOnUse" color-interpolation-filters="sRGB">
<feFlood flood-opacity="0" result="BackgroundImageFix"/>
<feBlend mode="normal" in="SourceGraphic" in2="BackgroundImageFix" result="shape"/>
<feColorMatrix in="SourceAlpha" type="matrix" values="0 0 0 0 0 0 0 0 0 0 0 0 0 0 0 0 0 0 127 0" result="hardAlpha"/>
<feOffset dy="0.4"/>
<feGaussianBlur stdDeviation="0.3"/>
<feComposite in2="hardAlpha" operator="arithmetic" k2="-1" k3="1"/>
<feColorMatrix type="matrix" values="0 0 0 0 0.772549 0 0 0 0 0.552941 0 0 0 0 0.509804 0 0 0 1 0"/>
<feBlend mode="normal" in2="shape" result="effect1_innerShadow_971_15520"/>
</filter>
<filter id="filter7_i_971_15520" x="16.248" y="24.1499" width="5.55352" height="1.74407" filterUnits="userSpaceOnUse" color-interpolation-filters="sRGB">
<feFlood flood-opacity="0" result="BackgroundImageFix"/>
<feBlend mode="normal" in="SourceGraphic" in2="BackgroundImageFix" result="shape"/>
<feColorMatrix in="SourceAlpha" type="matrix" values="0 0 0 0 0 0 0 0 0 0 0 0 0 0 0 0 0 0 127 0" result="hardAlpha"/>
<feOffset dx="0.2" dy="-0.2"/>
<feGaussianBlur stdDeviation="0.1"/>
<feComposite in2="hardAlpha" operator="arithmetic" k2="-1" k3="1"/>
<feColorMatrix type="matrix" values="0 0 0 0 0.0431373 0 0 0 0 0.0196078 0 0 0 0 0.0431373 0 0 0 1 0"/>
<feBlend mode="normal" in2="shape" result="effect1_innerShadow_971_15520"/>
</filter>
<filter id="filter8_f_971_15520" x="16.0488" y="24.1499" width="5.75195" height="1.94397" filterUnits="userSpaceOnUse" color-interpolation-filters="sRGB">
<feFlood flood-opacity="0" result="BackgroundImageFix"/>
<feBlend mode="normal" in="SourceGraphic" in2="BackgroundImageFix" result="shape"/>
<feGaussianBlur stdDeviation="0.25" result="effect1_foregroundBlur_971_15520"/>
</filter>
<filter id="filter9_i_971_15520" x="34.2871" y="24.1165" width="5.62383" height="1.81072" filterUnits="userSpaceOnUse" color-interpolation-filters="sRGB">
<feFlood flood-opacity="0" result="BackgroundImageFix"/>
<feBlend mode="normal" in="SourceGraphic" in2="BackgroundImageFix" result="shape"/>
<feColorMatrix in="SourceAlpha" type="matrix" values="0 0 0 0 0 0 0 0 0 0 0 0 0 0 0 0 0 0 127 0" result="hardAlpha"/>
<feOffset dx="0.2" dy="-0.2"/>
<feGaussianBlur stdDeviation="0.1"/>
<feComposite in2="hardAlpha" operator="arithmetic" k2="-1" k3="1"/>
<feColorMatrix type="matrix" values="0 0 0 0 0.0431373 0 0 0 0 0.0196078 0 0 0 0 0.0431373 0 0 0 1 0"/>
<feBlend mode="normal" in2="shape" result="effect1_innerShadow_971_15520"/>
</filter>
<filter id="filter10_f_971_15520" x="34.0879" y="24.1166" width="5.82227" height="2.01062" filterUnits="userSpaceOnUse" color-interpolation-filters="sRGB">
<feFlood flood-opacity="0" result="BackgroundImageFix"/>
<feBlend mode="normal" in="SourceGraphic" in2="BackgroundImageFix" result="shape"/>
<feGaussianBlur stdDeviation="0.25" result="effect1_foregroundBlur_971_15520"/>
</filter>
<filter id="filter11_i_971_15520" x="6.5293" y="7.1853" width="12.8555" height="20.8333" filterUnits="userSpaceOnUse" color-interpolation-filters="sRGB">
<feFlood flood-opacity="0" result="BackgroundImageFix"/>
<feBlend mode="normal" in="SourceGraphic" in2="BackgroundImageFix" result="shape"/>
<feColorMatrix in="SourceAlpha" type="matrix" values="0 0 0 0 0 0 0 0 0 0 0 0 0 0 0 0 0 0 127 0" result="hardAlpha"/>
<feOffset dx="-0.5" dy="-0.5"/>
<feGaussianBlur stdDeviation="0.5"/>
<feComposite in2="hardAlpha" operator="arithmetic" k2="-1" k3="1"/>
<feColorMatrix type="matrix" values="0 0 0 0 0.0784314 0 0 0 0 0.0117647 0 0 0 0 0.0470588 0 0 0 1 0"/>
<feBlend mode="normal" in2="shape" result="effect1_innerShadow_971_15520"/>
</filter>
<filter id="filter12_f_971_15520" x="23.7695" y="31.3629" width="7.30273" height="9.18756" filterUnits="userSpaceOnUse" color-interpolation-filters="sRGB">
<feFlood flood-opacity="0" result="BackgroundImageFix"/>
<feBlend mode="normal" in="SourceGraphic" in2="BackgroundImageFix" result="shape"/>
<feGaussianBlur stdDeviation="0.375" result="effect1_foregroundBlur_971_15520"/>
</filter>
<filter id="filter13_f_971_15520" x="24.6699" y="30.8303" width="6.61914" height="8.60492" filterUnits="userSpaceOnUse" color-interpolation-filters="sRGB">
<feFlood flood-opacity="0" result="BackgroundImageFix"/>
<feBlend mode="normal" in="SourceGraphic" in2="BackgroundImageFix" result="shape"/>
<feGaussianBlur stdDeviation="0.125" result="effect1_foregroundBlur_971_15520"/>
</filter>
<filter id="filter14_i_971_15520" x="17.5645" y="3.4353" width="32.2324" height="24.7612" filterUnits="userSpaceOnUse" color-interpolation-filters="sRGB">
<feFlood flood-opacity="0" result="BackgroundImageFix"/>
<feBlend mode="normal" in="SourceGraphic" in2="BackgroundImageFix" result="shape"/>
<feColorMatrix in="SourceAlpha" type="matrix" values="0 0 0 0 0 0 0 0 0 0 0 0 0 0 0 0 0 0 127 0" result="hardAlpha"/>
<feOffset dx="0.75" dy="-0.75"/>
<feGaussianBlur stdDeviation="0.625"/>
<feComposite in2="hardAlpha" operator="arithmetic" k2="-1" k3="1"/>
<feColorMatrix type="matrix" values="0 0 0 0 0.0745098 0 0 0 0 0.0156863 0 0 0 0 0.054902 0 0 0 1 0"/>
<feBlend mode="normal" in2="shape" result="effect1_innerShadow_971_15520"/>
</filter>
<filter id="filter15_f_971_15520" x="33.0113" y="30.3662" width="2.4832" height="2.13103" filterUnits="userSpaceOnUse" color-interpolation-filters="sRGB">
<feFlood flood-opacity="0" result="BackgroundImageFix"/>
<feBlend mode="normal" in="SourceGraphic" in2="BackgroundImageFix" result="shape"/>
<feGaussianBlur stdDeviation="0.05" result="effect1_foregroundBlur_971_15520"/>
</filter>
<filter id="filter16_f_971_15520" x="36.5676" y="30.9472" width="2.31211" height="2.39756" filterUnits="userSpaceOnUse" color-interpolation-filters="sRGB">
<feFlood flood-opacity="0" result="BackgroundImageFix"/>
<feBlend mode="normal" in="SourceGraphic" in2="BackgroundImageFix" result="shape"/>
<feGaussianBlur stdDeviation="0.1" result="effect1_foregroundBlur_971_15520"/>
</filter>
<filter id="filter17_f_971_15520" x="21.1164" y="30.7346" width="2.67734" height="2.88608" filterUnits="userSpaceOnUse" color-interpolation-filters="sRGB">
<feFlood flood-opacity="0" result="BackgroundImageFix"/>
<feBlend mode="normal" in="SourceGraphic" in2="BackgroundImageFix" result="shape"/>
<feGaussianBlur stdDeviation="0.1" result="effect1_foregroundBlur_971_15520"/>
</filter>
<filter id="filter18_f_971_15520" x="17.8961" y="30.3695" width="2.96953" height="2.15911" filterUnits="userSpaceOnUse" color-interpolation-filters="sRGB">
<feFlood flood-opacity="0" result="BackgroundImageFix"/>
<feBlend mode="normal" in="SourceGraphic" in2="BackgroundImageFix" result="shape"/>
<feGaussianBlur stdDeviation="0.05" result="effect1_foregroundBlur_971_15520"/>
</filter>
<filter id="filter19_f_971_15520" x="18.3613" y="3.71655" width="30.8066" height="20.6711" filterUnits="userSpaceOnUse" color-interpolation-filters="sRGB">
<feFlood flood-opacity="0" result="BackgroundImageFix"/>
<feBlend mode="normal" in="SourceGraphic" in2="BackgroundImageFix" result="shape"/>
<feGaussianBlur stdDeviation="1" result="effect1_foregroundBlur_971_15520"/>
</filter>
<filter id="filter20_f_971_15520" x="7.85547" y="8.40149" width="9.77344" height="11.908" filterUnits="userSpaceOnUse" color-interpolation-filters="sRGB">
<feFlood flood-opacity="0" result="BackgroundImageFix"/>
<feBlend mode="normal" in="SourceGraphic" in2="BackgroundImageFix" result="shape"/>
<feGaussianBlur stdDeviation="0.375" result="effect1_foregroundBlur_971_15520"/>
</filter>
<linearGradient id="paint0_linear_971_15520" x1="7.30256" y1="33.4288" x2="11.7522" y2="33.4288" gradientUnits="userSpaceOnUse">
<stop stop-color="#D19888"/>
<stop offset="1" stop-color="#C0866F"/>
</linearGradient>
<radialGradient id="paint1_radial_971_15520" cx="0" cy="0" r="1" gradientUnits="userSpaceOnUse" gradientTransform="translate(11.1845 31.1993) rotate(-180) scale(4.92188 5.62274)">
<stop offset="0.56973" stop-color="#CF9384"/>
<stop offset="1" stop-color="#CF9384" stop-opacity="0"/>
</radialGradient>
<radialGradient id="paint2_radial_971_15520" cx="0" cy="0" r="1" gradientUnits="userSpaceOnUse" gradientTransform="translate(44.0243 34.3438) rotate(-38.1374) scale(7.97 6.39241)">
<stop offset="0.573409" stop-color="#F2BCAA"/>
<stop offset="1" stop-color="#FFD3BB"/>
</radialGradient>
<radialGradient id="paint3_radial_971_15520" cx="0" cy="0" r="1" gradientUnits="userSpaceOnUse" gradientTransform="translate(44.6055 32.9493) rotate(-69.0399) scale(7.70097 7.47315)">
<stop offset="0.760545" stop-color="#CEA084" stop-opacity="0"/>
<stop offset="1" stop-color="#CEA084"/>
</radialGradient>
<radialGradient id="paint4_radial_971_15520" cx="0" cy="0" r="1" gradientUnits="userSpaceOnUse" gradientTransform="translate(43.3402 31.7478) scale(5.05859 5.05859)">
<stop offset="0.733391" stop-color="#F3B79C" stop-opacity="0"/>
<stop offset="1" stop-color="#F3B79C"/>
</radialGradient>
<linearGradient id="paint5_linear_971_15520" x1="48.8635" y1="42.8767" x2="47.0041" y2="45.7478" gradientUnits="userSpaceOnUse">
<stop stop-color="#323131"/>
<stop offset="1" stop-color="#323131" stop-opacity="0"/>
</linearGradient>
<radialGradient id="paint6_radial_971_15520" cx="0" cy="0" r="1" gradientUnits="userSpaceOnUse" gradientTransform="translate(43.1477 41.3164) rotate(38.4802) scale(9.5358 1.64389)">
<stop stop-color="#3C3B3B"/>
<stop offset="1" stop-color="#3C3B3B" stop-opacity="0"/>
</radialGradient>
<radialGradient id="paint7_radial_971_15520" cx="0" cy="0" r="1" gradientUnits="userSpaceOnUse" gradientTransform="translate(52.9368 45.8828) rotate(170.242) scale(4.35599 0.979402)">
<stop offset="0.152652" stop-color="#494949"/>
<stop offset="1" stop-color="#494949" stop-opacity="0"/>
</radialGradient>
<radialGradient id="paint8_radial_971_15520" cx="0" cy="0" r="1" gradientUnits="userSpaceOnUse" gradientTransform="translate(39.7024 44.6797) rotate(32.9977) scale(5.02084 9.08266)">
<stop stop-color="#09040C"/>
<stop offset="1" stop-color="#09040C" stop-opacity="0"/>
</radialGradient>
<radialGradient id="paint9_radial_971_15520" cx="0" cy="0" r="1" gradientUnits="userSpaceOnUse" gradientTransform="translate(14.2479 46.1853) rotate(153.831) scale(4.15015 9.47361)">
<stop stop-color="#140F18"/>
<stop offset="1" stop-color="#140F18" stop-opacity="0"/>
</radialGradient>
<linearGradient id="paint10_linear_971_15520" x1="6.97443" y1="42.3025" x2="8.72443" y2="44.8181" gradientUnits="userSpaceOnUse">
<stop stop-color="#3C3A3A"/>
<stop offset="1" stop-color="#3C3A3A" stop-opacity="0"/>
</linearGradient>
<radialGradient id="paint11_radial_971_15520" cx="0" cy="0" r="1" gradientUnits="userSpaceOnUse" gradientTransform="translate(40.0317 33.0312) rotate(131.847) scale(23.2377 24.3375)">
<stop offset="0.102798" stop-color="#FFDCBF"/>
<stop offset="1" stop-color="#D49F95"/>
</radialGradient>
<radialGradient id="paint12_radial_971_15520" cx="0" cy="0" r="1" gradientUnits="userSpaceOnUse" gradientTransform="translate(30.435 25.8415) rotate(94.8333) scale(28.9489 27.2292)">
<stop offset="0.67285" stop-color="#B57894" stop-opacity="0"/>
<stop offset="1" stop-color="#B57894"/>
</radialGradient>
<radialGradient id="paint13_radial_971_15520" cx="0" cy="0" r="1" gradientUnits="userSpaceOnUse" gradientTransform="translate(39.2661 33.8105) rotate(180) scale(29.061 31.2949)">
<stop offset="0.875045" stop-color="#E9AE96" stop-opacity="0"/>
<stop offset="1" stop-color="#E9AE96"/>
</radialGradient>
<radialGradient id="paint14_radial_971_15520" cx="0" cy="0" r="1" gradientUnits="userSpaceOnUse" gradientTransform="translate(45.7866 33.8105) rotate(180) scale(3.79443 20.9827)">
<stop stop-color="#FFD5B8"/>
<stop offset="1" stop-color="#FFD5B8" stop-opacity="0"/>
</radialGradient>
<radialGradient id="paint15_radial_971_15520" cx="0" cy="0" r="1" gradientUnits="userSpaceOnUse" gradientTransform="translate(36.8144 30.2422) rotate(-90) scale(4.08436 5.67829)">
<stop offset="0.374906" stop-color="#F1B7A7"/>
<stop offset="1" stop-color="#F1B7A7" stop-opacity="0"/>
</radialGradient>
<radialGradient id="paint16_radial_971_15520" cx="0" cy="0" r="1" gradientUnits="userSpaceOnUse" gradientTransform="translate(20.2348 30.1328) rotate(-80.4413) scale(4.31024 4.57306)">
<stop offset="0.146341" stop-color="#D0968F"/>
<stop offset="1" stop-color="#D0968F" stop-opacity="0"/>
</radialGradient>
<linearGradient id="paint17_linear_971_15520" x1="24.3633" y1="43.668" x2="25.2109" y2="42.3335" gradientUnits="userSpaceOnUse">
<stop stop-color="#D8A2A1"/>
<stop offset="1" stop-color="#D8A2A1" stop-opacity="0"/>
</linearGradient>
<linearGradient id="paint18_linear_971_15520" x1="21.0507" y1="25.3438" x2="16.4206" y2="25.3438" gradientUnits="userSpaceOnUse">
<stop stop-color="#353535"/>
<stop offset="1" stop-color="#353535" stop-opacity="0"/>
</linearGradient>
<linearGradient id="paint19_linear_971_15520" x1="39.1604" y1="25.3771" x2="34.4534" y2="25.3771" gradientUnits="userSpaceOnUse">
<stop stop-color="#353535"/>
<stop offset="1" stop-color="#353535" stop-opacity="0"/>
</linearGradient>
<radialGradient id="paint20_radial_971_15520" cx="0" cy="0" r="1" gradientUnits="userSpaceOnUse" gradientTransform="translate(17.7323 16.9637) rotate(-176.074) scale(11.6326 19.4157)">
<stop offset="0.412383" stop-color="#22181C"/>
<stop offset="1" stop-color="#5E5959"/>
</radialGradient>
<radialGradient id="paint21_radial_971_15520" cx="0" cy="0" r="1" gradientUnits="userSpaceOnUse" gradientTransform="translate(16.5376 15.4277) rotate(110.487) scale(5.52639 1.59399)">
<stop offset="0.209947" stop-color="#3B3438"/>
<stop offset="1" stop-color="#3B3438" stop-opacity="0"/>
</radialGradient>
<linearGradient id="paint22_linear_971_15520" x1="25.074" y1="38.7816" x2="31.1799" y2="35.6475" gradientUnits="userSpaceOnUse">
<stop offset="0.274389" stop-color="#D0938D"/>
<stop offset="1" stop-color="#FFDBC0"/>
</linearGradient>
<radialGradient id="paint23_radial_971_15520" cx="0" cy="0" r="1" gradientUnits="userSpaceOnUse" gradientTransform="translate(30.6997 36.7337) rotate(-103.678) scale(6.406 2.7226)">
<stop stop-color="#FFD9C1"/>
<stop offset="1" stop-color="#FFD9C1" stop-opacity="0"/>
</radialGradient>
<radialGradient id="paint24_radial_971_15520" cx="0" cy="0" r="1" gradientUnits="userSpaceOnUse" gradientTransform="translate(30.6523 37.0234) rotate(-180) scale(3.71875 0.628906)">
<stop offset="0.360294" stop-color="#FFD9C1"/>
<stop offset="1" stop-color="#FFD9C1" stop-opacity="0"/>
</radialGradient>
<linearGradient id="paint25_linear_971_15520" x1="24.6406" y1="35.9074" x2="27.0918" y2="36.0176" gradientUnits="userSpaceOnUse">
<stop stop-color="#DFA790"/>
<stop offset="1" stop-color="#DFA790" stop-opacity="0"/>
</linearGradient>
<linearGradient id="paint26_linear_971_15520" x1="27.6701" y1="39.7081" x2="27.6701" y2="36.6235" gradientUnits="userSpaceOnUse">
<stop stop-color="#D29294"/>
<stop offset="1" stop-color="#D29294" stop-opacity="0"/>
</linearGradient>
<radialGradient id="paint27_radial_971_15520" cx="0" cy="0" r="1" gradientUnits="userSpaceOnUse" gradientTransform="translate(27.9796 33.5508) rotate(90) scale(6.15234 4.64507)">
<stop offset="0.826667" stop-color="#D08F90" stop-opacity="0"/>
<stop offset="1" stop-color="#D08F90"/>
</radialGradient>
<linearGradient id="paint28_linear_971_15520" x1="26.0312" y1="35.4922" x2="24.4999" y2="35.1328" gradientUnits="userSpaceOnUse">
<stop stop-color="#D08F90" stop-opacity="0"/>
<stop offset="0.897776" stop-color="#D08F90"/>
</linearGradient>
<radialGradient id="paint29_radial_971_15520" cx="0" cy="0" r="1" gradientUnits="userSpaceOnUse" gradientTransform="translate(31.3857 1.26243) rotate(90) scale(8.64706 17.9768)">
<stop stop-color="#433D3F"/>
<stop offset="1" stop-color="#433D3F" stop-opacity="0"/>
</radialGradient>
<radialGradient id="paint30_radial_971_15520" cx="0" cy="0" r="1" gradientUnits="userSpaceOnUse" gradientTransform="translate(53.1558 23.5157) rotate(180) scale(12.4687 13.4531)">
<stop stop-color="#565253"/>
<stop offset="1" stop-color="#565253" stop-opacity="0"/>
</radialGradient>
<radialGradient id="paint31_radial_971_15520" cx="0" cy="0" r="1" gradientUnits="userSpaceOnUse" gradientTransform="translate(35.5779 31.7884) rotate(90) scale(3.15669 5.02106)">
<stop offset="0.80198" stop-color="#7D574A"/>
<stop offset="1" stop-color="#694B43"/>
<stop offset="1" stop-color="#804D49"/>
<stop offset="1" stop-color="#644945"/>
</radialGradient>
<radialGradient id="paint32_radial_971_15520" cx="0" cy="0" r="1" gradientUnits="userSpaceOnUse" gradientTransform="translate(34.6906 32.1158) rotate(-127.812) scale(1.47184 2.02638)">
<stop offset="0.765532" stop-color="#FFE6E2" stop-opacity="0"/>
<stop offset="0.966159" stop-color="#FFE6E2"/>
</radialGradient>
<linearGradient id="paint33_linear_971_15520" x1="38.6049" y1="31.998" x2="37.3841" y2="32.7502" gradientUnits="userSpaceOnUse">
<stop stop-color="#B4948D"/>
<stop offset="1" stop-color="#B4948D" stop-opacity="0"/>
</linearGradient>
<radialGradient id="paint34_radial_971_15520" cx="0" cy="0" r="1" gradientUnits="userSpaceOnUse" gradientTransform="translate(20.4346 31.8208) rotate(90) scale(3.15073 5.0116)">
<stop offset="0.80198" stop-color="#7D574A"/>
<stop offset="1" stop-color="#694B43"/>
<stop offset="1" stop-color="#804D49"/>
<stop offset="1" stop-color="#644945"/>
</radialGradient>
<linearGradient id="paint35_linear_971_15520" x1="23.3234" y1="32.0299" x2="22.105" y2="32.7807" gradientUnits="userSpaceOnUse">
<stop stop-color="#B4948D"/>
<stop offset="1" stop-color="#B4948D" stop-opacity="0"/>
</linearGradient>
<radialGradient id="paint36_radial_971_15520" cx="0" cy="0" r="1" gradientUnits="userSpaceOnUse" gradientTransform="translate(19.3224 32.672) rotate(-90.897) scale(1.9189 2.30659)">
<stop offset="0.765532" stop-color="#FFE6E2" stop-opacity="0"/>
<stop offset="0.966159" stop-color="#FFE6E2"/>
</radialGradient>
<radialGradient id="paint37_radial_971_15520" cx="0" cy="0" r="1" gradientUnits="userSpaceOnUse" gradientTransform="translate(39.1225 21.5147) rotate(-147.45) scale(19.0321 7.01292)">
<stop offset="0.212415" stop-color="#4A4446"/>
<stop offset="1" stop-color="#4A4446" stop-opacity="0"/>
</radialGradient>
<linearGradient id="paint38_linear_971_15520" x1="16.1328" y1="9.76214" x2="9.4465" y2="20.8746" gradientUnits="userSpaceOnUse">
<stop stop-color="#504E4E"/>
<stop offset="1" stop-color="#504E4E" stop-opacity="0"/>
</linearGradient>
</defs>
</svg>
