<svg width="28" height="28" viewBox="0 0 28 28" fill="none" xmlns="http://www.w3.org/2000/svg">
<path d="M7.09354 23.3922C6.10188 23.3922 5.29688 22.5872 5.29688 21.5956V12.3089C5.29688 11.7372 5.57688 11.2006 6.03188 10.8622L13.0085 5.72891C13.3235 5.49557 13.6852 5.37891 14.0819 5.37891C14.4785 5.37891 14.8402 5.49557 15.1435 5.72891L22.1202 10.8622C22.5752 11.2006 22.8552 11.7372 22.8552 12.3089V21.5956C22.8552 22.5872 22.0502 23.3922 21.0585 23.3922H7.09354Z" fill="#A30FFA" fill-opacity="0.15"/>
<path d="M14.0697 5.91503C14.338 5.91503 14.5947 5.99669 14.8163 6.16003L18.0947 8.56336L21.8047 11.2934C22.1197 11.5267 22.318 11.9 22.318 12.2967V21.5834C22.318 22.2717 21.758 22.8317 21.0697 22.8317H7.09299C6.40466 22.8317 5.84466 22.2717 5.84466 21.5834V12.2967C5.84466 11.9 6.03133 11.5267 6.35799 11.2934L10.068 8.56336L13.3463 6.16003C13.568 5.99669 13.8247 5.91503 14.093 5.91503M14.0697 4.81836C13.5797 4.81836 13.0897 4.97003 12.6813 5.27336L9.403 7.67669L5.69299 10.4067C5.08633 10.85 4.73633 11.55 4.73633 12.2967V21.5834C4.73633 22.8784 5.78633 23.94 7.09299 23.94H21.058C22.353 23.94 23.4147 22.89 23.4147 21.5834V12.2967C23.4147 11.55 23.053 10.85 22.458 10.4067L18.748 7.67669L15.4697 5.27336C15.0497 4.97003 14.5713 4.81836 14.0813 4.81836H14.0697Z" fill="#A30FFA"/>
<path d="M14.0707 17.5352C13.954 17.5352 13.849 17.5002 13.744 17.4419C13.114 17.0219 12.3207 16.4502 11.7373 15.6569C11.609 15.4819 10.9907 14.5952 11.224 14.0469C11.3057 13.8602 11.539 13.6736 11.7373 13.6386C11.8307 13.6269 11.9123 13.6269 12.0057 13.6152C12.1807 13.6152 12.3207 13.6269 12.4607 13.6502C12.729 13.6969 12.9973 13.7902 13.254 13.9302C13.5457 14.0819 13.8257 14.2919 14.0707 14.5252C14.3157 14.2919 14.5957 14.0936 14.8873 13.9302C15.144 13.7902 15.4123 13.6969 15.6807 13.6502C15.8207 13.6269 15.9723 13.6152 16.1123 13.6152C16.229 13.6152 16.3223 13.6152 16.4157 13.6386C16.614 13.6736 16.8473 13.8602 16.929 14.0469C17.1507 14.5952 16.544 15.4819 16.4157 15.6569C15.8323 16.4502 15.0273 17.0336 14.3973 17.4536C14.304 17.5236 14.1873 17.5469 14.0707 17.5469V17.5352Z" fill="#A30FFA" fill-opacity="0.15"/>
<path d="M16.1115 14.2096C16.1115 14.2096 16.1232 14.2096 16.1348 14.2096C16.1932 14.2096 16.2632 14.2096 16.3215 14.2096C16.6015 14.2563 16.0065 15.2013 15.9365 15.3063C15.4465 15.9713 14.7582 16.4963 14.0698 16.9513C13.3815 16.4963 12.7048 15.9713 12.2032 15.3063C12.1332 15.213 11.5382 14.2563 11.8182 14.2096C11.8765 14.2096 11.9465 14.2096 12.0048 14.2096C12.0048 14.2096 12.0165 14.2096 12.0282 14.2096C12.1448 14.2096 12.2498 14.2096 12.3665 14.2446C12.5882 14.2796 12.7982 14.3613 12.9848 14.4663C13.4048 14.688 13.8015 15.038 14.0698 15.4346C14.3498 15.038 14.7348 14.688 15.1548 14.4663C15.3532 14.3613 15.5632 14.2796 15.7732 14.2446C15.8782 14.2213 15.9948 14.2096 16.1115 14.2096ZM16.1115 13.043C15.9365 13.043 15.7498 13.0546 15.5748 13.0896C15.2482 13.148 14.9215 13.2646 14.6182 13.428C14.4315 13.5213 14.2565 13.638 14.0815 13.7663C13.9065 13.638 13.7315 13.5213 13.5448 13.428C13.2298 13.2646 12.9148 13.148 12.5882 13.0896C12.4132 13.0546 12.2265 13.043 12.0515 13.043C11.8998 13.043 11.7832 13.043 11.6665 13.0663C11.2348 13.1363 10.8732 13.4163 10.7098 13.8246C10.3832 14.6296 11.0132 15.6096 11.2932 15.9946C11.9348 16.858 12.7865 17.4763 13.4515 17.9196C13.6498 18.048 13.8715 18.118 14.0932 18.118C14.3148 18.118 14.5365 18.048 14.7348 17.9196C15.3998 17.4763 16.2515 16.858 16.8932 15.9946C17.1848 15.6096 17.8032 14.618 17.4765 13.8246C17.3132 13.4163 16.9515 13.1363 16.5082 13.0663C16.3915 13.043 16.2748 13.043 16.1582 13.043C16.1582 13.043 16.1348 13.043 16.1232 13.043H16.1115Z" fill="#A30FFA"/>
</svg>
