<svg width="52" height="52" viewBox="0 0 52 52" fill="none" xmlns="http://www.w3.org/2000/svg">
<g id="Group 1707481723">
<path id="Vector" fill-rule="evenodd" clip-rule="evenodd" d="M40.7422 26.0094C40.7422 23.1188 43.0885 20.7715 45.9801 20.7715C48.8707 20.7715 51.2181 23.1188 51.2181 26.0094C51.2181 28.9 48.8707 31.2474 45.9801 31.2474C43.0885 31.2474 40.7422 28.9 40.7422 26.0094Z" fill="#F1E6F4"/>
<path id="Vector_2" fill-rule="evenodd" clip-rule="evenodd" d="M36.4156 36.4141C38.4603 34.3704 41.7796 34.3704 43.8244 36.4141C45.8681 38.4589 45.8681 41.7782 43.8244 43.8229C41.7796 45.8666 38.4603 45.8666 36.4156 43.8229C34.3719 41.7782 34.3719 38.4589 36.4156 36.4141Z" fill="#DBC0E4"/>
<path id="Vector_3" d="M26.0114 51.2166C28.9042 51.2166 31.2494 48.8715 31.2494 45.9787C31.2494 43.0858 28.9042 40.7407 26.0114 40.7407C23.1186 40.7407 20.7734 43.0858 20.7734 45.9787C20.7734 48.8715 23.1186 51.2166 26.0114 51.2166Z" fill="#C597D4"/>
<path id="Vector_4" fill-rule="evenodd" clip-rule="evenodd" d="M15.5861 36.4141C17.6298 38.4589 17.6298 41.7782 15.5861 43.8229C13.5414 45.8666 10.2221 45.8666 8.1773 43.8229C6.13361 41.7782 6.13361 38.4589 8.1773 36.4141C10.2221 34.3704 13.5414 34.3704 15.5861 36.4141Z" fill="#AF6EC3"/>
<path id="Vector_5" fill-rule="evenodd" clip-rule="evenodd" d="M11.2611 26.0094C11.2611 28.9 8.91476 31.2474 6.02312 31.2474C3.13252 31.2474 0.785156 28.9 0.785156 26.0094C0.785156 23.1188 3.13252 20.7715 6.02312 20.7715C8.91476 20.7715 11.2611 23.1188 11.2611 26.0094Z" fill="#8F36AA"/>
<path id="Vector_6" fill-rule="evenodd" clip-rule="evenodd" d="M15.5861 15.5841C13.5414 17.6278 10.2221 17.6278 8.1773 15.5841C6.13361 13.5394 6.13361 10.2201 8.1773 8.17535C10.2221 6.13165 13.5414 6.13165 15.5861 8.17535C17.6298 10.2201 17.6298 13.5394 15.5861 15.5841Z" fill="#712C9C"/>
<path id="Vector_7" d="M26.0114 11.2591C28.9042 11.2591 31.2494 8.91401 31.2494 6.02116C31.2494 3.12832 28.9042 0.783203 26.0114 0.783203C23.1186 0.783203 20.7734 3.12832 20.7734 6.02116C20.7734 8.91401 23.1186 11.2591 26.0114 11.2591Z" fill="#441D87"/>
</g>
</svg>
