<svg width="60" height="18" viewBox="0 0 60 18" fill="none" xmlns="http://www.w3.org/2000/svg">
<g id="Group">
<path id="Vector" d="M1.29814 13.7147C1.15543 13.7147 1.02645 13.6607 0.924916 13.5582C0.820634 13.454 0.767578 13.3277 0.767578 13.1832C0.767578 13.057 0.81423 12.9399 0.910279 12.8255L0.923086 12.8118C1.01913 12.7139 1.14537 12.6636 1.29905 12.6636H5.26359C6.01186 11.8211 6.40337 10.8524 6.4299 9.78305H5.34317C4.29487 9.78305 3.38103 9.40617 2.62727 8.66339C1.87443 7.91238 1.49389 6.99763 1.49389 5.94383C1.49389 4.5278 2.00707 3.29562 3.0197 2.28208C4.02593 1.27585 5.25718 0.766335 6.68237 0.766335H8.43595C9.48792 0.766335 10.4027 1.14687 11.1546 1.89879C11.9047 2.63791 12.2861 3.54901 12.2861 4.60555C12.2861 6.01152 11.7977 7.219 10.8344 8.19412C9.93249 9.11711 8.80826 9.64583 7.49284 9.76567C7.47546 10.8094 7.17451 11.7818 6.59913 12.6636H12.5231C12.6767 12.6636 12.803 12.713 12.899 12.8118L12.9118 12.8255C13.0079 12.9399 13.0545 13.057 13.0545 13.1832C13.0545 13.3277 13.0015 13.454 12.8972 13.5582C12.7947 13.6607 12.6658 13.7147 12.524 13.7147H1.30088H1.29814ZM6.68054 1.81647C5.54076 1.81647 4.58393 2.21347 3.75516 3.03126C2.95841 3.82801 2.55409 4.80863 2.55409 5.94383C2.55409 6.72778 2.8212 7.37176 3.37097 7.91238C3.92439 8.46489 4.56929 8.73291 5.34226 8.73291H7.09584C8.2466 8.73291 9.20343 8.33591 10.0194 7.51904C10.828 6.71131 11.2214 5.75814 11.2214 4.60555C11.2214 3.83167 10.9534 3.18677 10.4036 2.63517C9.85107 2.08449 9.20709 1.81647 8.43412 1.81647H6.68054Z" fill="#111111"/>
<path id="Vector_2" d="M15.8545 17.4203V16.1845C15.8545 15.4893 16.106 14.8855 16.6018 14.3897C17.0912 13.9004 17.6913 13.6525 18.3865 13.6525H26.0503V13.5601C26.0503 13.1759 25.9186 12.8575 25.6469 12.5859C25.3752 12.3142 25.0532 12.1825 24.6626 12.1825H16.4271C16.2808 12.1825 16.1472 12.1276 16.0393 12.0224C15.9176 11.9144 15.8554 11.7763 15.8554 11.6098C15.8554 11.4433 15.9176 11.3061 16.0393 11.1982C16.1472 11.093 16.2808 11.0381 16.4271 11.0381H24.6626C25.3642 11.0381 25.9689 11.286 26.4574 11.7754C26.9459 12.2648 27.1947 12.8649 27.1947 13.5601V14.7959H18.3874C18.0032 14.7959 17.6849 14.9276 17.4132 15.1993C17.1388 15.4737 16.9988 15.8058 16.9988 16.1836V16.276H26.6229C26.7812 16.276 26.9175 16.3318 27.0282 16.4425C27.1389 16.5531 27.1947 16.6894 27.1947 16.8477C27.1947 17.0059 27.1389 17.1422 27.0282 17.2529C26.9175 17.3636 26.7812 17.4194 26.6229 17.4194H15.8545V17.4203ZM15.5343 9.75744C15.3852 9.75744 15.2489 9.69981 15.1391 9.59096C15.0294 9.4821 14.9727 9.3458 14.9727 9.19578C14.9727 9.04576 15.0303 8.91038 15.1391 8.80061C15.248 8.69084 15.3843 8.63412 15.5343 8.63412H27.7325C27.8816 8.63412 28.0179 8.69175 28.1277 8.80061C28.2375 8.90946 28.2942 9.04576 28.2942 9.19578C28.2942 9.3458 28.2366 9.48119 28.1277 9.59096C28.0189 9.70073 27.8826 9.75744 27.7325 9.75744H15.5343ZM16.2277 7.34249V6.8037C16.2597 4.76197 16.9586 2.98552 18.306 1.52101L18.843 0.952948C18.9061 0.879767 19.0186 0.791035 19.2061 0.768166L19.2217 0.766335H19.2372C19.3671 0.766335 19.4943 0.81482 19.605 0.90721L19.6141 0.914524L19.6223 0.922759C19.7303 1.02979 19.7888 1.167 19.7888 1.30696C19.7888 1.44691 19.7403 1.57406 19.648 1.68475L19.6379 1.69664L19.0982 2.26745C18.0828 3.37613 17.4946 4.72081 17.3501 6.26492L26.1619 6.31523L26.1765 6.31705C26.3174 6.33443 26.44 6.39207 26.5296 6.48171C26.6303 6.58234 26.6861 6.71863 26.6861 6.8659C26.6861 7.01318 26.6303 7.14948 26.5296 7.2501C26.429 7.35073 26.2927 7.40653 26.1454 7.40653L16.2277 7.34249Z" fill="#111111"/>
<path id="Vector_3" d="M31.5134 15.0905C31.368 15.0905 31.2399 15.0347 31.1494 14.9341C31.0478 14.8435 30.9929 14.7154 30.9929 14.57C30.9929 14.4346 31.0469 14.3093 31.1503 14.2068C31.2454 14.1117 31.3717 14.0605 31.5134 14.0605L39.749 14.0705C40.092 14.0705 40.3948 13.9452 40.6738 13.6863C40.9262 13.422 41.0552 13.1155 41.0552 12.7753V2.67273C41.0552 2.53003 41.1055 2.4047 41.2016 2.30957C41.304 2.20712 41.4303 2.15223 41.5647 2.15223C41.6992 2.15223 41.8264 2.2062 41.9297 2.30957C42.0331 2.41293 42.0862 2.53734 42.0862 2.67273V12.7753C42.0862 13.3845 41.8566 13.9342 41.4047 14.4099L41.3955 14.4191C40.9198 14.871 40.3664 15.1006 39.7499 15.1006L31.5144 15.0905H31.5134ZM33.4353 12.0864C32.5133 12.0864 31.7174 11.7581 31.0698 11.1104C30.4221 10.4518 30.0938 9.65595 30.0938 8.74394V5.89174C30.0938 4.53699 30.5822 3.36062 31.5464 2.39464C32.5032 1.43781 33.6796 0.952988 35.0426 0.952988C35.9546 0.952988 36.7504 1.28047 37.4072 1.9272C38.0558 2.57576 38.3832 3.36794 38.3832 4.28361V7.1358C38.3832 8.50245 37.8948 9.67882 36.9306 10.6329C35.9774 11.5961 34.8001 12.0864 33.4344 12.0864H33.4353ZM35.0426 1.98208C33.9613 1.98208 33.0301 2.36903 32.2745 3.13193C31.4997 3.89758 31.1238 4.79953 31.1238 5.89174V8.74394C31.1238 9.38701 31.3442 9.9194 31.797 10.3722C32.2571 10.8323 32.7932 11.0564 33.4353 11.0564C34.5157 11.0564 35.4213 10.6796 36.2052 9.90476C36.9681 9.14186 37.3551 8.21064 37.3551 7.13764V4.28544C37.3551 3.64968 37.1309 3.11729 36.6708 2.65717C36.2171 2.20346 35.6847 1.983 35.0426 1.983V1.98208Z" fill="#111111"/>
<path id="Vector_4" d="M45.3894 16.0234V9.25701H50.3492C52.0013 9.25701 53.4329 9.85068 54.6028 11.0216C55.7737 12.1924 56.3674 13.6231 56.3674 15.2743V16.0225H45.3894V16.0234ZM55.2587 14.9312C55.1498 13.6808 54.6504 12.6087 53.7722 11.7406C52.8401 10.8176 51.6884 10.3492 50.3492 10.3492H46.4826V14.9312H55.2587ZM56.6839 8.00837C56.5403 8.00837 56.4049 7.948 56.3088 7.84188C56.2018 7.74401 56.1433 7.60771 56.1433 7.45769V1.12028C56.1433 0.980325 56.2027 0.84311 56.3107 0.73517C56.4104 0.636376 56.5458 0.579666 56.6839 0.579666C56.822 0.579666 56.9492 0.628144 57.0598 0.718705L57.0791 0.73426L57.0946 0.753466C57.1861 0.865066 57.2337 0.991302 57.2337 1.12028V3.88833H58.7576C58.8866 3.88833 59.0128 3.93681 59.1244 4.02737L59.1336 4.0356L59.1418 4.04383C59.2424 4.14446 59.2983 4.28075 59.2983 4.42894C59.2983 4.57713 59.2424 4.7116 59.1418 4.81222C59.0339 4.92016 58.8976 4.97962 58.7567 4.97962H57.2327V7.45678C57.2327 7.60222 57.1779 7.73761 57.0791 7.83914C56.9684 7.94983 56.8321 8.00745 56.6821 8.00745L56.6839 8.00837ZM45.2138 7.97819V0.579666H50.4837C51.5091 0.579666 52.4001 0.950137 53.1292 1.6792C53.8591 2.40917 54.2287 3.29923 54.2287 4.32466V7.97727H45.2129L45.2138 7.97819ZM53.1383 6.88506V4.32466C53.1383 3.58463 52.884 2.97083 52.3608 2.44759C51.8384 1.92527 51.2246 1.67097 50.4846 1.67097H46.306V6.88506H53.1383Z" fill="#111111"/>
</g>
</svg>
