<svg width="24" height="24" viewBox="0 0 24 24" fill="none" xmlns="http://www.w3.org/2000/svg">
<g id="&#235;&#169;&#148;&#236;&#139;&#156;&#236;&#167;&#128;">
<g id="Union">
<path fill-rule="evenodd" clip-rule="evenodd" d="M18.6622 16.4288C19.5069 15.1607 19.9993 13.6376 19.9993 11.9996C19.9993 7.58156 16.4177 4 11.9996 4C7.58156 4 4 7.58156 4 11.9996C4 16.4177 7.58156 19.9993 11.9996 19.9993C13.6388 19.9993 15.1627 19.5063 16.4314 18.6605L20.0011 19.9991L18.6622 16.4288Z" fill="#A30FFA" fill-opacity="0.15"/>
<path d="M18.6622 16.4288L18.038 16.013C17.9043 16.2137 17.8753 16.4664 17.96 16.6922L18.6622 16.4288ZM16.4314 18.6605L16.6948 17.9582C16.4689 17.8735 16.2161 17.9026 16.0154 18.0365L16.4314 18.6605ZM20.0011 19.9991L19.7377 20.7013C20.0131 20.8046 20.3234 20.7374 20.5314 20.5294C20.7394 20.3215 20.8066 20.0111 20.7033 19.7358L20.0011 19.9991ZM19.2493 11.9996C19.2493 13.4851 18.8033 14.8642 18.038 16.013L19.2864 16.8446C20.2106 15.4571 20.7493 13.7902 20.7493 11.9996H19.2493ZM11.9996 4.75C16.0035 4.75 19.2493 7.99577 19.2493 11.9996H20.7493C20.7493 7.16734 16.8319 3.25 11.9996 3.25V4.75ZM4.75 11.9996C4.75 7.99577 7.99577 4.75 11.9996 4.75V3.25C7.16734 3.25 3.25 7.16734 3.25 11.9996H4.75ZM11.9996 19.2493C7.99577 19.2493 4.75 16.0035 4.75 11.9996H3.25C3.25 16.8319 7.16734 20.7493 11.9996 20.7493V19.2493ZM16.0154 18.0365C14.8661 18.8027 13.4862 19.2493 11.9996 19.2493V20.7493C13.7914 20.7493 15.4594 20.2099 16.8474 19.2845L16.0154 18.0365ZM16.1681 19.3627L19.7377 20.7013L20.2644 19.2969L16.6948 17.9582L16.1681 19.3627ZM20.7033 19.7358L19.3644 16.1655L17.96 16.6922L19.2988 20.2624L20.7033 19.7358Z" fill="#A30FFA"/>
</g>
<circle id="Ellipse 14" cx="8" cy="12" r="1" fill="#A30FFA"/>
<circle id="Ellipse 15" cx="12" cy="12" r="1" fill="#A30FFA"/>
<circle id="Ellipse 16" cx="16" cy="12" r="1" fill="#A30FFA"/>
</g>
</svg>
