<svg width="12" height="12" viewBox="0 0 12 12" fill="none" xmlns="http://www.w3.org/2000/svg">
<g id="&#235;&#169;&#148;&#236;&#139;&#156;&#236;&#167;&#128;">
<path id="Union" d="M9.3311 8.21442L8.91497 7.93722C8.82586 8.071 8.8065 8.23947 8.86294 8.38998L9.3311 8.21442ZM8.21571 9.33024L8.39127 8.86208C8.2407 8.80561 8.07216 8.82502 7.93835 8.91422L8.21571 9.33024ZM10.0005 9.99955L9.82497 10.4677C10.0086 10.5366 10.2154 10.4917 10.3541 10.3531C10.4927 10.2145 10.5375 10.0076 10.4687 9.82399L10.0005 9.99955ZM9.49963 5.99981C9.49963 6.71716 9.28435 7.3827 8.91497 7.93722L9.74723 8.49161C10.2226 7.77798 10.4996 6.92049 10.4996 5.99981H9.49963ZM5.99981 2.5C7.93271 2.5 9.49963 4.06692 9.49963 5.99981H10.4996C10.4996 3.51464 8.48499 1.5 5.99981 1.5V2.5ZM2.5 5.99981C2.5 4.06692 4.06692 2.5 5.99981 2.5V1.5C3.51464 1.5 1.5 3.51464 1.5 5.99981H2.5ZM5.99981 9.49963C4.06692 9.49963 2.5 7.93271 2.5 5.99981H1.5C1.5 8.48499 3.51464 10.4996 5.99981 10.4996V9.49963ZM7.93835 8.91422C7.3836 9.28406 6.71764 9.49963 5.99981 9.49963V10.4996C6.92112 10.4996 7.77915 10.2222 8.49306 9.74627L7.93835 8.91422ZM8.04014 9.79841L9.82497 10.4677L10.1761 9.53139L8.39127 8.86208L8.04014 9.79841ZM10.4687 9.82399L9.79927 8.03885L8.86294 8.38998L9.53236 10.1751L10.4687 9.82399Z" fill="#A30FFA"/>
<circle id="Ellipse 14" cx="4" cy="6" r="0.5" fill="#A30FFA"/>
<circle id="Ellipse 15" cx="6" cy="6" r="0.5" fill="#A30FFA"/>
<circle id="Ellipse 16" cx="8" cy="6" r="0.5" fill="#A30FFA"/>
</g>
</svg>
