<svg width="56" height="56" viewBox="0 0 56 56" fill="none" xmlns="http://www.w3.org/2000/svg">
<g filter="url(#filter0_i_971_14926)">
<path fill-rule="evenodd" clip-rule="evenodd" d="M51.4434 35.9245C52.1368 34.5047 52.5 32.9198 52.5 31.2689C52.5 29.7441 52.1863 28.3135 51.6238 27.0094H51.6412C51.3787 26.4189 51.0837 25.861 50.7236 25.3357L50.717 25.3255C49.5943 23.6085 49 21.5943 49 19.5472V19.5142C49 13.5708 44.1792 8.75 38.2358 8.75C37.6415 8.75 37.0802 8.48585 36.75 7.99057C34.8019 5.28302 31.5987 3.5 27.9997 3.5C24.4006 3.5 21.1978 5.28302 19.2497 7.99057C18.9195 8.45283 18.3582 8.75 17.7638 8.75C17.6711 8.75 17.5786 8.75118 17.4864 8.75352C11.6711 8.90075 6.99966 13.6635 6.99966 19.5142V19.5472C6.99966 21.5943 6.40532 23.6085 5.28268 25.3255L5.2752 25.3375C4.15731 27.0518 3.5 29.0617 3.5 31.2689C3.5 32.9528 3.89623 34.5047 4.5566 35.9245C4.78774 36.3868 4.78774 36.9481 4.5566 37.4104C3.89623 38.7972 3.5 40.3491 3.5 42C3.5 47.8113 8.18868 52.5 14 52.5H42C47.8113 52.5 52.5 47.8113 52.5 42C52.5 40.3491 52.1038 38.7972 51.4434 37.4104C51.2123 36.9481 51.2123 36.3868 51.4434 35.9245ZM11.4419 27.2052H11.4017L15.3128 34.8907C15.715 44.0345 19.2835 34.8907 27.9997 34.8907C36.7158 34.8907 40.5167 45.0683 40.919 35.9245L44.625 25.4932C44.4498 21.4316 41.5064 21.1465 40.919 21.1465H30.413C26.2641 21.1465 22.3494 19.1159 20.0073 15.6871C19.6058 15.1211 18.7694 15.221 18.5017 15.8535L18.234 16.486C17.4979 18.3169 16.0927 19.7151 14.3528 20.514C14.3026 20.5307 14.2441 20.5557 14.1855 20.5806C14.127 20.6056 14.0684 20.6306 14.0182 20.6472C13.2487 21.0467 11.4419 22.2451 11.375 25.341L11.4085 26.3397L11.4419 27.2052Z" fill="url(#paint0_linear_971_14926)"/>
<path fill-rule="evenodd" clip-rule="evenodd" d="M51.4434 35.9245C52.1368 34.5047 52.5 32.9198 52.5 31.2689C52.5 29.7441 52.1863 28.3135 51.6238 27.0094H51.6412C51.3787 26.4189 51.0837 25.861 50.7236 25.3357L50.717 25.3255C49.5943 23.6085 49 21.5943 49 19.5472V19.5142C49 13.5708 44.1792 8.75 38.2358 8.75C37.6415 8.75 37.0802 8.48585 36.75 7.99057C34.8019 5.28302 31.5987 3.5 27.9997 3.5C24.4006 3.5 21.1978 5.28302 19.2497 7.99057C18.9195 8.45283 18.3582 8.75 17.7638 8.75C17.6711 8.75 17.5786 8.75118 17.4864 8.75352C11.6711 8.90075 6.99966 13.6635 6.99966 19.5142V19.5472C6.99966 21.5943 6.40532 23.6085 5.28268 25.3255L5.2752 25.3375C4.15731 27.0518 3.5 29.0617 3.5 31.2689C3.5 32.9528 3.89623 34.5047 4.5566 35.9245C4.78774 36.3868 4.78774 36.9481 4.5566 37.4104C3.89623 38.7972 3.5 40.3491 3.5 42C3.5 47.8113 8.18868 52.5 14 52.5H42C47.8113 52.5 52.5 47.8113 52.5 42C52.5 40.3491 52.1038 38.7972 51.4434 37.4104C51.2123 36.9481 51.2123 36.3868 51.4434 35.9245ZM11.4419 27.2052H11.4017L15.3128 34.8907C15.715 44.0345 19.2835 34.8907 27.9997 34.8907C36.7158 34.8907 40.5167 45.0683 40.919 35.9245L44.625 25.4932C44.4498 21.4316 41.5064 21.1465 40.919 21.1465H30.413C26.2641 21.1465 22.3494 19.1159 20.0073 15.6871C19.6058 15.1211 18.7694 15.221 18.5017 15.8535L18.234 16.486C17.4979 18.3169 16.0927 19.7151 14.3528 20.514C14.3026 20.5307 14.2441 20.5557 14.1855 20.5806C14.127 20.6056 14.0684 20.6306 14.0182 20.6472C13.2487 21.0467 11.4419 22.2451 11.375 25.341L11.4085 26.3397L11.4419 27.2052Z" fill="url(#paint1_radial_971_14926)"/>
<path fill-rule="evenodd" clip-rule="evenodd" d="M51.4434 35.9245C52.1368 34.5047 52.5 32.9198 52.5 31.2689C52.5 29.7441 52.1863 28.3135 51.6238 27.0094H51.6412C51.3787 26.4189 51.0837 25.861 50.7236 25.3357L50.717 25.3255C49.5943 23.6085 49 21.5943 49 19.5472V19.5142C49 13.5708 44.1792 8.75 38.2358 8.75C37.6415 8.75 37.0802 8.48585 36.75 7.99057C34.8019 5.28302 31.5987 3.5 27.9997 3.5C24.4006 3.5 21.1978 5.28302 19.2497 7.99057C18.9195 8.45283 18.3582 8.75 17.7638 8.75C17.6711 8.75 17.5786 8.75118 17.4864 8.75352C11.6711 8.90075 6.99966 13.6635 6.99966 19.5142V19.5472C6.99966 21.5943 6.40532 23.6085 5.28268 25.3255L5.2752 25.3375C4.15731 27.0518 3.5 29.0617 3.5 31.2689C3.5 32.9528 3.89623 34.5047 4.5566 35.9245C4.78774 36.3868 4.78774 36.9481 4.5566 37.4104C3.89623 38.7972 3.5 40.3491 3.5 42C3.5 47.8113 8.18868 52.5 14 52.5H42C47.8113 52.5 52.5 47.8113 52.5 42C52.5 40.3491 52.1038 38.7972 51.4434 37.4104C51.2123 36.9481 51.2123 36.3868 51.4434 35.9245ZM11.4419 27.2052H11.4017L15.3128 34.8907C15.715 44.0345 19.2835 34.8907 27.9997 34.8907C36.7158 34.8907 40.5167 45.0683 40.919 35.9245L44.625 25.4932C44.4498 21.4316 41.5064 21.1465 40.919 21.1465H30.413C26.2641 21.1465 22.3494 19.1159 20.0073 15.6871C19.6058 15.1211 18.7694 15.221 18.5017 15.8535L18.234 16.486C17.4979 18.3169 16.0927 19.7151 14.3528 20.514C14.3026 20.5307 14.2441 20.5557 14.1855 20.5806C14.127 20.6056 14.0684 20.6306 14.0182 20.6472C13.2487 21.0467 11.4419 22.2451 11.375 25.341L11.4085 26.3397L11.4419 27.2052Z" fill="url(#paint2_radial_971_14926)"/>
<path fill-rule="evenodd" clip-rule="evenodd" d="M51.4434 35.9245C52.1368 34.5047 52.5 32.9198 52.5 31.2689C52.5 29.7441 52.1863 28.3135 51.6238 27.0094H51.6412C51.3787 26.4189 51.0837 25.861 50.7236 25.3357L50.717 25.3255C49.5943 23.6085 49 21.5943 49 19.5472V19.5142C49 13.5708 44.1792 8.75 38.2358 8.75C37.6415 8.75 37.0802 8.48585 36.75 7.99057C34.8019 5.28302 31.5987 3.5 27.9997 3.5C24.4006 3.5 21.1978 5.28302 19.2497 7.99057C18.9195 8.45283 18.3582 8.75 17.7638 8.75C17.6711 8.75 17.5786 8.75118 17.4864 8.75352C11.6711 8.90075 6.99966 13.6635 6.99966 19.5142V19.5472C6.99966 21.5943 6.40532 23.6085 5.28268 25.3255L5.2752 25.3375C4.15731 27.0518 3.5 29.0617 3.5 31.2689C3.5 32.9528 3.89623 34.5047 4.5566 35.9245C4.78774 36.3868 4.78774 36.9481 4.5566 37.4104C3.89623 38.7972 3.5 40.3491 3.5 42C3.5 47.8113 8.18868 52.5 14 52.5H42C47.8113 52.5 52.5 47.8113 52.5 42C52.5 40.3491 52.1038 38.7972 51.4434 37.4104C51.2123 36.9481 51.2123 36.3868 51.4434 35.9245ZM11.4419 27.2052H11.4017L15.3128 34.8907C15.715 44.0345 19.2835 34.8907 27.9997 34.8907C36.7158 34.8907 40.5167 45.0683 40.919 35.9245L44.625 25.4932C44.4498 21.4316 41.5064 21.1465 40.919 21.1465H30.413C26.2641 21.1465 22.3494 19.1159 20.0073 15.6871C19.6058 15.1211 18.7694 15.221 18.5017 15.8535L18.234 16.486C17.4979 18.3169 16.0927 19.7151 14.3528 20.514C14.3026 20.5307 14.2441 20.5557 14.1855 20.5806C14.127 20.6056 14.0684 20.6306 14.0182 20.6472C13.2487 21.0467 11.4419 22.2451 11.375 25.341L11.4085 26.3397L11.4419 27.2052Z" fill="url(#paint3_radial_971_14926)"/>
<path fill-rule="evenodd" clip-rule="evenodd" d="M51.4434 35.9245C52.1368 34.5047 52.5 32.9198 52.5 31.2689C52.5 29.7441 52.1863 28.3135 51.6238 27.0094H51.6412C51.3787 26.4189 51.0837 25.861 50.7236 25.3357L50.717 25.3255C49.5943 23.6085 49 21.5943 49 19.5472V19.5142C49 13.5708 44.1792 8.75 38.2358 8.75C37.6415 8.75 37.0802 8.48585 36.75 7.99057C34.8019 5.28302 31.5987 3.5 27.9997 3.5C24.4006 3.5 21.1978 5.28302 19.2497 7.99057C18.9195 8.45283 18.3582 8.75 17.7638 8.75C17.6711 8.75 17.5786 8.75118 17.4864 8.75352C11.6711 8.90075 6.99966 13.6635 6.99966 19.5142V19.5472C6.99966 21.5943 6.40532 23.6085 5.28268 25.3255L5.2752 25.3375C4.15731 27.0518 3.5 29.0617 3.5 31.2689C3.5 32.9528 3.89623 34.5047 4.5566 35.9245C4.78774 36.3868 4.78774 36.9481 4.5566 37.4104C3.89623 38.7972 3.5 40.3491 3.5 42C3.5 47.8113 8.18868 52.5 14 52.5H42C47.8113 52.5 52.5 47.8113 52.5 42C52.5 40.3491 52.1038 38.7972 51.4434 37.4104C51.2123 36.9481 51.2123 36.3868 51.4434 35.9245ZM11.4419 27.2052H11.4017L15.3128 34.8907C15.715 44.0345 19.2835 34.8907 27.9997 34.8907C36.7158 34.8907 40.5167 45.0683 40.919 35.9245L44.625 25.4932C44.4498 21.4316 41.5064 21.1465 40.919 21.1465H30.413C26.2641 21.1465 22.3494 19.1159 20.0073 15.6871C19.6058 15.1211 18.7694 15.221 18.5017 15.8535L18.234 16.486C17.4979 18.3169 16.0927 19.7151 14.3528 20.514C14.3026 20.5307 14.2441 20.5557 14.1855 20.5806C14.127 20.6056 14.0684 20.6306 14.0182 20.6472C13.2487 21.0467 11.4419 22.2451 11.375 25.341L11.4085 26.3397L11.4419 27.2052Z" fill="url(#paint4_radial_971_14926)"/>
<path fill-rule="evenodd" clip-rule="evenodd" d="M51.4434 35.9245C52.1368 34.5047 52.5 32.9198 52.5 31.2689C52.5 29.7441 52.1863 28.3135 51.6238 27.0094H51.6412C51.3787 26.4189 51.0837 25.861 50.7236 25.3357L50.717 25.3255C49.5943 23.6085 49 21.5943 49 19.5472V19.5142C49 13.5708 44.1792 8.75 38.2358 8.75C37.6415 8.75 37.0802 8.48585 36.75 7.99057C34.8019 5.28302 31.5987 3.5 27.9997 3.5C24.4006 3.5 21.1978 5.28302 19.2497 7.99057C18.9195 8.45283 18.3582 8.75 17.7638 8.75C17.6711 8.75 17.5786 8.75118 17.4864 8.75352C11.6711 8.90075 6.99966 13.6635 6.99966 19.5142V19.5472C6.99966 21.5943 6.40532 23.6085 5.28268 25.3255L5.2752 25.3375C4.15731 27.0518 3.5 29.0617 3.5 31.2689C3.5 32.9528 3.89623 34.5047 4.5566 35.9245C4.78774 36.3868 4.78774 36.9481 4.5566 37.4104C3.89623 38.7972 3.5 40.3491 3.5 42C3.5 47.8113 8.18868 52.5 14 52.5H42C47.8113 52.5 52.5 47.8113 52.5 42C52.5 40.3491 52.1038 38.7972 51.4434 37.4104C51.2123 36.9481 51.2123 36.3868 51.4434 35.9245ZM11.4419 27.2052H11.4017L15.3128 34.8907C15.715 44.0345 19.2835 34.8907 27.9997 34.8907C36.7158 34.8907 40.5167 45.0683 40.919 35.9245L44.625 25.4932C44.4498 21.4316 41.5064 21.1465 40.919 21.1465H30.413C26.2641 21.1465 22.3494 19.1159 20.0073 15.6871C19.6058 15.1211 18.7694 15.221 18.5017 15.8535L18.234 16.486C17.4979 18.3169 16.0927 19.7151 14.3528 20.514C14.3026 20.5307 14.2441 20.5557 14.1855 20.5806C14.127 20.6056 14.0684 20.6306 14.0182 20.6472C13.2487 21.0467 11.4419 22.2451 11.375 25.341L11.4085 26.3397L11.4419 27.2052Z" fill="url(#paint5_radial_971_14926)"/>
<path fill-rule="evenodd" clip-rule="evenodd" d="M51.4434 35.9245C52.1368 34.5047 52.5 32.9198 52.5 31.2689C52.5 29.7441 52.1863 28.3135 51.6238 27.0094H51.6412C51.3787 26.4189 51.0837 25.861 50.7236 25.3357L50.717 25.3255C49.5943 23.6085 49 21.5943 49 19.5472V19.5142C49 13.5708 44.1792 8.75 38.2358 8.75C37.6415 8.75 37.0802 8.48585 36.75 7.99057C34.8019 5.28302 31.5987 3.5 27.9997 3.5C24.4006 3.5 21.1978 5.28302 19.2497 7.99057C18.9195 8.45283 18.3582 8.75 17.7638 8.75C17.6711 8.75 17.5786 8.75118 17.4864 8.75352C11.6711 8.90075 6.99966 13.6635 6.99966 19.5142V19.5472C6.99966 21.5943 6.40532 23.6085 5.28268 25.3255L5.2752 25.3375C4.15731 27.0518 3.5 29.0617 3.5 31.2689C3.5 32.9528 3.89623 34.5047 4.5566 35.9245C4.78774 36.3868 4.78774 36.9481 4.5566 37.4104C3.89623 38.7972 3.5 40.3491 3.5 42C3.5 47.8113 8.18868 52.5 14 52.5H42C47.8113 52.5 52.5 47.8113 52.5 42C52.5 40.3491 52.1038 38.7972 51.4434 37.4104C51.2123 36.9481 51.2123 36.3868 51.4434 35.9245ZM11.4419 27.2052H11.4017L15.3128 34.8907C15.715 44.0345 19.2835 34.8907 27.9997 34.8907C36.7158 34.8907 40.5167 45.0683 40.919 35.9245L44.625 25.4932C44.4498 21.4316 41.5064 21.1465 40.919 21.1465H30.413C26.2641 21.1465 22.3494 19.1159 20.0073 15.6871C19.6058 15.1211 18.7694 15.221 18.5017 15.8535L18.234 16.486C17.4979 18.3169 16.0927 19.7151 14.3528 20.514C14.3026 20.5307 14.2441 20.5557 14.1855 20.5806C14.127 20.6056 14.0684 20.6306 14.0182 20.6472C13.2487 21.0467 11.4419 22.2451 11.375 25.341L11.4085 26.3397L11.4419 27.2052Z" fill="url(#paint6_radial_971_14926)"/>
<path fill-rule="evenodd" clip-rule="evenodd" d="M51.4434 35.9245C52.1368 34.5047 52.5 32.9198 52.5 31.2689C52.5 29.7441 52.1863 28.3135 51.6238 27.0094H51.6412C51.3787 26.4189 51.0837 25.861 50.7236 25.3357L50.717 25.3255C49.5943 23.6085 49 21.5943 49 19.5472V19.5142C49 13.5708 44.1792 8.75 38.2358 8.75C37.6415 8.75 37.0802 8.48585 36.75 7.99057C34.8019 5.28302 31.5987 3.5 27.9997 3.5C24.4006 3.5 21.1978 5.28302 19.2497 7.99057C18.9195 8.45283 18.3582 8.75 17.7638 8.75C17.6711 8.75 17.5786 8.75118 17.4864 8.75352C11.6711 8.90075 6.99966 13.6635 6.99966 19.5142V19.5472C6.99966 21.5943 6.40532 23.6085 5.28268 25.3255L5.2752 25.3375C4.15731 27.0518 3.5 29.0617 3.5 31.2689C3.5 32.9528 3.89623 34.5047 4.5566 35.9245C4.78774 36.3868 4.78774 36.9481 4.5566 37.4104C3.89623 38.7972 3.5 40.3491 3.5 42C3.5 47.8113 8.18868 52.5 14 52.5H42C47.8113 52.5 52.5 47.8113 52.5 42C52.5 40.3491 52.1038 38.7972 51.4434 37.4104C51.2123 36.9481 51.2123 36.3868 51.4434 35.9245ZM11.4419 27.2052H11.4017L15.3128 34.8907C15.715 44.0345 19.2835 34.8907 27.9997 34.8907C36.7158 34.8907 40.5167 45.0683 40.919 35.9245L44.625 25.4932C44.4498 21.4316 41.5064 21.1465 40.919 21.1465H30.413C26.2641 21.1465 22.3494 19.1159 20.0073 15.6871C19.6058 15.1211 18.7694 15.221 18.5017 15.8535L18.234 16.486C17.4979 18.3169 16.0927 19.7151 14.3528 20.514C14.3026 20.5307 14.2441 20.5557 14.1855 20.5806C14.127 20.6056 14.0684 20.6306 14.0182 20.6472C13.2487 21.0467 11.4419 22.2451 11.375 25.341L11.4085 26.3397L11.4419 27.2052Z" fill="url(#paint7_radial_971_14926)"/>
<path fill-rule="evenodd" clip-rule="evenodd" d="M51.4434 35.9245C52.1368 34.5047 52.5 32.9198 52.5 31.2689C52.5 29.7441 52.1863 28.3135 51.6238 27.0094H51.6412C51.3787 26.4189 51.0837 25.861 50.7236 25.3357L50.717 25.3255C49.5943 23.6085 49 21.5943 49 19.5472V19.5142C49 13.5708 44.1792 8.75 38.2358 8.75C37.6415 8.75 37.0802 8.48585 36.75 7.99057C34.8019 5.28302 31.5987 3.5 27.9997 3.5C24.4006 3.5 21.1978 5.28302 19.2497 7.99057C18.9195 8.45283 18.3582 8.75 17.7638 8.75C17.6711 8.75 17.5786 8.75118 17.4864 8.75352C11.6711 8.90075 6.99966 13.6635 6.99966 19.5142V19.5472C6.99966 21.5943 6.40532 23.6085 5.28268 25.3255L5.2752 25.3375C4.15731 27.0518 3.5 29.0617 3.5 31.2689C3.5 32.9528 3.89623 34.5047 4.5566 35.9245C4.78774 36.3868 4.78774 36.9481 4.5566 37.4104C3.89623 38.7972 3.5 40.3491 3.5 42C3.5 47.8113 8.18868 52.5 14 52.5H42C47.8113 52.5 52.5 47.8113 52.5 42C52.5 40.3491 52.1038 38.7972 51.4434 37.4104C51.2123 36.9481 51.2123 36.3868 51.4434 35.9245ZM11.4419 27.2052H11.4017L15.3128 34.8907C15.715 44.0345 19.2835 34.8907 27.9997 34.8907C36.7158 34.8907 40.5167 45.0683 40.919 35.9245L44.625 25.4932C44.4498 21.4316 41.5064 21.1465 40.919 21.1465H30.413C26.2641 21.1465 22.3494 19.1159 20.0073 15.6871C19.6058 15.1211 18.7694 15.221 18.5017 15.8535L18.234 16.486C17.4979 18.3169 16.0927 19.7151 14.3528 20.514C14.3026 20.5307 14.2441 20.5557 14.1855 20.5806C14.127 20.6056 14.0684 20.6306 14.0182 20.6472C13.2487 21.0467 11.4419 22.2451 11.375 25.341L11.4085 26.3397L11.4419 27.2052Z" fill="url(#paint8_radial_971_14926)"/>
<path fill-rule="evenodd" clip-rule="evenodd" d="M51.4434 35.9245C52.1368 34.5047 52.5 32.9198 52.5 31.2689C52.5 29.7441 52.1863 28.3135 51.6238 27.0094H51.6412C51.3787 26.4189 51.0837 25.861 50.7236 25.3357L50.717 25.3255C49.5943 23.6085 49 21.5943 49 19.5472V19.5142C49 13.5708 44.1792 8.75 38.2358 8.75C37.6415 8.75 37.0802 8.48585 36.75 7.99057C34.8019 5.28302 31.5987 3.5 27.9997 3.5C24.4006 3.5 21.1978 5.28302 19.2497 7.99057C18.9195 8.45283 18.3582 8.75 17.7638 8.75C17.6711 8.75 17.5786 8.75118 17.4864 8.75352C11.6711 8.90075 6.99966 13.6635 6.99966 19.5142V19.5472C6.99966 21.5943 6.40532 23.6085 5.28268 25.3255L5.2752 25.3375C4.15731 27.0518 3.5 29.0617 3.5 31.2689C3.5 32.9528 3.89623 34.5047 4.5566 35.9245C4.78774 36.3868 4.78774 36.9481 4.5566 37.4104C3.89623 38.7972 3.5 40.3491 3.5 42C3.5 47.8113 8.18868 52.5 14 52.5H42C47.8113 52.5 52.5 47.8113 52.5 42C52.5 40.3491 52.1038 38.7972 51.4434 37.4104C51.2123 36.9481 51.2123 36.3868 51.4434 35.9245ZM11.4419 27.2052H11.4017L15.3128 34.8907C15.715 44.0345 19.2835 34.8907 27.9997 34.8907C36.7158 34.8907 40.5167 45.0683 40.919 35.9245L44.625 25.4932C44.4498 21.4316 41.5064 21.1465 40.919 21.1465H30.413C26.2641 21.1465 22.3494 19.1159 20.0073 15.6871C19.6058 15.1211 18.7694 15.221 18.5017 15.8535L18.234 16.486C17.4979 18.3169 16.0927 19.7151 14.3528 20.514C14.3026 20.5307 14.2441 20.5557 14.1855 20.5806C14.127 20.6056 14.0684 20.6306 14.0182 20.6472C13.2487 21.0467 11.4419 22.2451 11.375 25.341L11.4085 26.3397L11.4419 27.2052Z" fill="url(#paint9_radial_971_14926)"/>
<path fill-rule="evenodd" clip-rule="evenodd" d="M51.4434 35.9245C52.1368 34.5047 52.5 32.9198 52.5 31.2689C52.5 29.7441 52.1863 28.3135 51.6238 27.0094H51.6412C51.3787 26.4189 51.0837 25.861 50.7236 25.3357L50.717 25.3255C49.5943 23.6085 49 21.5943 49 19.5472V19.5142C49 13.5708 44.1792 8.75 38.2358 8.75C37.6415 8.75 37.0802 8.48585 36.75 7.99057C34.8019 5.28302 31.5987 3.5 27.9997 3.5C24.4006 3.5 21.1978 5.28302 19.2497 7.99057C18.9195 8.45283 18.3582 8.75 17.7638 8.75C17.6711 8.75 17.5786 8.75118 17.4864 8.75352C11.6711 8.90075 6.99966 13.6635 6.99966 19.5142V19.5472C6.99966 21.5943 6.40532 23.6085 5.28268 25.3255L5.2752 25.3375C4.15731 27.0518 3.5 29.0617 3.5 31.2689C3.5 32.9528 3.89623 34.5047 4.5566 35.9245C4.78774 36.3868 4.78774 36.9481 4.5566 37.4104C3.89623 38.7972 3.5 40.3491 3.5 42C3.5 47.8113 8.18868 52.5 14 52.5H42C47.8113 52.5 52.5 47.8113 52.5 42C52.5 40.3491 52.1038 38.7972 51.4434 37.4104C51.2123 36.9481 51.2123 36.3868 51.4434 35.9245ZM11.4419 27.2052H11.4017L15.3128 34.8907C15.715 44.0345 19.2835 34.8907 27.9997 34.8907C36.7158 34.8907 40.5167 45.0683 40.919 35.9245L44.625 25.4932C44.4498 21.4316 41.5064 21.1465 40.919 21.1465H30.413C26.2641 21.1465 22.3494 19.1159 20.0073 15.6871C19.6058 15.1211 18.7694 15.221 18.5017 15.8535L18.234 16.486C17.4979 18.3169 16.0927 19.7151 14.3528 20.514C14.3026 20.5307 14.2441 20.5557 14.1855 20.5806C14.127 20.6056 14.0684 20.6306 14.0182 20.6472C13.2487 21.0467 11.4419 22.2451 11.375 25.341L11.4085 26.3397L11.4419 27.2052Z" fill="url(#paint10_radial_971_14926)"/>
</g>
<g filter="url(#filter1_i_971_14926)">
<path d="M12.7129 36.575C15.6124 36.575 17.9629 34.2245 17.9629 31.325C17.9629 28.4255 15.6124 26.075 12.7129 26.075C9.8134 26.075 7.46289 28.4255 7.46289 31.325C7.46289 34.2245 9.8134 36.575 12.7129 36.575Z" fill="url(#paint11_linear_971_14926)"/>
</g>
<g filter="url(#filter2_i_971_14926)">
<path d="M43.75 36.575C46.6495 36.575 49 34.2245 49 31.325C49 28.4255 46.6495 26.075 43.75 26.075C40.8505 26.075 38.5 28.4255 38.5 31.325C38.5 34.2245 40.8505 36.575 43.75 36.575Z" fill="url(#paint12_radial_971_14926)"/>
<path d="M43.75 36.575C46.6495 36.575 49 34.2245 49 31.325C49 28.4255 46.6495 26.075 43.75 26.075C40.8505 26.075 38.5 28.4255 38.5 31.325C38.5 34.2245 40.8505 36.575 43.75 36.575Z" fill="url(#paint13_radial_971_14926)"/>
</g>
<g filter="url(#filter3_f_971_14926)">
<path d="M43.7506 34.8295C45.6861 34.8295 47.2551 33.2605 47.2551 31.325C47.2551 29.3895 45.6861 27.8205 43.7506 27.8205C41.8151 27.8205 40.2461 29.3895 40.2461 31.325C40.2461 33.2605 41.8151 34.8295 43.7506 34.8295Z" fill="#F6BCA5"/>
<path d="M43.7506 34.8295C45.6861 34.8295 47.2551 33.2605 47.2551 31.325C47.2551 29.3895 45.6861 27.8205 43.7506 27.8205C41.8151 27.8205 40.2461 29.3895 40.2461 31.325C40.2461 33.2605 41.8151 34.8295 43.7506 34.8295Z" fill="url(#paint14_radial_971_14926)"/>
</g>
<g filter="url(#filter4_f_971_14926)">
<path d="M12.7741 34.8295C14.7095 34.8295 16.2786 33.2605 16.2786 31.325C16.2786 29.3895 14.7095 27.8205 12.7741 27.8205C10.8386 27.8205 9.26953 29.3895 9.26953 31.325C9.26953 33.2605 10.8386 34.8295 12.7741 34.8295Z" fill="#C58C80"/>
<path d="M12.7741 34.8295C14.7095 34.8295 16.2786 33.2605 16.2786 31.325C16.2786 29.3895 14.7095 27.8205 12.7741 27.8205C10.8386 27.8205 9.26953 29.3895 9.26953 31.325C9.26953 33.2605 10.8386 34.8295 12.7741 34.8295Z" fill="url(#paint15_radial_971_14926)"/>
</g>
<g filter="url(#filter5_i_971_14926)">
<path d="M11.4017 27.2053H11.4419L11.4085 26.3397L11.375 25.341C11.4419 22.2451 13.2487 21.0467 14.0182 20.6472C14.0684 20.6306 14.127 20.6056 14.1855 20.5806C14.2441 20.5557 14.3026 20.5307 14.3528 20.5141C16.0927 19.7151 17.4979 18.317 18.234 16.486L18.5017 15.8535C18.7694 15.221 19.6058 15.1212 20.0073 15.6871C22.3494 19.1159 26.2641 21.1466 30.413 21.1466H40.919C41.5064 21.1466 44.4498 21.4316 44.625 25.4932L44.2375 35.5196C43.8352 44.6635 36.6947 50.8034 27.9786 50.8034C19.2625 50.8034 12.122 44.6635 11.7197 35.5196L11.4017 27.2053Z" fill="url(#paint16_radial_971_14926)"/>
<path d="M11.4017 27.2053H11.4419L11.4085 26.3397L11.375 25.341C11.4419 22.2451 13.2487 21.0467 14.0182 20.6472C14.0684 20.6306 14.127 20.6056 14.1855 20.5806C14.2441 20.5557 14.3026 20.5307 14.3528 20.5141C16.0927 19.7151 17.4979 18.317 18.234 16.486L18.5017 15.8535C18.7694 15.221 19.6058 15.1212 20.0073 15.6871C22.3494 19.1159 26.2641 21.1466 30.413 21.1466H40.919C41.5064 21.1466 44.4498 21.4316 44.625 25.4932L44.2375 35.5196C43.8352 44.6635 36.6947 50.8034 27.9786 50.8034C19.2625 50.8034 12.122 44.6635 11.7197 35.5196L11.4017 27.2053Z" fill="url(#paint17_radial_971_14926)"/>
<path d="M11.4017 27.2053H11.4419L11.4085 26.3397L11.375 25.341C11.4419 22.2451 13.2487 21.0467 14.0182 20.6472C14.0684 20.6306 14.127 20.6056 14.1855 20.5806C14.2441 20.5557 14.3026 20.5307 14.3528 20.5141C16.0927 19.7151 17.4979 18.317 18.234 16.486L18.5017 15.8535C18.7694 15.221 19.6058 15.1212 20.0073 15.6871C22.3494 19.1159 26.2641 21.1466 30.413 21.1466H40.919C41.5064 21.1466 44.4498 21.4316 44.625 25.4932L44.2375 35.5196C43.8352 44.6635 36.6947 50.8034 27.9786 50.8034C19.2625 50.8034 12.122 44.6635 11.7197 35.5196L11.4017 27.2053Z" fill="url(#paint18_radial_971_14926)"/>
<path d="M11.4017 27.2053H11.4419L11.4085 26.3397L11.375 25.341C11.4419 22.2451 13.2487 21.0467 14.0182 20.6472C14.0684 20.6306 14.127 20.6056 14.1855 20.5806C14.2441 20.5557 14.3026 20.5307 14.3528 20.5141C16.0927 19.7151 17.4979 18.317 18.234 16.486L18.5017 15.8535C18.7694 15.221 19.6058 15.1212 20.0073 15.6871C22.3494 19.1159 26.2641 21.1466 30.413 21.1466H40.919C41.5064 21.1466 44.4498 21.4316 44.625 25.4932L44.2375 35.5196C43.8352 44.6635 36.6947 50.8034 27.9786 50.8034C19.2625 50.8034 12.122 44.6635 11.7197 35.5196L11.4017 27.2053Z" fill="url(#paint19_radial_971_14926)"/>
<path d="M11.4017 27.2053H11.4419L11.4085 26.3397L11.375 25.341C11.4419 22.2451 13.2487 21.0467 14.0182 20.6472C14.0684 20.6306 14.127 20.6056 14.1855 20.5806C14.2441 20.5557 14.3026 20.5307 14.3528 20.5141C16.0927 19.7151 17.4979 18.317 18.234 16.486L18.5017 15.8535C18.7694 15.221 19.6058 15.1212 20.0073 15.6871C22.3494 19.1159 26.2641 21.1466 30.413 21.1466H40.919C41.5064 21.1466 44.4498 21.4316 44.625 25.4932L44.2375 35.5196C43.8352 44.6635 36.6947 50.8034 27.9786 50.8034C19.2625 50.8034 12.122 44.6635 11.7197 35.5196L11.4017 27.2053Z" fill="url(#paint20_radial_971_14926)"/>
<path d="M11.4017 27.2053H11.4419L11.4085 26.3397L11.375 25.341C11.4419 22.2451 13.2487 21.0467 14.0182 20.6472C14.0684 20.6306 14.127 20.6056 14.1855 20.5806C14.2441 20.5557 14.3026 20.5307 14.3528 20.5141C16.0927 19.7151 17.4979 18.317 18.234 16.486L18.5017 15.8535C18.7694 15.221 19.6058 15.1212 20.0073 15.6871C22.3494 19.1159 26.2641 21.1466 30.413 21.1466H40.919C41.5064 21.1466 44.4498 21.4316 44.625 25.4932L44.2375 35.5196C43.8352 44.6635 36.6947 50.8034 27.9786 50.8034C19.2625 50.8034 12.122 44.6635 11.7197 35.5196L11.4017 27.2053Z" fill="url(#paint21_radial_971_14926)"/>
<path d="M11.4017 27.2053H11.4419L11.4085 26.3397L11.375 25.341C11.4419 22.2451 13.2487 21.0467 14.0182 20.6472C14.0684 20.6306 14.127 20.6056 14.1855 20.5806C14.2441 20.5557 14.3026 20.5307 14.3528 20.5141C16.0927 19.7151 17.4979 18.317 18.234 16.486L18.5017 15.8535C18.7694 15.221 19.6058 15.1212 20.0073 15.6871C22.3494 19.1159 26.2641 21.1466 30.413 21.1466H40.919C41.5064 21.1466 44.4498 21.4316 44.625 25.4932L44.2375 35.5196C43.8352 44.6635 36.6947 50.8034 27.9786 50.8034C19.2625 50.8034 12.122 44.6635 11.7197 35.5196L11.4017 27.2053Z" fill="url(#paint22_radial_971_14926)"/>
</g>
<path d="M11.4017 27.2053H11.4419L11.4085 26.3397L11.375 25.341C11.4419 22.2451 13.2487 21.0467 14.0182 20.6472C14.0684 20.6306 14.127 20.6056 14.1855 20.5806C14.2441 20.5557 14.3026 20.5307 14.3528 20.5141C16.0927 19.7151 17.4979 18.317 18.234 16.486L18.5017 15.8535C18.7694 15.221 19.6058 15.1212 20.0073 15.6871C22.3494 19.1159 26.2641 21.1466 30.413 21.1466H40.919C41.5064 21.1466 44.4498 21.4316 44.625 25.4932L44.2375 35.5196C43.8352 44.6635 36.6947 50.8034 27.9786 50.8034C19.2625 50.8034 12.122 44.6635 11.7197 35.5196L11.4017 27.2053Z" fill="url(#paint23_radial_971_14926)"/>
<g filter="url(#filter6_f_971_14926)">
<path d="M26.7195 30.5983L24.4892 36.1449C24.1353 37.2858 24.9846 38.4268 26.1879 38.4268H28.7535C29.9568 38.4268 30.8061 37.2683 30.4522 36.1449L28.7182 30.5983C28.3466 29.3696 27.1088 29.3696 26.7195 30.5983Z" fill="#D19590"/>
</g>
<g filter="url(#filter7_f_971_14926)">
<path d="M26.7525 30.1465L25.0185 35.6931C24.6646 36.8341 25.5139 37.975 26.7172 37.975H29.2828C30.4861 37.975 31.3354 36.8165 30.9815 35.6931L29.2475 30.1465C28.8759 28.9178 27.1418 28.9178 26.7525 30.1465Z" fill="#F1C4B2"/>
<path d="M26.7525 30.1465L25.0185 35.6931C24.6646 36.8341 25.5139 37.975 26.7172 37.975H29.2828C30.4861 37.975 31.3354 36.8165 30.9815 35.6931L29.2475 30.1465C28.8759 28.9178 27.1418 28.9178 26.7525 30.1465Z" fill="url(#paint24_radial_971_14926)"/>
<path d="M26.7525 30.1465L25.0185 35.6931C24.6646 36.8341 25.5139 37.975 26.7172 37.975H29.2828C30.4861 37.975 31.3354 36.8165 30.9815 35.6931L29.2475 30.1465C28.8759 28.9178 27.1418 28.9178 26.7525 30.1465Z" fill="url(#paint25_linear_971_14926)"/>
<path d="M26.7525 30.1465L25.0185 35.6931C24.6646 36.8341 25.5139 37.975 26.7172 37.975H29.2828C30.4861 37.975 31.3354 36.8165 30.9815 35.6931L29.2475 30.1465C28.8759 28.9178 27.1418 28.9178 26.7525 30.1465Z" fill="url(#paint26_linear_971_14926)"/>
<path d="M26.7525 30.1465L25.0185 35.6931C24.6646 36.8341 25.5139 37.975 26.7172 37.975H29.2828C30.4861 37.975 31.3354 36.8165 30.9815 35.6931L29.2475 30.1465C28.8759 28.9178 27.1418 28.9178 26.7525 30.1465Z" fill="url(#paint27_radial_971_14926)"/>
</g>
<path d="M26.7525 30.1465L25.0185 35.6931C24.6646 36.8341 25.5139 37.975 26.7172 37.975H29.2828C30.4861 37.975 31.3354 36.8165 30.9815 35.6931L29.2475 30.1465C28.8759 28.9178 27.1418 28.9178 26.7525 30.1465Z" fill="url(#paint28_linear_971_14926)"/>
<path d="M26.7525 30.1465L25.0185 35.6931C24.6646 36.8341 25.5139 37.975 26.7172 37.975H29.2828C30.4861 37.975 31.3354 36.8165 30.9815 35.6931L29.2475 30.1465C28.8759 28.9178 27.1418 28.9178 26.7525 30.1465Z" fill="url(#paint29_radial_971_14926)"/>
<path d="M23.3856 39.6558L23.3856 39.6558L23.3851 39.6555C23.133 39.5244 22.8712 39.605 22.7137 39.7745C22.5562 39.9442 22.4986 40.208 22.6577 40.4432C23.7879 42.1946 25.757 43.3625 28.0003 43.3625C30.2438 43.3625 32.2131 42.1945 33.3432 40.4428C33.5015 40.1999 33.4451 39.9361 33.2866 39.7679C33.1286 39.6001 32.8669 39.5248 32.6155 39.6555L32.6155 39.6555L32.6151 39.6558C31.2803 40.3675 29.7083 40.7746 28.0003 40.7746C26.3093 40.7746 24.7203 40.3675 23.3856 39.6558Z" fill="#88024E" stroke="url(#paint30_linear_971_14926)" stroke-width="0.1"/>
<g filter="url(#filter8_i_971_14926)">
<path d="M31.727 29.4683C32.593 27.9453 33.9094 26.7422 36.743 26.7422C37.9836 26.7422 39.1799 27.086 40.2433 27.9453C41.1204 28.6541 41.0029 29.5609 40.3237 29.9005L38.5095 30.9363C36.3827 30.2488 34.031 30.1557 31.727 29.4683Z" fill="#2D2B2E"/>
</g>
<g filter="url(#filter9_i_971_14926)">
<path d="M24.2749 29.4683C23.409 27.9453 22.0925 26.7422 19.259 26.7422C18.0184 26.7422 16.822 27.086 15.7587 27.9453C14.8816 28.6541 14.999 29.5609 15.6783 29.9005L17.4925 30.9363C19.6192 30.2488 21.9709 30.1557 24.2749 29.4683Z" fill="#272528"/>
</g>
<g filter="url(#filter10_i_971_14926)">
<path d="M16.9137 25.5242L16.8994 25.5325C16.8989 25.5327 16.8985 25.533 16.898 25.5333C16.4839 25.7804 15.9472 25.6461 15.6989 25.2323C15.4503 24.818 15.5852 24.2802 15.9995 24.0316L16.0014 24.0304L16.0048 24.0284L16.0144 24.0228L16.0451 24.005C16.0706 23.9904 16.1061 23.9705 16.151 23.9462C16.2407 23.8976 16.3683 23.8312 16.5294 23.7544C16.8509 23.6012 17.3091 23.4049 17.8676 23.2267C18.9765 22.8728 20.5272 22.5751 22.2013 22.8705C22.6772 22.9545 22.9949 23.4083 22.9109 23.8842C22.8269 24.3601 22.373 24.6778 21.8972 24.5938C20.5962 24.3643 19.3469 24.5915 18.3996 24.8939C17.9299 25.0438 17.546 25.2085 17.2823 25.3341C17.1508 25.3968 17.0501 25.4494 16.9847 25.4848C16.952 25.5026 16.9281 25.516 16.9137 25.5242Z" fill="#1E1E1E"/>
</g>
<g filter="url(#filter11_i_971_14926)">
<path fill-rule="evenodd" clip-rule="evenodd" d="M40.1748 24.0316C40.1751 24.0317 40.1753 24.0319 39.7251 24.7822L40.1748 24.0316C40.5892 24.2802 40.7241 24.818 40.4755 25.2323C40.2272 25.6462 39.6908 25.7807 39.2767 25.5335C39.2764 25.5333 39.2759 25.533 39.2751 25.5326L39.2606 25.5242C39.2462 25.516 39.2224 25.5026 39.1897 25.4848C39.1242 25.4494 39.0235 25.3968 38.892 25.3341C38.6284 25.2085 38.2444 25.0438 37.7747 24.8939C36.8274 24.5915 35.5782 24.3643 34.2772 24.5938C33.8013 24.6778 33.3474 24.3601 33.2635 23.8842C33.1795 23.4083 33.4972 22.9545 33.9731 22.8705C35.6471 22.5751 37.1979 22.8728 38.3068 23.2267C38.8652 23.4049 39.3235 23.6012 39.645 23.7544C39.806 23.8312 39.9337 23.8976 40.0234 23.9462C40.0683 23.9705 40.1037 23.9904 40.1292 24.005L40.1599 24.0228L40.1696 24.0284L40.1729 24.0304L40.1748 24.0316Z" fill="#1E1E1E"/>
</g>
<path d="M35.8004 26.9338C37.9313 26.9338 39.7313 28.4029 40.221 30.3882C40.3666 30.9574 39.9299 31.5 39.3475 31.5H32.068C31.6047 31.5 31.2341 31.0765 31.3268 30.6132C31.7371 28.522 33.5768 26.9338 35.8004 26.9338Z" fill="white"/>
<path d="M35.1262 27.8206C36.7409 27.8206 38.038 29.1309 38.038 30.7324C38.038 30.9971 37.9983 31.2618 37.9321 31.5H32.3071C32.2409 31.2485 32.2012 30.9971 32.2012 30.7324C32.2012 29.1309 33.5115 27.8206 35.1262 27.8206Z" fill="url(#paint31_radial_971_14926)"/>
<path d="M33.459 30.7323C33.459 29.8058 34.2002 29.0646 35.1267 29.0646C36.0531 29.0646 36.7943 29.8058 36.7943 30.7323C36.7943 31.0103 36.7282 31.275 36.609 31.5H33.6575C33.5252 31.275 33.459 31.0103 33.459 30.7323Z" fill="#111111"/>
<g filter="url(#filter12_f_971_14926)">
<path d="M34.9111 28.4361C35.1185 28.7135 34.6849 29.0518 34.1919 29.4204C33.6988 29.7891 33.3331 30.0485 33.1256 29.771C32.9182 29.4935 33.1497 28.9698 33.6427 28.6011C34.1358 28.2325 34.7036 28.1586 34.9111 28.4361Z" fill="#C7A7A3"/>
<path d="M34.9111 28.4361C35.1185 28.7135 34.6849 29.0518 34.1919 29.4204C33.6988 29.7891 33.3331 30.0485 33.1256 29.771C32.9182 29.4935 33.1497 28.9698 33.6427 28.6011C34.1358 28.2325 34.7036 28.1586 34.9111 28.4361Z" fill="url(#paint32_radial_971_14926)"/>
</g>
<g filter="url(#filter13_f_971_14926)">
<path d="M37.7199 30.3489C37.6124 29.5961 37.1719 29.0288 36.9651 28.8392L36.1172 29.7699L36.4998 30.5144L37.7199 30.3489Z" fill="url(#paint33_linear_971_14926)"/>
</g>
<path d="M20.1989 26.9337C18.068 26.9337 16.2679 28.4029 15.7782 30.3882C15.6326 30.9573 16.0694 31.5 16.6518 31.5H23.9313C24.3946 31.5 24.7652 31.0764 24.6725 30.6132C24.2622 28.522 22.4092 26.9337 20.1989 26.9337Z" fill="white"/>
<path d="M20.8747 27.8205C19.26 27.8205 17.9629 29.1308 17.9629 30.7323C17.9629 30.997 18.0026 31.2617 18.0688 31.5H23.6939C23.7601 31.2485 23.7998 30.997 23.7998 30.7323C23.7865 29.1308 22.4895 27.8205 20.8747 27.8205Z" fill="url(#paint34_radial_971_14926)"/>
<path d="M22.5424 30.7323C22.5424 29.8058 21.8012 29.0646 20.8747 29.0646C19.9482 29.0646 19.207 29.8058 19.207 30.7323C19.207 31.0103 19.2732 31.275 19.3923 31.5H22.3439C22.463 31.275 22.5424 31.0103 22.5424 30.7323Z" fill="#111111"/>
<g filter="url(#filter14_f_971_14926)">
<path d="M23.534 30.3902C23.534 29.4493 22.7689 28.822 22.5621 28.6324L21.6211 29.5423L22.2002 30.7211L23.534 30.3902Z" fill="url(#paint35_linear_971_14926)"/>
</g>
<g filter="url(#filter15_f_971_14926)">
<ellipse cx="19.9948" cy="29.0646" rx="1.27117" ry="0.643328" transform="rotate(-27.914 19.9948 29.0646)" fill="#C7A7A3" fill-opacity="0.9"/>
<ellipse cx="19.9948" cy="29.0646" rx="1.27117" ry="0.643328" transform="rotate(-27.914 19.9948 29.0646)" fill="url(#paint36_radial_971_14926)"/>
</g>
<g filter="url(#filter16_f_971_14926)">
<path d="M34.3281 23.5837C35.3805 23.3277 37.9974 23.4557 39.7467 24.7073" stroke="#323233" stroke-width="0.4" stroke-linecap="round"/>
</g>
<g filter="url(#filter17_f_971_14926)">
<path d="M21.959 23.5837C20.9066 23.3277 18.2897 23.4557 16.5404 24.7073" stroke="#323233" stroke-width="0.4" stroke-linecap="round"/>
</g>
<g filter="url(#filter18_if_971_14926)">
<path d="M11.4606 11.7868C13.3064 9.83164 16.7993 9.82853 18.413 10.1202L19.704 14.3311C18.8792 14.2035 18.1441 14.4952 17.5255 15.0968C16.0624 19.2093 11.0347 21.477 8.70368 22.0968C8.21956 17.2296 9.05861 14.3311 11.4606 11.7868Z" fill="#232121"/>
<path d="M11.4606 11.7868C13.3064 9.83164 16.7993 9.82853 18.413 10.1202L19.704 14.3311C18.8792 14.2035 18.1441 14.4952 17.5255 15.0968C16.0624 19.2093 11.0347 21.477 8.70368 22.0968C8.21956 17.2296 9.05861 14.3311 11.4606 11.7868Z" fill="url(#paint37_radial_971_14926)"/>
</g>
<g filter="url(#filter19_if_971_14926)">
<path d="M26.0315 5.9063C22.3359 5.09038 19.0176 8.77739 18.6348 10.1446C22.0664 21.711 30.7493 21.0774 39.3206 20.1251C44.4515 19.5549 45.0081 21.8933 45.4456 23.0235C45.4456 10.1921 34.5344 7.7834 26.1249 5.92692L26.0315 5.9063Z" fill="#2A2A2A"/>
<path d="M26.0315 5.9063C22.3359 5.09038 19.0176 8.77739 18.6348 10.1446C22.0664 21.711 30.7493 21.0774 39.3206 20.1251C44.4515 19.5549 45.0081 21.8933 45.4456 23.0235C45.4456 10.1921 34.5344 7.7834 26.1249 5.92692L26.0315 5.9063Z" fill="url(#paint38_radial_971_14926)"/>
<path d="M26.0315 5.9063C22.3359 5.09038 19.0176 8.77739 18.6348 10.1446C22.0664 21.711 30.7493 21.0774 39.3206 20.1251C44.4515 19.5549 45.0081 21.8933 45.4456 23.0235C45.4456 10.1921 34.5344 7.7834 26.1249 5.92692L26.0315 5.9063Z" fill="url(#paint39_radial_971_14926)"/>
</g>
<g filter="url(#filter20_f_971_14926)">
<path d="M18.5664 9.98053C18.6424 10.7735 19.332 13.754 20.3438 15.5587" stroke="url(#paint40_linear_971_14926)" stroke-width="0.2" stroke-linecap="round"/>
</g>
<g filter="url(#filter21_f_971_14926)">
<path d="M38.4208 17.2111L31.2003 18.5393C29.8207 18.793 28.5488 17.7338 28.5488 16.3311C28.5488 15.091 29.5525 14.0858 30.7925 14.0858H38.4298C42.9467 14.0858 44.4418 18.6381 44.6248 20.1937L42.6937 18.4334C41.5388 17.3805 39.9579 16.9283 38.4208 17.2111Z" fill="#4B4648"/>
</g>
<defs>
<filter id="filter0_i_971_14926" x="3.5" y="2.75" width="49.25" height="49.75" filterUnits="userSpaceOnUse" color-interpolation-filters="sRGB">
<feFlood flood-opacity="0" result="BackgroundImageFix"/>
<feBlend mode="normal" in="SourceGraphic" in2="BackgroundImageFix" result="shape"/>
<feColorMatrix in="SourceAlpha" type="matrix" values="0 0 0 0 0 0 0 0 0 0 0 0 0 0 0 0 0 0 127 0" result="hardAlpha"/>
<feOffset dx="0.25" dy="-0.75"/>
<feGaussianBlur stdDeviation="0.75"/>
<feComposite in2="hardAlpha" operator="arithmetic" k2="-1" k3="1"/>
<feColorMatrix type="matrix" values="0 0 0 0 0.121569 0 0 0 0 0.0705882 0 0 0 0 0.164706 0 0 0 1 0"/>
<feBlend mode="normal" in2="shape" result="effect1_innerShadow_971_14926"/>
</filter>
<filter id="filter1_i_971_14926" x="7.46289" y="26.075" width="10.65" height="10.5" filterUnits="userSpaceOnUse" color-interpolation-filters="sRGB">
<feFlood flood-opacity="0" result="BackgroundImageFix"/>
<feBlend mode="normal" in="SourceGraphic" in2="BackgroundImageFix" result="shape"/>
<feColorMatrix in="SourceAlpha" type="matrix" values="0 0 0 0 0 0 0 0 0 0 0 0 0 0 0 0 0 0 127 0" result="hardAlpha"/>
<feOffset dx="0.15"/>
<feGaussianBlur stdDeviation="0.25"/>
<feComposite in2="hardAlpha" operator="arithmetic" k2="-1" k3="1"/>
<feColorMatrix type="matrix" values="0 0 0 0 0.894118 0 0 0 0 0.682353 0 0 0 0 0.6 0 0 0 1 0"/>
<feBlend mode="normal" in2="shape" result="effect1_innerShadow_971_14926"/>
</filter>
<filter id="filter2_i_971_14926" x="38.5" y="25.825" width="10.5" height="10.75" filterUnits="userSpaceOnUse" color-interpolation-filters="sRGB">
<feFlood flood-opacity="0" result="BackgroundImageFix"/>
<feBlend mode="normal" in="SourceGraphic" in2="BackgroundImageFix" result="shape"/>
<feColorMatrix in="SourceAlpha" type="matrix" values="0 0 0 0 0 0 0 0 0 0 0 0 0 0 0 0 0 0 127 0" result="hardAlpha"/>
<feOffset dy="-0.25"/>
<feGaussianBlur stdDeviation="0.25"/>
<feComposite in2="hardAlpha" operator="arithmetic" k2="-1" k3="1"/>
<feColorMatrix type="matrix" values="0 0 0 0 0.784314 0 0 0 0 0.572549 0 0 0 0 0.513726 0 0 0 1 0"/>
<feBlend mode="normal" in2="shape" result="effect1_innerShadow_971_14926"/>
</filter>
<filter id="filter3_f_971_14926" x="39.7461" y="27.3205" width="8.00977" height="8.00903" filterUnits="userSpaceOnUse" color-interpolation-filters="sRGB">
<feFlood flood-opacity="0" result="BackgroundImageFix"/>
<feBlend mode="normal" in="SourceGraphic" in2="BackgroundImageFix" result="shape"/>
<feGaussianBlur stdDeviation="0.25" result="effect1_foregroundBlur_971_14926"/>
</filter>
<filter id="filter4_f_971_14926" x="8.86953" y="27.4205" width="7.80977" height="7.80903" filterUnits="userSpaceOnUse" color-interpolation-filters="sRGB">
<feFlood flood-opacity="0" result="BackgroundImageFix"/>
<feBlend mode="normal" in="SourceGraphic" in2="BackgroundImageFix" result="shape"/>
<feGaussianBlur stdDeviation="0.2" result="effect1_foregroundBlur_971_14926"/>
</filter>
<filter id="filter5_i_971_14926" x="11.375" y="15.3154" width="33.25" height="35.888" filterUnits="userSpaceOnUse" color-interpolation-filters="sRGB">
<feFlood flood-opacity="0" result="BackgroundImageFix"/>
<feBlend mode="normal" in="SourceGraphic" in2="BackgroundImageFix" result="shape"/>
<feColorMatrix in="SourceAlpha" type="matrix" values="0 0 0 0 0 0 0 0 0 0 0 0 0 0 0 0 0 0 127 0" result="hardAlpha"/>
<feOffset dy="0.4"/>
<feGaussianBlur stdDeviation="0.3"/>
<feComposite in2="hardAlpha" operator="arithmetic" k2="-1" k3="1"/>
<feColorMatrix type="matrix" values="0 0 0 0 0.807843 0 0 0 0 0.592157 0 0 0 0 0.52549 0 0 0 1 0"/>
<feBlend mode="normal" in2="shape" result="effect1_innerShadow_971_14926"/>
</filter>
<filter id="filter6_f_971_14926" x="23.9082" y="29.1768" width="7.125" height="9.75" filterUnits="userSpaceOnUse" color-interpolation-filters="sRGB">
<feFlood flood-opacity="0" result="BackgroundImageFix"/>
<feBlend mode="normal" in="SourceGraphic" in2="BackgroundImageFix" result="shape"/>
<feGaussianBlur stdDeviation="0.25" result="effect1_foregroundBlur_971_14926"/>
</filter>
<filter id="filter7_f_971_14926" x="24.6875" y="28.975" width="6.625" height="9.25" filterUnits="userSpaceOnUse" color-interpolation-filters="sRGB">
<feFlood flood-opacity="0" result="BackgroundImageFix"/>
<feBlend mode="normal" in="SourceGraphic" in2="BackgroundImageFix" result="shape"/>
<feGaussianBlur stdDeviation="0.125" result="effect1_foregroundBlur_971_14926"/>
</filter>
<filter id="filter8_i_971_14926" x="31.5266" y="26.7422" width="9.34063" height="4.19403" filterUnits="userSpaceOnUse" color-interpolation-filters="sRGB">
<feFlood flood-opacity="0" result="BackgroundImageFix"/>
<feBlend mode="normal" in="SourceGraphic" in2="BackgroundImageFix" result="shape"/>
<feColorMatrix in="SourceAlpha" type="matrix" values="0 0 0 0 0 0 0 0 0 0 0 0 0 0 0 0 0 0 127 0" result="hardAlpha"/>
<feOffset dx="-0.2"/>
<feGaussianBlur stdDeviation="0.2"/>
<feComposite in2="hardAlpha" operator="arithmetic" k2="-1" k3="1"/>
<feColorMatrix type="matrix" values="0 0 0 0 0.0941176 0 0 0 0 0.0666667 0 0 0 0 0.117647 0 0 0 1 0"/>
<feBlend mode="normal" in2="shape" result="effect1_innerShadow_971_14926"/>
</filter>
<filter id="filter9_i_971_14926" x="15.1348" y="26.7422" width="9.34063" height="4.19403" filterUnits="userSpaceOnUse" color-interpolation-filters="sRGB">
<feFlood flood-opacity="0" result="BackgroundImageFix"/>
<feBlend mode="normal" in="SourceGraphic" in2="BackgroundImageFix" result="shape"/>
<feColorMatrix in="SourceAlpha" type="matrix" values="0 0 0 0 0 0 0 0 0 0 0 0 0 0 0 0 0 0 127 0" result="hardAlpha"/>
<feOffset dx="0.2"/>
<feGaussianBlur stdDeviation="0.125"/>
<feComposite in2="hardAlpha" operator="arithmetic" k2="-1" k3="1"/>
<feColorMatrix type="matrix" values="0 0 0 0 0.0862745 0 0 0 0 0.054902 0 0 0 0 0.113725 0 0 0 1 0"/>
<feBlend mode="normal" in2="shape" result="effect1_innerShadow_971_14926"/>
</filter>
<filter id="filter10_i_971_14926" x="15.5742" y="22.55" width="7.54961" height="3.1071" filterUnits="userSpaceOnUse" color-interpolation-filters="sRGB">
<feFlood flood-opacity="0" result="BackgroundImageFix"/>
<feBlend mode="normal" in="SourceGraphic" in2="BackgroundImageFix" result="shape"/>
<feColorMatrix in="SourceAlpha" type="matrix" values="0 0 0 0 0 0 0 0 0 0 0 0 0 0 0 0 0 0 127 0" result="hardAlpha"/>
<feOffset dx="0.2" dy="-0.2"/>
<feGaussianBlur stdDeviation="0.15"/>
<feComposite in2="hardAlpha" operator="arithmetic" k2="-1" k3="1"/>
<feColorMatrix type="matrix" values="0 0 0 0 0.0431373 0 0 0 0 0.0235294 0 0 0 0 0.0313726 0 0 0 1 0"/>
<feBlend mode="normal" in2="shape" result="effect1_innerShadow_971_14926"/>
</filter>
<filter id="filter11_i_971_14926" x="33.25" y="22.55" width="7.54961" height="3.10729" filterUnits="userSpaceOnUse" color-interpolation-filters="sRGB">
<feFlood flood-opacity="0" result="BackgroundImageFix"/>
<feBlend mode="normal" in="SourceGraphic" in2="BackgroundImageFix" result="shape"/>
<feColorMatrix in="SourceAlpha" type="matrix" values="0 0 0 0 0 0 0 0 0 0 0 0 0 0 0 0 0 0 127 0" result="hardAlpha"/>
<feOffset dx="0.2" dy="-0.2"/>
<feGaussianBlur stdDeviation="0.15"/>
<feComposite in2="hardAlpha" operator="arithmetic" k2="-1" k3="1"/>
<feColorMatrix type="matrix" values="0 0 0 0 0.0431373 0 0 0 0 0.0235294 0 0 0 0 0.0313726 0 0 0 1 0"/>
<feBlend mode="normal" in2="shape" result="effect1_innerShadow_971_14926"/>
</filter>
<filter id="filter12_f_971_14926" x="32.9488" y="28.1681" width="2.11602" height="1.81932" filterUnits="userSpaceOnUse" color-interpolation-filters="sRGB">
<feFlood flood-opacity="0" result="BackgroundImageFix"/>
<feBlend mode="normal" in="SourceGraphic" in2="BackgroundImageFix" result="shape"/>
<feGaussianBlur stdDeviation="0.05" result="effect1_foregroundBlur_971_14926"/>
</filter>
<filter id="filter13_f_971_14926" x="35.9172" y="28.6392" width="2.00352" height="2.07511" filterUnits="userSpaceOnUse" color-interpolation-filters="sRGB">
<feFlood flood-opacity="0" result="BackgroundImageFix"/>
<feBlend mode="normal" in="SourceGraphic" in2="BackgroundImageFix" result="shape"/>
<feGaussianBlur stdDeviation="0.1" result="effect1_foregroundBlur_971_14926"/>
</filter>
<filter id="filter14_f_971_14926" x="21.4211" y="28.4324" width="2.31211" height="2.48875" filterUnits="userSpaceOnUse" color-interpolation-filters="sRGB">
<feFlood flood-opacity="0" result="BackgroundImageFix"/>
<feBlend mode="normal" in="SourceGraphic" in2="BackgroundImageFix" result="shape"/>
<feGaussianBlur stdDeviation="0.1" result="effect1_foregroundBlur_971_14926"/>
</filter>
<filter id="filter15_f_971_14926" x="18.732" y="28.1416" width="2.52617" height="1.846" filterUnits="userSpaceOnUse" color-interpolation-filters="sRGB">
<feFlood flood-opacity="0" result="BackgroundImageFix"/>
<feBlend mode="normal" in="SourceGraphic" in2="BackgroundImageFix" result="shape"/>
<feGaussianBlur stdDeviation="0.05" result="effect1_foregroundBlur_971_14926"/>
</filter>
<filter id="filter16_f_971_14926" x="33.7289" y="22.8748" width="6.61836" height="2.43245" filterUnits="userSpaceOnUse" color-interpolation-filters="sRGB">
<feFlood flood-opacity="0" result="BackgroundImageFix"/>
<feBlend mode="normal" in="SourceGraphic" in2="BackgroundImageFix" result="shape"/>
<feGaussianBlur stdDeviation="0.2" result="effect1_foregroundBlur_971_14926"/>
</filter>
<filter id="filter17_f_971_14926" x="15.9398" y="22.8748" width="6.61836" height="2.43245" filterUnits="userSpaceOnUse" color-interpolation-filters="sRGB">
<feFlood flood-opacity="0" result="BackgroundImageFix"/>
<feBlend mode="normal" in="SourceGraphic" in2="BackgroundImageFix" result="shape"/>
<feGaussianBlur stdDeviation="0.2" result="effect1_foregroundBlur_971_14926"/>
</filter>
<filter id="filter18_if_971_14926" x="7.82227" y="9.2309" width="12.6309" height="13.6158" filterUnits="userSpaceOnUse" color-interpolation-filters="sRGB">
<feFlood flood-opacity="0" result="BackgroundImageFix"/>
<feBlend mode="normal" in="SourceGraphic" in2="BackgroundImageFix" result="shape"/>
<feColorMatrix in="SourceAlpha" type="matrix" values="0 0 0 0 0 0 0 0 0 0 0 0 0 0 0 0 0 0 127 0" result="hardAlpha"/>
<feOffset dx="0.5" dy="0.5"/>
<feGaussianBlur stdDeviation="0.5"/>
<feComposite in2="hardAlpha" operator="arithmetic" k2="-1" k3="1"/>
<feColorMatrix type="matrix" values="0 0 0 0 0.352941 0 0 0 0 0.341176 0 0 0 0 0.341176 0 0 0 1 0"/>
<feBlend mode="normal" in2="shape" result="effect1_innerShadow_971_14926"/>
<feGaussianBlur stdDeviation="0.375" result="effect2_foregroundBlur_971_14926"/>
</filter>
<filter id="filter19_if_971_14926" x="17.8848" y="5.03973" width="28.3105" height="18.7338" filterUnits="userSpaceOnUse" color-interpolation-filters="sRGB">
<feFlood flood-opacity="0" result="BackgroundImageFix"/>
<feBlend mode="normal" in="SourceGraphic" in2="BackgroundImageFix" result="shape"/>
<feColorMatrix in="SourceAlpha" type="matrix" values="0 0 0 0 0 0 0 0 0 0 0 0 0 0 0 0 0 0 127 0" result="hardAlpha"/>
<feOffset dx="-0.3" dy="0.2"/>
<feGaussianBlur stdDeviation="0.4"/>
<feComposite in2="hardAlpha" operator="arithmetic" k2="-1" k3="1"/>
<feColorMatrix type="matrix" values="0 0 0 0 0.345098 0 0 0 0 0.329412 0 0 0 0 0.333333 0 0 0 1 0"/>
<feBlend mode="normal" in2="shape" result="effect1_innerShadow_971_14926"/>
<feGaussianBlur stdDeviation="0.375" result="effect2_foregroundBlur_971_14926"/>
</filter>
<filter id="filter20_f_971_14926" x="18.2668" y="9.68049" width="2.37656" height="6.1782" filterUnits="userSpaceOnUse" color-interpolation-filters="sRGB">
<feFlood flood-opacity="0" result="BackgroundImageFix"/>
<feBlend mode="normal" in="SourceGraphic" in2="BackgroundImageFix" result="shape"/>
<feGaussianBlur stdDeviation="0.1" result="effect1_foregroundBlur_971_14926"/>
</filter>
<filter id="filter21_f_971_14926" x="26.7988" y="12.3358" width="19.5762" height="9.60785" filterUnits="userSpaceOnUse" color-interpolation-filters="sRGB">
<feFlood flood-opacity="0" result="BackgroundImageFix"/>
<feBlend mode="normal" in="SourceGraphic" in2="BackgroundImageFix" result="shape"/>
<feGaussianBlur stdDeviation="0.875" result="effect1_foregroundBlur_971_14926"/>
</filter>
<linearGradient id="paint0_linear_971_14926" x1="43.3128" y1="8.64067" x2="21.1096" y2="49.7657" gradientUnits="userSpaceOnUse">
<stop stop-color="#393134"/>
<stop offset="1" stop-color="#1A1718"/>
</linearGradient>
<radialGradient id="paint1_radial_971_14926" cx="0" cy="0" r="1" gradientUnits="userSpaceOnUse" gradientTransform="translate(27.0159 39.4844) rotate(97.5394) scale(15.0047 18.7439)">
<stop offset="0.590551" stop-color="#171418"/>
<stop offset="1" stop-color="#171418" stop-opacity="0"/>
</radialGradient>
<radialGradient id="paint2_radial_971_14926" cx="0" cy="0" r="1" gradientUnits="userSpaceOnUse" gradientTransform="translate(17.8284 40.3594) rotate(146.004) scale(11.3457 14.9074)">
<stop offset="0.258378" stop-color="#181518"/>
<stop offset="1" stop-color="#181518" stop-opacity="0"/>
</radialGradient>
<radialGradient id="paint3_radial_971_14926" cx="0" cy="0" r="1" gradientUnits="userSpaceOnUse" gradientTransform="translate(12.1956 32.0469) rotate(127.405) scale(7.02218 5.39206)">
<stop offset="0.333546" stop-color="#040101"/>
<stop offset="1" stop-color="#040101" stop-opacity="0"/>
</radialGradient>
<radialGradient id="paint4_radial_971_14926" cx="0" cy="0" r="1" gradientUnits="userSpaceOnUse" gradientTransform="translate(13.6719 25.4297) rotate(121.43) scale(8.07544 5.68843)">
<stop offset="0.320588" stop-color="#040002"/>
<stop offset="1" stop-color="#040002" stop-opacity="0"/>
</radialGradient>
<radialGradient id="paint5_radial_971_14926" cx="0" cy="0" r="1" gradientUnits="userSpaceOnUse" gradientTransform="translate(16.5156 5.0313) rotate(62.2717) scale(9.63804 13.3791)">
<stop stop-color="#474445"/>
<stop offset="1" stop-color="#474445" stop-opacity="0"/>
</radialGradient>
<radialGradient id="paint6_radial_971_14926" cx="0" cy="0" r="1" gradientUnits="userSpaceOnUse" gradientTransform="translate(47.0313 11.8125) rotate(134.998) scale(6.65104 9.29472)">
<stop stop-color="#4A4446"/>
<stop offset="1" stop-color="#4A4446" stop-opacity="0"/>
</radialGradient>
<radialGradient id="paint7_radial_971_14926" cx="0" cy="0" r="1" gradientUnits="userSpaceOnUse" gradientTransform="translate(52.5 28.5469) rotate(163.779) scale(6.26475 13.0646)">
<stop stop-color="#3B3638"/>
<stop offset="1" stop-color="#3B3638" stop-opacity="0"/>
</radialGradient>
<radialGradient id="paint8_radial_971_14926" cx="0" cy="0" r="1" gradientUnits="userSpaceOnUse" gradientTransform="translate(50.5313 39.7032) rotate(165.963) scale(9.47 12.0634)">
<stop stop-color="#464444"/>
<stop offset="1" stop-color="#464444" stop-opacity="0"/>
</radialGradient>
<radialGradient id="paint9_radial_971_14926" cx="0" cy="0" r="1" gradientUnits="userSpaceOnUse" gradientTransform="translate(43.4412 20.6054) rotate(-108.843) scale(9.13674 7.22663)">
<stop stop-color="#575455"/>
<stop offset="1" stop-color="#575455" stop-opacity="0"/>
</radialGradient>
<radialGradient id="paint10_radial_971_14926" cx="0" cy="0" r="1" gradientUnits="userSpaceOnUse" gradientTransform="translate(7.96078 28.429) rotate(5.98813) scale(4.93378 7.99417)">
<stop stop-color="#413733"/>
<stop offset="1" stop-color="#413733" stop-opacity="0"/>
</radialGradient>
<linearGradient id="paint11_linear_971_14926" x1="7.46289" y1="31.6094" x2="17.1183" y2="31.6094" gradientUnits="userSpaceOnUse">
<stop stop-color="#CC9987"/>
<stop offset="1" stop-color="#AC7864"/>
</linearGradient>
<radialGradient id="paint12_radial_971_14926" cx="0" cy="0" r="1" gradientUnits="userSpaceOnUse" gradientTransform="translate(42.7109 34.5079) rotate(-48.1041) scale(8.92651 10.8989)">
<stop offset="0.444268" stop-color="#E5B1A5"/>
<stop offset="0.94391" stop-color="#FFD8C1"/>
</radialGradient>
<radialGradient id="paint13_radial_971_14926" cx="0" cy="0" r="1" gradientUnits="userSpaceOnUse" gradientTransform="translate(44.543 25.8399) rotate(29.2711) scale(4.92134 1.39134)">
<stop stop-color="#DBA98B"/>
<stop offset="1" stop-color="#DBA98B" stop-opacity="0"/>
</radialGradient>
<radialGradient id="paint14_radial_971_14926" cx="0" cy="0" r="1" gradientUnits="userSpaceOnUse" gradientTransform="translate(42.3288 31.6915) rotate(-4.25413) scale(4.93997 3.86168)">
<stop offset="0.719132" stop-color="#F4B89E" stop-opacity="0"/>
<stop offset="1" stop-color="#F5B99D"/>
</radialGradient>
<radialGradient id="paint15_radial_971_14926" cx="0" cy="0" r="1" gradientUnits="userSpaceOnUse" gradientTransform="translate(12.9874 31.325) rotate(180) scale(3.9375 3.10621)">
<stop offset="0.666667" stop-color="#BC8272" stop-opacity="0"/>
<stop offset="1" stop-color="#BC8272"/>
</radialGradient>
<radialGradient id="paint16_radial_971_14926" cx="0" cy="0" r="1" gradientUnits="userSpaceOnUse" gradientTransform="translate(37.329 29.5713) rotate(155.244) scale(23.3668 31.276)">
<stop stop-color="#FFD7BF"/>
<stop offset="1" stop-color="#D59F97"/>
</radialGradient>
<radialGradient id="paint17_radial_971_14926" cx="0" cy="0" r="1" gradientUnits="userSpaceOnUse" gradientTransform="translate(38.6094 34.0157) rotate(172.574) scale(11.3883 12.5707)">
<stop stop-color="#FFDEBF"/>
<stop offset="1" stop-color="#FFDEBF" stop-opacity="0"/>
</radialGradient>
<radialGradient id="paint18_radial_971_14926" cx="0" cy="0" r="1" gradientUnits="userSpaceOnUse" gradientTransform="translate(20.2344 53.4844) rotate(-70.9588) scale(13.0748 16.5895)">
<stop stop-color="#B87C92"/>
<stop offset="1" stop-color="#B87C92" stop-opacity="0"/>
</radialGradient>
<radialGradient id="paint19_radial_971_14926" cx="0" cy="0" r="1" gradientUnits="userSpaceOnUse" gradientTransform="translate(29.7628 30.0833) rotate(97.7614) scale(21.9617 25.4215)">
<stop offset="0.672531" stop-color="#B47896" stop-opacity="0"/>
<stop offset="1" stop-color="#B47896"/>
</radialGradient>
<radialGradient id="paint20_radial_971_14926" cx="0" cy="0" r="1" gradientUnits="userSpaceOnUse" gradientTransform="translate(33.9063 35.2188) rotate(168.897) scale(22.961 39.5318)">
<stop offset="0.794964" stop-color="#E2A895" stop-opacity="0"/>
<stop offset="1" stop-color="#E2A895"/>
</radialGradient>
<radialGradient id="paint21_radial_971_14926" cx="0" cy="0" r="1" gradientUnits="userSpaceOnUse" gradientTransform="translate(35.5085 28.2059) rotate(-90) scale(3.75464 4.60797)">
<stop stop-color="#F6BAA9"/>
<stop offset="1" stop-color="#F6BAA9" stop-opacity="0"/>
</radialGradient>
<radialGradient id="paint22_radial_971_14926" cx="0" cy="0" r="1" gradientUnits="userSpaceOnUse" gradientTransform="translate(21.225 27.4602) rotate(-90) scale(4.28237 4.90788)">
<stop stop-color="#D09790"/>
<stop offset="1" stop-color="#D09790" stop-opacity="0"/>
</radialGradient>
<radialGradient id="paint23_radial_971_14926" cx="0" cy="0" r="1" gradientUnits="userSpaceOnUse" gradientTransform="translate(44.625 33.0594) rotate(180) scale(4.19352 21.0301)">
<stop stop-color="#FFD8BC"/>
<stop offset="1" stop-color="#FFD8BC" stop-opacity="0"/>
</radialGradient>
<radialGradient id="paint24_radial_971_14926" cx="0" cy="0" r="1" gradientUnits="userSpaceOnUse" gradientTransform="translate(30.5592 35.4307) rotate(-102.564) scale(6.83266 2.10577)">
<stop offset="0.0168227" stop-color="#FFDCC5"/>
<stop offset="1" stop-color="#FFDCC5" stop-opacity="0"/>
</radialGradient>
<linearGradient id="paint25_linear_971_14926" x1="24.9375" y1="35.6685" x2="28" y2="35.6685" gradientUnits="userSpaceOnUse">
<stop stop-color="#DFA791"/>
<stop offset="1" stop-color="#DFA791" stop-opacity="0"/>
</linearGradient>
<linearGradient id="paint26_linear_971_14926" x1="28" y1="38.2752" x2="28" y2="36.2841" gradientUnits="userSpaceOnUse">
<stop stop-color="#D29394"/>
<stop offset="1" stop-color="#D29394" stop-opacity="0"/>
</linearGradient>
<radialGradient id="paint27_radial_971_14926" cx="0" cy="0" r="1" gradientUnits="userSpaceOnUse" gradientTransform="translate(29.7773 36.1211) rotate(-180) scale(2.54297 0.710938)">
<stop stop-color="#FFD6C2"/>
<stop offset="1" stop-color="#FFD6C2" stop-opacity="0"/>
</radialGradient>
<linearGradient id="paint28_linear_971_14926" x1="28.2552" y1="38.1898" x2="28.2552" y2="37.7347" gradientUnits="userSpaceOnUse">
<stop stop-color="#CC8C8D"/>
<stop offset="1" stop-color="#CC8C8D" stop-opacity="0"/>
</linearGradient>
<radialGradient id="paint29_radial_971_14926" cx="0" cy="0" r="1" gradientUnits="userSpaceOnUse" gradientTransform="translate(29.2305 34.1797) rotate(145.529) scale(5.42675 6.52211)">
<stop offset="0.777645" stop-color="#CC8C8D" stop-opacity="0"/>
<stop offset="1" stop-color="#CC8C8D"/>
</radialGradient>
<linearGradient id="paint30_linear_971_14926" x1="24.5277" y1="42.8751" x2="26.0316" y2="40.5508" gradientUnits="userSpaceOnUse">
<stop stop-color="#D9A4A4"/>
<stop offset="0.663171" stop-color="#D9A4A4" stop-opacity="0"/>
</linearGradient>
<radialGradient id="paint31_radial_971_14926" cx="0" cy="0" r="1" gradientUnits="userSpaceOnUse" gradientTransform="translate(35.1196 29.3769) rotate(90) scale(2.6471 4.21051)">
<stop offset="0.80198" stop-color="#7D574A"/>
<stop offset="1" stop-color="#694B43"/>
<stop offset="1" stop-color="#804D49"/>
<stop offset="1" stop-color="#664944"/>
</radialGradient>
<radialGradient id="paint32_radial_971_14926" cx="0" cy="0" r="1" gradientUnits="userSpaceOnUse" gradientTransform="translate(34.3741 29.6514) rotate(-127.812) scale(1.23424 1.69925)">
<stop offset="0.765532" stop-color="#FFE6E2" stop-opacity="0"/>
<stop offset="0.966159" stop-color="#FFE6E2"/>
</radialGradient>
<linearGradient id="paint33_linear_971_14926" x1="37.6579" y1="29.5527" x2="36.6342" y2="30.1835" gradientUnits="userSpaceOnUse">
<stop stop-color="#B4948D"/>
<stop offset="1" stop-color="#B4948D" stop-opacity="0"/>
</linearGradient>
<radialGradient id="paint34_radial_971_14926" cx="0" cy="0" r="1" gradientUnits="userSpaceOnUse" gradientTransform="translate(20.8813 29.3769) rotate(90) scale(2.64711 4.21053)">
<stop offset="0.80198" stop-color="#7D574A"/>
<stop offset="1" stop-color="#694B43"/>
<stop offset="1" stop-color="#804D49"/>
<stop offset="1" stop-color="#664944"/>
</radialGradient>
<linearGradient id="paint35_linear_971_14926" x1="23.3073" y1="29.5527" x2="22.2836" y2="30.1834" gradientUnits="userSpaceOnUse">
<stop stop-color="#B4948D"/>
<stop offset="1" stop-color="#B4948D" stop-opacity="0"/>
</linearGradient>
<radialGradient id="paint36_radial_971_14926" cx="0" cy="0" r="1" gradientUnits="userSpaceOnUse" gradientTransform="translate(19.9455 30.0921) rotate(-90.897) scale(1.61218 1.9379)">
<stop offset="0.765532" stop-color="#FFE6E2" stop-opacity="0"/>
<stop offset="0.966159" stop-color="#FFE6E2"/>
</radialGradient>
<radialGradient id="paint37_radial_971_14926" cx="0" cy="0" r="1" gradientUnits="userSpaceOnUse" gradientTransform="translate(9.539 22.4584) rotate(-65.3915) scale(9.88831 5.05861)">
<stop stop-color="#433838"/>
<stop offset="1" stop-color="#433838" stop-opacity="0"/>
</radialGradient>
<radialGradient id="paint38_radial_971_14926" cx="0" cy="0" r="1" gradientUnits="userSpaceOnUse" gradientTransform="translate(34.2346 5.46881) rotate(115.684) scale(15.8989 25.9938)">
<stop offset="0.639192" stop-color="#1F0D24" stop-opacity="0"/>
<stop offset="1" stop-color="#1F0D24"/>
</radialGradient>
<radialGradient id="paint39_radial_971_14926" cx="0" cy="0" r="1" gradientUnits="userSpaceOnUse" gradientTransform="translate(28.6863 6.67407) rotate(98.7461) scale(4.51327 9.71004)">
<stop stop-color="#4C4749"/>
<stop offset="1" stop-color="#4C4749" stop-opacity="0"/>
</radialGradient>
<linearGradient id="paint40_linear_971_14926" x1="18.5664" y1="11.1016" x2="20.3438" y2="15.2579" gradientUnits="userSpaceOnUse">
<stop stop-color="#1A1316"/>
<stop offset="1" stop-color="#24182D"/>
</linearGradient>
</defs>
</svg>
