<svg width="211" height="450" viewBox="0 0 211 450" fill="none" xmlns="http://www.w3.org/2000/svg">
<path d="M209.646 167.863C210.507 168.622 211 169.715 211 170.863L211 191.584C211 192.787 210.459 193.927 209.526 194.686V194.686C206.912 196.814 203 194.955 203 191.584L203 170.862C203 167.418 207.063 165.584 209.646 167.863V167.863Z" fill="#333333"/>
<path d="M208.947 92.3132C210.214 93.0194 211 94.3566 211 95.8075L211 106.445C211 107.944 210.162 109.317 208.829 110.002V110.002C206.167 111.371 203 109.438 203 106.445L203 95.8075C203 92.7554 206.281 90.8278 208.947 92.3132V92.3132Z" fill="#333333"/>
<path d="M208.947 118.313C210.214 119.019 211 120.357 211 121.807L211 132.445C211 133.944 210.162 135.317 208.829 136.002V136.002C206.167 137.371 203 135.438 203 132.445L203 121.807C203 118.755 206.281 116.828 208.947 118.313V118.313Z" fill="#333333"/>
<rect width="208" height="450" rx="20" fill="#333333"/>
<g clip-path="url(#clip0_1235_18391)">
<rect x="5" y="5" width="198" height="440" rx="20" fill="#333333"/>
<g clip-path="url(#clip1_1235_18391)">
<rect width="198" height="535.7" transform="translate(5 5)" fill="white"/>
<path d="M21.457 44.0375C21.4624 46.5565 19.749 48.3075 16.8594 49.0541L16.3867 48.1302C18.6479 47.5448 19.9746 46.4008 20.1733 44.9828H16.9453V44.0375H21.457ZM17.998 53.0287V49.3119H24.4111V53.0287H17.998ZM19.1797 52.0834H23.2402V50.2572H19.1797V52.0834ZM23.208 48.8929V43.4574H24.4111V48.8929H23.208ZM33.6859 43.4574V49.1293H32.4936V48.0551H30.184V47.0883H32.4936V46.0463H30.2753C29.663 47.5878 28.245 48.6674 26.1342 49.2582L25.6508 48.3129C27.9228 47.7006 29.1366 46.5458 29.3192 45.101H26.1664V44.1342H30.6244C30.6244 44.4725 30.5976 44.7948 30.5438 45.101H32.4936V43.4574H33.6859ZM27.1762 51.1703C27.1762 49.9779 28.4813 49.2421 30.474 49.2367C32.4398 49.2421 33.7504 49.9779 33.7504 51.1703C33.7504 52.3627 32.4398 53.1093 30.474 53.1039C28.4813 53.1093 27.1762 52.3627 27.1762 51.1703ZM28.3686 51.1703C28.3686 51.8094 29.1688 52.1586 30.474 52.1586C31.7577 52.1586 32.5526 51.8094 32.558 51.1703C32.5526 50.5204 31.7577 50.1713 30.474 50.1713C29.1688 50.1713 28.3686 50.5204 28.3686 51.1703ZM36.9773 44.1879C38.2664 44.1825 39.1043 45.5092 39.115 47.6469C39.1043 49.7899 38.2664 51.1219 36.9773 51.1166C35.7098 51.1219 34.8826 49.7899 34.8826 47.6469C34.8826 45.5092 35.7098 44.1825 36.9773 44.1879ZM35.9891 47.6469C35.9837 49.1669 36.3597 49.9833 36.9773 49.9779C37.6219 49.9833 38.0032 49.1669 38.0086 47.6469C38.0032 46.1322 37.6219 45.3104 36.9773 45.3158C36.3597 45.3104 35.9837 46.1322 35.9891 47.6469ZM39.8563 52.6849V43.6185H40.9842V47.1957H42.0154V43.4467H43.1648V53.1576H42.0154V48.184H40.9842V52.6849H39.8563ZM51.9562 43.5219V48.9467H51.1291V43.5219H51.9562ZM44.6838 48.2162V44.0912H45.5324V47.4965C47.1115 47.4857 48.5241 47.3783 50.0441 47.056L50.173 47.765C48.5563 48.0927 47.1062 48.2054 45.4572 48.2162H44.6838ZM45.758 52.9427V49.3871H51.9562V52.9427H45.758ZM46.5852 52.2552H51.1291V50.0638H46.5852V52.2552ZM56.44 44.2201C57.9386 44.2255 59.0021 45.1385 59.0074 46.4652C59.0021 47.7972 57.9386 48.705 56.44 48.7103C54.9308 48.705 53.8565 47.7972 53.8619 46.4652C53.8565 45.1385 54.9308 44.2255 56.44 44.2201ZM53.3678 50.2679C55.1295 50.2733 57.5626 50.2572 59.6734 49.9457L59.7379 50.5687C57.5519 50.9769 55.2047 50.9877 53.4859 50.9877L53.3678 50.2679ZM54.6891 46.4652C54.6837 47.3568 55.4195 47.9691 56.44 47.9691C57.4498 47.9691 58.1856 47.3568 58.1803 46.4652C58.1856 45.579 57.4498 44.9613 56.44 44.9613C55.4195 44.9613 54.6837 45.579 54.6891 46.4652ZM60.3072 53.0931V43.5219H61.1451V53.0931H60.3072ZM20.7373 59.1449C22.7676 59.1556 24.2285 60.1439 24.2285 61.6478C24.2285 63.0712 22.9609 64.0111 21.1455 64.1346V66.1381H25.1309V66.847H16.3867V66.1381H20.3184V64.1346C18.5137 64.0057 17.2461 63.0658 17.2461 61.6478C17.2461 60.1439 18.7124 59.1556 20.7373 59.1449ZM18.0625 61.6478C18.0571 62.7489 19.1904 63.4633 20.7373 63.474C22.2842 63.4633 23.4121 62.7489 23.4121 61.6478C23.4121 60.5682 22.2842 59.8378 20.7373 59.8431C19.1904 59.8378 18.0571 60.5682 18.0625 61.6478ZM33.3207 60.8207V61.5189H26.8002V58.683H27.6273V60.8207H33.3207ZM25.6078 63.1517V62.4642H34.352V63.1517H25.6078ZM26.7035 64.6771V64.0111H33.224V66.2455H27.5736V67.266H33.5678V67.9427H26.725V65.601H32.3969V64.6771H26.7035ZM37.9764 59.2201C39.4749 59.2255 40.5384 60.1385 40.5438 61.4652C40.5384 62.7972 39.4749 63.705 37.9764 63.7103C36.4671 63.705 35.3929 62.7972 35.3982 61.4652C35.3929 60.1385 36.4671 59.2255 37.9764 59.2201ZM34.9041 65.2679C36.6658 65.2733 39.0989 65.2572 41.2098 64.9457L41.2742 65.5687C39.0882 65.9769 36.741 65.9877 35.0223 65.9877L34.9041 65.2679ZM36.2254 61.4652C36.22 62.3568 36.9559 62.9691 37.9764 62.9691C38.9861 62.9691 39.722 62.3568 39.7166 61.4652C39.722 60.579 38.9861 59.9613 37.9764 59.9613C36.9559 59.9613 36.22 60.579 36.2254 61.4652ZM41.8436 68.0931V58.5219H42.6814V68.0931H41.8436ZM49.7584 60.0687C49.7584 61.3685 50.7467 62.5609 52.1324 63.0336L51.6705 63.6996C50.6178 63.3129 49.7853 62.5233 49.3663 61.5243C48.9581 62.6576 48.1041 63.5331 46.9869 63.9681L46.5357 63.2914C47.9645 62.7596 48.9259 61.4813 48.9312 60.0043V59.016H49.7584V60.0687ZM47.8033 66.3099C47.8087 65.2196 49.0064 64.5804 50.9723 64.5804C52.9327 64.5804 54.1197 65.2196 54.1197 66.3099C54.1197 67.4218 52.9327 68.0502 50.9723 68.0502C49.0064 68.0502 47.8087 67.4218 47.8033 66.3099ZM48.652 66.3099C48.6412 66.9867 49.5328 67.3788 50.9723 67.3842C52.4171 67.3788 53.2979 66.9867 53.3033 66.3099C53.2979 65.66 52.4171 65.2572 50.9723 65.2572C49.5328 65.2572 48.6412 65.66 48.652 66.3099ZM53.1959 64.3334V58.5219H54.0338V61.014H55.4732V61.723H54.0338V64.3334H53.1959ZM59.9678 59.6283V60.3158H56.9922V62.1527H59.8281V62.8295H56.9922V64.9886C58.4102 64.9833 59.291 64.9403 60.333 64.7523L60.4082 65.4506C59.2856 65.6654 58.3672 65.7137 56.7988 65.7084H56.1865V59.6283H59.9678ZM61.042 67.5883V58.726H61.8584V62.3676H63.1689V58.5219H63.9854V68.0717H63.1689V63.0658H61.8584V67.5883H61.042ZM73.2172 58.5219V68.0717H72.4008V58.5219H73.2172ZM65.1498 62.6469C65.1552 60.6166 65.9608 59.3329 67.2016 59.3275C68.3617 59.3329 69.1459 60.4501 69.2533 62.2494H70.4887V58.726H71.2943V67.5883H70.4887V62.9476H69.2587C69.1781 64.806 68.3778 65.9716 67.2016 65.9662C65.9608 65.9716 65.1552 64.6771 65.1498 62.6469ZM65.9447 62.6469C65.934 64.1937 66.4281 65.1713 67.2016 65.1605C67.9804 65.1713 68.4745 64.1937 68.4691 62.6469C68.4745 61.0946 67.9804 60.1224 67.2016 60.1224C66.4281 60.1224 65.934 61.0946 65.9447 62.6469ZM83.0076 66.1381V66.847H74.2635V66.1381H76.4334V63.5653C75.617 63.141 75.1229 62.4535 75.1229 61.5834C75.1229 60.1063 76.573 59.1342 78.6141 59.1234C80.6551 59.1342 82.1053 60.1063 82.1053 61.5834C82.1053 62.4374 81.6272 63.1141 80.8377 63.5385V66.1381H83.0076ZM75.9393 61.5834C75.9339 62.6522 77.0457 63.3666 78.6141 63.3666C80.1663 63.3666 81.2889 62.6522 81.2889 61.5834C81.2889 60.5145 80.1663 59.8109 78.6141 59.8217C77.0457 59.8109 75.9339 60.5145 75.9393 61.5834ZM77.2605 66.1381H79.9891V63.8661C79.5755 63.9735 79.1136 64.0326 78.6141 64.0326C78.1253 64.0326 77.6688 63.9789 77.2605 63.8715V66.1381Z" fill="#111111"/>
<path d="M22.4797 96.6594V99.2719H17.0914V96.6594H22.4797ZM16.2578 96.0406V95.2758H19.3086V94.5539H17.1516V91.8727H22.4367V94.5539H20.2711V95.2758H23.3391V96.0406H16.2578ZM18.0367 98.4984H21.5516V97.4156H18.0367V98.4984ZM18.0797 93.7977H21.4914V92.6375H18.0797V93.7977ZM28.2616 92.8352C28.2616 93.8105 28.8932 94.7344 30.092 95.1125L29.5764 95.8602C28.7385 95.5766 28.137 95.0094 27.7975 94.2875C27.4623 95.1125 26.835 95.7613 25.9412 96.075L25.4256 95.3273C26.676 94.8934 27.3034 93.8578 27.3077 92.7492V92.0102H28.2616V92.8352ZM26.4827 97.8797C26.4827 96.9602 27.4924 96.4145 29.1123 96.4187C30.7194 96.4145 31.712 96.9602 31.7162 97.8797C31.712 98.8207 30.7194 99.3578 29.1123 99.3578C27.4924 99.3578 26.4827 98.8207 26.4827 97.8797ZM27.4366 97.8797C27.4366 98.3609 28.0467 98.6016 29.1123 98.6016C30.1737 98.6016 30.7709 98.3609 30.7709 97.8797C30.7709 97.4242 30.1737 97.1664 29.1123 97.1664C28.0467 97.1664 27.4366 97.4242 27.4366 97.8797ZM30.685 96.2469V91.5977H31.6389V93.4883H32.7217V94.2789H31.6389V96.2469H30.685ZM36.3088 92.4398V93.2047H34.0916V94.4766H36.1713V95.2242H34.0916V96.7367C35.0541 96.7281 35.7201 96.6937 36.5064 96.5734L36.5838 97.3555C35.6771 97.5102 34.9166 97.5402 33.7048 97.5359H33.1806V92.4398H36.3088ZM36.9791 98.9883V91.7352H37.8814V94.6484H38.6806V91.5977H39.6002V99.3664H38.6806V95.4219H37.8814V98.9883H36.9791Z" fill="#111111"/>
<path d="M20.3055 222.042C20.3012 223.018 21.3969 224.01 23.0555 224.225L22.6773 224.998C21.3582 224.801 20.3098 224.152 19.8027 223.275C19.2957 224.152 18.2516 224.801 16.9453 224.998L16.5672 224.225C18.2086 224.01 19.3 223.026 19.3 222.042V221.647H20.3055V222.042ZM16.2578 226.459V225.669H23.3391V226.459H20.2539V229.166H19.3086V226.459H16.2578ZM27.6308 222.051V222.67H29.1948V221.406H30.1488V227.061H29.1948V225.102H27.6308V225.772H23.9784V222.051H27.6308ZM24.9323 225.024H26.6855V222.807H24.9323V225.024ZM25.0269 229.012V226.537H25.998V228.238H30.3206V229.012H25.0269ZM27.6308 224.337H29.1948V223.452H27.6308V224.337ZM35.8361 223.262C35.8275 224.689 36.5795 226.116 37.8384 226.657L37.2713 227.422C36.3775 227.009 35.7244 226.189 35.3634 225.175C35.0068 226.266 34.3365 227.16 33.3955 227.602L32.8111 226.803C34.1045 226.245 34.8607 224.762 34.865 223.262V222.025H35.8361V223.262ZM38.397 229.175V221.398H39.3595V229.175H38.397ZM46.4098 221.398V223.632H47.4927V224.431H46.4098V227.001H45.4387V221.398H46.4098ZM40.2567 225.437C42.0356 224.921 43.0884 223.954 43.2516 222.773H40.5833V221.991H44.2958C44.3001 224.053 42.9509 225.527 40.652 226.193L40.2567 225.437ZM41.4169 229.012V226.425H42.388V228.238H46.702V229.012H41.4169Z" fill="#111111"/>
<rect x="16" y="108.402" width="45.6" height="26.4" rx="13.2" fill="#A30FFA"/>
<path d="M30.4084 118.023V120.06H31.4135V120.56H30.4084V122.958H29.8182V118.023H30.4084ZM25.3088 120.145C25.3035 119.177 26.0639 118.502 27.0636 118.502C28.0633 118.502 28.8131 119.177 28.8184 120.145C28.8131 121.113 28.0633 121.794 27.0636 121.794C26.0639 121.794 25.3035 121.113 25.3088 120.145ZM25.8884 120.145C25.8831 120.805 26.3989 121.273 27.0636 121.273C27.7336 121.273 28.2388 120.805 28.2441 120.145C28.2388 119.486 27.7336 119.018 27.0636 119.018C26.3989 119.018 25.8831 119.486 25.8884 120.145ZM26.2234 124.564V122.448H26.8084V124.075H30.7169V124.564H26.2234ZM35.0255 118.614V119.209H36.5942V118.034H37.1845V122.91H36.5942V121.129H35.0255V121.73H31.9572V118.614H35.0255ZM32.5421 121.257H34.4459V119.098H32.5421V121.257ZM32.8612 124.564V122.474H33.4568V124.075H37.3387V124.564H32.8612ZM35.0255 120.64H36.5942V119.704H35.0255V120.64ZM42.8875 122.655C44.3551 122.655 45.1847 123.011 45.19 123.687C45.1847 124.351 44.3551 124.697 42.8875 124.697C41.4091 124.697 40.5796 124.351 40.5796 123.687C40.5796 123.011 41.4091 122.655 42.8875 122.655ZM39.8457 122.24V121.762H42.6003V121.241C41.3958 121.198 40.7178 120.871 40.7178 120.294C40.7178 119.661 41.5049 119.337 42.8875 119.337C44.2754 119.337 45.0571 119.661 45.0571 120.294C45.0571 120.871 44.387 121.195 43.1852 121.241V121.762H45.9398V122.24H39.8457ZM40.1648 119.06V118.592H42.6003V117.933H43.1852V118.592H45.5835V119.06H40.1648ZM41.1858 123.687C41.1858 124.054 41.8026 124.256 42.8875 124.25C43.9723 124.256 44.5891 124.054 44.5891 123.687C44.5891 123.309 43.9723 123.102 42.8875 123.102C41.8026 123.102 41.1858 123.309 41.1858 123.687ZM41.3506 120.294C41.3453 120.629 41.909 120.821 42.8875 120.821C43.8712 120.821 44.4296 120.629 44.4296 120.294C44.4296 119.943 43.8712 119.752 42.8875 119.752C41.909 119.752 41.3453 119.943 41.3506 120.294ZM52.4287 123.357V123.852H46.308V123.357H49.0679V121.73H49.6582V123.357H52.4287ZM46.6111 121.496C47.7385 121.299 49.052 120.363 49.052 119.3V119.135H46.8132V118.635H51.9022V119.135H49.6635V119.3C49.6635 120.363 50.9823 121.283 52.1362 121.469L51.8916 121.937C50.8733 121.735 49.7938 121.086 49.363 120.164C48.9323 121.092 47.8581 121.756 46.8557 121.964L46.6111 121.496Z" fill="white"/>
<rect x="66.275" y="108.677" width="31.05" height="25.85" rx="12.925" stroke="#CACAD7" stroke-width="0.55"/>
<path d="M80.8471 120.528V121.007H76.3536V118.422H80.7567V118.912H76.9545V120.528H80.8471ZM75.5028 122.373V121.889H81.6235V122.373H78.837V124.692H78.2574V122.373H75.5028ZM88.0698 121.576V122.054H81.9651V121.576H84.7197V120.911H82.7787V118.22H87.3094V118.699H83.3743V119.326H87.1286V119.778H83.3743V120.443H87.3466V120.911H85.3099V121.576H88.0698ZM82.7096 123.628C82.7096 122.932 83.5391 122.554 85.0174 122.559C86.4851 122.554 87.3147 122.932 87.32 123.628C87.3147 124.33 86.4851 124.697 85.0174 124.697C83.5391 124.697 82.7096 124.33 82.7096 123.628ZM83.3052 123.628C83.2998 124.032 83.9167 124.245 85.0174 124.24C86.1129 124.245 86.7244 124.032 86.7297 123.628C86.7244 123.229 86.1129 123.006 85.0174 123.006C83.9167 123.006 83.2998 123.229 83.3052 123.628Z" fill="#999999"/>
<rect x="102.275" y="108.677" width="31.05" height="25.85" rx="12.925" stroke="#CACAD7" stroke-width="0.55"/>
<path d="M117.608 121.485V121.974H111.513V121.485H114.268V120.682H112.322V118.183H112.912V118.959H116.22V118.183H116.81V120.682H114.853V121.485H117.608ZM112.189 123.112V122.634H116.852V124.713H116.257V123.112H112.189ZM112.912 120.204H116.22V119.411H112.912V120.204ZM124.07 121.576V122.054H117.965V121.576H120.72V120.911H118.779V118.22H123.309V118.699H119.374V119.326H123.129V119.778H119.374V120.443H123.347V120.911H121.31V121.576H124.07ZM118.71 123.628C118.71 122.932 119.539 122.554 121.017 122.559C122.485 122.554 123.315 122.932 123.32 123.628C123.315 124.33 122.485 124.697 121.017 124.697C119.539 124.697 118.71 124.33 118.71 123.628ZM119.305 123.628C119.3 124.032 119.917 124.245 121.017 124.24C122.113 124.245 122.724 124.032 122.73 123.628C122.724 123.229 122.113 123.006 121.017 123.006C119.917 123.006 119.3 123.229 119.305 123.628Z" fill="#999999"/>
<rect x="16" y="141.402" width="31.6" height="26.4" rx="13.2" fill="#A30FFA"/>
<path d="M31.0545 151.034V155.98H30.4642V154.187H28.8849V154.836H25.8485V151.475H26.4387V152.667H28.2999V151.475H28.8849V152.262H30.4642V151.034H31.0545ZM26.4387 154.352H28.2999V153.129H26.4387V154.352ZM26.7312 157.564V155.496H27.3268V157.075H31.2087V157.564H26.7312ZM28.8849 153.698H30.4642V152.752H28.8849V153.698ZM37.4848 151.029V157.724H36.8946V151.029H37.4848ZM32.3639 156.107V151.598H32.9542V153.363H34.943V151.598H35.5279V156.107H32.3639ZM32.9542 155.613H34.943V153.837H32.9542V155.613Z" fill="white"/>
<rect x="52.275" y="141.677" width="37.05" height="25.85" rx="12.925" stroke="#CACAD7" stroke-width="0.55"/>
<path d="M66.6 151.433V151.949C66.6 152.512 66.6 153.19 66.4245 154.102H67.403V154.597H61.2823V154.102H65.8342C66.015 153.18 66.015 152.518 66.015 151.949V151.917H62.0587V151.433H66.6ZM62.0906 157.559V155.347H62.6809V157.064H66.8021V157.559H62.0906ZM73.8387 154.251V154.735H72.2114V155.586H73.0835V157.713H72.488V156.059H68.4199V155.586H69.3612V154.735H67.7446V154.251H73.8387ZM68.4199 152.465C68.4199 151.662 69.3346 151.183 70.7863 151.188C72.238 151.183 73.1474 151.662 73.1474 152.465C73.1474 153.268 72.238 153.746 70.7863 153.741C69.3346 153.746 68.4199 153.268 68.4199 152.465ZM69.0315 152.465C69.0262 152.97 69.7068 153.278 70.7863 153.278C71.8605 153.278 72.5465 152.97 72.5465 152.465C72.5465 151.965 71.8605 151.656 70.7863 151.662C69.7068 151.656 69.0262 151.965 69.0315 152.465ZM69.9514 155.586H71.6318V154.735H69.9514V155.586ZM80.3009 154.576V155.054H74.1962V154.576H76.9508V153.911H75.0098V151.22H79.5405V151.699H75.6054V152.326H79.3597V152.778H75.6054V153.443H79.5777V153.911H77.5411V154.576H80.3009ZM74.9407 156.628C74.9407 155.932 75.7703 155.554 77.2486 155.559C78.7163 155.554 79.5458 155.932 79.5511 156.628C79.5458 157.33 78.7163 157.697 77.2486 157.697C75.7703 157.697 74.9407 157.33 74.9407 156.628ZM75.5363 156.628C75.531 157.032 76.1478 157.245 77.2486 157.24C78.344 157.245 78.9556 157.032 78.9609 156.628C78.9556 156.229 78.344 156.006 77.2486 156.006C76.1478 156.006 75.531 156.229 75.5363 156.628Z" fill="#999999"/>
<rect x="94" y="141.402" width="52.6" height="26.4" rx="13.2" fill="#A30FFA"/>
<path d="M108.975 151.029V157.713H108.385V151.029H108.975ZM103.439 155.549C103.729 155.549 104.043 155.549 104.37 155.543V152.241H103.615V151.752H107.433V152.241H106.678V155.458C107.055 155.432 107.428 155.4 107.784 155.357L107.816 155.799C106.359 156.027 104.748 156.049 103.509 156.054L103.439 155.549ZM104.944 155.533C105.322 155.525 105.71 155.512 106.098 155.493V152.241H104.944V155.533ZM116.022 154.996V155.474H113.236V157.713H112.656V155.474H109.902V154.996H116.022ZM110.689 154.182V151.305H111.274V152.231H114.645V151.305H115.235V154.182H110.689ZM111.274 153.704H114.645V152.709H111.274V153.704ZM123.528 154.639V155.123H118.907V151.608H123.454V152.098H119.503V153.092H123.31V153.571H119.503V154.639H123.528ZM118.115 156.841V156.346H124.235V156.841H118.115ZM130.113 151.029V157.724H129.528V154.092H128.225V153.597H129.528V151.029H130.113ZM124.811 152.14V151.651H127.821V153.985H125.417V155.613C126.568 155.61 127.406 155.578 128.379 155.395L128.427 155.889C127.422 156.07 126.555 156.112 125.343 156.118H124.832V153.496H127.246V152.14H124.811ZM132.438 151.146V151.789H135.745V151.146H136.336V153.353H131.847V151.146H132.438ZM131.039 154.4V153.927H137.133V154.4H131.039ZM131.778 155.469V155.017H136.346V156.501H132.374V157.171H136.548V157.639H131.794V156.065H135.767V155.469H131.778ZM132.438 152.895H135.745V152.241H132.438V152.895Z" fill="white"/>
<rect x="16" y="174.402" width="45.6" height="26.4" rx="13.2" fill="#A30FFA"/>
<path d="M30.5945 190.075V190.564H25.9682V188.645H26.5637V190.075H30.5945ZM25.1812 188.107V187.613H27.9357V186.48H28.5153V187.613H31.2912V188.107H25.1812ZM25.58 186.448C26.7499 186.252 27.9251 185.449 27.9251 184.507V184.204H28.5207V184.507C28.5207 185.454 29.6959 186.262 30.8658 186.448L30.6318 186.911C29.6267 186.722 28.6403 186.153 28.2255 185.345C27.8107 186.156 26.8296 186.725 25.8193 186.911L25.58 186.448ZM32.5102 184.311V185.273H34.4565V184.311H35.0414V187.219H31.9306V184.311H32.5102ZM32.5102 186.741H34.4565V185.736H32.5102V186.741ZM32.6059 188.272V187.799H36.8707V189.416H33.2015V190.155H37.1153V190.639H32.6219V188.969H36.2858V188.272H32.6059ZM36.2805 187.485V184.029H36.8707V185.48H37.8758V185.97H36.8707V187.485H36.2805ZM45.3868 184.029V190.724H44.7965V186.953H43.3288V186.464H44.7965V184.029H45.3868ZM39.7872 188.926C40.7551 188.458 41.5634 187.198 41.5687 186.012V185.209H40.0425V184.715H43.6957V185.209H42.1643V186.012C42.1643 187.124 42.9619 188.336 43.935 188.777L43.5788 189.251C42.8183 188.876 42.1749 188.065 41.8744 187.134C41.5713 188.126 40.9119 188.988 40.1489 189.389L39.7872 188.926ZM51.8278 184.034V187.996H51.2375V184.034H51.8278ZM46.643 184.917V184.438H49.7007V186.252H47.2333V187.177C48.4298 187.182 49.3232 187.142 50.4026 186.969L50.4771 187.459C49.3497 187.634 48.4351 187.671 47.2014 187.671H46.659V185.784H49.1158V184.917H46.643ZM47.4779 190.623V188.357H51.8278V190.623H47.4779ZM48.0629 190.139H51.2482V188.836H48.0629V190.139Z" fill="white"/>
<rect x="66.275" y="174.677" width="31.05" height="25.85" rx="12.925" stroke="#CACAD7" stroke-width="0.55"/>
<path d="M78.5552 184.465C79.9803 184.47 81.0013 185.161 81.0013 186.214C81.0013 187.209 80.1186 187.868 78.8476 187.953V189.357H81.6341V189.852H75.5134V189.357H78.2627V187.953C77.0024 187.865 76.1143 187.209 76.1143 186.214C76.1143 185.161 77.1407 184.47 78.5552 184.465ZM76.6833 186.214C76.6833 186.985 77.4757 187.485 78.5552 187.491C79.64 187.485 80.4323 186.985 80.4323 186.214C80.4323 185.459 79.64 184.949 78.5552 184.954C77.4757 184.949 76.6833 185.459 76.6833 186.214ZM87.203 184.034V186.236H88.2081V186.735H87.203V189.043H86.6127V184.034H87.203ZM81.9917 185.337V184.853H83.6933V184.034H84.2783V184.853H85.9746V185.337H81.9917ZM82.3746 186.953C82.3692 186.193 83.018 185.704 83.9858 185.704C84.9377 185.704 85.5864 186.193 85.5918 186.953C85.5864 187.703 84.9377 188.187 83.9858 188.187C83.018 188.187 82.3692 187.703 82.3746 186.953ZM82.9382 186.953C82.9329 187.421 83.353 187.725 83.9858 187.719C84.608 187.725 85.0281 187.421 85.0334 186.953C85.0281 186.475 84.608 186.166 83.9858 186.166C83.353 186.166 82.9329 186.475 82.9382 186.953ZM83.018 190.564V188.639H83.6029V190.075H87.5114V190.564H83.018Z" fill="#999999"/>
<rect x="102.275" y="174.677" width="31.05" height="25.85" rx="12.925" stroke="#CACAD7" stroke-width="0.55"/>
<path d="M117.623 187.858V188.357H114.837V190.713H114.257V188.357H111.503V187.858H117.623ZM112.199 185.768C112.199 184.864 113.146 184.3 114.55 184.295C115.954 184.3 116.906 184.864 116.906 185.768C116.906 186.661 115.954 187.225 114.55 187.225C113.146 187.225 112.199 186.661 112.199 185.768ZM112.806 185.768C112.8 186.363 113.508 186.746 114.55 186.746C115.592 186.746 116.299 186.363 116.299 185.768C116.299 185.167 115.592 184.779 114.55 184.779C113.508 184.779 112.8 185.167 112.806 185.768ZM121.017 184.109C122.506 184.109 123.378 184.523 123.378 185.268C123.378 186.018 122.506 186.427 121.017 186.432C119.528 186.427 118.651 186.018 118.651 185.268C118.651 184.523 119.528 184.109 121.017 184.109ZM117.976 187.347V186.874H124.07V187.347H121.31V187.98H123.283V189.474H119.31V190.171H123.485V190.639H118.731V189.038H122.703V188.432H118.715V187.98H120.72V187.347H117.976ZM119.268 185.268C119.263 185.725 119.911 185.975 121.017 185.98C122.129 185.975 122.778 185.725 122.778 185.268C122.778 184.826 122.129 184.566 121.017 184.561C119.911 184.566 119.263 184.826 119.268 185.268Z" fill="#999999"/>
<rect x="16" y="238.202" width="69.3" height="28.6" rx="13.2" fill="#A30FFA"/>
<path d="M31.3995 258.276C35.25 258.276 37.1741 255.69 37.1741 252.501C37.1741 249.312 35.25 246.726 31.3995 246.726C27.5491 246.726 25.625 249.312 25.625 252.501C25.625 255.69 27.5491 258.276 31.3995 258.276Z" fill="url(#paint0_radial_1235_18391)"/>
<path d="M31.3995 258.276C35.25 258.276 37.1741 255.69 37.1741 252.501C37.1741 249.312 35.25 246.726 31.3995 246.726C27.5491 246.726 25.625 249.312 25.625 252.501C25.625 255.69 27.5491 258.276 31.3995 258.276Z" fill="url(#paint1_radial_1235_18391)"/>
<path d="M31.3995 258.276C35.25 258.276 37.1741 255.69 37.1741 252.501C37.1741 249.312 35.25 246.726 31.3995 246.726C27.5491 246.726 25.625 249.312 25.625 252.501C25.625 255.69 27.5491 258.276 31.3995 258.276Z" fill="url(#paint2_radial_1235_18391)" fill-opacity="0.6"/>
<path d="M31.3995 258.276C35.25 258.276 37.1741 255.69 37.1741 252.501C37.1741 249.312 35.25 246.726 31.3995 246.726C27.5491 246.726 25.625 249.312 25.625 252.501C25.625 255.69 27.5491 258.276 31.3995 258.276Z" fill="url(#paint3_radial_1235_18391)"/>
<path d="M31.3995 258.276C35.25 258.276 37.1741 255.69 37.1741 252.501C37.1741 249.312 35.25 246.726 31.3995 246.726C27.5491 246.726 25.625 249.312 25.625 252.501C25.625 255.69 27.5491 258.276 31.3995 258.276Z" fill="url(#paint4_radial_1235_18391)"/>
<path d="M31.3995 258.276C35.25 258.276 37.1741 255.69 37.1741 252.501C37.1741 249.312 35.25 246.726 31.3995 246.726C27.5491 246.726 25.625 249.312 25.625 252.501C25.625 255.69 27.5491 258.276 31.3995 258.276Z" fill="url(#paint5_radial_1235_18391)"/>
<path d="M31.3995 258.276C35.25 258.276 37.1741 255.69 37.1741 252.501C37.1741 249.312 35.25 246.726 31.3995 246.726C27.5491 246.726 25.625 249.312 25.625 252.501C25.625 255.69 27.5491 258.276 31.3995 258.276Z" fill="url(#paint6_radial_1235_18391)"/>
<path d="M31.3995 258.276C35.25 258.276 37.1741 255.69 37.1741 252.501C37.1741 249.312 35.25 246.726 31.3995 246.726C27.5491 246.726 25.625 249.312 25.625 252.501C25.625 255.69 27.5491 258.276 31.3995 258.276Z" fill="url(#paint7_radial_1235_18391)"/>
<path d="M31.3995 258.276C35.25 258.276 37.1741 255.69 37.1741 252.501C37.1741 249.312 35.25 246.726 31.3995 246.726C27.5491 246.726 25.625 249.312 25.625 252.501C25.625 255.69 27.5491 258.276 31.3995 258.276Z" fill="url(#paint8_radial_1235_18391)"/>
<path d="M31.3995 258.276C35.25 258.276 37.1741 255.69 37.1741 252.501C37.1741 249.312 35.25 246.726 31.3995 246.726C27.5491 246.726 25.625 249.312 25.625 252.501C25.625 255.69 27.5491 258.276 31.3995 258.276Z" fill="url(#paint9_radial_1235_18391)"/>
<path fill-rule="evenodd" clip-rule="evenodd" d="M27.9754 252.618C27.814 252.461 27.5559 252.463 27.3962 252.622C27.2351 252.783 27.2351 253.045 27.3962 253.206L27.3968 253.206L27.3974 253.207L27.3988 253.208L27.4021 253.211L27.4106 253.22C27.4172 253.226 27.4255 253.233 27.4356 253.242C27.4558 253.26 27.4832 253.282 27.5177 253.308C27.5868 253.36 27.6851 253.425 27.8128 253.489C28.0695 253.618 28.4416 253.739 28.9254 253.739C29.4092 253.739 29.7813 253.618 30.038 253.489C30.1657 253.425 30.264 253.36 30.333 253.308C30.3676 253.282 30.395 253.26 30.4152 253.242C30.4253 253.233 30.4336 253.226 30.4402 253.22L30.4487 253.211L30.452 253.208L30.4534 253.207L30.454 253.206L30.4543 253.206C30.6154 253.045 30.6157 252.783 30.4546 252.622C30.2949 252.463 30.0368 252.461 29.8754 252.618C29.8748 252.619 29.8736 252.62 29.8719 252.621C29.8663 252.626 29.855 252.636 29.838 252.648C29.804 252.674 29.7476 252.712 29.669 252.751C29.5132 252.829 29.2666 252.914 28.9254 252.914C28.5842 252.914 28.3375 252.829 28.1817 252.751C28.1032 252.712 28.0468 252.674 28.0127 252.648C27.9957 252.636 27.9844 252.626 27.9789 252.621C27.9772 252.62 27.976 252.619 27.9754 252.618Z" fill="url(#paint10_radial_1235_18391)"/>
<path fill-rule="evenodd" clip-rule="evenodd" d="M32.9266 252.618C32.7652 252.461 32.5071 252.463 32.3474 252.622C32.1863 252.783 32.1863 253.045 32.3474 253.206L32.348 253.206L32.3486 253.207L32.35 253.208L32.3533 253.211L32.3618 253.22C32.3683 253.226 32.3767 253.233 32.3868 253.242C32.407 253.26 32.4343 253.282 32.4689 253.308C32.538 253.36 32.6363 253.425 32.764 253.489C33.0207 253.618 33.3928 253.739 33.8766 253.739C34.3603 253.739 34.7325 253.618 34.9892 253.489C35.1168 253.425 35.2151 253.36 35.2842 253.308C35.3188 253.282 35.3462 253.26 35.3664 253.242C35.3765 253.233 35.3848 253.226 35.3914 253.22L35.3999 253.211L35.4045 253.207L35.4052 253.206L35.4055 253.206C35.5665 253.045 35.5668 252.783 35.4057 252.622C35.246 252.463 34.9879 252.461 34.8266 252.618C34.8259 252.619 34.8248 252.62 34.8231 252.621C34.8175 252.626 34.8062 252.636 34.7892 252.648C34.7552 252.674 34.6988 252.712 34.6202 252.751C34.4644 252.829 34.2178 252.914 33.8766 252.914C33.5353 252.914 33.2887 252.829 33.1329 252.751C33.0543 252.712 32.998 252.674 32.9639 252.648C32.9469 252.636 32.9356 252.626 32.93 252.621C32.9284 252.62 32.9272 252.619 32.9266 252.618Z" fill="url(#paint11_radial_1235_18391)"/>
<rect x="30.5762" y="254.976" width="1.65" height="1.65" rx="0.825" fill="url(#paint12_radial_1235_18391)"/>
<path fill-rule="evenodd" clip-rule="evenodd" d="M36.7792 246.741C36.8642 246.851 36.8774 247 36.813 247.122L35.8178 249.018L36.9374 248.753C37.1273 248.708 37.3177 248.826 37.3625 249.016C37.4074 249.206 37.2898 249.396 37.0999 249.441L35.2257 249.884C35.091 249.916 34.9501 249.866 34.8652 249.756C34.7804 249.647 34.7672 249.498 34.8316 249.376L35.8261 247.482L34.6969 247.75C34.5071 247.795 34.3165 247.678 34.2714 247.488C34.2262 247.298 34.3435 247.108 34.5334 247.063L36.4184 246.614C36.5532 246.582 36.6942 246.632 36.7792 246.741Z" fill="url(#paint13_linear_1235_18391)"/>
<path fill-rule="evenodd" clip-rule="evenodd" d="M36.7792 246.741C36.8642 246.851 36.8774 247 36.813 247.122L35.8178 249.018L36.9374 248.753C37.1273 248.708 37.3177 248.826 37.3625 249.016C37.4074 249.206 37.2898 249.396 37.0999 249.441L35.2257 249.884C35.091 249.916 34.9501 249.866 34.8652 249.756C34.7804 249.647 34.7672 249.498 34.8316 249.376L35.8261 247.482L34.6969 247.75C34.5071 247.795 34.3165 247.678 34.2714 247.488C34.2262 247.298 34.3435 247.108 34.5334 247.063L36.4184 246.614C36.5532 246.582 36.6942 246.632 36.7792 246.741Z" fill="url(#paint14_linear_1235_18391)"/>
<path fill-rule="evenodd" clip-rule="evenodd" d="M36.7792 246.741C36.8642 246.851 36.8774 247 36.813 247.122L35.8178 249.018L36.9374 248.753C37.1273 248.708 37.3177 248.826 37.3625 249.016C37.4074 249.206 37.2898 249.396 37.0999 249.441L35.2257 249.884C35.091 249.916 34.9501 249.866 34.8652 249.756C34.7804 249.647 34.7672 249.498 34.8316 249.376L35.8261 247.482L34.6969 247.75C34.5071 247.795 34.3165 247.678 34.2714 247.488C34.2262 247.298 34.3435 247.108 34.5334 247.063L36.4184 246.614C36.5532 246.582 36.6942 246.632 36.7792 246.741Z" fill="url(#paint15_radial_1235_18391)"/>
<path fill-rule="evenodd" clip-rule="evenodd" d="M36.7792 246.741C36.8642 246.851 36.8774 247 36.813 247.122L35.8178 249.018L36.9374 248.753C37.1273 248.708 37.3177 248.826 37.3625 249.016C37.4074 249.206 37.2898 249.396 37.0999 249.441L35.2257 249.884C35.091 249.916 34.9501 249.866 34.8652 249.756C34.7804 249.647 34.7672 249.498 34.8316 249.376L35.8261 247.482L34.6969 247.75C34.5071 247.795 34.3165 247.678 34.2714 247.488C34.2262 247.298 34.3435 247.108 34.5334 247.063L36.4184 246.614C36.5532 246.582 36.6942 246.632 36.7792 246.741Z" fill="url(#paint16_linear_1235_18391)"/>
<path fill-rule="evenodd" clip-rule="evenodd" d="M36.7792 246.741C36.8642 246.851 36.8774 247 36.813 247.122L35.8178 249.018L36.9374 248.753C37.1273 248.708 37.3177 248.826 37.3625 249.016C37.4074 249.206 37.2898 249.396 37.0999 249.441L35.2257 249.884C35.091 249.916 34.9501 249.866 34.8652 249.756C34.7804 249.647 34.7672 249.498 34.8316 249.376L35.8261 247.482L34.6969 247.75C34.5071 247.795 34.3165 247.678 34.2714 247.488C34.2262 247.298 34.3435 247.108 34.5334 247.063L36.4184 246.614C36.5532 246.582 36.6942 246.632 36.7792 246.741Z" fill="url(#paint17_radial_1235_18391)"/>
<path fill-rule="evenodd" clip-rule="evenodd" d="M36.7792 246.741C36.8642 246.851 36.8774 247 36.813 247.122L35.8178 249.018L36.9374 248.753C37.1273 248.708 37.3177 248.826 37.3625 249.016C37.4074 249.206 37.2898 249.396 37.0999 249.441L35.2257 249.884C35.091 249.916 34.9501 249.866 34.8652 249.756C34.7804 249.647 34.7672 249.498 34.8316 249.376L35.8261 247.482L34.6969 247.75C34.5071 247.795 34.3165 247.678 34.2714 247.488C34.2262 247.298 34.3435 247.108 34.5334 247.063L36.4184 246.614C36.5532 246.582 36.6942 246.632 36.7792 246.741Z" fill="url(#paint18_radial_1235_18391)"/>
<path fill-rule="evenodd" clip-rule="evenodd" d="M36.7792 246.741C36.8642 246.851 36.8774 247 36.813 247.122L35.8178 249.018L36.9374 248.753C37.1273 248.708 37.3177 248.826 37.3625 249.016C37.4074 249.206 37.2898 249.396 37.0999 249.441L35.2257 249.884C35.091 249.916 34.9501 249.866 34.8652 249.756C34.7804 249.647 34.7672 249.498 34.8316 249.376L35.8261 247.482L34.6969 247.75C34.5071 247.795 34.3165 247.678 34.2714 247.488C34.2262 247.298 34.3435 247.108 34.5334 247.063L36.4184 246.614C36.5532 246.582 36.6942 246.632 36.7792 246.741Z" fill="url(#paint19_radial_1235_18391)"/>
<path fill-rule="evenodd" clip-rule="evenodd" d="M36.7792 246.741C36.8642 246.851 36.8774 247 36.813 247.122L35.8178 249.018L36.9374 248.753C37.1273 248.708 37.3177 248.826 37.3625 249.016C37.4074 249.206 37.2898 249.396 37.0999 249.441L35.2257 249.884C35.091 249.916 34.9501 249.866 34.8652 249.756C34.7804 249.647 34.7672 249.498 34.8316 249.376L35.8261 247.482L34.6969 247.75C34.5071 247.795 34.3165 247.678 34.2714 247.488C34.2262 247.298 34.3435 247.108 34.5334 247.063L36.4184 246.614C36.5532 246.582 36.6942 246.632 36.7792 246.741Z" fill="url(#paint20_radial_1235_18391)"/>
<path fill-rule="evenodd" clip-rule="evenodd" d="M36.7792 246.741C36.8642 246.851 36.8774 247 36.813 247.122L35.8178 249.018L36.9374 248.753C37.1273 248.708 37.3177 248.826 37.3625 249.016C37.4074 249.206 37.2898 249.396 37.0999 249.441L35.2257 249.884C35.091 249.916 34.9501 249.866 34.8652 249.756C34.7804 249.647 34.7672 249.498 34.8316 249.376L35.8261 247.482L34.6969 247.75C34.5071 247.795 34.3165 247.678 34.2714 247.488C34.2262 247.298 34.3435 247.108 34.5334 247.063L36.4184 246.614C36.5532 246.582 36.6942 246.632 36.7792 246.741Z" fill="url(#paint21_radial_1235_18391)"/>
<path fill-rule="evenodd" clip-rule="evenodd" d="M34.8553 248.722C34.8971 248.813 34.8819 248.92 34.8162 248.996L33.8024 250.167L34.635 250.165C34.7763 250.165 34.891 250.279 34.8914 250.421C34.8917 250.562 34.7774 250.677 34.6362 250.677L33.2423 250.68C33.1421 250.68 33.0509 250.622 33.0092 250.531C32.9674 250.44 32.9827 250.333 33.0483 250.257L34.0615 249.086L33.2214 249.089C33.0801 249.09 32.9652 248.976 32.9647 248.834C32.9641 248.693 33.0782 248.578 33.2195 248.578L34.6219 248.573C34.7222 248.572 34.8134 248.63 34.8553 248.722Z" fill="url(#paint22_linear_1235_18391)"/>
<path fill-rule="evenodd" clip-rule="evenodd" d="M34.8553 248.722C34.8971 248.813 34.8819 248.92 34.8162 248.996L33.8024 250.167L34.635 250.165C34.7763 250.165 34.891 250.279 34.8914 250.421C34.8917 250.562 34.7774 250.677 34.6362 250.677L33.2423 250.68C33.1421 250.68 33.0509 250.622 33.0092 250.531C32.9674 250.44 32.9827 250.333 33.0483 250.257L34.0615 249.086L33.2214 249.089C33.0801 249.09 32.9652 248.976 32.9647 248.834C32.9641 248.693 33.0782 248.578 33.2195 248.578L34.6219 248.573C34.7222 248.572 34.8134 248.63 34.8553 248.722Z" fill="url(#paint23_linear_1235_18391)"/>
<path fill-rule="evenodd" clip-rule="evenodd" d="M34.8553 248.722C34.8971 248.813 34.8819 248.92 34.8162 248.996L33.8024 250.167L34.635 250.165C34.7763 250.165 34.891 250.279 34.8914 250.421C34.8917 250.562 34.7774 250.677 34.6362 250.677L33.2423 250.68C33.1421 250.68 33.0509 250.622 33.0092 250.531C32.9674 250.44 32.9827 250.333 33.0483 250.257L34.0615 249.086L33.2214 249.089C33.0801 249.09 32.9652 248.976 32.9647 248.834C32.9641 248.693 33.0782 248.578 33.2195 248.578L34.6219 248.573C34.7222 248.572 34.8134 248.63 34.8553 248.722Z" fill="url(#paint24_radial_1235_18391)"/>
<path fill-rule="evenodd" clip-rule="evenodd" d="M34.8553 248.722C34.8971 248.813 34.8819 248.92 34.8162 248.996L33.8024 250.167L34.635 250.165C34.7763 250.165 34.891 250.279 34.8914 250.421C34.8917 250.562 34.7774 250.677 34.6362 250.677L33.2423 250.68C33.1421 250.68 33.0509 250.622 33.0092 250.531C32.9674 250.44 32.9827 250.333 33.0483 250.257L34.0615 249.086L33.2214 249.089C33.0801 249.09 32.9652 248.976 32.9647 248.834C32.9641 248.693 33.0782 248.578 33.2195 248.578L34.6219 248.573C34.7222 248.572 34.8134 248.63 34.8553 248.722Z" fill="url(#paint25_linear_1235_18391)"/>
<path fill-rule="evenodd" clip-rule="evenodd" d="M34.8553 248.722C34.8971 248.813 34.8819 248.92 34.8162 248.996L33.8024 250.167L34.635 250.165C34.7763 250.165 34.891 250.279 34.8914 250.421C34.8917 250.562 34.7774 250.677 34.6362 250.677L33.2423 250.68C33.1421 250.68 33.0509 250.622 33.0092 250.531C32.9674 250.44 32.9827 250.333 33.0483 250.257L34.0615 249.086L33.2214 249.089C33.0801 249.09 32.9652 248.976 32.9647 248.834C32.9641 248.693 33.0782 248.578 33.2195 248.578L34.6219 248.573C34.7222 248.572 34.8134 248.63 34.8553 248.722Z" fill="url(#paint26_radial_1235_18391)"/>
<path fill-rule="evenodd" clip-rule="evenodd" d="M34.8553 248.722C34.8971 248.813 34.8819 248.92 34.8162 248.996L33.8024 250.167L34.635 250.165C34.7763 250.165 34.891 250.279 34.8914 250.421C34.8917 250.562 34.7774 250.677 34.6362 250.677L33.2423 250.68C33.1421 250.68 33.0509 250.622 33.0092 250.531C32.9674 250.44 32.9827 250.333 33.0483 250.257L34.0615 249.086L33.2214 249.089C33.0801 249.09 32.9652 248.976 32.9647 248.834C32.9641 248.693 33.0782 248.578 33.2195 248.578L34.6219 248.573C34.7222 248.572 34.8134 248.63 34.8553 248.722Z" fill="url(#paint27_radial_1235_18391)"/>
<path fill-rule="evenodd" clip-rule="evenodd" d="M34.8553 248.722C34.8971 248.813 34.8819 248.92 34.8162 248.996L33.8024 250.167L34.635 250.165C34.7763 250.165 34.891 250.279 34.8914 250.421C34.8917 250.562 34.7774 250.677 34.6362 250.677L33.2423 250.68C33.1421 250.68 33.0509 250.622 33.0092 250.531C32.9674 250.44 32.9827 250.333 33.0483 250.257L34.0615 249.086L33.2214 249.089C33.0801 249.09 32.9652 248.976 32.9647 248.834C32.9641 248.693 33.0782 248.578 33.2195 248.578L34.6219 248.573C34.7222 248.572 34.8134 248.63 34.8553 248.722Z" fill="url(#paint28_radial_1235_18391)"/>
<path fill-rule="evenodd" clip-rule="evenodd" d="M34.8553 248.722C34.8971 248.813 34.8819 248.92 34.8162 248.996L33.8024 250.167L34.635 250.165C34.7763 250.165 34.891 250.279 34.8914 250.421C34.8917 250.562 34.7774 250.677 34.6362 250.677L33.2423 250.68C33.1421 250.68 33.0509 250.622 33.0092 250.531C32.9674 250.44 32.9827 250.333 33.0483 250.257L34.0615 249.086L33.2214 249.089C33.0801 249.09 32.9652 248.976 32.9647 248.834C32.9641 248.693 33.0782 248.578 33.2195 248.578L34.6219 248.573C34.7222 248.572 34.8134 248.63 34.8553 248.722Z" fill="url(#paint29_radial_1235_18391)"/>
<path fill-rule="evenodd" clip-rule="evenodd" d="M34.8553 248.722C34.8971 248.813 34.8819 248.92 34.8162 248.996L33.8024 250.167L34.635 250.165C34.7763 250.165 34.891 250.279 34.8914 250.421C34.8917 250.562 34.7774 250.677 34.6362 250.677L33.2423 250.68C33.1421 250.68 33.0509 250.622 33.0092 250.531C32.9674 250.44 32.9827 250.333 33.0483 250.257L34.0615 249.086L33.2214 249.089C33.0801 249.09 32.9652 248.976 32.9647 248.834C32.9641 248.693 33.0782 248.578 33.2195 248.578L34.6219 248.573C34.7222 248.572 34.8134 248.63 34.8553 248.722Z" fill="url(#paint30_radial_1235_18391)"/>
<path fill-rule="evenodd" clip-rule="evenodd" d="M34.8553 248.722C34.8971 248.813 34.8819 248.92 34.8162 248.996L33.8024 250.167L34.635 250.165C34.7763 250.165 34.891 250.279 34.8914 250.421C34.8917 250.562 34.7774 250.677 34.6362 250.677L33.2423 250.68C33.1421 250.68 33.0509 250.622 33.0092 250.531C32.9674 250.44 32.9827 250.333 33.0483 250.257L34.0615 249.086L33.2214 249.089C33.0801 249.09 32.9652 248.976 32.9647 248.834C32.9641 248.693 33.0782 248.578 33.2195 248.578L34.6219 248.573C34.7222 248.572 34.8134 248.63 34.8553 248.722Z" fill="#3A99FB" fill-opacity="0.3"/>
<path fill-rule="evenodd" clip-rule="evenodd" d="M33.2343 249.714C33.2478 249.786 33.2178 249.86 33.1578 249.902L32.2296 250.553L32.8209 250.7C32.9212 250.725 32.9823 250.826 32.9574 250.927C32.9324 251.027 32.8309 251.088 32.7306 251.063L31.7407 250.817C31.6696 250.799 31.6153 250.742 31.6019 250.67C31.5884 250.598 31.6184 250.524 31.6784 250.482L32.606 249.832L32.0092 249.684C31.9088 249.659 31.8475 249.558 31.8723 249.458C31.8971 249.357 31.9986 249.296 32.0989 249.321L33.0952 249.567C33.1664 249.584 33.2208 249.642 33.2343 249.714Z" fill="url(#paint31_linear_1235_18391)"/>
<path fill-rule="evenodd" clip-rule="evenodd" d="M33.2343 249.714C33.2478 249.786 33.2178 249.86 33.1578 249.902L32.2296 250.553L32.8209 250.7C32.9212 250.725 32.9823 250.826 32.9574 250.927C32.9324 251.027 32.8309 251.088 32.7306 251.063L31.7407 250.817C31.6696 250.799 31.6153 250.742 31.6019 250.67C31.5884 250.598 31.6184 250.524 31.6784 250.482L32.606 249.832L32.0092 249.684C31.9088 249.659 31.8475 249.558 31.8723 249.458C31.8971 249.357 31.9986 249.296 32.0989 249.321L33.0952 249.567C33.1664 249.584 33.2208 249.642 33.2343 249.714Z" fill="url(#paint32_linear_1235_18391)"/>
<path fill-rule="evenodd" clip-rule="evenodd" d="M33.2343 249.714C33.2478 249.786 33.2178 249.86 33.1578 249.902L32.2296 250.553L32.8209 250.7C32.9212 250.725 32.9823 250.826 32.9574 250.927C32.9324 251.027 32.8309 251.088 32.7306 251.063L31.7407 250.817C31.6696 250.799 31.6153 250.742 31.6019 250.67C31.5884 250.598 31.6184 250.524 31.6784 250.482L32.606 249.832L32.0092 249.684C31.9088 249.659 31.8475 249.558 31.8723 249.458C31.8971 249.357 31.9986 249.296 32.0989 249.321L33.0952 249.567C33.1664 249.584 33.2208 249.642 33.2343 249.714Z" fill="url(#paint33_radial_1235_18391)"/>
<path fill-rule="evenodd" clip-rule="evenodd" d="M33.2343 249.714C33.2478 249.786 33.2178 249.86 33.1578 249.902L32.2296 250.553L32.8209 250.7C32.9212 250.725 32.9823 250.826 32.9574 250.927C32.9324 251.027 32.8309 251.088 32.7306 251.063L31.7407 250.817C31.6696 250.799 31.6153 250.742 31.6019 250.67C31.5884 250.598 31.6184 250.524 31.6784 250.482L32.606 249.832L32.0092 249.684C31.9088 249.659 31.8475 249.558 31.8723 249.458C31.8971 249.357 31.9986 249.296 32.0989 249.321L33.0952 249.567C33.1664 249.584 33.2208 249.642 33.2343 249.714Z" fill="url(#paint34_linear_1235_18391)"/>
<path fill-rule="evenodd" clip-rule="evenodd" d="M33.2343 249.714C33.2478 249.786 33.2178 249.86 33.1578 249.902L32.2296 250.553L32.8209 250.7C32.9212 250.725 32.9823 250.826 32.9574 250.927C32.9324 251.027 32.8309 251.088 32.7306 251.063L31.7407 250.817C31.6696 250.799 31.6153 250.742 31.6019 250.67C31.5884 250.598 31.6184 250.524 31.6784 250.482L32.606 249.832L32.0092 249.684C31.9088 249.659 31.8475 249.558 31.8723 249.458C31.8971 249.357 31.9986 249.296 32.0989 249.321L33.0952 249.567C33.1664 249.584 33.2208 249.642 33.2343 249.714Z" fill="url(#paint35_radial_1235_18391)"/>
<path fill-rule="evenodd" clip-rule="evenodd" d="M33.2343 249.714C33.2478 249.786 33.2178 249.86 33.1578 249.902L32.2296 250.553L32.8209 250.7C32.9212 250.725 32.9823 250.826 32.9574 250.927C32.9324 251.027 32.8309 251.088 32.7306 251.063L31.7407 250.817C31.6696 250.799 31.6153 250.742 31.6019 250.67C31.5884 250.598 31.6184 250.524 31.6784 250.482L32.606 249.832L32.0092 249.684C31.9088 249.659 31.8475 249.558 31.8723 249.458C31.8971 249.357 31.9986 249.296 32.0989 249.321L33.0952 249.567C33.1664 249.584 33.2208 249.642 33.2343 249.714Z" fill="url(#paint36_radial_1235_18391)"/>
<path fill-rule="evenodd" clip-rule="evenodd" d="M33.2343 249.714C33.2478 249.786 33.2178 249.86 33.1578 249.902L32.2296 250.553L32.8209 250.7C32.9212 250.725 32.9823 250.826 32.9574 250.927C32.9324 251.027 32.8309 251.088 32.7306 251.063L31.7407 250.817C31.6696 250.799 31.6153 250.742 31.6019 250.67C31.5884 250.598 31.6184 250.524 31.6784 250.482L32.606 249.832L32.0092 249.684C31.9088 249.659 31.8475 249.558 31.8723 249.458C31.8971 249.357 31.9986 249.296 32.0989 249.321L33.0952 249.567C33.1664 249.584 33.2208 249.642 33.2343 249.714Z" fill="url(#paint37_radial_1235_18391)"/>
<path fill-rule="evenodd" clip-rule="evenodd" d="M33.2343 249.714C33.2478 249.786 33.2178 249.86 33.1578 249.902L32.2296 250.553L32.8209 250.7C32.9212 250.725 32.9823 250.826 32.9574 250.927C32.9324 251.027 32.8309 251.088 32.7306 251.063L31.7407 250.817C31.6696 250.799 31.6153 250.742 31.6019 250.67C31.5884 250.598 31.6184 250.524 31.6784 250.482L32.606 249.832L32.0092 249.684C31.9088 249.659 31.8475 249.558 31.8723 249.458C31.8971 249.357 31.9986 249.296 32.0989 249.321L33.0952 249.567C33.1664 249.584 33.2208 249.642 33.2343 249.714Z" fill="url(#paint38_radial_1235_18391)"/>
<path fill-rule="evenodd" clip-rule="evenodd" d="M33.2343 249.714C33.2478 249.786 33.2178 249.86 33.1578 249.902L32.2296 250.553L32.8209 250.7C32.9212 250.725 32.9823 250.826 32.9574 250.927C32.9324 251.027 32.8309 251.088 32.7306 251.063L31.7407 250.817C31.6696 250.799 31.6153 250.742 31.6019 250.67C31.5884 250.598 31.6184 250.524 31.6784 250.482L32.606 249.832L32.0092 249.684C31.9088 249.659 31.8475 249.558 31.8723 249.458C31.8971 249.357 31.9986 249.296 32.0989 249.321L33.0952 249.567C33.1664 249.584 33.2208 249.642 33.2343 249.714Z" fill="url(#paint39_radial_1235_18391)"/>
<path fill-rule="evenodd" clip-rule="evenodd" d="M33.2343 249.714C33.2478 249.786 33.2178 249.86 33.1578 249.902L32.2296 250.553L32.8209 250.7C32.9212 250.725 32.9823 250.826 32.9574 250.927C32.9324 251.027 32.8309 251.088 32.7306 251.063L31.7407 250.817C31.6696 250.799 31.6153 250.742 31.6019 250.67C31.5884 250.598 31.6184 250.524 31.6784 250.482L32.606 249.832L32.0092 249.684C31.9088 249.659 31.8475 249.558 31.8723 249.458C31.8971 249.357 31.9986 249.296 32.0989 249.321L33.0952 249.567C33.1664 249.584 33.2208 249.642 33.2343 249.714Z" fill="#3A99FB" fill-opacity="0.3"/>
<path d="M46.2017 255.077C45.0549 255.077 44.2654 254.441 44.2691 253.558C44.2654 252.855 44.7541 252.272 45.3745 252.174V252.144C44.8331 252.02 44.4759 251.52 44.4797 250.926C44.4759 250.095 45.2053 249.482 46.2017 249.482C47.1942 249.482 47.9236 250.095 47.9312 250.926C47.9236 251.52 47.5627 252.02 47.0288 252.144V252.174C47.6454 252.272 48.1342 252.855 48.1417 253.558C48.1342 254.441 47.3371 255.077 46.2017 255.077ZM44.9459 253.52C44.9346 254.092 45.4196 254.479 46.2017 254.483C46.9799 254.479 47.4649 254.092 47.4649 253.52C47.4649 252.919 46.9348 252.475 46.2017 252.475C45.4723 252.475 44.9346 252.919 44.9459 253.52ZM45.1339 250.979C45.1376 251.528 45.5775 251.9 46.2017 251.904C46.822 251.9 47.2694 251.528 47.2694 250.979C47.2694 250.433 46.8371 250.065 46.2017 250.069C45.555 250.065 45.1376 250.433 45.1339 250.979ZM50.9946 250.723C50.9908 251.945 51.8218 253.171 52.8068 253.618L52.4459 254.084C51.6826 253.716 51.0247 252.922 50.7051 251.971C50.3968 252.979 49.7388 253.825 48.9568 254.22L48.5808 253.723C49.5772 253.268 50.4006 251.99 50.4081 250.723V249.505H50.9946V250.723ZM53.5362 255.626V248.926H54.1303V255.626H53.5362ZM60.3068 248.926V250.964H61.3144V251.46H60.3068V253.821H59.7128V248.926H60.3068ZM55.0882 252.573C56.6937 252.073 57.7351 251.122 57.8592 249.941H55.3665V249.445H58.5021C58.5021 251.167 57.2727 252.445 55.3439 253.047L55.0882 252.573ZM56.1184 255.468V253.325H56.7049V254.972H60.6151V255.468H56.1184ZM66.6367 249.332C66.633 250.178 67.8511 250.93 69.0279 251.099L68.7948 251.558C67.7722 251.396 66.7571 250.862 66.3322 250.106C65.9073 250.866 64.8884 251.396 63.862 251.558L63.6364 251.099C64.8208 250.93 66.0277 250.193 66.0277 249.332V249.016H66.6367V249.332ZM63.283 252.58V252.092H69.3738V252.58H66.6142V253.438H68.6219V255.611H68.0279V253.919H63.9598V253.438H66.0352V252.58H63.283ZM73.1291 249.512V250.106H74.6932V248.933H75.2872V253.814H74.6932V252.031H73.1291V252.633H70.0611V249.512H73.1291ZM70.6477 252.159H72.5501V250.001H70.6477V252.159ZM70.9635 255.468V253.377H71.5575V254.972H75.4376V255.468H70.9635ZM73.1291 251.543H74.6932V250.603H73.1291V251.543Z" fill="white"/>
<path d="M23.3391 292.064V292.846H20.2625V295.175H19.3172V292.846H16.2578V292.064H23.3391ZM16.6445 290.835C18.1957 290.646 19.2141 289.851 19.3086 289.073H16.9109V288.317H19.3172V287.406H20.2625V288.317H22.6773V289.073H20.2797C20.3699 289.843 21.384 290.646 22.9352 290.835L22.5828 291.591C21.298 291.428 20.3012 290.865 19.7984 290.118C19.2914 290.874 18.2816 291.428 16.9883 291.591L16.6445 290.835ZM29.7277 287.398V290.431H30.8792V291.231H29.7277V295.149H28.7738V287.398H29.7277ZM23.6003 293.027C25.4909 292.081 26.5136 290.766 26.7027 288.996H24.0214V288.206H27.6738C27.6695 290.487 26.7241 292.494 24.1417 293.766L23.6003 293.027ZM39.3853 287.398V295.166H38.4228V287.398H39.3853ZM32.9486 293.027C34.9853 292.06 35.922 290.745 36.0939 288.979H33.3439V288.223H37.065C37.065 290.534 36.167 292.498 33.447 293.791L32.9486 293.027ZM47.3723 291.6V292.373H40.2739V291.6H43.3505V290.956H41.1762V288.893H45.5419V288.317H41.1505V287.57H46.4958V289.589H42.1216V290.208H46.6505V290.956H44.2958V291.6H47.3723ZM41.0645 293.62V292.863H46.5387V295.115H45.5762V293.62H41.0645Z" fill="#111111"/>
<rect x="16.275" y="305.277" width="175.45" height="143.55" rx="6.325" fill="white"/>
<rect x="16.275" y="305.277" width="175.45" height="143.55" rx="6.325" stroke="#E5E5EC" stroke-width="0.55"/>
<path d="M28.4328 316.406V320.713H25.3485V316.406H28.4328ZM25.9228 320.229H27.8425V316.879H25.9228V320.229ZM29.6558 322.415V315.73H30.2461V318.4H31.3628V318.905H30.2461V322.415H29.6558ZM36.9477 319.341V319.825H32.3266V316.31H36.8732V316.799H32.9222V317.794H36.7296V318.272H32.9222V319.341H36.9477ZM31.5343 321.543V321.048H37.6549V321.543H31.5343ZM43.7237 315.73V322.415H43.1547V315.73H43.7237ZM38.0816 318.612C38.0816 317.193 38.6453 316.294 39.5121 316.294C40.3257 316.294 40.8761 317.076 40.9505 318.336H41.8146V315.874H42.3836V322.074H41.8146V318.825H40.9532C40.8947 320.128 40.339 320.942 39.5121 320.936C38.6453 320.942 38.0816 320.038 38.0816 318.612ZM38.6347 318.612C38.6294 319.697 38.975 320.383 39.5121 320.378C40.0598 320.383 40.4055 319.697 40.4055 318.612C40.4055 317.528 40.0598 316.847 39.5121 316.847C38.975 316.847 38.6294 317.528 38.6347 318.612ZM46.8093 317.528C46.8093 318.735 47.5856 319.953 48.5588 320.399L48.2025 320.878C47.4421 320.487 46.8146 319.687 46.5168 318.737C46.2216 319.737 45.5942 320.593 44.8311 321L44.4535 320.527C45.432 320.043 46.2084 318.756 46.2137 317.528V316.31H46.8093V317.528ZM47.8302 318.496V318.012H49.4149V315.73H49.9999V322.425H49.4149V318.496H47.8302ZM54.9265 316.996C54.9265 317.873 55.5806 318.655 56.5643 318.979L56.2825 319.442C55.5141 319.187 54.9318 318.655 54.6446 317.985C54.3575 318.751 53.7406 319.349 52.9377 319.639L52.6346 319.166C53.6396 318.825 54.3362 317.964 54.3415 317.001V316.714H52.8154V316.225H56.4261V316.714H54.9265V316.996ZM53.5279 321.165C53.5279 320.394 54.3681 319.947 55.7454 319.947C57.1174 319.947 57.9469 320.394 57.9469 321.165C57.9469 321.947 57.1174 322.399 55.7454 322.399C54.3681 322.399 53.5279 321.947 53.5279 321.165ZM54.1182 321.165C54.1129 321.644 54.735 321.925 55.7454 321.925C56.7558 321.925 57.3726 321.644 57.3726 321.165C57.3726 320.697 56.7558 320.421 55.7454 320.421C54.735 320.421 54.1129 320.697 54.1182 321.165ZM57.2982 319.766V315.73H57.8884V317.437H58.8935V317.932H57.8884V319.766H57.2982ZM62.1651 315.847C63.6541 315.847 64.5262 316.257 64.5262 317.001C64.5262 317.756 63.6541 318.166 62.1651 318.171C60.6762 318.166 59.7988 317.756 59.7988 317.001C59.7988 316.257 60.6762 315.847 62.1651 315.847ZM59.1234 319.102V318.623H65.2175V319.102H59.1234ZM59.8626 320.133V319.681H64.4305V321.176H60.4582V321.872H64.6325V322.34H59.8785V320.74H63.8508V320.133H59.8626ZM60.4156 317.001C60.4103 317.464 61.0591 317.719 62.1651 317.719C63.2765 317.719 63.9253 317.464 63.9253 317.001C63.9253 316.56 63.2765 316.294 62.1651 316.294C61.0591 316.294 60.4103 316.56 60.4156 317.001ZM73.4464 321.064V321.558H67.3257V321.064H70.075V319.623H68.0489V316.204H68.6392V317.411H72.1116V316.204H72.6966V319.623H70.6599V321.064H73.4464ZM68.6392 319.139H72.1116V317.895H68.6392V319.139ZM79.1482 316.406V317.07C79.1429 317.895 79.1429 318.809 78.8983 320.155L78.3027 320.085C78.5527 318.809 78.5527 317.873 78.558 317.07V316.895H74.4368V316.406H79.1482ZM73.788 321.468V320.974H76.1757V318.586H76.7606V320.974H79.8821V321.468H73.788ZM84.2503 320.213C84.2503 320.806 84.5721 321.436 85.2049 321.798C85.843 321.404 86.1807 320.732 86.1807 320.213V319.846H86.7603V320.213C86.755 320.904 87.2601 321.59 88.1216 321.883L87.8238 322.319C87.1565 322.085 86.6885 321.617 86.4572 321.056C86.2498 321.601 85.843 322.114 85.2235 322.377C84.5721 322.127 84.1599 321.638 83.9605 321.077C83.7186 321.617 83.2586 322.08 82.6178 322.319L82.32 321.883C83.1655 321.569 83.676 320.857 83.6813 320.213V319.846H84.2503V320.213ZM82.1445 317.687C82.1445 316.757 82.8837 316.124 83.8994 316.124C84.915 316.124 85.6489 316.757 85.6489 317.687C85.6489 318.607 84.915 319.24 83.8994 319.24C82.8837 319.24 82.1445 318.607 82.1445 317.687ZM82.7242 317.687C82.7188 318.309 83.2134 318.745 83.8994 318.751C84.58 318.745 85.0746 318.309 85.0746 317.687C85.0746 317.065 84.58 316.624 83.8994 316.629C83.2134 316.624 82.7188 317.065 82.7242 317.687ZM86.9198 319.554V315.736H87.5101V319.554H86.9198ZM90.7552 320.208C90.7499 320.809 91.0689 321.439 91.707 321.806C92.3478 321.404 92.6749 320.726 92.6802 320.208V319.804H93.2545V320.208C93.2545 320.899 93.7543 321.596 94.6264 321.883L94.318 322.33C93.6533 322.088 93.188 321.62 92.9593 321.056C92.7493 321.601 92.3425 322.117 91.7177 322.383C91.0769 322.135 90.6621 321.644 90.46 321.08C90.2207 321.617 89.7608 322.085 89.1226 322.33L88.8302 321.883C89.6757 321.58 90.1809 320.857 90.1862 320.208V319.804H90.7552V320.208ZM88.5643 317.677C88.5643 316.757 89.2928 316.108 90.2925 316.113C91.1726 316.108 91.8612 316.634 91.9915 317.411H93.4034V315.73H93.9936V319.548H93.4034V317.9H91.9995C91.8852 318.7 91.1886 319.24 90.2925 319.24C89.2928 319.24 88.5643 318.597 88.5643 317.677ZM89.1333 317.677C89.128 318.293 89.6225 318.745 90.2925 318.751C90.9519 318.745 91.4465 318.293 91.4465 317.677C91.4465 317.054 90.9519 316.608 90.2925 316.613C89.6225 316.608 89.128 317.054 89.1333 317.677ZM100.318 317.756V318.235H95.7445V315.975H96.3294V317.756H100.318ZM94.9043 319.623V319.144H101.025V319.623H94.9043ZM95.7019 322.25V320.304H96.2869V321.761H100.36V322.25H95.7019ZM107.099 315.73V322.415H106.525V315.73H107.099ZM101.638 320.803V316.555H104.158V317.044H102.212V320.304C103.177 320.301 103.786 320.264 104.504 320.107L104.562 320.607C103.791 320.766 103.137 320.798 102.063 320.803H101.638ZM103.706 318.777V318.283H105.169V315.89H105.732V322.064H105.169V318.777H103.706ZM114.807 315.73V317.32H115.812V317.815H114.807V319.346H114.211V315.73H114.807ZM109.595 318.948C111.247 318.551 112.23 317.706 112.334 316.624H109.888V316.14H112.983C112.983 317.81 111.792 318.948 109.819 319.431L109.595 318.948ZM110.558 322.324V319.655H111.148V320.5H114.217V319.655H114.807V322.324H110.558ZM111.148 321.84H114.217V320.974H111.148V321.84ZM118.302 317.783C118.296 318.852 119.073 320.032 120.041 320.495L119.7 320.963C118.953 320.593 118.318 319.806 118.017 318.902C117.706 319.881 117.036 320.745 116.286 321.128L115.93 320.66C116.893 320.192 117.717 318.921 117.722 317.783V316.911H116.169V316.416H119.807V316.911H118.302V317.783ZM120.626 322.415V315.73H121.216V318.432H122.333V318.937H121.216V322.415H120.626ZM128.029 315.73V322.415H127.439V315.73H128.029ZM122.589 320.676C124.397 319.82 125.32 318.533 125.45 316.937H122.898V316.459H126.051C126.046 318.379 125.152 320.08 122.908 321.16L122.589 320.676ZM136.242 315.73V319.134H135.657V317.714H134.256C134.134 318.482 133.45 319.001 132.546 319.001C131.541 319.001 130.807 318.373 130.813 317.475C130.807 316.581 131.541 315.964 132.546 315.964C133.442 315.964 134.123 316.467 134.253 317.219H135.657V315.73H136.242ZM131.376 317.475C131.376 318.081 131.866 318.511 132.546 318.511C133.211 318.511 133.706 318.081 133.706 317.475C133.706 316.879 133.211 316.448 132.546 316.454C131.866 316.448 131.376 316.879 131.376 317.475ZM131.908 319.974V319.506H136.242V321.101H132.509V321.846H136.497V322.324H131.924V320.654H135.657V319.974H131.908ZM142.486 316.007V316.432C142.486 316.868 142.486 317.44 142.345 318.155H143.289V318.623H140.503V319.495H142.508V321.101H138.498V321.856H142.678V322.335H137.908V320.676H141.923V319.969H137.897V319.495H139.918V318.623H137.169V318.155H141.752C141.896 317.44 141.901 316.919 141.901 316.485H137.945V316.007H142.486ZM149.358 315.73V322.415H148.789V315.73H149.358ZM143.716 318.612C143.716 317.193 144.28 316.294 145.146 316.294C145.96 316.294 146.51 317.076 146.585 318.336H147.449V315.874H148.018V322.074H147.449V318.825H146.588C146.529 320.128 145.973 320.942 145.146 320.936C144.28 320.942 143.716 320.038 143.716 318.612ZM144.269 318.612C144.264 319.697 144.609 320.383 145.146 320.378C145.694 320.383 146.04 319.697 146.04 318.612C146.04 317.528 145.694 316.847 145.146 316.847C144.609 316.847 144.264 317.528 144.269 318.612ZM153.673 315.964C154.263 315.964 154.758 316.18 155.066 316.544H156.784V315.73H157.369V319.16H156.784V318.394H155.085C154.782 318.775 154.277 319.001 153.673 319.001C152.668 319.001 151.934 318.384 151.94 317.48C151.934 316.581 152.668 315.964 153.673 315.964ZM152.503 317.48C152.503 318.086 152.992 318.517 153.673 318.522C154.338 318.517 154.832 318.086 154.832 317.48C154.832 316.879 154.338 316.448 153.673 316.454C152.992 316.448 152.503 316.879 152.503 317.48ZM153.035 319.974V319.506H157.369V321.101H153.636V321.846H157.624V322.324H153.051V320.654H156.784V319.974H153.035ZM155.33 317.017C155.375 317.161 155.401 317.315 155.401 317.48C155.401 317.639 155.377 317.788 155.335 317.927H156.784V317.017H155.33ZM163.805 315.73V322.425H163.214V315.73H163.805ZM158.545 318.575C158.545 317.155 159.253 316.251 160.252 316.246C161.242 316.251 161.959 317.155 161.959 318.575C161.959 320 161.242 320.904 160.252 320.904C159.253 320.904 158.545 320 158.545 318.575ZM159.114 318.575C159.114 319.665 159.582 320.378 160.252 320.378C160.922 320.378 161.385 319.665 161.385 318.575C161.385 317.49 160.922 316.778 160.252 316.773C159.582 316.778 159.114 317.49 159.114 318.575ZM171.714 315.736V317.756H172.714V318.251H171.714V320.213H171.124V315.736H171.714ZM166.466 319.532C167 319.532 167.625 319.532 168.279 319.511V319.019C167.5 318.95 166.998 318.591 167.003 318.038C166.998 317.427 167.625 317.049 168.566 317.054C169.513 317.049 170.13 317.427 170.135 318.038C170.13 318.586 169.643 318.945 168.87 319.019V319.49C169.494 319.458 170.124 319.407 170.709 319.32L170.757 319.75C169.311 320.006 167.71 320.016 166.535 320.016L166.466 319.532ZM166.636 316.794V316.342H168.279V315.677H168.87V316.342H170.507V316.794H166.636ZM167.29 321.021V320.548H171.714V322.415H171.124V321.021H167.29ZM167.567 318.038C167.561 318.384 167.95 318.623 168.566 318.618C169.183 318.623 169.571 318.384 169.571 318.038C169.571 317.682 169.183 317.464 168.566 317.469C167.95 317.464 167.561 317.682 167.567 318.038ZM177.742 315.81C179.231 315.81 180.103 316.225 180.103 316.969C180.103 317.671 179.34 318.073 178.024 318.129V318.634H180.794V319.118H174.7V318.634H177.444V318.126C176.136 318.07 175.375 317.669 175.375 316.969C175.375 316.225 176.253 315.81 177.742 315.81ZM175.439 320.144V319.681H180.007V321.181H176.035V321.872H180.209V322.34H175.455V320.745H179.428V320.144H175.439ZM175.992 316.969C175.987 317.427 176.636 317.677 177.742 317.682C178.853 317.677 179.502 317.427 179.502 316.969C179.502 316.528 178.853 316.267 177.742 316.262C176.636 316.267 175.987 316.528 175.992 316.969ZM30.2993 326.736V328.384H31.3096V328.879H30.2993V330.655H29.709V326.736H30.2993ZM25.3432 332.888C26.1834 332.58 26.7045 331.857 26.7045 331.208V330.894H27.2682V331.208C27.2629 331.809 27.5819 332.436 28.2174 332.803C28.8608 332.402 29.1879 331.724 29.1932 331.208V330.894H29.7675V331.208C29.7675 331.904 30.2674 332.596 31.1288 332.888L30.831 333.335C30.1663 333.09 29.701 332.622 29.4724 332.059C29.265 332.606 28.8582 333.127 28.2307 333.393C27.5846 333.138 27.1751 332.644 26.9757 332.08C26.7364 332.622 26.2738 333.093 25.641 333.335L25.3432 332.888ZM25.3538 327.565V327.071H28.3849V328.884H25.9547V329.804C27.2895 329.807 28.0924 329.764 29.0443 329.586L29.1028 330.08C28.1084 330.256 27.2841 330.293 25.8909 330.293H25.3698V328.421H27.8053V327.565H25.3538ZM36.7084 326.73V329.373H37.8251V329.868H36.7084V333.425H36.1181V326.73H36.7084ZM31.8267 331.75V327.384H34.9482V327.868H32.417V331.25C33.6268 331.248 34.4829 331.2 35.4747 331.016L35.5491 331.527C34.5015 331.713 33.6241 331.75 32.3532 331.75H31.8267ZM38.7038 332.846C38.4379 332.846 38.2146 332.628 38.2199 332.362C38.2146 332.096 38.4379 331.878 38.7038 331.878C38.9697 331.878 39.1877 332.096 39.1877 332.362C39.1877 332.628 38.9697 332.846 38.7038 332.846ZM44.8949 327.368V327.863H42.4222V331.272C43.6267 331.269 44.4217 331.232 45.3523 331.054L45.4214 331.543C44.4376 331.729 43.624 331.771 42.3425 331.771H41.8266V327.368H44.8949ZM44.4961 329.655V329.16H46.4477V326.73H47.038V333.425H46.4477V329.655H44.4961ZM54.0639 330.128V330.618H51.3519V331.984H50.7563V330.618H47.9433V330.128H54.0639ZM48.6399 328.246C48.6346 327.416 49.5705 326.906 50.9956 326.9C52.4261 326.906 53.3514 327.416 53.3514 328.246C53.3514 329.07 52.4261 329.581 50.9956 329.581C49.5705 329.581 48.6346 329.07 48.6399 328.246ZM48.7356 333.266V331.314H49.3259V332.766H53.3833V333.266H48.7356ZM49.2674 328.246C49.2621 328.767 49.9587 329.097 50.9956 329.097C52.0379 329.097 52.7292 328.767 52.7292 328.246C52.7292 327.714 52.0379 327.384 50.9956 327.384C49.9587 327.384 49.2621 327.714 49.2674 328.246ZM61.6972 326.736V331.261H61.107V329.113H59.6393V328.618H61.107V326.736H61.6972ZM56.2679 330.352C57.8632 329.86 58.8496 328.937 58.9773 327.746H56.5976V327.262H59.6074C59.6021 328.974 58.4535 330.208 56.5285 330.825L56.2679 330.352ZM56.9698 332.92C58.1504 332.718 59.2298 331.968 59.2352 330.984V330.676H59.8201V330.984C59.8201 331.958 60.889 332.691 62.0695 332.904L61.8196 333.377C60.8331 333.189 59.9238 332.665 59.5276 331.88C59.1235 332.67 58.2062 333.194 57.2091 333.393L56.9698 332.92ZM68.016 329.862V330.341H65.9527V332.075H68.7392V332.569H62.6185V332.075H65.3677V330.341H63.4002V327.273H67.9521V327.757H63.9905V329.862H68.016ZM72.6076 327.246C73.5966 327.251 74.2933 328.155 74.2986 329.575C74.2933 331 73.5966 331.904 72.6076 331.904C71.6185 331.904 70.9219 331 70.9272 329.575C70.9219 328.155 71.6185 327.251 72.6076 327.246ZM71.4855 329.575C71.4855 330.665 71.9482 331.378 72.6076 331.378C73.2776 331.378 73.7296 330.665 73.7296 329.575C73.7296 328.49 73.2776 327.778 72.6076 327.773C71.9482 327.778 71.4855 328.49 71.4855 329.575ZM75.4047 333.415V326.73H75.9949V329.4H77.1116V329.905H75.9949V333.415H75.4047ZM82.7922 326.73V333.415H82.2073V326.73H82.7922ZM77.7191 331.692V327.39H78.2988V331.176C79.3198 331.173 80.37 331.093 81.4947 330.857L81.5745 331.362C80.3886 331.607 79.3304 331.692 78.2616 331.692H77.7191ZM86.0479 331.208C86.0426 331.809 86.3617 332.439 86.9998 332.806C87.6406 332.404 87.9676 331.726 87.9729 331.208V330.804H88.5472V331.208C88.5472 331.899 89.0471 332.596 89.9192 332.883L89.6108 333.33C88.9461 333.088 88.4808 332.62 88.2521 332.056C88.0421 332.601 87.6353 333.117 87.0104 333.383C86.3697 333.135 85.9549 332.644 85.7528 332.08C85.5135 332.617 85.0535 333.085 84.4154 333.33L84.1229 332.883C84.9685 332.58 85.4736 331.857 85.4789 331.208V330.804H86.0479V331.208ZM83.8571 328.677C83.8571 327.757 84.5856 327.108 85.5853 327.113C86.4654 327.108 87.154 327.634 87.2843 328.411H88.6961V326.73H89.2864V330.548H88.6961V328.9H87.2923C87.1779 329.7 86.4813 330.24 85.5853 330.24C84.5856 330.24 83.8571 329.597 83.8571 328.677ZM84.426 328.677C84.4207 329.293 84.9153 329.745 85.5853 329.751C86.2447 329.745 86.7392 329.293 86.7392 328.677C86.7392 328.054 86.2447 327.608 85.5853 327.613C84.9153 327.608 84.4207 328.054 84.426 328.677ZM95.6104 328.756V329.235H91.0372V326.975H91.6222V328.756H95.6104ZM90.197 330.623V330.144H96.3177V330.623H90.197ZM90.9947 333.25V331.304H91.5796V332.761H95.653V333.25H90.9947ZM102.392 326.73V333.415H101.817V326.73H102.392ZM96.9305 331.803V327.555H99.4511V328.044H97.5048V331.304C98.47 331.301 99.0789 331.264 99.7968 331.107L99.8552 331.607C99.0842 331.766 98.4301 331.798 97.3559 331.803H96.9305ZM98.9991 329.777V329.283H100.461V326.89H101.025V333.064H100.461V329.777H98.9991ZM110.1 326.73V328.32H111.105V328.815H110.1V330.346H109.504V326.73H110.1ZM104.888 329.948C106.539 329.551 107.523 328.706 107.627 327.624H105.181V327.14H108.276C108.276 328.81 107.084 329.948 105.112 330.431L104.888 329.948ZM105.851 333.324V330.655H106.441V331.5H109.509V330.655H110.1V333.324H105.851ZM106.441 332.84H109.509V331.974H106.441V332.84ZM113.595 328.783C113.589 329.852 114.366 331.032 115.333 331.495L114.993 331.963C114.246 331.593 113.611 330.806 113.31 329.902C112.999 330.881 112.329 331.745 111.579 332.128L111.223 331.66C112.185 331.192 113.01 329.921 113.015 328.783V327.911H111.462V327.416H115.099V327.911H113.595V328.783ZM115.918 333.415V326.73H116.509V329.432H117.625V329.937H116.509V333.415H115.918ZM123.322 326.73V333.415H122.732V326.73H123.322ZM117.882 331.676C119.69 330.82 120.613 329.533 120.743 327.937H118.19V327.459H121.344C121.338 329.379 120.445 331.08 118.201 332.16L117.882 331.676ZM125.914 331.346C126.321 331.346 126.834 331.341 127.371 331.322V330.195C126.627 330.086 126.121 329.543 126.127 328.783C126.121 327.943 126.754 327.368 127.648 327.368C128.552 327.368 129.184 327.943 129.184 328.783C129.184 329.538 128.685 330.08 127.94 330.192V331.301C128.451 331.274 128.956 331.234 129.392 331.176L129.434 331.612C128.328 331.798 126.903 331.841 125.999 331.841L125.914 331.346ZM126.659 328.783C126.653 329.341 127.079 329.724 127.648 329.724C128.222 329.724 128.642 329.341 128.642 328.783C128.642 328.241 128.222 327.847 127.648 327.847C127.079 327.847 126.653 328.241 126.659 328.783ZM129.706 333.058V326.879H130.259V329.517H131.093V326.73H131.657V333.415H131.093V330.011H130.259V333.058H129.706ZM136.041 326.964C136.632 326.964 137.126 327.18 137.435 327.544H139.152V326.73H139.737V330.16H139.152V329.394H137.453C137.15 329.775 136.645 330.001 136.041 330.001C135.036 330.001 134.302 329.384 134.308 328.48C134.302 327.581 135.036 326.964 136.041 326.964ZM134.871 328.48C134.871 329.086 135.361 329.517 136.041 329.522C136.706 329.517 137.201 329.086 137.201 328.48C137.201 327.879 136.706 327.448 136.041 327.454C135.361 327.448 134.871 327.879 134.871 328.48ZM135.403 330.974V330.506H139.737V332.101H136.004V332.846H139.992V333.324H135.419V331.654H139.152V330.974H135.403ZM137.698 328.017C137.743 328.161 137.77 328.315 137.77 328.48C137.77 328.639 137.746 328.788 137.703 328.927H139.152V328.017H137.698ZM146.173 326.73V333.425H145.583V326.73H146.173ZM140.914 329.575C140.914 328.155 141.621 327.251 142.621 327.246C143.61 327.251 144.328 328.155 144.328 329.575C144.328 331 143.61 331.904 142.621 331.904C141.621 331.904 140.914 331 140.914 329.575ZM141.483 329.575C141.483 330.665 141.951 331.378 142.621 331.378C143.291 331.378 143.753 330.665 143.753 329.575C143.753 328.49 143.291 327.778 142.621 327.773C141.951 327.778 141.483 328.49 141.483 329.575ZM151.908 327.166C153.333 327.172 154.354 327.863 154.354 328.916C154.354 329.91 153.471 330.57 152.2 330.655V332.059H154.987V332.553H148.866V332.059H151.615V330.655C150.355 330.567 149.467 329.91 149.467 328.916C149.467 327.863 150.493 327.172 151.908 327.166ZM150.036 328.916C150.036 329.687 150.828 330.187 151.908 330.192C152.993 330.187 153.785 329.687 153.785 328.916C153.785 328.161 152.993 327.65 151.908 327.656C150.828 327.65 150.036 328.161 150.036 328.916ZM161.438 329.836V330.298H155.318V329.836H161.438ZM156.057 331.277V330.836H160.673V332.255H156.658V332.894H160.891V333.324H156.067V331.846H160.088V331.277H156.057ZM156.094 327.358V326.932H160.651V328.315H156.7V328.9H160.768V329.331H156.115V327.911H160.061V327.358H156.094ZM167.082 326.73V329.49H168.097V329.985H167.082V333.415H166.491V326.73H167.082ZM161.764 331.564C162.777 330.532 163.184 329.285 163.256 327.953H161.977V327.459H163.817C163.811 329.049 163.455 330.618 162.243 331.899L161.764 331.564ZM163.684 332.016C164.731 330.833 165.045 329.347 165.101 327.953H164.029V327.459H165.657C165.651 329.044 165.417 330.889 164.168 332.346L163.684 332.016ZM168.96 332.846C168.694 332.846 168.471 332.628 168.476 332.362C168.471 332.096 168.694 331.878 168.96 331.878C169.226 331.878 169.444 332.096 169.444 332.362C169.444 332.628 169.226 332.846 168.96 332.846ZM170.723 332.846C170.457 332.846 170.233 332.628 170.239 332.362C170.233 332.096 170.457 331.878 170.723 331.878C170.989 331.878 171.207 332.096 171.207 332.362C171.207 332.628 170.989 332.846 170.723 332.846ZM172.485 332.846C172.219 332.846 171.996 332.628 172.001 332.362C171.996 332.096 172.219 331.878 172.485 331.878C172.751 331.878 172.969 332.096 172.969 332.362C172.969 332.628 172.751 332.846 172.485 332.846Z" fill="#111111"/>
<rect width="198" height="24.2" transform="translate(5 5)" fill="white"/>
<path opacity="0.35" d="M180.175 15.4515C180.175 14.7934 180.709 14.2599 181.367 14.2599H190.534C191.192 14.2599 191.725 14.7934 191.725 15.4515V18.7515C191.725 19.4097 191.192 19.9432 190.534 19.9432H181.367C180.709 19.9432 180.175 19.4097 180.175 18.7515V15.4515Z" stroke="#111111" stroke-width="0.55"/>
<path opacity="0.4" d="M192.551 16.0023V18.2023C192.993 18.0159 193.281 17.5825 193.281 17.1023C193.281 16.622 192.993 16.1886 192.551 16.0023Z" fill="#111111"/>
<path d="M181 15.6898C181 15.3557 181.271 15.0848 181.605 15.0848H190.295C190.629 15.0848 190.9 15.3557 190.9 15.6898V18.5132C190.9 18.8473 190.629 19.1182 190.295 19.1182H181.605C181.271 19.1182 181 18.8473 181 18.5132V15.6898Z" fill="#111111"/>
<path fill-rule="evenodd" clip-rule="evenodd" d="M172.933 15.2352C174.151 15.2352 175.323 15.7035 176.207 16.5433C176.273 16.6081 176.38 16.6073 176.445 16.5414L177.081 15.8998C177.114 15.8664 177.133 15.8211 177.132 15.7741C177.132 15.727 177.113 15.682 177.079 15.649C174.761 13.4272 171.104 13.4272 168.785 15.649C168.752 15.682 168.733 15.727 168.732 15.774C168.732 15.8211 168.751 15.8664 168.784 15.8998L169.42 16.5414C169.485 16.6074 169.592 16.6082 169.658 16.5433C170.541 15.7035 171.714 15.2352 172.933 15.2352ZM172.933 17.3228C173.602 17.3228 174.248 17.5717 174.744 18.0211C174.811 18.0849 174.917 18.0835 174.983 18.018L175.618 17.3763C175.651 17.3427 175.67 17.297 175.669 17.2496C175.669 17.2021 175.649 17.1569 175.615 17.1239C174.104 15.7179 171.763 15.7179 170.251 17.1239C170.217 17.1569 170.198 17.2022 170.197 17.2496C170.197 17.2971 170.215 17.3427 170.249 17.3763L170.884 18.018C170.949 18.0835 171.055 18.0849 171.122 18.0211C171.618 17.572 172.263 17.3231 172.933 17.3228ZM174.205 18.7274C174.206 18.775 174.187 18.8209 174.153 18.8542L173.054 19.9628C173.022 19.9954 172.978 20.0137 172.933 20.0137C172.887 20.0137 172.843 19.9954 172.811 19.9628L171.712 18.8542C171.678 18.8208 171.659 18.775 171.66 18.7274C171.661 18.6798 171.682 18.6347 171.717 18.6028C172.419 18.0095 173.446 18.0095 174.148 18.6028C174.183 18.6348 174.204 18.6798 174.205 18.7274Z" fill="#111111"/>
<path fill-rule="evenodd" clip-rule="evenodd" d="M165.417 14.1674H164.867C164.563 14.1674 164.317 14.4137 164.317 14.7174V19.4841C164.317 19.7878 164.563 20.0341 164.867 20.0341H165.417C165.721 20.0341 165.967 19.7878 165.967 19.4841V14.7174C165.967 14.4137 165.721 14.1674 165.417 14.1674ZM162.301 15.4508H162.851C163.154 15.4508 163.401 15.697 163.401 16.0008V19.4841C163.401 19.7878 163.154 20.0341 162.851 20.0341H162.301C161.997 20.0341 161.751 19.7878 161.751 19.4841V16.0008C161.751 15.697 161.997 15.4508 162.301 15.4508ZM160.284 16.7341H159.734C159.43 16.7341 159.184 16.9803 159.184 17.2841V19.4841C159.184 19.7878 159.43 20.0341 159.734 20.0341H160.284C160.588 20.0341 160.834 19.7878 160.834 19.4841V17.2841C160.834 16.9803 160.588 16.7341 160.284 16.7341ZM157.717 17.8341H157.167C156.863 17.8341 156.617 18.0803 156.617 18.3841V19.4841C156.617 19.7878 156.863 20.0341 157.167 20.0341H157.717C158.021 20.0341 158.267 19.7878 158.267 19.4841V18.3841C158.267 18.0803 158.021 17.8341 157.717 17.8341Z" fill="#111111"/>
<path d="M23.9834 13.6422C22.7226 13.6422 21.8243 14.5042 21.8243 15.6845V15.6926C21.8243 16.7963 22.6058 17.61 23.7216 17.61C24.5192 17.61 25.0268 17.2032 25.2403 16.744H25.3208C25.3208 16.7883 25.3168 16.8326 25.3168 16.8769C25.2725 17.9887 24.8818 18.8911 23.9593 18.8911C23.4477 18.8911 23.0892 18.6252 22.9361 18.2183L22.924 18.178H21.9008L21.9089 18.2224C22.0942 19.1126 22.8918 19.7451 23.9593 19.7451C25.4216 19.7451 26.3038 18.5849 26.3038 16.6271V16.6191C26.3038 14.5244 25.2242 13.6422 23.9834 13.6422ZM23.9794 16.8124C23.3188 16.8124 22.8394 16.329 22.8394 15.6563V15.6483C22.8394 14.9997 23.351 14.4881 23.9915 14.4881C24.636 14.4881 25.1396 15.0078 25.1396 15.6724V15.6805C25.1396 16.3371 24.636 16.8124 23.9794 16.8124ZM27.8576 15.8336C28.2282 15.8336 28.4981 15.5516 28.4981 15.1971C28.4981 14.8386 28.2282 14.5606 27.8576 14.5606C27.491 14.5606 27.2171 14.8386 27.2171 15.1971C27.2171 15.5516 27.491 15.8336 27.8576 15.8336ZM27.8576 18.8226C28.2282 18.8226 28.4981 18.5446 28.4981 18.1861C28.4981 17.8276 28.2282 17.5496 27.8576 17.5496C27.491 17.5496 27.2171 17.8276 27.2171 18.1861C27.2171 18.5446 27.491 18.8226 27.8576 18.8226ZM32.2313 19.6H33.2263V18.4842H34.0078V17.6262H33.2263V13.7872H31.756C30.9664 14.9876 30.1406 16.325 29.3873 17.6342V18.4842H32.2313V19.6ZM30.3541 17.6503V17.5899C30.9181 16.603 31.5908 15.5274 32.187 14.617H32.2474V17.6503H30.3541ZM36.1417 19.6H37.181V13.7872H36.1458L34.6271 14.8547V15.8336L36.0732 14.8104H36.1417V19.6Z" fill="#111111"/>
<g filter="url(#filter0_d_1235_18391)">
<path d="M5 427.145H203V432.8C203 440.09 197.09 446 189.8 446H18.2C10.9098 446 5 440.09 5 432.8V427.145Z" fill="white"/>
<rect x="67.1504" y="438.695" width="73.7" height="2.75" rx="1.375" fill="#111111"/>
<rect x="5" y="385" width="198" height="42.1455" fill="white"/>
<rect x="16" y="391.373" width="176" height="29.4" rx="6.6" fill="#A30FFA"/>
<path d="M94.5996 402.078V404.341H95.6479V405.128H94.5996V407.328H93.6424V402.078H94.5996ZM88.3733 406.399C88.9567 406.399 89.6283 406.396 90.3302 406.377V405.897C89.4672 405.791 88.9203 405.378 88.9264 404.764C88.9203 404.053 89.6708 403.609 90.7982 403.612C91.9286 403.609 92.67 404.053 92.6761 404.764C92.67 405.372 92.1352 405.785 91.2844 405.894V406.344C91.9498 406.31 92.6183 406.256 93.2413 406.174L93.3112 406.842C91.6612 407.131 89.844 407.146 88.4766 407.149L88.3733 406.399ZM88.5739 403.393V402.691H90.3302V402.011H91.2844V402.691H93.0346V403.393H88.5739ZM89.3487 408.407V407.663H94.5996V409.832H93.6424V408.407H89.3487ZM89.841 404.764C89.8349 405.089 90.1935 405.289 90.7982 405.286C91.3998 405.289 91.7584 405.089 91.7584 404.764C91.7584 404.43 91.3998 404.256 90.7982 404.256C90.1935 404.256 89.8349 404.43 89.841 404.764ZM102.295 402.078V407.69H101.338V402.078H102.295ZM95.9685 404.527C95.9654 403.396 96.8801 402.588 98.0621 402.588C99.2441 402.588 100.153 403.396 100.153 404.527C100.153 405.675 99.2441 406.478 98.0621 406.475C96.8801 406.478 95.9654 405.675 95.9685 404.527ZM96.9013 404.527C96.8983 405.217 97.3966 405.642 98.0621 405.642C98.7093 405.642 99.2138 405.217 99.2138 404.527C99.2138 403.855 98.7093 403.421 98.0621 403.421C97.3966 403.421 96.8983 403.855 96.9013 404.527ZM97.1566 409.686V407.119H98.1198V408.912H102.514V409.686H97.1566ZM107.428 402.406C108.562 402.406 109.37 403.035 109.376 403.968C109.37 404.743 108.79 405.32 107.924 405.481V406.11C108.571 406.07 109.221 406.013 109.826 405.925L109.899 406.623C108.285 406.912 106.483 406.946 105.168 406.943L105.067 406.177C105.626 406.18 106.28 406.177 106.963 406.152V405.487C106.076 405.335 105.48 404.752 105.487 403.968C105.48 403.035 106.289 402.406 107.428 402.406ZM106.128 409.677V407.486H107.088V408.902H111.512V409.677H106.128ZM106.377 403.968C106.371 404.478 106.808 404.794 107.428 404.8C108.051 404.794 108.471 404.478 108.477 403.968C108.471 403.445 108.051 403.132 107.428 403.129C106.808 403.132 106.371 403.445 106.377 403.968ZM110.282 408.009V402.078H111.239V404.581H112.287V405.381H111.239V408.009H110.282ZM119.569 408.146V408.936H112.468V408.146H114.346V406.867H113.31V404.329H117.783V403.372H113.297V402.6H118.728V405.095H114.264V406.089H118.907V406.867H117.77V408.146H119.569ZM115.276 408.146H116.831V406.867H115.276V408.146Z" fill="white"/>
</g>
</g>
</g>
<defs>
<filter id="filter0_d_1235_18391" x="0.6" y="376.2" width="206.8" height="69.8" filterUnits="userSpaceOnUse" color-interpolation-filters="sRGB">
<feFlood flood-opacity="0" result="BackgroundImageFix"/>
<feColorMatrix in="SourceAlpha" type="matrix" values="0 0 0 0 0 0 0 0 0 0 0 0 0 0 0 0 0 0 127 0" result="hardAlpha"/>
<feOffset dy="-4.4"/>
<feGaussianBlur stdDeviation="2.2"/>
<feComposite in2="hardAlpha" operator="out"/>
<feColorMatrix type="matrix" values="0 0 0 0 0 0 0 0 0 0 0 0 0 0 0 0 0 0 0.04 0"/>
<feBlend mode="normal" in2="BackgroundImageFix" result="effect1_dropShadow_1235_18391"/>
<feBlend mode="normal" in="SourceGraphic" in2="effect1_dropShadow_1235_18391" result="shape"/>
</filter>
<radialGradient id="paint0_radial_1235_18391" cx="0" cy="0" r="1" gradientUnits="userSpaceOnUse" gradientTransform="translate(35.3188 249.614) rotate(131.878) scale(16.0663)">
<stop stop-color="#FFF478"/>
<stop offset="0.474827" stop-color="#FFB02E"/>
<stop offset="1" stop-color="#F70A8D"/>
</radialGradient>
<radialGradient id="paint1_radial_1235_18391" cx="0" cy="0" r="1" gradientUnits="userSpaceOnUse" gradientTransform="translate(31.4 251.058) rotate(101.31) scale(7.36171 9.42895)">
<stop offset="0.787821" stop-color="#F59639" stop-opacity="0"/>
<stop offset="0.972509" stop-color="#FF7DCE"/>
</radialGradient>
<radialGradient id="paint2_radial_1235_18391" cx="0" cy="0" r="1" gradientUnits="userSpaceOnUse" gradientTransform="translate(32.225 251.676) rotate(135) scale(16.9175)">
<stop offset="0.314853" stop-opacity="0"/>
<stop offset="1"/>
</radialGradient>
<radialGradient id="paint3_radial_1235_18391" cx="0" cy="0" r="1" gradientUnits="userSpaceOnUse" gradientTransform="translate(31.4 252.914) rotate(77.692) scale(11.6106)">
<stop offset="0.507903" stop-color="#7D6133" stop-opacity="0"/>
<stop offset="1" stop-color="#715B32"/>
</radialGradient>
<radialGradient id="paint4_radial_1235_18391" cx="0" cy="0" r="1" gradientUnits="userSpaceOnUse" gradientTransform="translate(31.6063 252.708) rotate(55.7131) scale(5.49183 3.98076)">
<stop stop-color="#FFB849"/>
<stop offset="1" stop-color="#FFB847" stop-opacity="0"/>
</radialGradient>
<radialGradient id="paint5_radial_1235_18391" cx="0" cy="0" r="1" gradientUnits="userSpaceOnUse" gradientTransform="translate(33.2563 253.326) rotate(9.86581) scale(4.81495)">
<stop stop-color="#FFA64B"/>
<stop offset="0.900412" stop-color="#FFAE46" stop-opacity="0"/>
</radialGradient>
<radialGradient id="paint6_radial_1235_18391" cx="0" cy="0" r="1" gradientUnits="userSpaceOnUse" gradientTransform="translate(32.0187 252.089) rotate(43.9708) scale(24.3593)">
<stop offset="0.185425" stop-opacity="0"/>
<stop offset="1" stop-opacity="0.4"/>
</radialGradient>
<radialGradient id="paint7_radial_1235_18391" cx="0" cy="0" r="1" gradientUnits="userSpaceOnUse" gradientTransform="translate(31.9672 250.697) rotate(122.164) scale(2.13091)">
<stop stop-color="#EFA031"/>
<stop offset="1" stop-color="#EFA031" stop-opacity="0"/>
</radialGradient>
<radialGradient id="paint8_radial_1235_18391" cx="0" cy="0" r="1" gradientUnits="userSpaceOnUse" gradientTransform="translate(33.1531 253.352) rotate(19.5731) scale(1.23131 0.708635)">
<stop offset="0.514687" stop-color="#DE8A44"/>
<stop offset="1" stop-color="#E18D48" stop-opacity="0"/>
</radialGradient>
<radialGradient id="paint9_radial_1235_18391" cx="0" cy="0" r="1" gradientUnits="userSpaceOnUse" gradientTransform="translate(28.0227 253.223) rotate(38.6598) scale(1.15556 0.665043)">
<stop offset="0.514687" stop-color="#DE8A44"/>
<stop offset="1" stop-color="#E18D48" stop-opacity="0"/>
</radialGradient>
<radialGradient id="paint10_radial_1235_18391" cx="0" cy="0" r="1" gradientUnits="userSpaceOnUse" gradientTransform="translate(28.9254 252.501) rotate(90) scale(1.36641 2.475)">
<stop offset="0.339623" stop-color="#4E3225"/>
<stop offset="0.55814" stop-color="#56424D"/>
<stop offset="0.867925" stop-color="#532A4D"/>
</radialGradient>
<radialGradient id="paint11_radial_1235_18391" cx="0" cy="0" r="1" gradientUnits="userSpaceOnUse" gradientTransform="translate(33.8766 252.501) rotate(90) scale(1.36641 2.475)">
<stop offset="0.339623" stop-color="#4E3225"/>
<stop offset="0.55814" stop-color="#56424D"/>
<stop offset="0.867925" stop-color="#532A4D"/>
</radialGradient>
<radialGradient id="paint12_radial_1235_18391" cx="0" cy="0" r="1" gradientUnits="userSpaceOnUse" gradientTransform="translate(31.4012 256.993) rotate(-90) scale(2.01667)">
<stop stop-color="#F70A8D"/>
<stop offset="1" stop-color="#89029C"/>
</radialGradient>
<linearGradient id="paint13_linear_1235_18391" x1="35.4841" y1="246.827" x2="35.64" y2="247.516" gradientUnits="userSpaceOnUse">
<stop stop-color="#3D98E4"/>
<stop offset="0.53125" stop-color="#3999FF"/>
<stop offset="1" stop-color="#3472EA"/>
</linearGradient>
<linearGradient id="paint14_linear_1235_18391" x1="36.1174" y1="248.919" x2="36.2766" y2="249.646" gradientUnits="userSpaceOnUse">
<stop stop-color="#3D98E4" stop-opacity="0"/>
<stop offset="0.0263313" stop-color="#3D98E4"/>
<stop offset="0.53125" stop-color="#3999FF"/>
<stop offset="1" stop-color="#3472EA"/>
</linearGradient>
<radialGradient id="paint15_radial_1235_18391" cx="0" cy="0" r="1" gradientUnits="userSpaceOnUse" gradientTransform="translate(35.911 248.843) rotate(116.667) scale(0.657595 0.160113)">
<stop stop-color="#7EC6FD"/>
<stop offset="1" stop-color="#5CB8FF" stop-opacity="0"/>
</radialGradient>
<linearGradient id="paint16_linear_1235_18391" x1="36.2961" y1="248.194" x2="35.6238" y2="247.827" gradientUnits="userSpaceOnUse">
<stop stop-color="#3D98E4" stop-opacity="0"/>
<stop offset="0.03125" stop-color="#3D98E4"/>
<stop offset="0.53125" stop-color="#3999FF"/>
<stop offset="0.987159" stop-color="#3472EA"/>
<stop offset="1" stop-color="#3472EA" stop-opacity="0"/>
</linearGradient>
<radialGradient id="paint17_radial_1235_18391" cx="0" cy="0" r="1" gradientUnits="userSpaceOnUse" gradientTransform="translate(34.0524 247.651) rotate(-1.59114) scale(0.935763 1.35301)">
<stop stop-color="#2F6FC8"/>
<stop offset="1" stop-color="#2F6FC8" stop-opacity="0"/>
</radialGradient>
<radialGradient id="paint18_radial_1235_18391" cx="0" cy="0" r="1" gradientUnits="userSpaceOnUse" gradientTransform="translate(36.2782 246.637) rotate(118.425) scale(0.969061 0.670221)">
<stop offset="0.364906" stop-color="#3999FF"/>
<stop offset="1" stop-color="#3999FF" stop-opacity="0"/>
</radialGradient>
<radialGradient id="paint19_radial_1235_18391" cx="0" cy="0" r="1" gradientUnits="userSpaceOnUse" gradientTransform="translate(35.4191 249.893) rotate(-63.7046) scale(0.630524 0.526126)">
<stop offset="0.364906" stop-color="#3999FF"/>
<stop offset="1" stop-color="#3999FF" stop-opacity="0"/>
</radialGradient>
<radialGradient id="paint20_radial_1235_18391" cx="0" cy="0" r="1" gradientUnits="userSpaceOnUse" gradientTransform="translate(36.7612 246.777) rotate(124.556) scale(0.469548 0.437131)">
<stop stop-color="#7EC6FD"/>
<stop offset="1" stop-color="#5CB8FF" stop-opacity="0"/>
</radialGradient>
<radialGradient id="paint21_radial_1235_18391" cx="0" cy="0" r="1" gradientUnits="userSpaceOnUse" gradientTransform="translate(37.0853 249.016) rotate(167.106) scale(0.276551 0.35606)">
<stop stop-color="#7EC6FD"/>
<stop offset="1" stop-color="#5CB8FF" stop-opacity="0"/>
</radialGradient>
<linearGradient id="paint22_linear_1235_18391" x1="33.9284" y1="248.568" x2="33.9247" y2="249.079" gradientUnits="userSpaceOnUse">
<stop stop-color="#48D4FF"/>
<stop offset="0.53125" stop-color="#48D4FF"/>
<stop offset="1" stop-color="#40AAFE"/>
</linearGradient>
<linearGradient id="paint23_linear_1235_18391" x1="34.0298" y1="250.147" x2="34.022" y2="250.686" gradientUnits="userSpaceOnUse">
<stop stop-color="#3D98E4" stop-opacity="0"/>
<stop offset="0.03125" stop-color="#53D7FF"/>
<stop offset="0.53125" stop-color="#51D6FF"/>
<stop offset="1" stop-color="#41A0FC"/>
</linearGradient>
<radialGradient id="paint24_radial_1235_18391" cx="0" cy="0" r="1" gradientUnits="userSpaceOnUse" gradientTransform="translate(33.8969 250.059) rotate(129.835) scale(0.475973 0.115891)">
<stop stop-color="white" stop-opacity="0.6"/>
<stop offset="1" stop-color="white" stop-opacity="0"/>
</radialGradient>
<linearGradient id="paint25_linear_1235_18391" x1="34.2752" y1="249.666" x2="33.8618" y2="249.296" gradientUnits="userSpaceOnUse">
<stop stop-color="#3D98E4" stop-opacity="0"/>
<stop offset="0.03125" stop-color="#49C5FF"/>
<stop offset="0.53125" stop-color="#48D4FF"/>
<stop offset="0.987159" stop-color="#3EADFA"/>
<stop offset="1" stop-color="#3472EA" stop-opacity="0"/>
</linearGradient>
<radialGradient id="paint26_radial_1235_18391" cx="0" cy="0" r="1" gradientUnits="userSpaceOnUse" gradientTransform="translate(32.7835 248.913) rotate(11.577) scale(0.677313 0.979317)">
<stop stop-color="#3EAAE1"/>
<stop offset="1" stop-color="#3EAAE1" stop-opacity="0"/>
</radialGradient>
<radialGradient id="paint27_radial_1235_18391" cx="0" cy="0" r="1" gradientUnits="userSpaceOnUse" gradientTransform="translate(34.5193 248.566) rotate(131.593) scale(0.701414 0.485111)">
<stop offset="0.364906" stop-color="#48D4FF"/>
<stop offset="1" stop-color="#48D4FF" stop-opacity="0"/>
</radialGradient>
<radialGradient id="paint28_radial_1235_18391" cx="0" cy="0" r="1" gradientUnits="userSpaceOnUse" gradientTransform="translate(33.3572 250.679) rotate(-90) scale(0.318156 1.85779)">
<stop offset="0.326234" stop-color="#41A0FC"/>
<stop offset="1" stop-color="#41A0FC" stop-opacity="0"/>
</radialGradient>
<radialGradient id="paint29_radial_1235_18391" cx="0" cy="0" r="1" gradientUnits="userSpaceOnUse" gradientTransform="translate(34.8367 248.744) rotate(137.724) scale(0.339862 0.316399)">
<stop stop-color="#CBE8FF"/>
<stop offset="1" stop-color="#CBE8FF" stop-opacity="0"/>
</radialGradient>
<radialGradient id="paint30_radial_1235_18391" cx="0" cy="0" r="1" gradientUnits="userSpaceOnUse" gradientTransform="translate(34.6959 250.375) rotate(-179.726) scale(0.20017 0.257719)">
<stop stop-color="#CBE8FF" stop-opacity="0.6"/>
<stop offset="1" stop-color="#CBE8FF" stop-opacity="0"/>
</radialGradient>
<linearGradient id="paint31_linear_1235_18391" x1="32.6037" y1="249.44" x2="32.5101" y2="249.802" gradientUnits="userSpaceOnUse">
<stop stop-color="#94CAF9"/>
<stop offset="0.53125" stop-color="#92C3FA"/>
<stop offset="1" stop-color="#8189FF"/>
</linearGradient>
<linearGradient id="paint32_linear_1235_18391" x1="32.3946" y1="250.579" x2="32.2931" y2="250.96" gradientUnits="userSpaceOnUse">
<stop stop-color="#3D98E4" stop-opacity="0"/>
<stop offset="0.0263313" stop-color="#96CDFB"/>
<stop offset="0.53125" stop-color="#96CBFB"/>
<stop offset="1" stop-color="#8596FD"/>
</linearGradient>
<radialGradient id="paint33_radial_1235_18391" cx="0" cy="0" r="1" gradientUnits="userSpaceOnUse" gradientTransform="translate(32.3159 250.493) rotate(143.918) scale(0.348291 0.0848027)">
<stop stop-color="#7EC6FD"/>
<stop offset="1" stop-color="#5CB8FF" stop-opacity="0"/>
</radialGradient>
<linearGradient id="paint34_linear_1235_18391" x1="32.6544" y1="250.281" x2="32.4268" y2="249.945" gradientUnits="userSpaceOnUse">
<stop stop-color="#3D98E4" stop-opacity="0"/>
<stop offset="0.03125" stop-color="#89A6FC"/>
<stop offset="0.53125" stop-color="#92C6F8"/>
<stop offset="0.983855" stop-color="#C6DBF0"/>
<stop offset="0.989204" stop-color="#C6DBF0" stop-opacity="0"/>
</linearGradient>
<radialGradient id="paint35_radial_1235_18391" cx="0" cy="0" r="1" gradientUnits="userSpaceOnUse" gradientTransform="translate(31.7297 249.481) rotate(25.6604) scale(0.495621 0.716612)">
<stop stop-color="#79A1D3"/>
<stop offset="1" stop-color="#79A1D3" stop-opacity="0"/>
</radialGradient>
<radialGradient id="paint36_radial_1235_18391" cx="0" cy="0" r="1" gradientUnits="userSpaceOnUse" gradientTransform="translate(33.0236 249.544) rotate(145.676) scale(0.513257 0.354979)">
<stop offset="0.364906" stop-color="#94CAF9"/>
<stop offset="1" stop-color="#94CAF9" stop-opacity="0"/>
</radialGradient>
<radialGradient id="paint37_radial_1235_18391" cx="0" cy="0" r="1" gradientUnits="userSpaceOnUse" gradientTransform="translate(31.7508 250.816) rotate(-73.1416) scale(0.223989 0.962174)">
<stop offset="0.226355" stop-color="#849BF6"/>
<stop offset="1" stop-color="#849BF6" stop-opacity="0"/>
</radialGradient>
<radialGradient id="paint38_radial_1235_18391" cx="0" cy="0" r="1" gradientUnits="userSpaceOnUse" gradientTransform="translate(33.2171 249.727) rotate(151.808) scale(0.248693 0.231524)">
<stop stop-color="#D0EBFF"/>
<stop offset="1" stop-color="#D0EBFF" stop-opacity="0"/>
</radialGradient>
<radialGradient id="paint39_radial_1235_18391" cx="0" cy="0" r="1" gradientUnits="userSpaceOnUse" gradientTransform="translate(32.8267 250.86) rotate(-165.642) scale(0.146473 0.188585)">
<stop stop-color="#D0EBFF"/>
<stop offset="1" stop-color="#D0EBFF" stop-opacity="0"/>
</radialGradient>
<clipPath id="clip0_1235_18391">
<rect x="5" y="5" width="198" height="440" rx="20" fill="white"/>
</clipPath>
<clipPath id="clip1_1235_18391">
<rect width="198" height="535.7" fill="white" transform="translate(5 5)"/>
</clipPath>
</defs>
</svg>
