<svg width="263" height="502" viewBox="0 0 263 502" fill="none" xmlns="http://www.w3.org/2000/svg">
<g filter="url(#filter0_d_1235_19029)">
<path d="M215.646 167.863C216.507 168.622 217 169.715 217 170.863L217 191.584C217 192.787 216.459 193.927 215.526 194.686C212.912 196.814 209 194.955 209 191.584L209 170.862C209 167.418 213.063 165.584 215.646 167.863Z" fill="#333333"/>
<path d="M214.947 92.3132C216.214 93.0194 217 94.3566 217 95.8075L217 106.445C217 107.944 216.162 109.317 214.829 110.002C212.167 111.371 209 109.438 209 106.445L209 95.8075C209 92.7554 212.281 90.8278 214.947 92.3132Z" fill="#333333"/>
<path d="M214.947 118.313C216.214 119.019 217 120.357 217 121.807L217 132.445C217 133.944 216.162 135.317 214.829 136.002C212.167 137.371 209 135.438 209 132.445L209 121.807C209 118.755 212.281 116.828 214.947 118.313Z" fill="#333333"/>
<rect x="6" width="208" height="450" rx="20" fill="#333333"/>
<g clip-path="url(#clip0_1235_19029)">
<rect x="11" y="5" width="198" height="440" rx="20" fill="#333333"/>
<g clip-path="url(#clip1_1235_19029)">
<rect width="198" height="535.7" transform="translate(11 5)" fill="white"/>
<path d="M27.457 44.0375C27.4624 46.5565 25.749 48.3075 22.8594 49.0541L22.3867 48.1302C24.6479 47.5448 25.9746 46.4008 26.1733 44.9828H22.9453V44.0375H27.457ZM23.998 53.0287V49.3119H30.4111V53.0287H23.998ZM25.1797 52.0834H29.2402V50.2572H25.1797V52.0834ZM29.208 48.8929V43.4574H30.4111V48.8929H29.208ZM39.6859 43.4574V49.1293H38.4936V48.0551H36.184V47.0883H38.4936V46.0463H36.2753C35.663 47.5878 34.245 48.6674 32.1342 49.2582L31.6508 48.3129C33.9228 47.7006 35.1366 46.5458 35.3192 45.101H32.1664V44.1342H36.6244C36.6244 44.4725 36.5976 44.7948 36.5438 45.101H38.4936V43.4574H39.6859ZM33.1762 51.1703C33.1762 49.9779 34.4813 49.2421 36.474 49.2367C38.4398 49.2421 39.7504 49.9779 39.7504 51.1703C39.7504 52.3627 38.4398 53.1093 36.474 53.1039C34.4813 53.1093 33.1762 52.3627 33.1762 51.1703ZM34.3686 51.1703C34.3686 51.8094 35.1688 52.1586 36.474 52.1586C37.7577 52.1586 38.5526 51.8094 38.558 51.1703C38.5526 50.5204 37.7577 50.1713 36.474 50.1713C35.1688 50.1713 34.3686 50.5204 34.3686 51.1703ZM42.9773 44.1879C44.2664 44.1825 45.1043 45.5092 45.115 47.6469C45.1043 49.7899 44.2664 51.1219 42.9773 51.1166C41.7098 51.1219 40.8826 49.7899 40.8826 47.6469C40.8826 45.5092 41.7098 44.1825 42.9773 44.1879ZM41.9891 47.6469C41.9837 49.1669 42.3597 49.9833 42.9773 49.9779C43.6219 49.9833 44.0032 49.1669 44.0086 47.6469C44.0032 46.1322 43.6219 45.3104 42.9773 45.3158C42.3597 45.3104 41.9837 46.1322 41.9891 47.6469ZM45.8563 52.6849V43.6185H46.9842V47.1957H48.0154V43.4467H49.1648V53.1576H48.0154V48.184H46.9842V52.6849H45.8563ZM57.9562 43.5219V48.9467H57.1291V43.5219H57.9562ZM50.6838 48.2162V44.0912H51.5324V47.4965C53.1115 47.4857 54.5241 47.3783 56.0441 47.056L56.173 47.765C54.5563 48.0927 53.1062 48.2054 51.4572 48.2162H50.6838ZM51.758 52.9427V49.3871H57.9562V52.9427H51.758ZM52.5852 52.2552H57.1291V50.0638H52.5852V52.2552ZM62.44 44.2201C63.9386 44.2255 65.0021 45.1385 65.0074 46.4652C65.0021 47.7972 63.9386 48.705 62.44 48.7103C60.9308 48.705 59.8565 47.7972 59.8619 46.4652C59.8565 45.1385 60.9308 44.2255 62.44 44.2201ZM59.3678 50.2679C61.1295 50.2733 63.5626 50.2572 65.6734 49.9457L65.7379 50.5687C63.5519 50.9769 61.2047 50.9877 59.4859 50.9877L59.3678 50.2679ZM60.6891 46.4652C60.6837 47.3568 61.4195 47.9691 62.44 47.9691C63.4498 47.9691 64.1856 47.3568 64.1803 46.4652C64.1856 45.579 63.4498 44.9613 62.44 44.9613C61.4195 44.9613 60.6837 45.579 60.6891 46.4652ZM66.3072 53.0931V43.5219H67.1451V53.0931H66.3072ZM26.7373 59.1449C28.7676 59.1556 30.2285 60.1439 30.2285 61.6478C30.2285 63.0712 28.9609 64.0111 27.1455 64.1346V66.1381H31.1309V66.847H22.3867V66.1381H26.3184V64.1346C24.5137 64.0057 23.2461 63.0658 23.2461 61.6478C23.2461 60.1439 24.7124 59.1556 26.7373 59.1449ZM24.0625 61.6478C24.0571 62.7489 25.1904 63.4633 26.7373 63.474C28.2842 63.4633 29.4121 62.7489 29.4121 61.6478C29.4121 60.5682 28.2842 59.8378 26.7373 59.8431C25.1904 59.8378 24.0571 60.5682 24.0625 61.6478ZM39.3207 60.8207V61.5189H32.8002V58.683H33.6273V60.8207H39.3207ZM31.6078 63.1517V62.4642H40.352V63.1517H31.6078ZM32.7035 64.6771V64.0111H39.224V66.2455H33.5736V67.266H39.5678V67.9427H32.725V65.601H38.3969V64.6771H32.7035ZM43.9764 59.2201C45.4749 59.2255 46.5384 60.1385 46.5438 61.4652C46.5384 62.7972 45.4749 63.705 43.9764 63.7103C42.4671 63.705 41.3929 62.7972 41.3982 61.4652C41.3929 60.1385 42.4671 59.2255 43.9764 59.2201ZM40.9041 65.2679C42.6658 65.2733 45.0989 65.2572 47.2098 64.9457L47.2742 65.5687C45.0882 65.9769 42.741 65.9877 41.0223 65.9877L40.9041 65.2679ZM42.2254 61.4652C42.22 62.3568 42.9559 62.9691 43.9764 62.9691C44.9861 62.9691 45.722 62.3568 45.7166 61.4652C45.722 60.579 44.9861 59.9613 43.9764 59.9613C42.9559 59.9613 42.22 60.579 42.2254 61.4652ZM47.8436 68.0931V58.5219H48.6814V68.0931H47.8436ZM55.7584 60.0687C55.7584 61.3685 56.7467 62.5609 58.1324 63.0336L57.6705 63.6996C56.6178 63.3129 55.7853 62.5233 55.3663 61.5243C54.9581 62.6576 54.1041 63.5331 52.9869 63.9681L52.5357 63.2914C53.9645 62.7596 54.9259 61.4813 54.9312 60.0043V59.016H55.7584V60.0687ZM53.8033 66.3099C53.8087 65.2196 55.0064 64.5804 56.9723 64.5804C58.9327 64.5804 60.1197 65.2196 60.1197 66.3099C60.1197 67.4218 58.9327 68.0502 56.9723 68.0502C55.0064 68.0502 53.8087 67.4218 53.8033 66.3099ZM54.652 66.3099C54.6412 66.9867 55.5328 67.3788 56.9723 67.3842C58.4171 67.3788 59.2979 66.9867 59.3033 66.3099C59.2979 65.66 58.4171 65.2572 56.9723 65.2572C55.5328 65.2572 54.6412 65.66 54.652 66.3099ZM59.1959 64.3334V58.5219H60.0338V61.014H61.4732V61.723H60.0338V64.3334H59.1959ZM65.9678 59.6283V60.3158H62.9922V62.1527H65.8281V62.8295H62.9922V64.9886C64.4102 64.9833 65.291 64.9403 66.333 64.7523L66.4082 65.4506C65.2856 65.6654 64.3672 65.7137 62.7988 65.7084H62.1865V59.6283H65.9678ZM67.042 67.5883V58.726H67.8584V62.3676H69.1689V58.5219H69.9854V68.0717H69.1689V63.0658H67.8584V67.5883H67.042ZM79.2172 58.5219V68.0717H78.4008V58.5219H79.2172ZM71.1498 62.6469C71.1552 60.6166 71.9608 59.3329 73.2016 59.3275C74.3617 59.3329 75.1459 60.4501 75.2533 62.2494H76.4887V58.726H77.2943V67.5883H76.4887V62.9476H75.2587C75.1781 64.806 74.3778 65.9716 73.2016 65.9662C71.9608 65.9716 71.1552 64.6771 71.1498 62.6469ZM71.9447 62.6469C71.934 64.1937 72.4281 65.1713 73.2016 65.1605C73.9804 65.1713 74.4745 64.1937 74.4691 62.6469C74.4745 61.0946 73.9804 60.1224 73.2016 60.1224C72.4281 60.1224 71.934 61.0946 71.9447 62.6469ZM89.0076 66.1381V66.847H80.2635V66.1381H82.4334V63.5653C81.617 63.141 81.1229 62.4535 81.1229 61.5834C81.1229 60.1063 82.573 59.1342 84.6141 59.1234C86.6551 59.1342 88.1053 60.1063 88.1053 61.5834C88.1053 62.4374 87.6272 63.1141 86.8377 63.5385V66.1381H89.0076ZM81.9393 61.5834C81.9339 62.6522 83.0457 63.3666 84.6141 63.3666C86.1663 63.3666 87.2889 62.6522 87.2889 61.5834C87.2889 60.5145 86.1663 59.8109 84.6141 59.8217C83.0457 59.8109 81.9339 60.5145 81.9393 61.5834ZM83.2605 66.1381H85.9891V63.8661C85.5755 63.9735 85.1136 64.0326 84.6141 64.0326C84.1253 64.0326 83.6688 63.9789 83.2605 63.8715V66.1381Z" fill="#111111"/>
<path d="M28.4797 96.6594V99.2719H23.0914V96.6594H28.4797ZM22.2578 96.0406V95.2758H25.3086V94.5539H23.1516V91.8727H28.4367V94.5539H26.2711V95.2758H29.3391V96.0406H22.2578ZM24.0367 98.4984H27.5516V97.4156H24.0367V98.4984ZM24.0797 93.7977H27.4914V92.6375H24.0797V93.7977ZM34.2616 92.8352C34.2616 93.8105 34.8932 94.7344 36.092 95.1125L35.5764 95.8602C34.7385 95.5766 34.137 95.0094 33.7975 94.2875C33.4623 95.1125 32.835 95.7613 31.9412 96.075L31.4256 95.3273C32.676 94.8934 33.3034 93.8578 33.3077 92.7492V92.0102H34.2616V92.8352ZM32.4827 97.8797C32.4827 96.9602 33.4924 96.4145 35.1123 96.4187C36.7194 96.4145 37.712 96.9602 37.7162 97.8797C37.712 98.8207 36.7194 99.3578 35.1123 99.3578C33.4924 99.3578 32.4827 98.8207 32.4827 97.8797ZM33.4366 97.8797C33.4366 98.3609 34.0467 98.6016 35.1123 98.6016C36.1737 98.6016 36.7709 98.3609 36.7709 97.8797C36.7709 97.4242 36.1737 97.1664 35.1123 97.1664C34.0467 97.1664 33.4366 97.4242 33.4366 97.8797ZM36.685 96.2469V91.5977H37.6389V93.4883H38.7217V94.2789H37.6389V96.2469H36.685ZM42.3088 92.4398V93.2047H40.0916V94.4766H42.1713V95.2242H40.0916V96.7367C41.0541 96.7281 41.7201 96.6937 42.5064 96.5734L42.5838 97.3555C41.6771 97.5102 40.9166 97.5402 39.7048 97.5359H39.1806V92.4398H42.3088ZM42.9791 98.9883V91.7352H43.8814V94.6484H44.6806V91.5977H45.6002V99.3664H44.6806V95.4219H43.8814V98.9883H42.9791Z" fill="#111111"/>
<path d="M26.3055 222.042C26.3012 223.018 27.3969 224.01 29.0555 224.225L28.6773 224.998C27.3582 224.801 26.3098 224.152 25.8027 223.275C25.2957 224.152 24.2516 224.801 22.9453 224.998L22.5672 224.225C24.2086 224.01 25.3 223.026 25.3 222.042V221.647H26.3055V222.042ZM22.2578 226.459V225.669H29.3391V226.459H26.2539V229.166H25.3086V226.459H22.2578ZM33.6308 222.051V222.67H35.1948V221.406H36.1488V227.061H35.1948V225.102H33.6308V225.772H29.9784V222.051H33.6308ZM30.9323 225.024H32.6855V222.807H30.9323V225.024ZM31.0269 229.012V226.537H31.998V228.238H36.3206V229.012H31.0269ZM33.6308 224.337H35.1948V223.452H33.6308V224.337ZM41.8361 223.263C41.8275 224.689 42.5795 226.116 43.8384 226.657L43.2713 227.422C42.3775 227.009 41.7244 226.189 41.3634 225.175C41.0068 226.266 40.3365 227.16 39.3955 227.602L38.8111 226.803C40.1045 226.245 40.8607 224.762 40.865 223.263V222.025H41.8361V223.263ZM44.397 229.175V221.398H45.3595V229.175H44.397ZM52.4098 221.398V223.632H53.4927V224.431H52.4098V227.001H51.4387V221.398H52.4098ZM46.2567 225.437C48.0356 224.921 49.0884 223.954 49.2516 222.773H46.5833V221.991H50.2958C50.3001 224.053 48.9509 225.527 46.652 226.193L46.2567 225.437ZM47.4169 229.012V226.425H48.388V228.238H52.702V229.012H47.4169Z" fill="#111111"/>
<rect x="22" y="108.402" width="45.6" height="26.4" rx="13.2" fill="#A30FFA"/>
<path d="M36.4084 118.023V120.06H37.4135V120.56H36.4084V122.958H35.8182V118.023H36.4084ZM31.3088 120.145C31.3035 119.177 32.0639 118.502 33.0636 118.502C34.0633 118.502 34.8131 119.177 34.8184 120.145C34.8131 121.113 34.0633 121.794 33.0636 121.794C32.0639 121.794 31.3035 121.113 31.3088 120.145ZM31.8884 120.145C31.8831 120.805 32.3989 121.273 33.0636 121.273C33.7336 121.273 34.2388 120.805 34.2441 120.145C34.2388 119.486 33.7336 119.018 33.0636 119.018C32.3989 119.018 31.8831 119.486 31.8884 120.145ZM32.2234 124.564V122.448H32.8084V124.075H36.7169V124.564H32.2234ZM41.0255 118.614V119.209H42.5942V118.034H43.1845V122.91H42.5942V121.129H41.0255V121.73H37.9572V118.614H41.0255ZM38.5421 121.257H40.4459V119.098H38.5421V121.257ZM38.8612 124.564V122.474H39.4568V124.075H43.3387V124.564H38.8612ZM41.0255 120.64H42.5942V119.704H41.0255V120.64ZM48.8875 122.655C50.3551 122.655 51.1847 123.011 51.19 123.687C51.1847 124.351 50.3551 124.697 48.8875 124.697C47.4091 124.697 46.5796 124.351 46.5796 123.687C46.5796 123.011 47.4091 122.655 48.8875 122.655ZM45.8457 122.24V121.762H48.6003V121.241C47.3958 121.198 46.7178 120.871 46.7178 120.294C46.7178 119.661 47.5049 119.337 48.8875 119.337C50.2754 119.337 51.0571 119.661 51.0571 120.294C51.0571 120.871 50.387 121.195 49.1852 121.241V121.762H51.9398V122.24H45.8457ZM46.1648 119.06V118.592H48.6003V117.933H49.1852V118.592H51.5835V119.06H46.1648ZM47.1858 123.687C47.1858 124.054 47.8026 124.256 48.8875 124.25C49.9723 124.256 50.5891 124.054 50.5891 123.687C50.5891 123.309 49.9723 123.102 48.8875 123.102C47.8026 123.102 47.1858 123.309 47.1858 123.687ZM47.3506 120.294C47.3453 120.629 47.909 120.821 48.8875 120.821C49.8712 120.821 50.4296 120.629 50.4296 120.294C50.4296 119.943 49.8712 119.752 48.8875 119.752C47.909 119.752 47.3453 119.943 47.3506 120.294ZM58.4287 123.357V123.852H52.308V123.357H55.0679V121.73H55.6582V123.357H58.4287ZM52.6111 121.496C53.7385 121.299 55.052 120.363 55.052 119.3V119.135H52.8132V118.635H57.9022V119.135H55.6635V119.3C55.6635 120.363 56.9823 121.283 58.1362 121.469L57.8916 121.937C56.8733 121.735 55.7938 121.086 55.363 120.164C54.9323 121.092 53.8581 121.756 52.8557 121.964L52.6111 121.496Z" fill="white"/>
<rect x="72.275" y="108.677" width="31.05" height="25.85" rx="12.925" stroke="#CACAD7" stroke-width="0.55"/>
<path d="M86.8471 120.528V121.007H82.3536V118.422H86.7567V118.912H82.9545V120.528H86.8471ZM81.5028 122.373V121.889H87.6235V122.373H84.837V124.692H84.2574V122.373H81.5028ZM94.0698 121.576V122.054H87.9651V121.576H90.7197V120.911H88.7787V118.22H93.3094V118.699H89.3743V119.326H93.1286V119.778H89.3743V120.443H93.3466V120.911H91.3099V121.576H94.0698ZM88.7096 123.628C88.7096 122.932 89.5391 122.554 91.0174 122.559C92.4851 122.554 93.3147 122.932 93.32 123.628C93.3147 124.33 92.4851 124.697 91.0174 124.697C89.5391 124.697 88.7096 124.33 88.7096 123.628ZM89.3052 123.628C89.2998 124.032 89.9167 124.245 91.0174 124.24C92.1129 124.245 92.7244 124.032 92.7297 123.628C92.7244 123.229 92.1129 123.006 91.0174 123.006C89.9167 123.006 89.2998 123.229 89.3052 123.628Z" fill="#999999"/>
<rect x="108.275" y="108.677" width="31.05" height="25.85" rx="12.925" stroke="#CACAD7" stroke-width="0.55"/>
<path d="M123.608 121.485V121.974H117.513V121.485H120.268V120.682H118.322V118.183H118.912V118.959H122.22V118.183H122.81V120.682H120.853V121.485H123.608ZM118.189 123.112V122.634H122.852V124.713H122.257V123.112H118.189ZM118.912 120.204H122.22V119.411H118.912V120.204ZM130.07 121.576V122.054H123.965V121.576H126.72V120.911H124.779V118.22H129.309V118.699H125.374V119.326H129.129V119.778H125.374V120.443H129.347V120.911H127.31V121.576H130.07ZM124.71 123.628C124.71 122.932 125.539 122.554 127.017 122.559C128.485 122.554 129.315 122.932 129.32 123.628C129.315 124.33 128.485 124.697 127.017 124.697C125.539 124.697 124.71 124.33 124.71 123.628ZM125.305 123.628C125.3 124.032 125.917 124.245 127.017 124.24C128.113 124.245 128.724 124.032 128.73 123.628C128.724 123.229 128.113 123.006 127.017 123.006C125.917 123.006 125.3 123.229 125.305 123.628Z" fill="#999999"/>
<rect x="22" y="141.402" width="31.6" height="26.4" rx="13.2" fill="#A30FFA"/>
<path d="M37.0545 151.034V155.98H36.4642V154.187H34.8849V154.836H31.8485V151.475H32.4387V152.667H34.2999V151.475H34.8849V152.262H36.4642V151.034H37.0545ZM32.4387 154.352H34.2999V153.129H32.4387V154.352ZM32.7312 157.564V155.496H33.3268V157.075H37.2087V157.564H32.7312ZM34.8849 153.698H36.4642V152.752H34.8849V153.698ZM43.4848 151.029V157.724H42.8946V151.029H43.4848ZM38.3639 156.107V151.598H38.9542V153.363H40.943V151.598H41.5279V156.107H38.3639ZM38.9542 155.613H40.943V153.837H38.9542V155.613Z" fill="white"/>
<rect x="58.275" y="141.677" width="37.05" height="25.85" rx="12.925" stroke="#CACAD7" stroke-width="0.55"/>
<path d="M72.6 151.433V151.949C72.6 152.512 72.6 153.19 72.4245 154.102H73.403V154.597H67.2823V154.102H71.8342C72.015 153.18 72.015 152.518 72.015 151.949V151.917H68.0587V151.433H72.6ZM68.0906 157.559V155.347H68.6809V157.064H72.8021V157.559H68.0906ZM79.8387 154.251V154.735H78.2114V155.586H79.0835V157.713H78.488V156.059H74.4199V155.586H75.3612V154.735H73.7446V154.251H79.8387ZM74.4199 152.465C74.4199 151.662 75.3346 151.183 76.7863 151.188C78.238 151.183 79.1474 151.662 79.1474 152.465C79.1474 153.268 78.238 153.746 76.7863 153.741C75.3346 153.746 74.4199 153.268 74.4199 152.465ZM75.0315 152.465C75.0262 152.97 75.7068 153.278 76.7863 153.278C77.8605 153.278 78.5465 152.97 78.5465 152.465C78.5465 151.965 77.8605 151.656 76.7863 151.662C75.7068 151.656 75.0262 151.965 75.0315 152.465ZM75.9514 155.586H77.6318V154.735H75.9514V155.586ZM86.3009 154.576V155.054H80.1962V154.576H82.9508V153.911H81.0098V151.22H85.5405V151.699H81.6054V152.326H85.3597V152.778H81.6054V153.443H85.5777V153.911H83.5411V154.576H86.3009ZM80.9407 156.628C80.9407 155.932 81.7703 155.554 83.2486 155.559C84.7163 155.554 85.5458 155.932 85.5511 156.628C85.5458 157.33 84.7163 157.697 83.2486 157.697C81.7703 157.697 80.9407 157.33 80.9407 156.628ZM81.5363 156.628C81.531 157.032 82.1478 157.245 83.2486 157.24C84.344 157.245 84.9556 157.032 84.9609 156.628C84.9556 156.229 84.344 156.006 83.2486 156.006C82.1478 156.006 81.531 156.229 81.5363 156.628Z" fill="#999999"/>
<rect x="100" y="141.402" width="52.6" height="26.4" rx="13.2" fill="#A30FFA"/>
<path d="M114.975 151.029V157.713H114.385V151.029H114.975ZM109.439 155.549C109.729 155.549 110.043 155.549 110.37 155.543V152.241H109.615V151.752H113.433V152.241H112.678V155.458C113.055 155.432 113.428 155.4 113.784 155.357L113.816 155.799C112.359 156.027 110.748 156.049 109.509 156.054L109.439 155.549ZM110.944 155.533C111.322 155.525 111.71 155.512 112.098 155.493V152.241H110.944V155.533ZM122.022 154.996V155.474H119.236V157.713H118.656V155.474H115.902V154.996H122.022ZM116.689 154.182V151.305H117.274V152.231H120.645V151.305H121.235V154.182H116.689ZM117.274 153.704H120.645V152.709H117.274V153.704ZM129.528 154.639V155.123H124.907V151.608H129.454V152.098H125.503V153.092H129.31V153.571H125.503V154.639H129.528ZM124.115 156.841V156.346H130.235V156.841H124.115ZM136.113 151.029V157.724H135.528V154.092H134.225V153.597H135.528V151.029H136.113ZM130.811 152.14V151.651H133.821V153.985H131.417V155.613C132.568 155.61 133.406 155.578 134.379 155.395L134.427 155.889C133.422 156.07 132.555 156.112 131.343 156.118H130.832V153.496H133.246V152.14H130.811ZM138.438 151.146V151.789H141.745V151.146H142.336V153.353H137.847V151.146H138.438ZM137.039 154.4V153.927H143.133V154.4H137.039ZM137.778 155.469V155.017H142.346V156.501H138.374V157.171H142.548V157.639H137.794V156.065H141.767V155.469H137.778ZM138.438 152.895H141.745V152.241H138.438V152.895Z" fill="white"/>
<rect x="22" y="174.402" width="45.6" height="26.4" rx="13.2" fill="#A30FFA"/>
<path d="M36.5945 190.075V190.564H31.9682V188.645H32.5637V190.075H36.5945ZM31.1812 188.107V187.613H33.9357V186.48H34.5153V187.613H37.2912V188.107H31.1812ZM31.58 186.448C32.7499 186.252 33.9251 185.449 33.9251 184.507V184.204H34.5207V184.507C34.5207 185.454 35.6959 186.262 36.8658 186.448L36.6318 186.911C35.6267 186.722 34.6403 186.153 34.2255 185.345C33.8107 186.156 32.8296 186.725 31.8193 186.911L31.58 186.448ZM38.5102 184.311V185.273H40.4565V184.311H41.0414V187.219H37.9306V184.311H38.5102ZM38.5102 186.741H40.4565V185.736H38.5102V186.741ZM38.6059 188.272V187.799H42.8707V189.416H39.2015V190.155H43.1153V190.639H38.6219V188.969H42.2858V188.272H38.6059ZM42.2805 187.485V184.029H42.8707V185.48H43.8758V185.97H42.8707V187.485H42.2805ZM51.3868 184.029V190.724H50.7965V186.953H49.3288V186.464H50.7965V184.029H51.3868ZM45.7872 188.926C46.7551 188.458 47.5634 187.198 47.5687 186.012V185.209H46.0425V184.715H49.6957V185.209H48.1643V186.012C48.1643 187.124 48.9619 188.336 49.935 188.777L49.5788 189.251C48.8183 188.876 48.1749 188.065 47.8744 187.134C47.5713 188.126 46.9119 188.988 46.1489 189.389L45.7872 188.926ZM57.8278 184.034V187.996H57.2375V184.034H57.8278ZM52.643 184.917V184.438H55.7007V186.252H53.2333V187.177C54.4298 187.182 55.3232 187.142 56.4026 186.969L56.4771 187.459C55.3497 187.634 54.4351 187.671 53.2014 187.671H52.659V185.784H55.1158V184.917H52.643ZM53.4779 190.623V188.357H57.8278V190.623H53.4779ZM54.0629 190.139H57.2482V188.836H54.0629V190.139Z" fill="white"/>
<rect x="72.275" y="174.677" width="31.05" height="25.85" rx="12.925" stroke="#CACAD7" stroke-width="0.55"/>
<path d="M84.5552 184.465C85.9803 184.47 87.0013 185.161 87.0013 186.214C87.0013 187.209 86.1186 187.868 84.8476 187.953V189.357H87.6341V189.852H81.5134V189.357H84.2627V187.953C83.0024 187.865 82.1143 187.209 82.1143 186.214C82.1143 185.161 83.1407 184.47 84.5552 184.465ZM82.6833 186.214C82.6833 186.985 83.4757 187.485 84.5552 187.491C85.64 187.485 86.4323 186.985 86.4323 186.214C86.4323 185.459 85.64 184.949 84.5552 184.954C83.4757 184.949 82.6833 185.459 82.6833 186.214ZM93.203 184.034V186.236H94.2081V186.735H93.203V189.043H92.6127V184.034H93.203ZM87.9917 185.337V184.853H89.6933V184.034H90.2783V184.853H91.9746V185.337H87.9917ZM88.3746 186.953C88.3692 186.193 89.018 185.704 89.9858 185.704C90.9377 185.704 91.5864 186.193 91.5918 186.953C91.5864 187.703 90.9377 188.187 89.9858 188.187C89.018 188.187 88.3692 187.703 88.3746 186.953ZM88.9382 186.953C88.9329 187.421 89.353 187.725 89.9858 187.719C90.608 187.725 91.0281 187.421 91.0334 186.953C91.0281 186.475 90.608 186.166 89.9858 186.166C89.353 186.166 88.9329 186.475 88.9382 186.953ZM89.018 190.564V188.639H89.6029V190.075H93.5114V190.564H89.018Z" fill="#999999"/>
<rect x="108.275" y="174.677" width="31.05" height="25.85" rx="12.925" stroke="#CACAD7" stroke-width="0.55"/>
<path d="M123.623 187.858V188.357H120.837V190.713H120.257V188.357H117.503V187.858H123.623ZM118.199 185.768C118.199 184.864 119.146 184.3 120.55 184.295C121.954 184.3 122.906 184.864 122.906 185.768C122.906 186.661 121.954 187.225 120.55 187.225C119.146 187.225 118.199 186.661 118.199 185.768ZM118.806 185.768C118.8 186.363 119.508 186.746 120.55 186.746C121.592 186.746 122.299 186.363 122.299 185.768C122.299 185.167 121.592 184.779 120.55 184.779C119.508 184.779 118.8 185.167 118.806 185.768ZM127.017 184.109C128.506 184.109 129.378 184.523 129.378 185.268C129.378 186.018 128.506 186.427 127.017 186.432C125.528 186.427 124.651 186.018 124.651 185.268C124.651 184.523 125.528 184.109 127.017 184.109ZM123.976 187.347V186.874H130.07V187.347H127.31V187.98H129.283V189.474H125.31V190.171H129.485V190.639H124.731V189.038H128.703V188.432H124.715V187.98H126.72V187.347H123.976ZM125.268 185.268C125.263 185.725 125.911 185.975 127.017 185.98C128.129 185.975 128.778 185.725 128.778 185.268C128.778 184.826 128.129 184.566 127.017 184.561C125.911 184.566 125.263 184.826 125.268 185.268Z" fill="#999999"/>
<rect x="22" y="238.202" width="69.3" height="28.6" rx="13.2" fill="#A30FFA"/>
<path d="M37.3995 258.276C41.25 258.276 43.1741 255.69 43.1741 252.501C43.1741 249.312 41.25 246.726 37.3995 246.726C33.5491 246.726 31.625 249.312 31.625 252.501C31.625 255.69 33.5491 258.276 37.3995 258.276Z" fill="url(#paint0_radial_1235_19029)"/>
<path d="M37.3995 258.276C41.25 258.276 43.1741 255.69 43.1741 252.501C43.1741 249.312 41.25 246.726 37.3995 246.726C33.5491 246.726 31.625 249.312 31.625 252.501C31.625 255.69 33.5491 258.276 37.3995 258.276Z" fill="url(#paint1_radial_1235_19029)"/>
<path d="M37.3995 258.276C41.25 258.276 43.1741 255.69 43.1741 252.501C43.1741 249.312 41.25 246.726 37.3995 246.726C33.5491 246.726 31.625 249.312 31.625 252.501C31.625 255.69 33.5491 258.276 37.3995 258.276Z" fill="url(#paint2_radial_1235_19029)" fill-opacity="0.6"/>
<path d="M37.3995 258.276C41.25 258.276 43.1741 255.69 43.1741 252.501C43.1741 249.312 41.25 246.726 37.3995 246.726C33.5491 246.726 31.625 249.312 31.625 252.501C31.625 255.69 33.5491 258.276 37.3995 258.276Z" fill="url(#paint3_radial_1235_19029)"/>
<path d="M37.3995 258.276C41.25 258.276 43.1741 255.69 43.1741 252.501C43.1741 249.312 41.25 246.726 37.3995 246.726C33.5491 246.726 31.625 249.312 31.625 252.501C31.625 255.69 33.5491 258.276 37.3995 258.276Z" fill="url(#paint4_radial_1235_19029)"/>
<path d="M37.3995 258.276C41.25 258.276 43.1741 255.69 43.1741 252.501C43.1741 249.312 41.25 246.726 37.3995 246.726C33.5491 246.726 31.625 249.312 31.625 252.501C31.625 255.69 33.5491 258.276 37.3995 258.276Z" fill="url(#paint5_radial_1235_19029)"/>
<path d="M37.3995 258.276C41.25 258.276 43.1741 255.69 43.1741 252.501C43.1741 249.312 41.25 246.726 37.3995 246.726C33.5491 246.726 31.625 249.312 31.625 252.501C31.625 255.69 33.5491 258.276 37.3995 258.276Z" fill="url(#paint6_radial_1235_19029)"/>
<path d="M37.3995 258.276C41.25 258.276 43.1741 255.69 43.1741 252.501C43.1741 249.312 41.25 246.726 37.3995 246.726C33.5491 246.726 31.625 249.312 31.625 252.501C31.625 255.69 33.5491 258.276 37.3995 258.276Z" fill="url(#paint7_radial_1235_19029)"/>
<path d="M37.3995 258.276C41.25 258.276 43.1741 255.69 43.1741 252.501C43.1741 249.312 41.25 246.726 37.3995 246.726C33.5491 246.726 31.625 249.312 31.625 252.501C31.625 255.69 33.5491 258.276 37.3995 258.276Z" fill="url(#paint8_radial_1235_19029)"/>
<path d="M37.3995 258.276C41.25 258.276 43.1741 255.69 43.1741 252.501C43.1741 249.312 41.25 246.726 37.3995 246.726C33.5491 246.726 31.625 249.312 31.625 252.501C31.625 255.69 33.5491 258.276 37.3995 258.276Z" fill="url(#paint9_radial_1235_19029)"/>
<path fill-rule="evenodd" clip-rule="evenodd" d="M33.9754 252.618C33.814 252.461 33.5559 252.463 33.3962 252.622C33.2351 252.783 33.2351 253.045 33.3962 253.206L33.3968 253.206L33.3974 253.207L33.3988 253.208L33.4021 253.211L33.4106 253.22C33.4172 253.226 33.4255 253.233 33.4356 253.242C33.4558 253.26 33.4832 253.282 33.5177 253.308C33.5868 253.36 33.6851 253.425 33.8128 253.489C34.0695 253.618 34.4416 253.739 34.9254 253.739C35.4092 253.739 35.7813 253.618 36.038 253.489C36.1657 253.425 36.264 253.36 36.333 253.308C36.3676 253.282 36.395 253.26 36.4152 253.242C36.4253 253.233 36.4336 253.226 36.4402 253.22L36.4487 253.211L36.452 253.208L36.4534 253.207L36.454 253.206L36.4543 253.206C36.6154 253.045 36.6157 252.783 36.4546 252.622C36.2949 252.463 36.0368 252.461 35.8754 252.618C35.8748 252.619 35.8736 252.62 35.8719 252.621C35.8663 252.626 35.855 252.636 35.838 252.648C35.804 252.674 35.7476 252.712 35.669 252.751C35.5132 252.829 35.2666 252.914 34.9254 252.914C34.5842 252.914 34.3375 252.829 34.1817 252.751C34.1032 252.712 34.0468 252.674 34.0127 252.648C33.9957 252.636 33.9844 252.626 33.9789 252.621C33.9772 252.62 33.976 252.619 33.9754 252.618Z" fill="url(#paint10_radial_1235_19029)"/>
<path fill-rule="evenodd" clip-rule="evenodd" d="M38.9266 252.618C38.7652 252.461 38.5071 252.463 38.3474 252.622C38.1863 252.783 38.1863 253.045 38.3474 253.206L38.348 253.206L38.3486 253.207L38.35 253.208L38.3533 253.211L38.3618 253.22C38.3683 253.226 38.3767 253.233 38.3868 253.242C38.407 253.26 38.4343 253.282 38.4689 253.308C38.538 253.36 38.6363 253.425 38.764 253.489C39.0207 253.618 39.3928 253.739 39.8766 253.739C40.3603 253.739 40.7325 253.618 40.9892 253.489C41.1168 253.425 41.2151 253.36 41.2842 253.308C41.3188 253.282 41.3462 253.26 41.3664 253.242C41.3765 253.233 41.3848 253.226 41.3914 253.22L41.3999 253.211L41.4045 253.207L41.4052 253.206L41.4055 253.206C41.5665 253.045 41.5668 252.783 41.4057 252.622C41.246 252.463 40.9879 252.461 40.8266 252.618C40.8259 252.619 40.8248 252.62 40.8231 252.621C40.8175 252.626 40.8062 252.636 40.7892 252.648C40.7552 252.674 40.6988 252.712 40.6202 252.751C40.4644 252.829 40.2178 252.914 39.8766 252.914C39.5353 252.914 39.2887 252.829 39.1329 252.751C39.0543 252.712 38.998 252.674 38.9639 252.648C38.9469 252.636 38.9356 252.626 38.93 252.621C38.9284 252.62 38.9272 252.619 38.9266 252.618Z" fill="url(#paint11_radial_1235_19029)"/>
<rect x="36.5762" y="254.976" width="1.65" height="1.65" rx="0.825" fill="url(#paint12_radial_1235_19029)"/>
<path fill-rule="evenodd" clip-rule="evenodd" d="M42.7792 246.741C42.8642 246.851 42.8774 247 42.813 247.122L41.8178 249.018L42.9374 248.753C43.1273 248.708 43.3177 248.826 43.3625 249.016C43.4074 249.206 43.2898 249.396 43.0999 249.441L41.2257 249.884C41.091 249.916 40.9501 249.866 40.8652 249.756C40.7804 249.647 40.7672 249.498 40.8316 249.376L41.8261 247.482L40.6969 247.75C40.5071 247.795 40.3165 247.678 40.2714 247.488C40.2262 247.298 40.3435 247.108 40.5334 247.063L42.4184 246.614C42.5532 246.582 42.6942 246.632 42.7792 246.741Z" fill="url(#paint13_linear_1235_19029)"/>
<path fill-rule="evenodd" clip-rule="evenodd" d="M42.7792 246.741C42.8642 246.851 42.8774 247 42.813 247.122L41.8178 249.018L42.9374 248.753C43.1273 248.708 43.3177 248.826 43.3625 249.016C43.4074 249.206 43.2898 249.396 43.0999 249.441L41.2257 249.884C41.091 249.916 40.9501 249.866 40.8652 249.756C40.7804 249.647 40.7672 249.498 40.8316 249.376L41.8261 247.482L40.6969 247.75C40.5071 247.795 40.3165 247.678 40.2714 247.488C40.2262 247.298 40.3435 247.108 40.5334 247.063L42.4184 246.614C42.5532 246.582 42.6942 246.632 42.7792 246.741Z" fill="url(#paint14_linear_1235_19029)"/>
<path fill-rule="evenodd" clip-rule="evenodd" d="M42.7792 246.741C42.8642 246.851 42.8774 247 42.813 247.122L41.8178 249.018L42.9374 248.753C43.1273 248.708 43.3177 248.826 43.3625 249.016C43.4074 249.206 43.2898 249.396 43.0999 249.441L41.2257 249.884C41.091 249.916 40.9501 249.866 40.8652 249.756C40.7804 249.647 40.7672 249.498 40.8316 249.376L41.8261 247.482L40.6969 247.75C40.5071 247.795 40.3165 247.678 40.2714 247.488C40.2262 247.298 40.3435 247.108 40.5334 247.063L42.4184 246.614C42.5532 246.582 42.6942 246.632 42.7792 246.741Z" fill="url(#paint15_radial_1235_19029)"/>
<path fill-rule="evenodd" clip-rule="evenodd" d="M42.7792 246.741C42.8642 246.851 42.8774 247 42.813 247.122L41.8178 249.018L42.9374 248.753C43.1273 248.708 43.3177 248.826 43.3625 249.016C43.4074 249.206 43.2898 249.396 43.0999 249.441L41.2257 249.884C41.091 249.916 40.9501 249.866 40.8652 249.756C40.7804 249.647 40.7672 249.498 40.8316 249.376L41.8261 247.482L40.6969 247.75C40.5071 247.795 40.3165 247.678 40.2714 247.488C40.2262 247.298 40.3435 247.108 40.5334 247.063L42.4184 246.614C42.5532 246.582 42.6942 246.632 42.7792 246.741Z" fill="url(#paint16_linear_1235_19029)"/>
<path fill-rule="evenodd" clip-rule="evenodd" d="M42.7792 246.741C42.8642 246.851 42.8774 247 42.813 247.122L41.8178 249.018L42.9374 248.753C43.1273 248.708 43.3177 248.826 43.3625 249.016C43.4074 249.206 43.2898 249.396 43.0999 249.441L41.2257 249.884C41.091 249.916 40.9501 249.866 40.8652 249.756C40.7804 249.647 40.7672 249.498 40.8316 249.376L41.8261 247.482L40.6969 247.75C40.5071 247.795 40.3165 247.678 40.2714 247.488C40.2262 247.298 40.3435 247.108 40.5334 247.063L42.4184 246.614C42.5532 246.582 42.6942 246.632 42.7792 246.741Z" fill="url(#paint17_radial_1235_19029)"/>
<path fill-rule="evenodd" clip-rule="evenodd" d="M42.7792 246.741C42.8642 246.851 42.8774 247 42.813 247.122L41.8178 249.018L42.9374 248.753C43.1273 248.708 43.3177 248.826 43.3625 249.016C43.4074 249.206 43.2898 249.396 43.0999 249.441L41.2257 249.884C41.091 249.916 40.9501 249.866 40.8652 249.756C40.7804 249.647 40.7672 249.498 40.8316 249.376L41.8261 247.482L40.6969 247.75C40.5071 247.795 40.3165 247.678 40.2714 247.488C40.2262 247.298 40.3435 247.108 40.5334 247.063L42.4184 246.614C42.5532 246.582 42.6942 246.632 42.7792 246.741Z" fill="url(#paint18_radial_1235_19029)"/>
<path fill-rule="evenodd" clip-rule="evenodd" d="M42.7792 246.741C42.8642 246.851 42.8774 247 42.813 247.122L41.8178 249.018L42.9374 248.753C43.1273 248.708 43.3177 248.826 43.3625 249.016C43.4074 249.206 43.2898 249.396 43.0999 249.441L41.2257 249.884C41.091 249.916 40.9501 249.866 40.8652 249.756C40.7804 249.647 40.7672 249.498 40.8316 249.376L41.8261 247.482L40.6969 247.75C40.5071 247.795 40.3165 247.678 40.2714 247.488C40.2262 247.298 40.3435 247.108 40.5334 247.063L42.4184 246.614C42.5532 246.582 42.6942 246.632 42.7792 246.741Z" fill="url(#paint19_radial_1235_19029)"/>
<path fill-rule="evenodd" clip-rule="evenodd" d="M42.7792 246.741C42.8642 246.851 42.8774 247 42.813 247.122L41.8178 249.018L42.9374 248.753C43.1273 248.708 43.3177 248.826 43.3625 249.016C43.4074 249.206 43.2898 249.396 43.0999 249.441L41.2257 249.884C41.091 249.916 40.9501 249.866 40.8652 249.756C40.7804 249.647 40.7672 249.498 40.8316 249.376L41.8261 247.482L40.6969 247.75C40.5071 247.795 40.3165 247.678 40.2714 247.488C40.2262 247.298 40.3435 247.108 40.5334 247.063L42.4184 246.614C42.5532 246.582 42.6942 246.632 42.7792 246.741Z" fill="url(#paint20_radial_1235_19029)"/>
<path fill-rule="evenodd" clip-rule="evenodd" d="M42.7792 246.741C42.8642 246.851 42.8774 247 42.813 247.122L41.8178 249.018L42.9374 248.753C43.1273 248.708 43.3177 248.826 43.3625 249.016C43.4074 249.206 43.2898 249.396 43.0999 249.441L41.2257 249.884C41.091 249.916 40.9501 249.866 40.8652 249.756C40.7804 249.647 40.7672 249.498 40.8316 249.376L41.8261 247.482L40.6969 247.75C40.5071 247.795 40.3165 247.678 40.2714 247.488C40.2262 247.298 40.3435 247.108 40.5334 247.063L42.4184 246.614C42.5532 246.582 42.6942 246.632 42.7792 246.741Z" fill="url(#paint21_radial_1235_19029)"/>
<path fill-rule="evenodd" clip-rule="evenodd" d="M40.8553 248.722C40.8971 248.813 40.8819 248.92 40.8162 248.996L39.8024 250.167L40.635 250.165C40.7763 250.165 40.891 250.279 40.8914 250.421C40.8917 250.562 40.7774 250.677 40.6362 250.677L39.2423 250.68C39.1421 250.68 39.0509 250.622 39.0092 250.531C38.9674 250.44 38.9827 250.333 39.0483 250.257L40.0615 249.086L39.2214 249.089C39.0801 249.09 38.9652 248.976 38.9647 248.834C38.9641 248.693 39.0782 248.578 39.2195 248.578L40.6219 248.573C40.7222 248.572 40.8134 248.63 40.8553 248.722Z" fill="url(#paint22_linear_1235_19029)"/>
<path fill-rule="evenodd" clip-rule="evenodd" d="M40.8553 248.722C40.8971 248.813 40.8819 248.92 40.8162 248.996L39.8024 250.167L40.635 250.165C40.7763 250.165 40.891 250.279 40.8914 250.421C40.8917 250.562 40.7774 250.677 40.6362 250.677L39.2423 250.68C39.1421 250.68 39.0509 250.622 39.0092 250.531C38.9674 250.44 38.9827 250.333 39.0483 250.257L40.0615 249.086L39.2214 249.089C39.0801 249.09 38.9652 248.976 38.9647 248.834C38.9641 248.693 39.0782 248.578 39.2195 248.578L40.6219 248.573C40.7222 248.572 40.8134 248.63 40.8553 248.722Z" fill="url(#paint23_linear_1235_19029)"/>
<path fill-rule="evenodd" clip-rule="evenodd" d="M40.8553 248.722C40.8971 248.813 40.8819 248.92 40.8162 248.996L39.8024 250.167L40.635 250.165C40.7763 250.165 40.891 250.279 40.8914 250.421C40.8917 250.562 40.7774 250.677 40.6362 250.677L39.2423 250.68C39.1421 250.68 39.0509 250.622 39.0092 250.531C38.9674 250.44 38.9827 250.333 39.0483 250.257L40.0615 249.086L39.2214 249.089C39.0801 249.09 38.9652 248.976 38.9647 248.834C38.9641 248.693 39.0782 248.578 39.2195 248.578L40.6219 248.573C40.7222 248.572 40.8134 248.63 40.8553 248.722Z" fill="url(#paint24_radial_1235_19029)"/>
<path fill-rule="evenodd" clip-rule="evenodd" d="M40.8553 248.722C40.8971 248.813 40.8819 248.92 40.8162 248.996L39.8024 250.167L40.635 250.165C40.7763 250.165 40.891 250.279 40.8914 250.421C40.8917 250.562 40.7774 250.677 40.6362 250.677L39.2423 250.68C39.1421 250.68 39.0509 250.622 39.0092 250.531C38.9674 250.44 38.9827 250.333 39.0483 250.257L40.0615 249.086L39.2214 249.089C39.0801 249.09 38.9652 248.976 38.9647 248.834C38.9641 248.693 39.0782 248.578 39.2195 248.578L40.6219 248.573C40.7222 248.572 40.8134 248.63 40.8553 248.722Z" fill="url(#paint25_linear_1235_19029)"/>
<path fill-rule="evenodd" clip-rule="evenodd" d="M40.8553 248.722C40.8971 248.813 40.8819 248.92 40.8162 248.996L39.8024 250.167L40.635 250.165C40.7763 250.165 40.891 250.279 40.8914 250.421C40.8917 250.562 40.7774 250.677 40.6362 250.677L39.2423 250.68C39.1421 250.68 39.0509 250.622 39.0092 250.531C38.9674 250.44 38.9827 250.333 39.0483 250.257L40.0615 249.086L39.2214 249.089C39.0801 249.09 38.9652 248.976 38.9647 248.834C38.9641 248.693 39.0782 248.578 39.2195 248.578L40.6219 248.573C40.7222 248.572 40.8134 248.63 40.8553 248.722Z" fill="url(#paint26_radial_1235_19029)"/>
<path fill-rule="evenodd" clip-rule="evenodd" d="M40.8553 248.722C40.8971 248.813 40.8819 248.92 40.8162 248.996L39.8024 250.167L40.635 250.165C40.7763 250.165 40.891 250.279 40.8914 250.421C40.8917 250.562 40.7774 250.677 40.6362 250.677L39.2423 250.68C39.1421 250.68 39.0509 250.622 39.0092 250.531C38.9674 250.44 38.9827 250.333 39.0483 250.257L40.0615 249.086L39.2214 249.089C39.0801 249.09 38.9652 248.976 38.9647 248.834C38.9641 248.693 39.0782 248.578 39.2195 248.578L40.6219 248.573C40.7222 248.572 40.8134 248.63 40.8553 248.722Z" fill="url(#paint27_radial_1235_19029)"/>
<path fill-rule="evenodd" clip-rule="evenodd" d="M40.8553 248.722C40.8971 248.813 40.8819 248.92 40.8162 248.996L39.8024 250.167L40.635 250.165C40.7763 250.165 40.891 250.279 40.8914 250.421C40.8917 250.562 40.7774 250.677 40.6362 250.677L39.2423 250.68C39.1421 250.68 39.0509 250.622 39.0092 250.531C38.9674 250.44 38.9827 250.333 39.0483 250.257L40.0615 249.086L39.2214 249.089C39.0801 249.09 38.9652 248.976 38.9647 248.834C38.9641 248.693 39.0782 248.578 39.2195 248.578L40.6219 248.573C40.7222 248.572 40.8134 248.63 40.8553 248.722Z" fill="url(#paint28_radial_1235_19029)"/>
<path fill-rule="evenodd" clip-rule="evenodd" d="M40.8553 248.722C40.8971 248.813 40.8819 248.92 40.8162 248.996L39.8024 250.167L40.635 250.165C40.7763 250.165 40.891 250.279 40.8914 250.421C40.8917 250.562 40.7774 250.677 40.6362 250.677L39.2423 250.68C39.1421 250.68 39.0509 250.622 39.0092 250.531C38.9674 250.44 38.9827 250.333 39.0483 250.257L40.0615 249.086L39.2214 249.089C39.0801 249.09 38.9652 248.976 38.9647 248.834C38.9641 248.693 39.0782 248.578 39.2195 248.578L40.6219 248.573C40.7222 248.572 40.8134 248.63 40.8553 248.722Z" fill="url(#paint29_radial_1235_19029)"/>
<path fill-rule="evenodd" clip-rule="evenodd" d="M40.8553 248.722C40.8971 248.813 40.8819 248.92 40.8162 248.996L39.8024 250.167L40.635 250.165C40.7763 250.165 40.891 250.279 40.8914 250.421C40.8917 250.562 40.7774 250.677 40.6362 250.677L39.2423 250.68C39.1421 250.68 39.0509 250.622 39.0092 250.531C38.9674 250.44 38.9827 250.333 39.0483 250.257L40.0615 249.086L39.2214 249.089C39.0801 249.09 38.9652 248.976 38.9647 248.834C38.9641 248.693 39.0782 248.578 39.2195 248.578L40.6219 248.573C40.7222 248.572 40.8134 248.63 40.8553 248.722Z" fill="url(#paint30_radial_1235_19029)"/>
<path fill-rule="evenodd" clip-rule="evenodd" d="M40.8553 248.722C40.8971 248.813 40.8819 248.92 40.8162 248.996L39.8024 250.167L40.635 250.165C40.7763 250.165 40.891 250.279 40.8914 250.421C40.8917 250.562 40.7774 250.677 40.6362 250.677L39.2423 250.68C39.1421 250.68 39.0509 250.622 39.0092 250.531C38.9674 250.44 38.9827 250.333 39.0483 250.257L40.0615 249.086L39.2214 249.089C39.0801 249.09 38.9652 248.976 38.9647 248.834C38.9641 248.693 39.0782 248.578 39.2195 248.578L40.6219 248.573C40.7222 248.572 40.8134 248.63 40.8553 248.722Z" fill="#3A99FB" fill-opacity="0.3"/>
<path fill-rule="evenodd" clip-rule="evenodd" d="M39.2343 249.714C39.2478 249.786 39.2178 249.86 39.1578 249.902L38.2296 250.553L38.8209 250.7C38.9212 250.725 38.9823 250.826 38.9574 250.927C38.9324 251.027 38.8309 251.088 38.7306 251.063L37.7407 250.817C37.6696 250.799 37.6153 250.742 37.6019 250.67C37.5884 250.598 37.6184 250.524 37.6784 250.482L38.606 249.832L38.0092 249.684C37.9088 249.659 37.8475 249.558 37.8723 249.458C37.8971 249.357 37.9986 249.296 38.0989 249.321L39.0952 249.567C39.1664 249.584 39.2208 249.642 39.2343 249.714Z" fill="url(#paint31_linear_1235_19029)"/>
<path fill-rule="evenodd" clip-rule="evenodd" d="M39.2343 249.714C39.2478 249.786 39.2178 249.86 39.1578 249.902L38.2296 250.553L38.8209 250.7C38.9212 250.725 38.9823 250.826 38.9574 250.927C38.9324 251.027 38.8309 251.088 38.7306 251.063L37.7407 250.817C37.6696 250.799 37.6153 250.742 37.6019 250.67C37.5884 250.598 37.6184 250.524 37.6784 250.482L38.606 249.832L38.0092 249.684C37.9088 249.659 37.8475 249.558 37.8723 249.458C37.8971 249.357 37.9986 249.296 38.0989 249.321L39.0952 249.567C39.1664 249.584 39.2208 249.642 39.2343 249.714Z" fill="url(#paint32_linear_1235_19029)"/>
<path fill-rule="evenodd" clip-rule="evenodd" d="M39.2343 249.714C39.2478 249.786 39.2178 249.86 39.1578 249.902L38.2296 250.553L38.8209 250.7C38.9212 250.725 38.9823 250.826 38.9574 250.927C38.9324 251.027 38.8309 251.088 38.7306 251.063L37.7407 250.817C37.6696 250.799 37.6153 250.742 37.6019 250.67C37.5884 250.598 37.6184 250.524 37.6784 250.482L38.606 249.832L38.0092 249.684C37.9088 249.659 37.8475 249.558 37.8723 249.458C37.8971 249.357 37.9986 249.296 38.0989 249.321L39.0952 249.567C39.1664 249.584 39.2208 249.642 39.2343 249.714Z" fill="url(#paint33_radial_1235_19029)"/>
<path fill-rule="evenodd" clip-rule="evenodd" d="M39.2343 249.714C39.2478 249.786 39.2178 249.86 39.1578 249.902L38.2296 250.553L38.8209 250.7C38.9212 250.725 38.9823 250.826 38.9574 250.927C38.9324 251.027 38.8309 251.088 38.7306 251.063L37.7407 250.817C37.6696 250.799 37.6153 250.742 37.6019 250.67C37.5884 250.598 37.6184 250.524 37.6784 250.482L38.606 249.832L38.0092 249.684C37.9088 249.659 37.8475 249.558 37.8723 249.458C37.8971 249.357 37.9986 249.296 38.0989 249.321L39.0952 249.567C39.1664 249.584 39.2208 249.642 39.2343 249.714Z" fill="url(#paint34_linear_1235_19029)"/>
<path fill-rule="evenodd" clip-rule="evenodd" d="M39.2343 249.714C39.2478 249.786 39.2178 249.86 39.1578 249.902L38.2296 250.553L38.8209 250.7C38.9212 250.725 38.9823 250.826 38.9574 250.927C38.9324 251.027 38.8309 251.088 38.7306 251.063L37.7407 250.817C37.6696 250.799 37.6153 250.742 37.6019 250.67C37.5884 250.598 37.6184 250.524 37.6784 250.482L38.606 249.832L38.0092 249.684C37.9088 249.659 37.8475 249.558 37.8723 249.458C37.8971 249.357 37.9986 249.296 38.0989 249.321L39.0952 249.567C39.1664 249.584 39.2208 249.642 39.2343 249.714Z" fill="url(#paint35_radial_1235_19029)"/>
<path fill-rule="evenodd" clip-rule="evenodd" d="M39.2343 249.714C39.2478 249.786 39.2178 249.86 39.1578 249.902L38.2296 250.553L38.8209 250.7C38.9212 250.725 38.9823 250.826 38.9574 250.927C38.9324 251.027 38.8309 251.088 38.7306 251.063L37.7407 250.817C37.6696 250.799 37.6153 250.742 37.6019 250.67C37.5884 250.598 37.6184 250.524 37.6784 250.482L38.606 249.832L38.0092 249.684C37.9088 249.659 37.8475 249.558 37.8723 249.458C37.8971 249.357 37.9986 249.296 38.0989 249.321L39.0952 249.567C39.1664 249.584 39.2208 249.642 39.2343 249.714Z" fill="url(#paint36_radial_1235_19029)"/>
<path fill-rule="evenodd" clip-rule="evenodd" d="M39.2343 249.714C39.2478 249.786 39.2178 249.86 39.1578 249.902L38.2296 250.553L38.8209 250.7C38.9212 250.725 38.9823 250.826 38.9574 250.927C38.9324 251.027 38.8309 251.088 38.7306 251.063L37.7407 250.817C37.6696 250.799 37.6153 250.742 37.6019 250.67C37.5884 250.598 37.6184 250.524 37.6784 250.482L38.606 249.832L38.0092 249.684C37.9088 249.659 37.8475 249.558 37.8723 249.458C37.8971 249.357 37.9986 249.296 38.0989 249.321L39.0952 249.567C39.1664 249.584 39.2208 249.642 39.2343 249.714Z" fill="url(#paint37_radial_1235_19029)"/>
<path fill-rule="evenodd" clip-rule="evenodd" d="M39.2343 249.714C39.2478 249.786 39.2178 249.86 39.1578 249.902L38.2296 250.553L38.8209 250.7C38.9212 250.725 38.9823 250.826 38.9574 250.927C38.9324 251.027 38.8309 251.088 38.7306 251.063L37.7407 250.817C37.6696 250.799 37.6153 250.742 37.6019 250.67C37.5884 250.598 37.6184 250.524 37.6784 250.482L38.606 249.832L38.0092 249.684C37.9088 249.659 37.8475 249.558 37.8723 249.458C37.8971 249.357 37.9986 249.296 38.0989 249.321L39.0952 249.567C39.1664 249.584 39.2208 249.642 39.2343 249.714Z" fill="url(#paint38_radial_1235_19029)"/>
<path fill-rule="evenodd" clip-rule="evenodd" d="M39.2343 249.714C39.2478 249.786 39.2178 249.86 39.1578 249.902L38.2296 250.553L38.8209 250.7C38.9212 250.725 38.9823 250.826 38.9574 250.927C38.9324 251.027 38.8309 251.088 38.7306 251.063L37.7407 250.817C37.6696 250.799 37.6153 250.742 37.6019 250.67C37.5884 250.598 37.6184 250.524 37.6784 250.482L38.606 249.832L38.0092 249.684C37.9088 249.659 37.8475 249.558 37.8723 249.458C37.8971 249.357 37.9986 249.296 38.0989 249.321L39.0952 249.567C39.1664 249.584 39.2208 249.642 39.2343 249.714Z" fill="url(#paint39_radial_1235_19029)"/>
<path fill-rule="evenodd" clip-rule="evenodd" d="M39.2343 249.714C39.2478 249.786 39.2178 249.86 39.1578 249.902L38.2296 250.553L38.8209 250.7C38.9212 250.725 38.9823 250.826 38.9574 250.927C38.9324 251.027 38.8309 251.088 38.7306 251.063L37.7407 250.817C37.6696 250.799 37.6153 250.742 37.6019 250.67C37.5884 250.598 37.6184 250.524 37.6784 250.482L38.606 249.832L38.0092 249.684C37.9088 249.659 37.8475 249.558 37.8723 249.458C37.8971 249.357 37.9986 249.296 38.0989 249.321L39.0952 249.567C39.1664 249.584 39.2208 249.642 39.2343 249.714Z" fill="#3A99FB" fill-opacity="0.3"/>
<path d="M52.2017 255.077C51.0549 255.077 50.2654 254.441 50.2691 253.558C50.2654 252.855 50.7541 252.272 51.3745 252.174V252.144C50.8331 252.02 50.4759 251.52 50.4797 250.926C50.4759 250.095 51.2053 249.482 52.2017 249.482C53.1942 249.482 53.9236 250.095 53.9312 250.926C53.9236 251.52 53.5627 252.02 53.0288 252.144V252.174C53.6454 252.272 54.1342 252.855 54.1417 253.558C54.1342 254.441 53.3371 255.077 52.2017 255.077ZM50.9459 253.52C50.9346 254.092 51.4196 254.479 52.2017 254.483C52.9799 254.479 53.4649 254.092 53.4649 253.52C53.4649 252.919 52.9348 252.475 52.2017 252.475C51.4723 252.475 50.9346 252.919 50.9459 253.52ZM51.1339 250.979C51.1376 251.528 51.5775 251.9 52.2017 251.904C52.822 251.9 53.2694 251.528 53.2694 250.979C53.2694 250.433 52.8371 250.065 52.2017 250.069C51.555 250.065 51.1376 250.433 51.1339 250.979ZM56.9946 250.723C56.9908 251.945 57.8218 253.171 58.8068 253.618L58.4459 254.084C57.6826 253.716 57.0247 252.922 56.7051 251.971C56.3968 252.979 55.7388 253.825 54.9568 254.22L54.5808 253.723C55.5772 253.268 56.4006 251.99 56.4081 250.723V249.505H56.9946V250.723ZM59.5362 255.626V248.926H60.1303V255.626H59.5362ZM66.3068 248.926V250.964H67.3144V251.46H66.3068V253.821H65.7128V248.926H66.3068ZM61.0882 252.573C62.6937 252.073 63.7351 251.122 63.8592 249.941H61.3665V249.445H64.5021C64.5021 251.167 63.2727 252.445 61.3439 253.047L61.0882 252.573ZM62.1184 255.468V253.325H62.7049V254.972H66.6151V255.468H62.1184ZM72.6367 249.332C72.633 250.178 73.8511 250.93 75.0279 251.099L74.7948 251.558C73.7722 251.396 72.7571 250.862 72.3322 250.106C71.9073 250.866 70.8884 251.396 69.862 251.558L69.6364 251.099C70.8208 250.93 72.0277 250.193 72.0277 249.332V249.016H72.6367V249.332ZM69.283 252.58V252.092H75.3738V252.58H72.6142V253.438H74.6219V255.611H74.0279V253.919H69.9598V253.438H72.0352V252.58H69.283ZM79.1291 249.512V250.106H80.6932V248.933H81.2872V253.814H80.6932V252.031H79.1291V252.633H76.0611V249.512H79.1291ZM76.6477 252.159H78.5501V250.001H76.6477V252.159ZM76.9635 255.468V253.377H77.5575V254.972H81.4376V255.468H76.9635ZM79.1291 251.543H80.6932V250.603H79.1291V251.543Z" fill="white"/>
<path d="M29.3391 292.064V292.846H26.2625V295.175H25.3172V292.846H22.2578V292.064H29.3391ZM22.6445 290.835C24.1957 290.646 25.2141 289.851 25.3086 289.073H22.9109V288.317H25.3172V287.406H26.2625V288.317H28.6773V289.073H26.2797C26.3699 289.843 27.384 290.646 28.9352 290.835L28.5828 291.591C27.298 291.428 26.3012 290.865 25.7984 290.118C25.2914 290.874 24.2816 291.428 22.9883 291.591L22.6445 290.835ZM35.7277 287.398V290.431H36.8792V291.231H35.7277V295.149H34.7738V287.398H35.7277ZM29.6003 293.027C31.4909 292.081 32.5136 290.766 32.7027 288.996H30.0214V288.206H33.6738C33.6695 290.487 32.7241 292.494 30.1417 293.766L29.6003 293.027ZM45.3853 287.398V295.166H44.4228V287.398H45.3853ZM38.9486 293.027C40.9853 292.06 41.922 290.745 42.0939 288.979H39.3439V288.223H43.065C43.065 290.534 42.167 292.498 39.447 293.791L38.9486 293.027ZM53.3723 291.6V292.373H46.2739V291.6H49.3505V290.956H47.1762V288.893H51.5419V288.317H47.1505V287.57H52.4958V289.589H48.1216V290.208H52.6505V290.956H50.2958V291.6H53.3723ZM47.0645 293.62V292.863H52.5387V295.115H51.5762V293.62H47.0645Z" fill="#111111"/>
<rect x="22.275" y="305.277" width="175.45" height="143.55" rx="6.325" fill="white"/>
<rect x="22.275" y="305.277" width="175.45" height="143.55" rx="6.325" stroke="#E5E5EC" stroke-width="0.55"/>
<path d="M34.4328 316.406V320.713H31.3485V316.406H34.4328ZM31.9228 320.229H33.8425V316.879H31.9228V320.229ZM35.6558 322.415V315.73H36.2461V318.4H37.3628V318.905H36.2461V322.415H35.6558ZM42.9477 319.341V319.825H38.3266V316.31H42.8732V316.799H38.9222V317.794H42.7296V318.272H38.9222V319.341H42.9477ZM37.5343 321.543V321.048H43.6549V321.543H37.5343ZM49.7237 315.73V322.415H49.1547V315.73H49.7237ZM44.0816 318.612C44.0816 317.193 44.6453 316.294 45.5121 316.294C46.3257 316.294 46.8761 317.076 46.9505 318.336H47.8146V315.874H48.3836V322.074H47.8146V318.825H46.9532C46.8947 320.128 46.339 320.942 45.5121 320.936C44.6453 320.942 44.0816 320.038 44.0816 318.612ZM44.6347 318.612C44.6294 319.697 44.975 320.383 45.5121 320.378C46.0598 320.383 46.4055 319.697 46.4055 318.612C46.4055 317.528 46.0598 316.847 45.5121 316.847C44.975 316.847 44.6294 317.528 44.6347 318.612ZM52.8093 317.528C52.8093 318.735 53.5856 319.953 54.5588 320.399L54.2025 320.878C53.4421 320.487 52.8146 319.687 52.5168 318.737C52.2216 319.737 51.5942 320.593 50.8311 321L50.4535 320.527C51.432 320.043 52.2084 318.756 52.2137 317.528V316.31H52.8093V317.528ZM53.8302 318.496V318.012H55.4149V315.73H55.9999V322.425H55.4149V318.496H53.8302ZM60.9265 316.996C60.9265 317.873 61.5806 318.655 62.5643 318.979L62.2825 319.442C61.5141 319.187 60.9318 318.655 60.6446 317.985C60.3575 318.751 59.7406 319.349 58.9377 319.639L58.6346 319.166C59.6396 318.825 60.3362 317.964 60.3415 317.001V316.714H58.8154V316.225H62.4261V316.714H60.9265V316.996ZM59.5279 321.165C59.5279 320.394 60.3681 319.947 61.7454 319.947C63.1174 319.947 63.9469 320.394 63.9469 321.165C63.9469 321.947 63.1174 322.399 61.7454 322.399C60.3681 322.399 59.5279 321.947 59.5279 321.165ZM60.1182 321.165C60.1129 321.644 60.735 321.925 61.7454 321.925C62.7558 321.925 63.3726 321.644 63.3726 321.165C63.3726 320.697 62.7558 320.421 61.7454 320.421C60.735 320.421 60.1129 320.697 60.1182 321.165ZM63.2982 319.766V315.73H63.8884V317.437H64.8935V317.932H63.8884V319.766H63.2982ZM68.1651 315.847C69.6541 315.847 70.5262 316.257 70.5262 317.001C70.5262 317.756 69.6541 318.166 68.1651 318.171C66.6762 318.166 65.7988 317.756 65.7988 317.001C65.7988 316.257 66.6762 315.847 68.1651 315.847ZM65.1234 319.102V318.623H71.2175V319.102H65.1234ZM65.8626 320.133V319.681H70.4305V321.176H66.4582V321.872H70.6325V322.34H65.8785V320.74H69.8508V320.133H65.8626ZM66.4156 317.001C66.4103 317.464 67.0591 317.719 68.1651 317.719C69.2765 317.719 69.9253 317.464 69.9253 317.001C69.9253 316.56 69.2765 316.294 68.1651 316.294C67.0591 316.294 66.4103 316.56 66.4156 317.001ZM79.4464 321.064V321.558H73.3257V321.064H76.075V319.623H74.0489V316.204H74.6392V317.411H78.1116V316.204H78.6966V319.623H76.6599V321.064H79.4464ZM74.6392 319.139H78.1116V317.895H74.6392V319.139ZM85.1482 316.406V317.07C85.1429 317.895 85.1429 318.809 84.8983 320.155L84.3027 320.085C84.5527 318.809 84.5527 317.873 84.558 317.07V316.895H80.4368V316.406H85.1482ZM79.788 321.468V320.974H82.1757V318.586H82.7606V320.974H85.8821V321.468H79.788ZM90.2503 320.213C90.2503 320.806 90.5721 321.436 91.2049 321.798C91.843 321.404 92.1807 320.732 92.1807 320.213V319.846H92.7603V320.213C92.755 320.904 93.2601 321.59 94.1216 321.883L93.8238 322.319C93.1565 322.085 92.6885 321.617 92.4572 321.056C92.2498 321.601 91.843 322.114 91.2235 322.377C90.5721 322.127 90.1599 321.638 89.9605 321.077C89.7186 321.617 89.2586 322.08 88.6178 322.319L88.32 321.883C89.1655 321.569 89.676 320.857 89.6813 320.213V319.846H90.2503V320.213ZM88.1445 317.687C88.1445 316.757 88.8837 316.124 89.8994 316.124C90.915 316.124 91.6489 316.757 91.6489 317.687C91.6489 318.607 90.915 319.24 89.8994 319.24C88.8837 319.24 88.1445 318.607 88.1445 317.687ZM88.7242 317.687C88.7188 318.309 89.2134 318.745 89.8994 318.751C90.58 318.745 91.0746 318.309 91.0746 317.687C91.0746 317.065 90.58 316.624 89.8994 316.629C89.2134 316.624 88.7188 317.065 88.7242 317.687ZM92.9198 319.554V315.736H93.5101V319.554H92.9198ZM96.7552 320.208C96.7499 320.809 97.0689 321.439 97.707 321.806C98.3478 321.404 98.6749 320.726 98.6802 320.208V319.804H99.2545V320.208C99.2545 320.899 99.7543 321.596 100.626 321.883L100.318 322.33C99.6533 322.088 99.188 321.62 98.9593 321.056C98.7493 321.601 98.3425 322.117 97.7177 322.383C97.0769 322.135 96.6621 321.644 96.46 321.08C96.2207 321.617 95.7608 322.085 95.1226 322.33L94.8302 321.883C95.6757 321.58 96.1809 320.857 96.1862 320.208V319.804H96.7552V320.208ZM94.5643 317.677C94.5643 316.757 95.2928 316.108 96.2925 316.113C97.1726 316.108 97.8612 316.634 97.9915 317.411H99.4034V315.73H99.9936V319.548H99.4034V317.9H97.9995C97.8852 318.7 97.1886 319.24 96.2925 319.24C95.2928 319.24 94.5643 318.597 94.5643 317.677ZM95.1333 317.677C95.128 318.293 95.6225 318.745 96.2925 318.751C96.9519 318.745 97.4465 318.293 97.4465 317.677C97.4465 317.054 96.9519 316.608 96.2925 316.613C95.6225 316.608 95.128 317.054 95.1333 317.677ZM106.318 317.756V318.235H101.744V315.975H102.329V317.756H106.318ZM100.904 319.623V319.144H107.025V319.623H100.904ZM101.702 322.25V320.304H102.287V321.761H106.36V322.25H101.702ZM113.099 315.73V322.415H112.525V315.73H113.099ZM107.638 320.803V316.555H110.158V317.044H108.212V320.304C109.177 320.301 109.786 320.264 110.504 320.107L110.562 320.607C109.791 320.766 109.137 320.798 108.063 320.803H107.638ZM109.706 318.777V318.283H111.169V315.89H111.732V322.064H111.169V318.777H109.706ZM120.807 315.73V317.32H121.812V317.815H120.807V319.346H120.211V315.73H120.807ZM115.595 318.948C117.247 318.551 118.23 317.706 118.334 316.624H115.888V316.14H118.983C118.983 317.81 117.792 318.948 115.819 319.431L115.595 318.948ZM116.558 322.324V319.655H117.148V320.5H120.217V319.655H120.807V322.324H116.558ZM117.148 321.84H120.217V320.974H117.148V321.84ZM124.302 317.783C124.296 318.852 125.073 320.032 126.041 320.495L125.7 320.963C124.953 320.593 124.318 319.806 124.017 318.902C123.706 319.881 123.036 320.745 122.286 321.128L121.93 320.66C122.893 320.192 123.717 318.921 123.722 317.783V316.911H122.169V316.416H125.807V316.911H124.302V317.783ZM126.626 322.415V315.73H127.216V318.432H128.333V318.937H127.216V322.415H126.626ZM134.029 315.73V322.415H133.439V315.73H134.029ZM128.589 320.676C130.397 319.82 131.32 318.533 131.45 316.937H128.898V316.459H132.051C132.046 318.379 131.152 320.08 128.908 321.16L128.589 320.676ZM142.242 315.73V319.134H141.657V317.714H140.256C140.134 318.482 139.45 319.001 138.546 319.001C137.541 319.001 136.807 318.373 136.813 317.475C136.807 316.581 137.541 315.964 138.546 315.964C139.442 315.964 140.123 316.467 140.253 317.219H141.657V315.73H142.242ZM137.376 317.475C137.376 318.081 137.866 318.511 138.546 318.511C139.211 318.511 139.706 318.081 139.706 317.475C139.706 316.879 139.211 316.448 138.546 316.454C137.866 316.448 137.376 316.879 137.376 317.475ZM137.908 319.974V319.506H142.242V321.101H138.509V321.846H142.497V322.324H137.924V320.654H141.657V319.974H137.908ZM148.486 316.007V316.432C148.486 316.868 148.486 317.44 148.345 318.155H149.289V318.623H146.503V319.495H148.508V321.101H144.498V321.856H148.678V322.335H143.908V320.676H147.923V319.969H143.897V319.495H145.918V318.623H143.169V318.155H147.752C147.896 317.44 147.901 316.919 147.901 316.485H143.945V316.007H148.486ZM155.358 315.73V322.415H154.789V315.73H155.358ZM149.716 318.612C149.716 317.193 150.28 316.294 151.146 316.294C151.96 316.294 152.51 317.076 152.585 318.336H153.449V315.874H154.018V322.074H153.449V318.825H152.588C152.529 320.128 151.973 320.942 151.146 320.936C150.28 320.942 149.716 320.038 149.716 318.612ZM150.269 318.612C150.264 319.697 150.609 320.383 151.146 320.378C151.694 320.383 152.04 319.697 152.04 318.612C152.04 317.528 151.694 316.847 151.146 316.847C150.609 316.847 150.264 317.528 150.269 318.612ZM159.673 315.964C160.263 315.964 160.758 316.18 161.066 316.544H162.784V315.73H163.369V319.16H162.784V318.394H161.085C160.782 318.775 160.277 319.001 159.673 319.001C158.668 319.001 157.934 318.384 157.94 317.48C157.934 316.581 158.668 315.964 159.673 315.964ZM158.503 317.48C158.503 318.086 158.992 318.517 159.673 318.522C160.338 318.517 160.832 318.086 160.832 317.48C160.832 316.879 160.338 316.448 159.673 316.454C158.992 316.448 158.503 316.879 158.503 317.48ZM159.035 319.974V319.506H163.369V321.101H159.636V321.846H163.624V322.324H159.051V320.654H162.784V319.974H159.035ZM161.33 317.017C161.375 317.161 161.401 317.315 161.401 317.48C161.401 317.639 161.377 317.788 161.335 317.927H162.784V317.017H161.33ZM169.805 315.73V322.425H169.214V315.73H169.805ZM164.545 318.575C164.545 317.155 165.253 316.251 166.252 316.246C167.242 316.251 167.959 317.155 167.959 318.575C167.959 320 167.242 320.904 166.252 320.904C165.253 320.904 164.545 320 164.545 318.575ZM165.114 318.575C165.114 319.665 165.582 320.378 166.252 320.378C166.922 320.378 167.385 319.665 167.385 318.575C167.385 317.49 166.922 316.778 166.252 316.773C165.582 316.778 165.114 317.49 165.114 318.575ZM177.714 315.736V317.756H178.714V318.251H177.714V320.213H177.124V315.736H177.714ZM172.466 319.532C173 319.532 173.625 319.532 174.279 319.511V319.019C173.5 318.95 172.998 318.591 173.003 318.038C172.998 317.427 173.625 317.049 174.566 317.054C175.513 317.049 176.13 317.427 176.135 318.038C176.13 318.586 175.643 318.945 174.87 319.019V319.49C175.494 319.458 176.124 319.407 176.709 319.32L176.757 319.75C175.311 320.006 173.71 320.016 172.535 320.016L172.466 319.532ZM172.636 316.794V316.342H174.279V315.677H174.87V316.342H176.507V316.794H172.636ZM173.29 321.021V320.548H177.714V322.415H177.124V321.021H173.29ZM173.567 318.038C173.561 318.384 173.95 318.623 174.566 318.618C175.183 318.623 175.571 318.384 175.571 318.038C175.571 317.682 175.183 317.464 174.566 317.469C173.95 317.464 173.561 317.682 173.567 318.038ZM183.742 315.81C185.231 315.81 186.103 316.225 186.103 316.969C186.103 317.671 185.34 318.073 184.024 318.129V318.634H186.794V319.118H180.7V318.634H183.444V318.126C182.136 318.07 181.375 317.669 181.375 316.969C181.375 316.225 182.253 315.81 183.742 315.81ZM181.439 320.144V319.681H186.007V321.181H182.035V321.872H186.209V322.34H181.455V320.745H185.428V320.144H181.439ZM181.992 316.969C181.987 317.427 182.636 317.677 183.742 317.682C184.853 317.677 185.502 317.427 185.502 316.969C185.502 316.528 184.853 316.267 183.742 316.262C182.636 316.267 181.987 316.528 181.992 316.969ZM36.2993 326.736V328.384H37.3096V328.879H36.2993V330.655H35.709V326.736H36.2993ZM31.3432 332.888C32.1834 332.58 32.7045 331.857 32.7045 331.208V330.894H33.2682V331.208C33.2629 331.809 33.5819 332.436 34.2174 332.803C34.8608 332.402 35.1879 331.724 35.1932 331.208V330.894H35.7675V331.208C35.7675 331.904 36.2674 332.596 37.1288 332.888L36.831 333.335C36.1663 333.09 35.701 332.622 35.4724 332.059C35.265 332.606 34.8582 333.127 34.2307 333.393C33.5846 333.138 33.1751 332.644 32.9757 332.08C32.7364 332.622 32.2738 333.093 31.641 333.335L31.3432 332.888ZM31.3538 327.565V327.071H34.3849V328.884H31.9547V329.804C33.2895 329.807 34.0924 329.764 35.0443 329.586L35.1028 330.08C34.1084 330.256 33.2841 330.293 31.8909 330.293H31.3698V328.421H33.8053V327.565H31.3538ZM42.7084 326.73V329.373H43.8251V329.868H42.7084V333.425H42.1181V326.73H42.7084ZM37.8267 331.75V327.384H40.9482V327.868H38.417V331.25C39.6268 331.248 40.4829 331.2 41.4747 331.016L41.5491 331.527C40.5015 331.713 39.6241 331.75 38.3532 331.75H37.8267ZM44.7038 332.846C44.4379 332.846 44.2146 332.628 44.2199 332.362C44.2146 332.096 44.4379 331.878 44.7038 331.878C44.9697 331.878 45.1877 332.096 45.1877 332.362C45.1877 332.628 44.9697 332.846 44.7038 332.846ZM50.8949 327.368V327.863H48.4222V331.272C49.6267 331.269 50.4217 331.232 51.3523 331.054L51.4214 331.543C50.4376 331.729 49.624 331.771 48.3425 331.771H47.8266V327.368H50.8949ZM50.4961 329.655V329.16H52.4477V326.73H53.038V333.425H52.4477V329.655H50.4961ZM60.0639 330.128V330.618H57.3519V331.984H56.7563V330.618H53.9433V330.128H60.0639ZM54.6399 328.246C54.6346 327.416 55.5705 326.906 56.9956 326.9C58.4261 326.906 59.3514 327.416 59.3514 328.246C59.3514 329.07 58.4261 329.581 56.9956 329.581C55.5705 329.581 54.6346 329.07 54.6399 328.246ZM54.7356 333.266V331.314H55.3259V332.766H59.3833V333.266H54.7356ZM55.2674 328.246C55.2621 328.767 55.9587 329.097 56.9956 329.097C58.0379 329.097 58.7292 328.767 58.7292 328.246C58.7292 327.714 58.0379 327.384 56.9956 327.384C55.9587 327.384 55.2621 327.714 55.2674 328.246ZM67.6972 326.736V331.261H67.107V329.113H65.6393V328.618H67.107V326.736H67.6972ZM62.2679 330.352C63.8632 329.86 64.8496 328.937 64.9773 327.746H62.5976V327.262H65.6074C65.6021 328.974 64.4535 330.208 62.5285 330.825L62.2679 330.352ZM62.9698 332.92C64.1504 332.718 65.2298 331.968 65.2352 330.984V330.676H65.8201V330.984C65.8201 331.958 66.889 332.691 68.0695 332.904L67.8196 333.377C66.8331 333.189 65.9238 332.665 65.5276 331.88C65.1235 332.67 64.2062 333.194 63.2091 333.393L62.9698 332.92ZM74.016 329.862V330.341H71.9527V332.075H74.7392V332.569H68.6185V332.075H71.3677V330.341H69.4002V327.273H73.9521V327.757H69.9905V329.862H74.016ZM78.6076 327.246C79.5966 327.251 80.2933 328.155 80.2986 329.575C80.2933 331 79.5966 331.904 78.6076 331.904C77.6185 331.904 76.9219 331 76.9272 329.575C76.9219 328.155 77.6185 327.251 78.6076 327.246ZM77.4855 329.575C77.4855 330.665 77.9482 331.378 78.6076 331.378C79.2776 331.378 79.7296 330.665 79.7296 329.575C79.7296 328.49 79.2776 327.778 78.6076 327.773C77.9482 327.778 77.4855 328.49 77.4855 329.575ZM81.4047 333.415V326.73H81.9949V329.4H83.1116V329.905H81.9949V333.415H81.4047ZM88.7922 326.73V333.415H88.2073V326.73H88.7922ZM83.7191 331.692V327.39H84.2988V331.176C85.3198 331.173 86.37 331.093 87.4947 330.857L87.5745 331.362C86.3886 331.607 85.3304 331.692 84.2616 331.692H83.7191ZM92.0479 331.208C92.0426 331.809 92.3617 332.439 92.9998 332.806C93.6406 332.404 93.9676 331.726 93.9729 331.208V330.804H94.5472V331.208C94.5472 331.899 95.0471 332.596 95.9192 332.883L95.6108 333.33C94.9461 333.088 94.4808 332.62 94.2521 332.056C94.0421 332.601 93.6353 333.117 93.0104 333.383C92.3697 333.135 91.9549 332.644 91.7528 332.08C91.5135 332.617 91.0535 333.085 90.4154 333.33L90.1229 332.883C90.9685 332.58 91.4736 331.857 91.4789 331.208V330.804H92.0479V331.208ZM89.8571 328.677C89.8571 327.757 90.5856 327.108 91.5853 327.113C92.4654 327.108 93.154 327.634 93.2843 328.411H94.6961V326.73H95.2864V330.548H94.6961V328.9H93.2923C93.1779 329.7 92.4813 330.24 91.5853 330.24C90.5856 330.24 89.8571 329.597 89.8571 328.677ZM90.426 328.677C90.4207 329.293 90.9153 329.745 91.5853 329.751C92.2447 329.745 92.7392 329.293 92.7392 328.677C92.7392 328.054 92.2447 327.608 91.5853 327.613C90.9153 327.608 90.4207 328.054 90.426 328.677ZM101.61 328.756V329.235H97.0372V326.975H97.6222V328.756H101.61ZM96.197 330.623V330.144H102.318V330.623H96.197ZM96.9947 333.25V331.304H97.5796V332.761H101.653V333.25H96.9947ZM108.392 326.73V333.415H107.817V326.73H108.392ZM102.931 331.803V327.555H105.451V328.044H103.505V331.304C104.47 331.301 105.079 331.264 105.797 331.107L105.855 331.607C105.084 331.766 104.43 331.798 103.356 331.803H102.931ZM104.999 329.777V329.283H106.461V326.89H107.025V333.064H106.461V329.777H104.999ZM116.1 326.73V328.32H117.105V328.815H116.1V330.346H115.504V326.73H116.1ZM110.888 329.948C112.539 329.551 113.523 328.706 113.627 327.624H111.181V327.14H114.276C114.276 328.81 113.084 329.948 111.112 330.431L110.888 329.948ZM111.851 333.324V330.655H112.441V331.5H115.509V330.655H116.1V333.324H111.851ZM112.441 332.84H115.509V331.974H112.441V332.84ZM119.595 328.783C119.589 329.852 120.366 331.032 121.333 331.495L120.993 331.963C120.246 331.593 119.611 330.806 119.31 329.902C118.999 330.881 118.329 331.745 117.579 332.128L117.223 331.66C118.185 331.192 119.01 329.921 119.015 328.783V327.911H117.462V327.416H121.099V327.911H119.595V328.783ZM121.918 333.415V326.73H122.509V329.432H123.625V329.937H122.509V333.415H121.918ZM129.322 326.73V333.415H128.732V326.73H129.322ZM123.882 331.676C125.69 330.82 126.613 329.533 126.743 327.937H124.19V327.459H127.344C127.338 329.379 126.445 331.08 124.201 332.16L123.882 331.676ZM131.914 331.346C132.321 331.346 132.834 331.341 133.371 331.322V330.195C132.627 330.086 132.121 329.543 132.127 328.783C132.121 327.943 132.754 327.368 133.648 327.368C134.552 327.368 135.184 327.943 135.184 328.783C135.184 329.538 134.685 330.08 133.94 330.192V331.301C134.451 331.274 134.956 331.234 135.392 331.176L135.434 331.612C134.328 331.798 132.903 331.841 131.999 331.841L131.914 331.346ZM132.659 328.783C132.653 329.341 133.079 329.724 133.648 329.724C134.222 329.724 134.642 329.341 134.642 328.783C134.642 328.241 134.222 327.847 133.648 327.847C133.079 327.847 132.653 328.241 132.659 328.783ZM135.706 333.058V326.879H136.259V329.517H137.093V326.73H137.657V333.415H137.093V330.011H136.259V333.058H135.706ZM142.041 326.964C142.632 326.964 143.126 327.18 143.435 327.544H145.152V326.73H145.737V330.16H145.152V329.394H143.453C143.15 329.775 142.645 330.001 142.041 330.001C141.036 330.001 140.302 329.384 140.308 328.48C140.302 327.581 141.036 326.964 142.041 326.964ZM140.871 328.48C140.871 329.086 141.361 329.517 142.041 329.522C142.706 329.517 143.201 329.086 143.201 328.48C143.201 327.879 142.706 327.448 142.041 327.454C141.361 327.448 140.871 327.879 140.871 328.48ZM141.403 330.974V330.506H145.737V332.101H142.004V332.846H145.992V333.324H141.419V331.654H145.152V330.974H141.403ZM143.698 328.017C143.743 328.161 143.77 328.315 143.77 328.48C143.77 328.639 143.746 328.788 143.703 328.927H145.152V328.017H143.698ZM152.173 326.73V333.425H151.583V326.73H152.173ZM146.914 329.575C146.914 328.155 147.621 327.251 148.621 327.246C149.61 327.251 150.328 328.155 150.328 329.575C150.328 331 149.61 331.904 148.621 331.904C147.621 331.904 146.914 331 146.914 329.575ZM147.483 329.575C147.483 330.665 147.951 331.378 148.621 331.378C149.291 331.378 149.753 330.665 149.753 329.575C149.753 328.49 149.291 327.778 148.621 327.773C147.951 327.778 147.483 328.49 147.483 329.575ZM157.908 327.166C159.333 327.172 160.354 327.863 160.354 328.916C160.354 329.91 159.471 330.57 158.2 330.655V332.059H160.987V332.553H154.866V332.059H157.615V330.655C156.355 330.567 155.467 329.91 155.467 328.916C155.467 327.863 156.493 327.172 157.908 327.166ZM156.036 328.916C156.036 329.687 156.828 330.187 157.908 330.192C158.993 330.187 159.785 329.687 159.785 328.916C159.785 328.161 158.993 327.65 157.908 327.656C156.828 327.65 156.036 328.161 156.036 328.916ZM167.438 329.836V330.298H161.318V329.836H167.438ZM162.057 331.277V330.836H166.673V332.255H162.658V332.894H166.891V333.324H162.067V331.846H166.088V331.277H162.057ZM162.094 327.358V326.932H166.651V328.315H162.7V328.9H166.768V329.331H162.115V327.911H166.061V327.358H162.094ZM173.082 326.73V329.49H174.097V329.985H173.082V333.415H172.491V326.73H173.082ZM167.764 331.564C168.777 330.532 169.184 329.285 169.256 327.953H167.977V327.459H169.817C169.811 329.049 169.455 330.618 168.243 331.899L167.764 331.564ZM169.684 332.016C170.731 330.833 171.045 329.347 171.101 327.953H170.029V327.459H171.657C171.651 329.044 171.417 330.889 170.168 332.346L169.684 332.016ZM174.96 332.846C174.694 332.846 174.471 332.628 174.476 332.362C174.471 332.096 174.694 331.878 174.96 331.878C175.226 331.878 175.444 332.096 175.444 332.362C175.444 332.628 175.226 332.846 174.96 332.846ZM176.723 332.846C176.457 332.846 176.233 332.628 176.239 332.362C176.233 332.096 176.457 331.878 176.723 331.878C176.989 331.878 177.207 332.096 177.207 332.362C177.207 332.628 176.989 332.846 176.723 332.846ZM178.485 332.846C178.219 332.846 177.996 332.628 178.001 332.362C177.996 332.096 178.219 331.878 178.485 331.878C178.751 331.878 178.969 332.096 178.969 332.362C178.969 332.628 178.751 332.846 178.485 332.846Z" fill="#111111"/>
<rect width="198" height="24.2" transform="translate(11 5)" fill="white"/>
<path opacity="0.35" d="M186.175 15.4514C186.175 14.7933 186.709 14.2597 187.367 14.2597H196.534C197.192 14.2597 197.725 14.7933 197.725 15.4514V18.7514C197.725 19.4095 197.192 19.9431 196.534 19.9431H187.367C186.709 19.9431 186.175 19.4095 186.175 18.7514V15.4514Z" stroke="#111111" stroke-width="0.55"/>
<path opacity="0.4" d="M198.551 16.0021V18.2021C198.993 18.0157 199.281 17.5823 199.281 17.1021C199.281 16.6219 198.993 16.1884 198.551 16.0021Z" fill="#111111"/>
<path d="M187 15.6897C187 15.3556 187.271 15.0847 187.605 15.0847H196.295C196.629 15.0847 196.9 15.3556 196.9 15.6897V18.5131C196.9 18.8472 196.629 19.1181 196.295 19.1181H187.605C187.271 19.1181 187 18.8472 187 18.5131V15.6897Z" fill="#111111"/>
<path fill-rule="evenodd" clip-rule="evenodd" d="M178.933 15.2351C180.151 15.2351 181.323 15.7034 182.207 16.5432C182.273 16.608 182.38 16.6072 182.445 16.5413L183.081 15.8997C183.114 15.8663 183.133 15.821 183.132 15.774C183.132 15.7269 183.113 15.6819 183.079 15.6489C180.761 13.4271 177.104 13.4271 174.785 15.6489C174.752 15.6818 174.733 15.7268 174.732 15.7739C174.732 15.821 174.751 15.8662 174.784 15.8997L175.42 16.5413C175.485 16.6073 175.592 16.6081 175.658 16.5432C176.541 15.7034 177.714 15.2351 178.933 15.2351ZM178.933 17.3227C179.602 17.3226 180.248 17.5715 180.744 18.021C180.811 18.0848 180.917 18.0834 180.983 18.0179L181.618 17.3762C181.651 17.3426 181.67 17.2969 181.669 17.2495C181.669 17.202 181.649 17.1567 181.615 17.1238C180.104 15.7178 177.763 15.7178 176.251 17.1238C176.217 17.1567 176.198 17.202 176.197 17.2495C176.197 17.297 176.215 17.3426 176.249 17.3762L176.884 18.0179C176.949 18.0834 177.055 18.0848 177.122 18.021C177.618 17.5718 178.263 17.323 178.933 17.3227ZM180.205 18.7273C180.206 18.7749 180.187 18.8207 180.153 18.8541L179.054 19.9627C179.022 19.9953 178.978 20.0136 178.933 20.0136C178.887 20.0136 178.843 19.9953 178.811 19.9627L177.712 18.8541C177.678 18.8207 177.659 18.7748 177.66 18.7273C177.661 18.6797 177.682 18.6346 177.717 18.6027C178.419 18.0093 179.446 18.0093 180.148 18.6027C180.183 18.6346 180.204 18.6797 180.205 18.7273Z" fill="#111111"/>
<path fill-rule="evenodd" clip-rule="evenodd" d="M171.417 14.1674H170.867C170.563 14.1674 170.317 14.4136 170.317 14.7174V19.484C170.317 19.7878 170.563 20.034 170.867 20.034H171.417C171.721 20.034 171.967 19.7878 171.967 19.484V14.7174C171.967 14.4136 171.721 14.1674 171.417 14.1674ZM168.301 15.4507H168.851C169.154 15.4507 169.401 15.6969 169.401 16.0007V19.484C169.401 19.7878 169.154 20.034 168.851 20.034H168.301C167.997 20.034 167.751 19.7878 167.751 19.484V16.0007C167.751 15.6969 167.997 15.4507 168.301 15.4507ZM166.284 16.734H165.734C165.43 16.734 165.184 16.9803 165.184 17.284V19.484C165.184 19.7878 165.43 20.034 165.734 20.034H166.284C166.588 20.034 166.834 19.7878 166.834 19.484V17.284C166.834 16.9803 166.588 16.734 166.284 16.734ZM163.717 17.834H163.167C162.863 17.834 162.617 18.0803 162.617 18.384V19.484C162.617 19.7878 162.863 20.034 163.167 20.034H163.717C164.021 20.034 164.267 19.7878 164.267 19.484V18.384C164.267 18.0803 164.021 17.834 163.717 17.834Z" fill="#111111"/>
<path d="M29.9834 13.6421C28.7226 13.6421 27.8243 14.5042 27.8243 15.6844V15.6925C27.8243 16.7963 28.6058 17.61 29.7216 17.61C30.5192 17.61 31.0268 17.2031 31.2403 16.7439H31.3208C31.3208 16.7882 31.3168 16.8325 31.3168 16.8768C31.2725 17.9886 30.8818 18.891 29.9593 18.891C29.4477 18.891 29.0892 18.6251 28.9361 18.2183L28.924 18.178H27.9008L27.9089 18.2223C28.0942 19.1125 28.8918 19.745 29.9593 19.745C31.4216 19.745 32.3038 18.5848 32.3038 16.6271V16.619C32.3038 14.5243 31.2242 13.6421 29.9834 13.6421ZM29.9794 16.8124C29.3188 16.8124 28.8394 16.329 28.8394 15.6562V15.6482C28.8394 14.9996 29.351 14.488 29.9915 14.488C30.636 14.488 31.1396 15.0077 31.1396 15.6724V15.6804C31.1396 16.337 30.636 16.8124 29.9794 16.8124ZM33.8576 15.8335C34.2282 15.8335 34.4981 15.5515 34.4981 15.197C34.4981 14.8385 34.2282 14.5605 33.8576 14.5605C33.491 14.5605 33.2171 14.8385 33.2171 15.197C33.2171 15.5515 33.491 15.8335 33.8576 15.8335ZM33.8576 18.8225C34.2282 18.8225 34.4981 18.5446 34.4981 18.186C34.4981 17.8275 34.2282 17.5496 33.8576 17.5496C33.491 17.5496 33.2171 17.8275 33.2171 18.186C33.2171 18.5446 33.491 18.8225 33.8576 18.8225ZM38.2313 19.6H39.2263V18.4841H40.0078V17.6261H39.2263V13.7871H37.756C36.9664 14.9875 36.1406 16.325 35.3873 17.6342V18.4841H38.2313V19.6ZM36.3541 17.6503V17.5898C36.9181 16.6029 37.5908 15.5273 38.187 14.6169H38.2474V17.6503H36.3541ZM42.1417 19.6H43.181V13.7871H42.1458L40.6271 14.8546V15.8335L42.0732 14.8103H42.1417V19.6Z" fill="#111111"/>
<g filter="url(#filter1_d_1235_19029)">
<path d="M11 427.146H209V432.8C209 440.09 203.09 446 195.8 446H24.2C16.9098 446 11 440.09 11 432.8V427.146Z" fill="white"/>
<rect x="73.1504" y="438.696" width="73.7" height="2.75" rx="1.375" fill="#111111"/>
<rect x="11" y="385" width="198" height="42.1455" fill="white"/>
<rect x="22" y="391.373" width="176" height="29.4" rx="6.6" fill="#A30FFA"/>
<path d="M100.6 402.078V404.341H101.648V405.128H100.6V407.328H99.6424V402.078H100.6ZM94.3733 406.399C94.9567 406.399 95.6283 406.396 96.3302 406.377V405.897C95.4672 405.791 94.9203 405.378 94.9264 404.764C94.9203 404.053 95.6708 403.609 96.7982 403.612C97.9286 403.609 98.67 404.053 98.6761 404.764C98.67 405.372 98.1352 405.785 97.2844 405.894V406.344C97.9498 406.31 98.6183 406.256 99.2413 406.174L99.3112 406.842C97.6612 407.131 95.844 407.146 94.4766 407.149L94.3733 406.399ZM94.5739 403.393V402.691H96.3302V402.011H97.2844V402.691H99.0346V403.393H94.5739ZM95.3487 408.407V407.663H100.6V409.832H99.6424V408.407H95.3487ZM95.841 404.764C95.8349 405.089 96.1935 405.289 96.7982 405.286C97.3998 405.289 97.7584 405.089 97.7584 404.764C97.7584 404.43 97.3998 404.256 96.7982 404.256C96.1935 404.256 95.8349 404.43 95.841 404.764ZM108.295 402.078V407.69H107.338V402.078H108.295ZM101.968 404.527C101.965 403.396 102.88 402.588 104.062 402.588C105.244 402.588 106.153 403.396 106.153 404.527C106.153 405.675 105.244 406.478 104.062 406.475C102.88 406.478 101.965 405.675 101.968 404.527ZM102.901 404.527C102.898 405.217 103.397 405.642 104.062 405.642C104.709 405.642 105.214 405.217 105.214 404.527C105.214 403.855 104.709 403.421 104.062 403.421C103.397 403.421 102.898 403.855 102.901 404.527ZM103.157 409.686V407.119H104.12V408.912H108.514V409.686H103.157ZM113.428 402.406C114.562 402.406 115.37 403.035 115.376 403.968C115.37 404.743 114.79 405.32 113.924 405.481V406.11C114.571 406.07 115.221 406.013 115.826 405.925L115.899 406.623C114.285 406.912 112.483 406.946 111.168 406.943L111.067 406.177C111.626 406.18 112.28 406.177 112.963 406.152V405.487C112.076 405.335 111.48 404.752 111.487 403.968C111.48 403.035 112.289 402.406 113.428 402.406ZM112.128 409.677V407.486H113.088V408.902H117.512V409.677H112.128ZM112.377 403.968C112.371 404.478 112.808 404.794 113.428 404.8C114.051 404.794 114.471 404.478 114.477 403.968C114.471 403.445 114.051 403.132 113.428 403.129C112.808 403.132 112.371 403.445 112.377 403.968ZM116.282 408.009V402.078H117.239V404.581H118.287V405.381H117.239V408.009H116.282ZM125.569 408.146V408.936H118.468V408.146H120.346V406.867H119.31V404.329H123.783V403.372H119.297V402.6H124.728V405.095H120.264V406.089H124.907V406.867H123.77V408.146H125.569ZM121.276 408.146H122.831V406.867H121.276V408.146Z" fill="white"/>
</g>
</g>
</g>
</g>
<defs>
<filter id="filter0_d_1235_19029" x="0" y="0" width="263" height="502" filterUnits="userSpaceOnUse" color-interpolation-filters="sRGB">
<feFlood flood-opacity="0" result="BackgroundImageFix"/>
<feColorMatrix in="SourceAlpha" type="matrix" values="0 0 0 0 0 0 0 0 0 0 0 0 0 0 0 0 0 0 127 0" result="hardAlpha"/>
<feMorphology radius="2" operator="erode" in="SourceAlpha" result="effect1_dropShadow_1235_19029"/>
<feOffset dx="20" dy="26"/>
<feGaussianBlur stdDeviation="14"/>
<feComposite in2="hardAlpha" operator="out"/>
<feColorMatrix type="matrix" values="0 0 0 0 0 0 0 0 0 0 0 0 0 0 0 0 0 0 0.1 0"/>
<feBlend mode="normal" in2="BackgroundImageFix" result="effect1_dropShadow_1235_19029"/>
<feBlend mode="normal" in="SourceGraphic" in2="effect1_dropShadow_1235_19029" result="shape"/>
</filter>
<filter id="filter1_d_1235_19029" x="6.6" y="376.2" width="206.8" height="69.8" filterUnits="userSpaceOnUse" color-interpolation-filters="sRGB">
<feFlood flood-opacity="0" result="BackgroundImageFix"/>
<feColorMatrix in="SourceAlpha" type="matrix" values="0 0 0 0 0 0 0 0 0 0 0 0 0 0 0 0 0 0 127 0" result="hardAlpha"/>
<feOffset dy="-4.4"/>
<feGaussianBlur stdDeviation="2.2"/>
<feComposite in2="hardAlpha" operator="out"/>
<feColorMatrix type="matrix" values="0 0 0 0 0 0 0 0 0 0 0 0 0 0 0 0 0 0 0.04 0"/>
<feBlend mode="normal" in2="BackgroundImageFix" result="effect1_dropShadow_1235_19029"/>
<feBlend mode="normal" in="SourceGraphic" in2="effect1_dropShadow_1235_19029" result="shape"/>
</filter>
<radialGradient id="paint0_radial_1235_19029" cx="0" cy="0" r="1" gradientUnits="userSpaceOnUse" gradientTransform="translate(41.3188 249.614) rotate(131.878) scale(16.0663)">
<stop stop-color="#FFF478"/>
<stop offset="0.474827" stop-color="#FFB02E"/>
<stop offset="1" stop-color="#F70A8D"/>
</radialGradient>
<radialGradient id="paint1_radial_1235_19029" cx="0" cy="0" r="1" gradientUnits="userSpaceOnUse" gradientTransform="translate(37.4 251.058) rotate(101.31) scale(7.36171 9.42895)">
<stop offset="0.787821" stop-color="#F59639" stop-opacity="0"/>
<stop offset="0.972509" stop-color="#FF7DCE"/>
</radialGradient>
<radialGradient id="paint2_radial_1235_19029" cx="0" cy="0" r="1" gradientUnits="userSpaceOnUse" gradientTransform="translate(38.225 251.676) rotate(135) scale(16.9175)">
<stop offset="0.314853" stop-opacity="0"/>
<stop offset="1"/>
</radialGradient>
<radialGradient id="paint3_radial_1235_19029" cx="0" cy="0" r="1" gradientUnits="userSpaceOnUse" gradientTransform="translate(37.4 252.914) rotate(77.692) scale(11.6106)">
<stop offset="0.507903" stop-color="#7D6133" stop-opacity="0"/>
<stop offset="1" stop-color="#715B32"/>
</radialGradient>
<radialGradient id="paint4_radial_1235_19029" cx="0" cy="0" r="1" gradientUnits="userSpaceOnUse" gradientTransform="translate(37.6063 252.708) rotate(55.7131) scale(5.49183 3.98076)">
<stop stop-color="#FFB849"/>
<stop offset="1" stop-color="#FFB847" stop-opacity="0"/>
</radialGradient>
<radialGradient id="paint5_radial_1235_19029" cx="0" cy="0" r="1" gradientUnits="userSpaceOnUse" gradientTransform="translate(39.2563 253.326) rotate(9.86581) scale(4.81495)">
<stop stop-color="#FFA64B"/>
<stop offset="0.900412" stop-color="#FFAE46" stop-opacity="0"/>
</radialGradient>
<radialGradient id="paint6_radial_1235_19029" cx="0" cy="0" r="1" gradientUnits="userSpaceOnUse" gradientTransform="translate(38.0187 252.089) rotate(43.9708) scale(24.3593)">
<stop offset="0.185425" stop-opacity="0"/>
<stop offset="1" stop-opacity="0.4"/>
</radialGradient>
<radialGradient id="paint7_radial_1235_19029" cx="0" cy="0" r="1" gradientUnits="userSpaceOnUse" gradientTransform="translate(37.9672 250.697) rotate(122.164) scale(2.13091)">
<stop stop-color="#EFA031"/>
<stop offset="1" stop-color="#EFA031" stop-opacity="0"/>
</radialGradient>
<radialGradient id="paint8_radial_1235_19029" cx="0" cy="0" r="1" gradientUnits="userSpaceOnUse" gradientTransform="translate(39.1531 253.352) rotate(19.5731) scale(1.23131 0.708635)">
<stop offset="0.514687" stop-color="#DE8A44"/>
<stop offset="1" stop-color="#E18D48" stop-opacity="0"/>
</radialGradient>
<radialGradient id="paint9_radial_1235_19029" cx="0" cy="0" r="1" gradientUnits="userSpaceOnUse" gradientTransform="translate(34.0227 253.223) rotate(38.6598) scale(1.15556 0.665043)">
<stop offset="0.514687" stop-color="#DE8A44"/>
<stop offset="1" stop-color="#E18D48" stop-opacity="0"/>
</radialGradient>
<radialGradient id="paint10_radial_1235_19029" cx="0" cy="0" r="1" gradientUnits="userSpaceOnUse" gradientTransform="translate(34.9254 252.501) rotate(90) scale(1.36641 2.475)">
<stop offset="0.339623" stop-color="#4E3225"/>
<stop offset="0.55814" stop-color="#56424D"/>
<stop offset="0.867925" stop-color="#532A4D"/>
</radialGradient>
<radialGradient id="paint11_radial_1235_19029" cx="0" cy="0" r="1" gradientUnits="userSpaceOnUse" gradientTransform="translate(39.8766 252.501) rotate(90) scale(1.36641 2.475)">
<stop offset="0.339623" stop-color="#4E3225"/>
<stop offset="0.55814" stop-color="#56424D"/>
<stop offset="0.867925" stop-color="#532A4D"/>
</radialGradient>
<radialGradient id="paint12_radial_1235_19029" cx="0" cy="0" r="1" gradientUnits="userSpaceOnUse" gradientTransform="translate(37.4012 256.993) rotate(-90) scale(2.01667)">
<stop stop-color="#F70A8D"/>
<stop offset="1" stop-color="#89029C"/>
</radialGradient>
<linearGradient id="paint13_linear_1235_19029" x1="41.4841" y1="246.827" x2="41.64" y2="247.516" gradientUnits="userSpaceOnUse">
<stop stop-color="#3D98E4"/>
<stop offset="0.53125" stop-color="#3999FF"/>
<stop offset="1" stop-color="#3472EA"/>
</linearGradient>
<linearGradient id="paint14_linear_1235_19029" x1="42.1174" y1="248.919" x2="42.2766" y2="249.646" gradientUnits="userSpaceOnUse">
<stop stop-color="#3D98E4" stop-opacity="0"/>
<stop offset="0.0263313" stop-color="#3D98E4"/>
<stop offset="0.53125" stop-color="#3999FF"/>
<stop offset="1" stop-color="#3472EA"/>
</linearGradient>
<radialGradient id="paint15_radial_1235_19029" cx="0" cy="0" r="1" gradientUnits="userSpaceOnUse" gradientTransform="translate(41.911 248.843) rotate(116.667) scale(0.657595 0.160113)">
<stop stop-color="#7EC6FD"/>
<stop offset="1" stop-color="#5CB8FF" stop-opacity="0"/>
</radialGradient>
<linearGradient id="paint16_linear_1235_19029" x1="42.2961" y1="248.194" x2="41.6238" y2="247.827" gradientUnits="userSpaceOnUse">
<stop stop-color="#3D98E4" stop-opacity="0"/>
<stop offset="0.03125" stop-color="#3D98E4"/>
<stop offset="0.53125" stop-color="#3999FF"/>
<stop offset="0.987159" stop-color="#3472EA"/>
<stop offset="1" stop-color="#3472EA" stop-opacity="0"/>
</linearGradient>
<radialGradient id="paint17_radial_1235_19029" cx="0" cy="0" r="1" gradientUnits="userSpaceOnUse" gradientTransform="translate(40.0524 247.651) rotate(-1.59114) scale(0.935763 1.35301)">
<stop stop-color="#2F6FC8"/>
<stop offset="1" stop-color="#2F6FC8" stop-opacity="0"/>
</radialGradient>
<radialGradient id="paint18_radial_1235_19029" cx="0" cy="0" r="1" gradientUnits="userSpaceOnUse" gradientTransform="translate(42.2782 246.637) rotate(118.425) scale(0.969061 0.670221)">
<stop offset="0.364906" stop-color="#3999FF"/>
<stop offset="1" stop-color="#3999FF" stop-opacity="0"/>
</radialGradient>
<radialGradient id="paint19_radial_1235_19029" cx="0" cy="0" r="1" gradientUnits="userSpaceOnUse" gradientTransform="translate(41.4191 249.893) rotate(-63.7046) scale(0.630524 0.526126)">
<stop offset="0.364906" stop-color="#3999FF"/>
<stop offset="1" stop-color="#3999FF" stop-opacity="0"/>
</radialGradient>
<radialGradient id="paint20_radial_1235_19029" cx="0" cy="0" r="1" gradientUnits="userSpaceOnUse" gradientTransform="translate(42.7612 246.777) rotate(124.556) scale(0.469548 0.437131)">
<stop stop-color="#7EC6FD"/>
<stop offset="1" stop-color="#5CB8FF" stop-opacity="0"/>
</radialGradient>
<radialGradient id="paint21_radial_1235_19029" cx="0" cy="0" r="1" gradientUnits="userSpaceOnUse" gradientTransform="translate(43.0853 249.016) rotate(167.106) scale(0.276551 0.35606)">
<stop stop-color="#7EC6FD"/>
<stop offset="1" stop-color="#5CB8FF" stop-opacity="0"/>
</radialGradient>
<linearGradient id="paint22_linear_1235_19029" x1="39.9284" y1="248.568" x2="39.9247" y2="249.079" gradientUnits="userSpaceOnUse">
<stop stop-color="#48D4FF"/>
<stop offset="0.53125" stop-color="#48D4FF"/>
<stop offset="1" stop-color="#40AAFE"/>
</linearGradient>
<linearGradient id="paint23_linear_1235_19029" x1="40.0298" y1="250.147" x2="40.022" y2="250.686" gradientUnits="userSpaceOnUse">
<stop stop-color="#3D98E4" stop-opacity="0"/>
<stop offset="0.03125" stop-color="#53D7FF"/>
<stop offset="0.53125" stop-color="#51D6FF"/>
<stop offset="1" stop-color="#41A0FC"/>
</linearGradient>
<radialGradient id="paint24_radial_1235_19029" cx="0" cy="0" r="1" gradientUnits="userSpaceOnUse" gradientTransform="translate(39.8969 250.059) rotate(129.835) scale(0.475973 0.115891)">
<stop stop-color="white" stop-opacity="0.6"/>
<stop offset="1" stop-color="white" stop-opacity="0"/>
</radialGradient>
<linearGradient id="paint25_linear_1235_19029" x1="40.2752" y1="249.666" x2="39.8618" y2="249.296" gradientUnits="userSpaceOnUse">
<stop stop-color="#3D98E4" stop-opacity="0"/>
<stop offset="0.03125" stop-color="#49C5FF"/>
<stop offset="0.53125" stop-color="#48D4FF"/>
<stop offset="0.987159" stop-color="#3EADFA"/>
<stop offset="1" stop-color="#3472EA" stop-opacity="0"/>
</linearGradient>
<radialGradient id="paint26_radial_1235_19029" cx="0" cy="0" r="1" gradientUnits="userSpaceOnUse" gradientTransform="translate(38.7835 248.913) rotate(11.577) scale(0.677313 0.979317)">
<stop stop-color="#3EAAE1"/>
<stop offset="1" stop-color="#3EAAE1" stop-opacity="0"/>
</radialGradient>
<radialGradient id="paint27_radial_1235_19029" cx="0" cy="0" r="1" gradientUnits="userSpaceOnUse" gradientTransform="translate(40.5193 248.566) rotate(131.593) scale(0.701414 0.485111)">
<stop offset="0.364906" stop-color="#48D4FF"/>
<stop offset="1" stop-color="#48D4FF" stop-opacity="0"/>
</radialGradient>
<radialGradient id="paint28_radial_1235_19029" cx="0" cy="0" r="1" gradientUnits="userSpaceOnUse" gradientTransform="translate(39.3572 250.679) rotate(-90) scale(0.318156 1.85779)">
<stop offset="0.326234" stop-color="#41A0FC"/>
<stop offset="1" stop-color="#41A0FC" stop-opacity="0"/>
</radialGradient>
<radialGradient id="paint29_radial_1235_19029" cx="0" cy="0" r="1" gradientUnits="userSpaceOnUse" gradientTransform="translate(40.8367 248.744) rotate(137.724) scale(0.339862 0.316399)">
<stop stop-color="#CBE8FF"/>
<stop offset="1" stop-color="#CBE8FF" stop-opacity="0"/>
</radialGradient>
<radialGradient id="paint30_radial_1235_19029" cx="0" cy="0" r="1" gradientUnits="userSpaceOnUse" gradientTransform="translate(40.6959 250.375) rotate(-179.726) scale(0.20017 0.257719)">
<stop stop-color="#CBE8FF" stop-opacity="0.6"/>
<stop offset="1" stop-color="#CBE8FF" stop-opacity="0"/>
</radialGradient>
<linearGradient id="paint31_linear_1235_19029" x1="38.6037" y1="249.44" x2="38.5101" y2="249.802" gradientUnits="userSpaceOnUse">
<stop stop-color="#94CAF9"/>
<stop offset="0.53125" stop-color="#92C3FA"/>
<stop offset="1" stop-color="#8189FF"/>
</linearGradient>
<linearGradient id="paint32_linear_1235_19029" x1="38.3946" y1="250.579" x2="38.2931" y2="250.96" gradientUnits="userSpaceOnUse">
<stop stop-color="#3D98E4" stop-opacity="0"/>
<stop offset="0.0263313" stop-color="#96CDFB"/>
<stop offset="0.53125" stop-color="#96CBFB"/>
<stop offset="1" stop-color="#8596FD"/>
</linearGradient>
<radialGradient id="paint33_radial_1235_19029" cx="0" cy="0" r="1" gradientUnits="userSpaceOnUse" gradientTransform="translate(38.3159 250.493) rotate(143.918) scale(0.348291 0.0848027)">
<stop stop-color="#7EC6FD"/>
<stop offset="1" stop-color="#5CB8FF" stop-opacity="0"/>
</radialGradient>
<linearGradient id="paint34_linear_1235_19029" x1="38.6544" y1="250.281" x2="38.4268" y2="249.945" gradientUnits="userSpaceOnUse">
<stop stop-color="#3D98E4" stop-opacity="0"/>
<stop offset="0.03125" stop-color="#89A6FC"/>
<stop offset="0.53125" stop-color="#92C6F8"/>
<stop offset="0.983855" stop-color="#C6DBF0"/>
<stop offset="0.989204" stop-color="#C6DBF0" stop-opacity="0"/>
</linearGradient>
<radialGradient id="paint35_radial_1235_19029" cx="0" cy="0" r="1" gradientUnits="userSpaceOnUse" gradientTransform="translate(37.7297 249.481) rotate(25.6604) scale(0.495621 0.716612)">
<stop stop-color="#79A1D3"/>
<stop offset="1" stop-color="#79A1D3" stop-opacity="0"/>
</radialGradient>
<radialGradient id="paint36_radial_1235_19029" cx="0" cy="0" r="1" gradientUnits="userSpaceOnUse" gradientTransform="translate(39.0236 249.544) rotate(145.676) scale(0.513257 0.354979)">
<stop offset="0.364906" stop-color="#94CAF9"/>
<stop offset="1" stop-color="#94CAF9" stop-opacity="0"/>
</radialGradient>
<radialGradient id="paint37_radial_1235_19029" cx="0" cy="0" r="1" gradientUnits="userSpaceOnUse" gradientTransform="translate(37.7508 250.816) rotate(-73.1416) scale(0.223989 0.962174)">
<stop offset="0.226355" stop-color="#849BF6"/>
<stop offset="1" stop-color="#849BF6" stop-opacity="0"/>
</radialGradient>
<radialGradient id="paint38_radial_1235_19029" cx="0" cy="0" r="1" gradientUnits="userSpaceOnUse" gradientTransform="translate(39.2171 249.727) rotate(151.808) scale(0.248693 0.231524)">
<stop stop-color="#D0EBFF"/>
<stop offset="1" stop-color="#D0EBFF" stop-opacity="0"/>
</radialGradient>
<radialGradient id="paint39_radial_1235_19029" cx="0" cy="0" r="1" gradientUnits="userSpaceOnUse" gradientTransform="translate(38.8267 250.86) rotate(-165.642) scale(0.146473 0.188585)">
<stop stop-color="#D0EBFF"/>
<stop offset="1" stop-color="#D0EBFF" stop-opacity="0"/>
</radialGradient>
<clipPath id="clip0_1235_19029">
<rect x="11" y="5" width="198" height="440" rx="20" fill="white"/>
</clipPath>
<clipPath id="clip1_1235_19029">
<rect width="198" height="535.7" fill="white" transform="translate(11 5)"/>
</clipPath>
</defs>
</svg>
