<svg width="50" height="50" viewBox="0 0 50 50" fill="none" xmlns="http://www.w3.org/2000/svg">
<g id="Artboard 1 copy">
<path id="Vector" d="M24.8532 45.8297C21.7767 44.4512 14.1727 37.3787 11.0017 34.0292C6.88174 29.4272 3.09774 24.6912 2.87874 18.5872C2.65324 13.9387 4.90874 9.34424 8.76224 6.66624C13.3947 3.33424 19.8527 3.22224 24.1502 7.11124C24.9987 7.89324 25.0197 7.85824 25.8482 7.10674C28.0642 5.13274 30.9847 4.06674 33.9392 4.17274C41.4212 4.39924 47.5232 11.1202 47.1142 18.5942C46.8797 26.6522 39.4827 33.8597 33.5512 39.3002C30.5657 41.9107 26.0022 45.9752 24.8587 45.8302H24.8537L24.8532 45.8297ZM16.3612 8.24574C14.0762 8.22674 11.7487 9.25674 10.0457 10.8407C1.10674 19.4587 13.0242 32.4792 24.1032 40.8687C24.2897 41.0107 24.4982 41.1762 24.6597 41.2912C24.8737 41.4452 25.0517 41.5017 25.2967 41.3162C34.7477 34.4972 42.6802 25.1127 43.0092 18.8832C43.5717 14.3197 40.6947 10.2512 36.4352 8.72124C32.5027 7.34174 28.4377 9.04874 26.1702 12.5197C25.9317 12.8467 25.6987 13.2017 25.4117 13.4732C24.9847 13.8522 24.6182 13.5747 24.3217 13.1922C24.0777 12.8937 23.8262 12.5182 23.5932 12.2007C21.8692 9.74674 19.2027 8.23474 16.3697 8.24624H16.3612V8.24574Z" fill="#999999"/>
<path id="Vector_2" d="M24.9976 25.2983C23.0316 23.9993 21.0821 22.4983 19.6701 20.5873C19.4726 20.3198 17.7751 17.5983 18.5846 17.4698C18.7566 17.4423 18.9371 17.4398 19.1111 17.4378C19.4476 17.4343 19.7836 17.4638 20.1146 17.5243C20.7376 17.6378 21.3366 17.8603 21.8951 18.1563C23.1076 18.7993 24.2136 19.7908 24.9976 20.9213C25.7811 19.7908 26.8871 18.7993 28.1001 18.1563C28.6586 17.8603 29.2576 17.6378 29.8806 17.5243C30.2116 17.4643 30.5476 17.4343 30.8841 17.4378C31.0581 17.4398 31.2386 17.4423 31.4106 17.4698C32.2201 17.5983 30.5226 20.3198 30.3251 20.5873C28.9131 22.4983 26.9636 23.9993 24.9976 25.2983Z" fill="#999999"/>
<path id="Vector_3" d="M28.1774 29.8591C28.1774 31.6156 26.7534 33.0396 24.9969 33.0396C23.2404 33.0396 21.8164 31.6156 21.8164 29.8591C21.8164 28.1026 23.2404 26.3306 24.9969 26.3306C26.7534 26.3306 28.1774 28.1026 28.1774 29.8591Z" fill="#999999"/>
</g>
</svg>
