<svg width="24" height="24" viewBox="0 0 24 24" fill="none" xmlns="http://www.w3.org/2000/svg">
<g id="Sleeping face">
<g id="Circle">
<path d="M11.9992 22.4983C19 22.4983 22.4983 17.7977 22.4983 11.9992C22.4983 6.20064 19 1.5 11.9992 1.5C4.99833 1.5 1.5 6.20064 1.5 11.9992C1.5 17.7977 4.99833 22.4983 11.9992 22.4983Z" fill="url(#paint0_radial_971_16165)"/>
<path d="M11.9992 22.4983C19 22.4983 22.4983 17.7977 22.4983 11.9992C22.4983 6.20064 19 1.5 11.9992 1.5C4.99833 1.5 1.5 6.20064 1.5 11.9992C1.5 17.7977 4.99833 22.4983 11.9992 22.4983Z" fill="url(#paint1_radial_971_16165)"/>
<path d="M11.9992 22.4983C19 22.4983 22.4983 17.7977 22.4983 11.9992C22.4983 6.20064 19 1.5 11.9992 1.5C4.99833 1.5 1.5 6.20064 1.5 11.9992C1.5 17.7977 4.99833 22.4983 11.9992 22.4983Z" fill="url(#paint2_radial_971_16165)" fill-opacity="0.6"/>
<path d="M11.9992 22.4983C19 22.4983 22.4983 17.7977 22.4983 11.9992C22.4983 6.20064 19 1.5 11.9992 1.5C4.99833 1.5 1.5 6.20064 1.5 11.9992C1.5 17.7977 4.99833 22.4983 11.9992 22.4983Z" fill="url(#paint3_radial_971_16165)"/>
<path d="M11.9992 22.4983C19 22.4983 22.4983 17.7977 22.4983 11.9992C22.4983 6.20064 19 1.5 11.9992 1.5C4.99833 1.5 1.5 6.20064 1.5 11.9992C1.5 17.7977 4.99833 22.4983 11.9992 22.4983Z" fill="url(#paint4_radial_971_16165)"/>
<path d="M11.9992 22.4983C19 22.4983 22.4983 17.7977 22.4983 11.9992C22.4983 6.20064 19 1.5 11.9992 1.5C4.99833 1.5 1.5 6.20064 1.5 11.9992C1.5 17.7977 4.99833 22.4983 11.9992 22.4983Z" fill="url(#paint5_radial_971_16165)"/>
<path d="M11.9992 22.4983C19 22.4983 22.4983 17.7977 22.4983 11.9992C22.4983 6.20064 19 1.5 11.9992 1.5C4.99833 1.5 1.5 6.20064 1.5 11.9992C1.5 17.7977 4.99833 22.4983 11.9992 22.4983Z" fill="url(#paint6_radial_971_16165)"/>
<path d="M11.9992 22.4983C19 22.4983 22.4983 17.7977 22.4983 11.9992C22.4983 6.20064 19 1.5 11.9992 1.5C4.99833 1.5 1.5 6.20064 1.5 11.9992C1.5 17.7977 4.99833 22.4983 11.9992 22.4983Z" fill="url(#paint7_radial_971_16165)"/>
<path d="M11.9992 22.4983C19 22.4983 22.4983 17.7977 22.4983 11.9992C22.4983 6.20064 19 1.5 11.9992 1.5C4.99833 1.5 1.5 6.20064 1.5 11.9992C1.5 17.7977 4.99833 22.4983 11.9992 22.4983Z" fill="url(#paint8_radial_971_16165)"/>
<path d="M11.9992 22.4983C19 22.4983 22.4983 17.7977 22.4983 11.9992C22.4983 6.20064 19 1.5 11.9992 1.5C4.99833 1.5 1.5 6.20064 1.5 11.9992C1.5 17.7977 4.99833 22.4983 11.9992 22.4983Z" fill="url(#paint9_radial_971_16165)"/>
</g>
<path id="Vector 45 (Stroke)" fill-rule="evenodd" clip-rule="evenodd" d="M5.77275 12.2122C5.4793 11.9268 5.01005 11.9293 4.71967 12.2197C4.42678 12.5126 4.42678 12.9874 4.71967 13.2803L4.72074 13.2814L4.72189 13.2825L4.72441 13.285L4.73035 13.2908L4.74583 13.3056C4.75776 13.3168 4.7729 13.3306 4.79128 13.3467C4.82801 13.3788 4.87778 13.4201 4.94063 13.4672C5.06622 13.5614 5.24496 13.6798 5.47709 13.7958C5.94381 14.0292 6.62043 14.25 7.5 14.25C8.37957 14.25 9.05619 14.0292 9.52291 13.7958C9.75504 13.6798 9.93378 13.5614 10.0594 13.4672C10.1222 13.4201 10.172 13.3788 10.2087 13.3467C10.2271 13.3306 10.2422 13.3168 10.2542 13.3056L10.2696 13.2908L10.2756 13.285L10.2781 13.2825L10.2793 13.2814L10.2798 13.2809C10.5727 12.988 10.5732 12.5126 10.2803 12.2197C9.98995 11.9293 9.5207 11.9268 9.22725 12.2122C9.22611 12.2132 9.22402 12.2151 9.22097 12.2178C9.21082 12.2267 9.19028 12.244 9.15938 12.2672C9.09747 12.3136 8.99496 12.3827 8.85209 12.4542C8.56881 12.5958 8.12043 12.75 7.5 12.75C6.87957 12.75 6.43119 12.5958 6.14791 12.4542C6.00504 12.3827 5.90253 12.3136 5.84063 12.2672C5.80973 12.244 5.78918 12.2267 5.77903 12.2178C5.77599 12.2151 5.77389 12.2132 5.77275 12.2122Z" fill="url(#paint10_radial_971_16165)"/>
<path id="Vector 48 (Stroke)" fill-rule="evenodd" clip-rule="evenodd" d="M14.7727 12.2122C14.4793 11.9268 14.01 11.9293 13.7197 12.2197C13.4268 12.5126 13.4268 12.9874 13.7197 13.2803L13.7207 13.2814L13.7219 13.2825L13.7244 13.285L13.7304 13.2908L13.7458 13.3056C13.7578 13.3168 13.7729 13.3306 13.7913 13.3467C13.828 13.3788 13.8778 13.4201 13.9406 13.4672C14.0662 13.5614 14.245 13.6798 14.4771 13.7958C14.9438 14.0292 15.6204 14.25 16.5 14.25C17.3796 14.25 18.0562 14.0292 18.5229 13.7958C18.755 13.6798 18.9338 13.5614 19.0594 13.4672C19.1222 13.4201 19.172 13.3788 19.2087 13.3467C19.2271 13.3306 19.2422 13.3168 19.2542 13.3056L19.2696 13.2908L19.2781 13.2825L19.2793 13.2814L19.2798 13.2809C19.5727 12.988 19.5732 12.5126 19.2803 12.2197C18.99 11.9293 18.5207 11.9268 18.2273 12.2122C18.2261 12.2132 18.224 12.2151 18.221 12.2178C18.2108 12.2267 18.1903 12.244 18.1594 12.2672C18.0975 12.3136 17.995 12.3827 17.8521 12.4542C17.5688 12.5958 17.1204 12.75 16.5 12.75C15.8796 12.75 15.4312 12.5958 15.1479 12.4542C15.005 12.3827 14.9025 12.3136 14.8406 12.2672C14.8097 12.244 14.7892 12.2267 14.779 12.2178C14.776 12.2151 14.7739 12.2132 14.7727 12.2122Z" fill="url(#paint11_radial_971_16165)"/>
<rect id="Rectangle 59" x="10.5" y="16.5" width="3" height="3" rx="1.5" fill="url(#paint12_radial_971_16165)"/>
<g id="Big Z (Stroke)">
<path fill-rule="evenodd" clip-rule="evenodd" d="M21.7765 1.52709C21.931 1.72603 21.955 1.9969 21.8379 2.21991L20.0285 5.6657L22.064 5.18468C22.4094 5.10308 22.7555 5.31687 22.8371 5.6622C22.9187 6.00753 22.7049 6.35363 22.3596 6.43524L18.952 7.24049C18.707 7.29838 18.4508 7.20788 18.2965 7.00896C18.1423 6.81005 18.1184 6.53937 18.2354 6.31651L20.0435 2.87309L17.9905 3.36134C17.6453 3.44344 17.2989 3.23015 17.2168 2.88493C17.1347 2.53972 17.348 2.19331 17.6932 2.11121L21.1204 1.29615C21.3655 1.23787 21.622 1.32816 21.7765 1.52709Z" fill="url(#paint13_linear_971_16165)"/>
<path fill-rule="evenodd" clip-rule="evenodd" d="M21.7765 1.52709C21.931 1.72603 21.955 1.9969 21.8379 2.21991L20.0285 5.6657L22.064 5.18468C22.4094 5.10308 22.7555 5.31687 22.8371 5.6622C22.9187 6.00753 22.7049 6.35363 22.3596 6.43524L18.952 7.24049C18.707 7.29838 18.4508 7.20788 18.2965 7.00896C18.1423 6.81005 18.1184 6.53937 18.2354 6.31651L20.0435 2.87309L17.9905 3.36134C17.6453 3.44344 17.2989 3.23015 17.2168 2.88493C17.1347 2.53972 17.348 2.19331 17.6932 2.11121L21.1204 1.29615C21.3655 1.23787 21.622 1.32816 21.7765 1.52709Z" fill="url(#paint14_linear_971_16165)"/>
<path fill-rule="evenodd" clip-rule="evenodd" d="M21.7765 1.52709C21.931 1.72603 21.955 1.9969 21.8379 2.21991L20.0285 5.6657L22.064 5.18468C22.4094 5.10308 22.7555 5.31687 22.8371 5.6622C22.9187 6.00753 22.7049 6.35363 22.3596 6.43524L18.952 7.24049C18.707 7.29838 18.4508 7.20788 18.2965 7.00896C18.1423 6.81005 18.1184 6.53937 18.2354 6.31651L20.0435 2.87309L17.9905 3.36134C17.6453 3.44344 17.2989 3.23015 17.2168 2.88493C17.1347 2.53972 17.348 2.19331 17.6932 2.11121L21.1204 1.29615C21.3655 1.23787 21.622 1.32816 21.7765 1.52709Z" fill="url(#paint15_radial_971_16165)"/>
<path fill-rule="evenodd" clip-rule="evenodd" d="M21.7765 1.52709C21.931 1.72603 21.955 1.9969 21.8379 2.21991L20.0285 5.6657L22.064 5.18468C22.4094 5.10308 22.7555 5.31687 22.8371 5.6622C22.9187 6.00753 22.7049 6.35363 22.3596 6.43524L18.952 7.24049C18.707 7.29838 18.4508 7.20788 18.2965 7.00896C18.1423 6.81005 18.1184 6.53937 18.2354 6.31651L20.0435 2.87309L17.9905 3.36134C17.6453 3.44344 17.2989 3.23015 17.2168 2.88493C17.1347 2.53972 17.348 2.19331 17.6932 2.11121L21.1204 1.29615C21.3655 1.23787 21.622 1.32816 21.7765 1.52709Z" fill="url(#paint16_linear_971_16165)"/>
<path fill-rule="evenodd" clip-rule="evenodd" d="M21.7765 1.52709C21.931 1.72603 21.955 1.9969 21.8379 2.21991L20.0285 5.6657L22.064 5.18468C22.4094 5.10308 22.7555 5.31687 22.8371 5.6622C22.9187 6.00753 22.7049 6.35363 22.3596 6.43524L18.952 7.24049C18.707 7.29838 18.4508 7.20788 18.2965 7.00896C18.1423 6.81005 18.1184 6.53937 18.2354 6.31651L20.0435 2.87309L17.9905 3.36134C17.6453 3.44344 17.2989 3.23015 17.2168 2.88493C17.1347 2.53972 17.348 2.19331 17.6932 2.11121L21.1204 1.29615C21.3655 1.23787 21.622 1.32816 21.7765 1.52709Z" fill="url(#paint17_radial_971_16165)"/>
<path fill-rule="evenodd" clip-rule="evenodd" d="M21.7765 1.52709C21.931 1.72603 21.955 1.9969 21.8379 2.21991L20.0285 5.6657L22.064 5.18468C22.4094 5.10308 22.7555 5.31687 22.8371 5.6622C22.9187 6.00753 22.7049 6.35363 22.3596 6.43524L18.952 7.24049C18.707 7.29838 18.4508 7.20788 18.2965 7.00896C18.1423 6.81005 18.1184 6.53937 18.2354 6.31651L20.0435 2.87309L17.9905 3.36134C17.6453 3.44344 17.2989 3.23015 17.2168 2.88493C17.1347 2.53972 17.348 2.19331 17.6932 2.11121L21.1204 1.29615C21.3655 1.23787 21.622 1.32816 21.7765 1.52709Z" fill="url(#paint18_radial_971_16165)"/>
<path fill-rule="evenodd" clip-rule="evenodd" d="M21.7765 1.52709C21.931 1.72603 21.955 1.9969 21.8379 2.21991L20.0285 5.6657L22.064 5.18468C22.4094 5.10308 22.7555 5.31687 22.8371 5.6622C22.9187 6.00753 22.7049 6.35363 22.3596 6.43524L18.952 7.24049C18.707 7.29838 18.4508 7.20788 18.2965 7.00896C18.1423 6.81005 18.1184 6.53937 18.2354 6.31651L20.0435 2.87309L17.9905 3.36134C17.6453 3.44344 17.2989 3.23015 17.2168 2.88493C17.1347 2.53972 17.348 2.19331 17.6932 2.11121L21.1204 1.29615C21.3655 1.23787 21.622 1.32816 21.7765 1.52709Z" fill="url(#paint19_radial_971_16165)"/>
<path fill-rule="evenodd" clip-rule="evenodd" d="M21.7765 1.52709C21.931 1.72603 21.955 1.9969 21.8379 2.21991L20.0285 5.6657L22.064 5.18468C22.4094 5.10308 22.7555 5.31687 22.8371 5.6622C22.9187 6.00753 22.7049 6.35363 22.3596 6.43524L18.952 7.24049C18.707 7.29838 18.4508 7.20788 18.2965 7.00896C18.1423 6.81005 18.1184 6.53937 18.2354 6.31651L20.0435 2.87309L17.9905 3.36134C17.6453 3.44344 17.2989 3.23015 17.2168 2.88493C17.1347 2.53972 17.348 2.19331 17.6932 2.11121L21.1204 1.29615C21.3655 1.23787 21.622 1.32816 21.7765 1.52709Z" fill="url(#paint20_radial_971_16165)"/>
<path fill-rule="evenodd" clip-rule="evenodd" d="M21.7765 1.52709C21.931 1.72603 21.955 1.9969 21.8379 2.21991L20.0285 5.6657L22.064 5.18468C22.4094 5.10308 22.7555 5.31687 22.8371 5.6622C22.9187 6.00753 22.7049 6.35363 22.3596 6.43524L18.952 7.24049C18.707 7.29838 18.4508 7.20788 18.2965 7.00896C18.1423 6.81005 18.1184 6.53937 18.2354 6.31651L20.0435 2.87309L17.9905 3.36134C17.6453 3.44344 17.2989 3.23015 17.2168 2.88493C17.1347 2.53972 17.348 2.19331 17.6932 2.11121L21.1204 1.29615C21.3655 1.23787 21.622 1.32816 21.7765 1.52709Z" fill="url(#paint21_radial_971_16165)"/>
</g>
<g id="Mid Z (Stroke)">
<path fill-rule="evenodd" clip-rule="evenodd" d="M18.2826 5.12751C18.3587 5.29319 18.331 5.48806 18.2117 5.62592L16.3683 7.75608L17.8822 7.75271C18.139 7.75214 18.3477 7.95988 18.3483 8.21672C18.3489 8.47355 18.1411 8.68222 17.8843 8.6828L15.3499 8.68844C15.1677 8.68884 15.0021 8.58281 14.9261 8.41719C14.8502 8.25156 14.878 8.05685 14.9972 7.91908L16.8394 5.79039L15.3119 5.79598C15.0551 5.79692 14.8461 5.58947 14.8452 5.33263C14.8443 5.0758 15.0517 4.86683 15.3085 4.86589L17.8583 4.85657C18.0407 4.8559 18.2066 4.96183 18.2826 5.12751Z" fill="url(#paint22_linear_971_16165)"/>
<path fill-rule="evenodd" clip-rule="evenodd" d="M18.2826 5.12751C18.3587 5.29319 18.331 5.48806 18.2117 5.62592L16.3683 7.75608L17.8822 7.75271C18.139 7.75214 18.3477 7.95988 18.3483 8.21672C18.3489 8.47355 18.1411 8.68222 17.8843 8.6828L15.3499 8.68844C15.1677 8.68884 15.0021 8.58281 14.9261 8.41719C14.8502 8.25156 14.878 8.05685 14.9972 7.91908L16.8394 5.79039L15.3119 5.79598C15.0551 5.79692 14.8461 5.58947 14.8452 5.33263C14.8443 5.0758 15.0517 4.86683 15.3085 4.86589L17.8583 4.85657C18.0407 4.8559 18.2066 4.96183 18.2826 5.12751Z" fill="url(#paint23_linear_971_16165)"/>
<path fill-rule="evenodd" clip-rule="evenodd" d="M18.2826 5.12751C18.3587 5.29319 18.331 5.48806 18.2117 5.62592L16.3683 7.75608L17.8822 7.75271C18.139 7.75214 18.3477 7.95988 18.3483 8.21672C18.3489 8.47355 18.1411 8.68222 17.8843 8.6828L15.3499 8.68844C15.1677 8.68884 15.0021 8.58281 14.9261 8.41719C14.8502 8.25156 14.878 8.05685 14.9972 7.91908L16.8394 5.79039L15.3119 5.79598C15.0551 5.79692 14.8461 5.58947 14.8452 5.33263C14.8443 5.0758 15.0517 4.86683 15.3085 4.86589L17.8583 4.85657C18.0407 4.8559 18.2066 4.96183 18.2826 5.12751Z" fill="url(#paint24_radial_971_16165)"/>
<path fill-rule="evenodd" clip-rule="evenodd" d="M18.2826 5.12751C18.3587 5.29319 18.331 5.48806 18.2117 5.62592L16.3683 7.75608L17.8822 7.75271C18.139 7.75214 18.3477 7.95988 18.3483 8.21672C18.3489 8.47355 18.1411 8.68222 17.8843 8.6828L15.3499 8.68844C15.1677 8.68884 15.0021 8.58281 14.9261 8.41719C14.8502 8.25156 14.878 8.05685 14.9972 7.91908L16.8394 5.79039L15.3119 5.79598C15.0551 5.79692 14.8461 5.58947 14.8452 5.33263C14.8443 5.0758 15.0517 4.86683 15.3085 4.86589L17.8583 4.85657C18.0407 4.8559 18.2066 4.96183 18.2826 5.12751Z" fill="url(#paint25_linear_971_16165)"/>
<path fill-rule="evenodd" clip-rule="evenodd" d="M18.2826 5.12751C18.3587 5.29319 18.331 5.48806 18.2117 5.62592L16.3683 7.75608L17.8822 7.75271C18.139 7.75214 18.3477 7.95988 18.3483 8.21672C18.3489 8.47355 18.1411 8.68222 17.8843 8.6828L15.3499 8.68844C15.1677 8.68884 15.0021 8.58281 14.9261 8.41719C14.8502 8.25156 14.878 8.05685 14.9972 7.91908L16.8394 5.79039L15.3119 5.79598C15.0551 5.79692 14.8461 5.58947 14.8452 5.33263C14.8443 5.0758 15.0517 4.86683 15.3085 4.86589L17.8583 4.85657C18.0407 4.8559 18.2066 4.96183 18.2826 5.12751Z" fill="url(#paint26_radial_971_16165)"/>
<path fill-rule="evenodd" clip-rule="evenodd" d="M18.2826 5.12751C18.3587 5.29319 18.331 5.48806 18.2117 5.62592L16.3683 7.75608L17.8822 7.75271C18.139 7.75214 18.3477 7.95988 18.3483 8.21672C18.3489 8.47355 18.1411 8.68222 17.8843 8.6828L15.3499 8.68844C15.1677 8.68884 15.0021 8.58281 14.9261 8.41719C14.8502 8.25156 14.878 8.05685 14.9972 7.91908L16.8394 5.79039L15.3119 5.79598C15.0551 5.79692 14.8461 5.58947 14.8452 5.33263C14.8443 5.0758 15.0517 4.86683 15.3085 4.86589L17.8583 4.85657C18.0407 4.8559 18.2066 4.96183 18.2826 5.12751Z" fill="url(#paint27_radial_971_16165)"/>
<path fill-rule="evenodd" clip-rule="evenodd" d="M18.2826 5.12751C18.3587 5.29319 18.331 5.48806 18.2117 5.62592L16.3683 7.75608L17.8822 7.75271C18.139 7.75214 18.3477 7.95988 18.3483 8.21672C18.3489 8.47355 18.1411 8.68222 17.8843 8.6828L15.3499 8.68844C15.1677 8.68884 15.0021 8.58281 14.9261 8.41719C14.8502 8.25156 14.878 8.05685 14.9972 7.91908L16.8394 5.79039L15.3119 5.79598C15.0551 5.79692 14.8461 5.58947 14.8452 5.33263C14.8443 5.0758 15.0517 4.86683 15.3085 4.86589L17.8583 4.85657C18.0407 4.8559 18.2066 4.96183 18.2826 5.12751Z" fill="url(#paint28_radial_971_16165)"/>
<path fill-rule="evenodd" clip-rule="evenodd" d="M18.2826 5.12751C18.3587 5.29319 18.331 5.48806 18.2117 5.62592L16.3683 7.75608L17.8822 7.75271C18.139 7.75214 18.3477 7.95988 18.3483 8.21672C18.3489 8.47355 18.1411 8.68222 17.8843 8.6828L15.3499 8.68844C15.1677 8.68884 15.0021 8.58281 14.9261 8.41719C14.8502 8.25156 14.878 8.05685 14.9972 7.91908L16.8394 5.79039L15.3119 5.79598C15.0551 5.79692 14.8461 5.58947 14.8452 5.33263C14.8443 5.0758 15.0517 4.86683 15.3085 4.86589L17.8583 4.85657C18.0407 4.8559 18.2066 4.96183 18.2826 5.12751Z" fill="url(#paint29_radial_971_16165)"/>
<path fill-rule="evenodd" clip-rule="evenodd" d="M18.2826 5.12751C18.3587 5.29319 18.331 5.48806 18.2117 5.62592L16.3683 7.75608L17.8822 7.75271C18.139 7.75214 18.3477 7.95988 18.3483 8.21672C18.3489 8.47355 18.1411 8.68222 17.8843 8.6828L15.3499 8.68844C15.1677 8.68884 15.0021 8.58281 14.9261 8.41719C14.8502 8.25156 14.878 8.05685 14.9972 7.91908L16.8394 5.79039L15.3119 5.79598C15.0551 5.79692 14.8461 5.58947 14.8452 5.33263C14.8443 5.0758 15.0517 4.86683 15.3085 4.86589L17.8583 4.85657C18.0407 4.8559 18.2066 4.96183 18.2826 5.12751Z" fill="url(#paint30_radial_971_16165)"/>
<path fill-rule="evenodd" clip-rule="evenodd" d="M18.2826 5.12751C18.3587 5.29319 18.331 5.48806 18.2117 5.62592L16.3683 7.75608L17.8822 7.75271C18.139 7.75214 18.3477 7.95988 18.3483 8.21672C18.3489 8.47355 18.1411 8.68222 17.8843 8.6828L15.3499 8.68844C15.1677 8.68884 15.0021 8.58281 14.9261 8.41719C14.8502 8.25156 14.878 8.05685 14.9972 7.91908L16.8394 5.79039L15.3119 5.79598C15.0551 5.79692 14.8461 5.58947 14.8452 5.33263C14.8443 5.0758 15.0517 4.86683 15.3085 4.86589L17.8583 4.85657C18.0407 4.8559 18.2066 4.96183 18.2826 5.12751Z" fill="#3A99FB" fill-opacity="0.3"/>
</g>
<g id="Lil Z (Stroke)">
<path fill-rule="evenodd" clip-rule="evenodd" d="M15.3372 6.93213C15.3617 7.06328 15.3073 7.19664 15.1981 7.27325L13.5104 8.4569L14.5855 8.72407C14.7679 8.7694 14.879 8.954 14.8337 9.13639C14.7884 9.31878 14.6038 9.4299 14.4214 9.38457L12.6216 8.93731C12.4922 8.90516 12.3935 8.80041 12.3691 8.66934C12.3447 8.53826 12.3991 8.40502 12.5083 8.32846L14.1948 7.14562L13.1097 6.87762C12.9272 6.83255 12.8158 6.64811 12.8609 6.46565C12.906 6.2832 13.0904 6.17182 13.2729 6.21688L15.0843 6.66428C15.2138 6.69627 15.3127 6.80099 15.3372 6.93213Z" fill="url(#paint31_linear_971_16165)"/>
<path fill-rule="evenodd" clip-rule="evenodd" d="M15.3372 6.93213C15.3617 7.06328 15.3073 7.19664 15.1981 7.27325L13.5104 8.4569L14.5855 8.72407C14.7679 8.7694 14.879 8.954 14.8337 9.13639C14.7884 9.31878 14.6038 9.4299 14.4214 9.38457L12.6216 8.93731C12.4922 8.90516 12.3935 8.80041 12.3691 8.66934C12.3447 8.53826 12.3991 8.40502 12.5083 8.32846L14.1948 7.14562L13.1097 6.87762C12.9272 6.83255 12.8158 6.64811 12.8609 6.46565C12.906 6.2832 13.0904 6.17182 13.2729 6.21688L15.0843 6.66428C15.2138 6.69627 15.3127 6.80099 15.3372 6.93213Z" fill="url(#paint32_linear_971_16165)"/>
<path fill-rule="evenodd" clip-rule="evenodd" d="M15.3372 6.93213C15.3617 7.06328 15.3073 7.19664 15.1981 7.27325L13.5104 8.4569L14.5855 8.72407C14.7679 8.7694 14.879 8.954 14.8337 9.13639C14.7884 9.31878 14.6038 9.4299 14.4214 9.38457L12.6216 8.93731C12.4922 8.90516 12.3935 8.80041 12.3691 8.66934C12.3447 8.53826 12.3991 8.40502 12.5083 8.32846L14.1948 7.14562L13.1097 6.87762C12.9272 6.83255 12.8158 6.64811 12.8609 6.46565C12.906 6.2832 13.0904 6.17182 13.2729 6.21688L15.0843 6.66428C15.2138 6.69627 15.3127 6.80099 15.3372 6.93213Z" fill="url(#paint33_radial_971_16165)"/>
<path fill-rule="evenodd" clip-rule="evenodd" d="M15.3372 6.93213C15.3617 7.06328 15.3073 7.19664 15.1981 7.27325L13.5104 8.4569L14.5855 8.72407C14.7679 8.7694 14.879 8.954 14.8337 9.13639C14.7884 9.31878 14.6038 9.4299 14.4214 9.38457L12.6216 8.93731C12.4922 8.90516 12.3935 8.80041 12.3691 8.66934C12.3447 8.53826 12.3991 8.40502 12.5083 8.32846L14.1948 7.14562L13.1097 6.87762C12.9272 6.83255 12.8158 6.64811 12.8609 6.46565C12.906 6.2832 13.0904 6.17182 13.2729 6.21688L15.0843 6.66428C15.2138 6.69627 15.3127 6.80099 15.3372 6.93213Z" fill="url(#paint34_linear_971_16165)"/>
<path fill-rule="evenodd" clip-rule="evenodd" d="M15.3372 6.93213C15.3617 7.06328 15.3073 7.19664 15.1981 7.27325L13.5104 8.4569L14.5855 8.72407C14.7679 8.7694 14.879 8.954 14.8337 9.13639C14.7884 9.31878 14.6038 9.4299 14.4214 9.38457L12.6216 8.93731C12.4922 8.90516 12.3935 8.80041 12.3691 8.66934C12.3447 8.53826 12.3991 8.40502 12.5083 8.32846L14.1948 7.14562L13.1097 6.87762C12.9272 6.83255 12.8158 6.64811 12.8609 6.46565C12.906 6.2832 13.0904 6.17182 13.2729 6.21688L15.0843 6.66428C15.2138 6.69627 15.3127 6.80099 15.3372 6.93213Z" fill="url(#paint35_radial_971_16165)"/>
<path fill-rule="evenodd" clip-rule="evenodd" d="M15.3372 6.93213C15.3617 7.06328 15.3073 7.19664 15.1981 7.27325L13.5104 8.4569L14.5855 8.72407C14.7679 8.7694 14.879 8.954 14.8337 9.13639C14.7884 9.31878 14.6038 9.4299 14.4214 9.38457L12.6216 8.93731C12.4922 8.90516 12.3935 8.80041 12.3691 8.66934C12.3447 8.53826 12.3991 8.40502 12.5083 8.32846L14.1948 7.14562L13.1097 6.87762C12.9272 6.83255 12.8158 6.64811 12.8609 6.46565C12.906 6.2832 13.0904 6.17182 13.2729 6.21688L15.0843 6.66428C15.2138 6.69627 15.3127 6.80099 15.3372 6.93213Z" fill="url(#paint36_radial_971_16165)"/>
<path fill-rule="evenodd" clip-rule="evenodd" d="M15.3372 6.93213C15.3617 7.06328 15.3073 7.19664 15.1981 7.27325L13.5104 8.4569L14.5855 8.72407C14.7679 8.7694 14.879 8.954 14.8337 9.13639C14.7884 9.31878 14.6038 9.4299 14.4214 9.38457L12.6216 8.93731C12.4922 8.90516 12.3935 8.80041 12.3691 8.66934C12.3447 8.53826 12.3991 8.40502 12.5083 8.32846L14.1948 7.14562L13.1097 6.87762C12.9272 6.83255 12.8158 6.64811 12.8609 6.46565C12.906 6.2832 13.0904 6.17182 13.2729 6.21688L15.0843 6.66428C15.2138 6.69627 15.3127 6.80099 15.3372 6.93213Z" fill="url(#paint37_radial_971_16165)"/>
<path fill-rule="evenodd" clip-rule="evenodd" d="M15.3372 6.93213C15.3617 7.06328 15.3073 7.19664 15.1981 7.27325L13.5104 8.4569L14.5855 8.72407C14.7679 8.7694 14.879 8.954 14.8337 9.13639C14.7884 9.31878 14.6038 9.4299 14.4214 9.38457L12.6216 8.93731C12.4922 8.90516 12.3935 8.80041 12.3691 8.66934C12.3447 8.53826 12.3991 8.40502 12.5083 8.32846L14.1948 7.14562L13.1097 6.87762C12.9272 6.83255 12.8158 6.64811 12.8609 6.46565C12.906 6.2832 13.0904 6.17182 13.2729 6.21688L15.0843 6.66428C15.2138 6.69627 15.3127 6.80099 15.3372 6.93213Z" fill="url(#paint38_radial_971_16165)"/>
<path fill-rule="evenodd" clip-rule="evenodd" d="M15.3372 6.93213C15.3617 7.06328 15.3073 7.19664 15.1981 7.27325L13.5104 8.4569L14.5855 8.72407C14.7679 8.7694 14.879 8.954 14.8337 9.13639C14.7884 9.31878 14.6038 9.4299 14.4214 9.38457L12.6216 8.93731C12.4922 8.90516 12.3935 8.80041 12.3691 8.66934C12.3447 8.53826 12.3991 8.40502 12.5083 8.32846L14.1948 7.14562L13.1097 6.87762C12.9272 6.83255 12.8158 6.64811 12.8609 6.46565C12.906 6.2832 13.0904 6.17182 13.2729 6.21688L15.0843 6.66428C15.2138 6.69627 15.3127 6.80099 15.3372 6.93213Z" fill="url(#paint39_radial_971_16165)"/>
<path fill-rule="evenodd" clip-rule="evenodd" d="M15.3372 6.93213C15.3617 7.06328 15.3073 7.19664 15.1981 7.27325L13.5104 8.4569L14.5855 8.72407C14.7679 8.7694 14.879 8.954 14.8337 9.13639C14.7884 9.31878 14.6038 9.4299 14.4214 9.38457L12.6216 8.93731C12.4922 8.90516 12.3935 8.80041 12.3691 8.66934C12.3447 8.53826 12.3991 8.40502 12.5083 8.32846L14.1948 7.14562L13.1097 6.87762C12.9272 6.83255 12.8158 6.64811 12.8609 6.46565C12.906 6.2832 13.0904 6.17182 13.2729 6.21688L15.0843 6.66428C15.2138 6.69627 15.3127 6.80099 15.3372 6.93213Z" fill="#3A99FB" fill-opacity="0.3"/>
</g>
</g>
<defs>
<radialGradient id="paint0_radial_971_16165" cx="0" cy="0" r="1" gradientUnits="userSpaceOnUse" gradientTransform="translate(19.125 6.75) rotate(131.878) scale(29.2115)">
<stop stop-color="#FFF478"/>
<stop offset="0.474827" stop-color="#FFB02E"/>
<stop offset="1" stop-color="#F70A8D"/>
</radialGradient>
<radialGradient id="paint1_radial_971_16165" cx="0" cy="0" r="1" gradientUnits="userSpaceOnUse" gradientTransform="translate(12 9.375) rotate(101.31) scale(13.3849 17.1435)">
<stop offset="0.787821" stop-color="#F59639" stop-opacity="0"/>
<stop offset="0.972509" stop-color="#FF7DCE"/>
</radialGradient>
<radialGradient id="paint2_radial_971_16165" cx="0" cy="0" r="1" gradientUnits="userSpaceOnUse" gradientTransform="translate(13.5 10.5) rotate(135) scale(30.7591)">
<stop offset="0.314853" stop-opacity="0"/>
<stop offset="1"/>
</radialGradient>
<radialGradient id="paint3_radial_971_16165" cx="0" cy="0" r="1" gradientUnits="userSpaceOnUse" gradientTransform="translate(12 12.75) rotate(77.692) scale(21.1102)">
<stop offset="0.507903" stop-color="#7D6133" stop-opacity="0"/>
<stop offset="1" stop-color="#715B32"/>
</radialGradient>
<radialGradient id="paint4_radial_971_16165" cx="0" cy="0" r="1" gradientUnits="userSpaceOnUse" gradientTransform="translate(12.375 12.375) rotate(55.7131) scale(9.98515 7.23774)">
<stop stop-color="#FFB849"/>
<stop offset="1" stop-color="#FFB847" stop-opacity="0"/>
</radialGradient>
<radialGradient id="paint5_radial_971_16165" cx="0" cy="0" r="1" gradientUnits="userSpaceOnUse" gradientTransform="translate(15.375 13.5) rotate(9.86581) scale(8.75446)">
<stop stop-color="#FFA64B"/>
<stop offset="0.900412" stop-color="#FFAE46" stop-opacity="0"/>
</radialGradient>
<radialGradient id="paint6_radial_971_16165" cx="0" cy="0" r="1" gradientUnits="userSpaceOnUse" gradientTransform="translate(13.125 11.25) rotate(43.9708) scale(44.2897)">
<stop offset="0.185425" stop-opacity="0"/>
<stop offset="1" stop-opacity="0.4"/>
</radialGradient>
<radialGradient id="paint7_radial_971_16165" cx="0" cy="0" r="1" gradientUnits="userSpaceOnUse" gradientTransform="translate(13.0313 8.71875) rotate(122.164) scale(3.87439)">
<stop stop-color="#EFA031"/>
<stop offset="1" stop-color="#EFA031" stop-opacity="0"/>
</radialGradient>
<radialGradient id="paint8_radial_971_16165" cx="0" cy="0" r="1" gradientUnits="userSpaceOnUse" gradientTransform="translate(15.1875 13.5469) rotate(19.5731) scale(2.23874 1.28843)">
<stop offset="0.514687" stop-color="#DE8A44"/>
<stop offset="1" stop-color="#E18D48" stop-opacity="0"/>
</radialGradient>
<radialGradient id="paint9_radial_971_16165" cx="0" cy="0" r="1" gradientUnits="userSpaceOnUse" gradientTransform="translate(5.85938 13.3125) rotate(38.6598) scale(2.10103 1.20917)">
<stop offset="0.514687" stop-color="#DE8A44"/>
<stop offset="1" stop-color="#E18D48" stop-opacity="0"/>
</radialGradient>
<radialGradient id="paint10_radial_971_16165" cx="0" cy="0" r="1" gradientUnits="userSpaceOnUse" gradientTransform="translate(7.5 12) rotate(90) scale(2.48437 4.5)">
<stop offset="0.339623" stop-color="#4E3225"/>
<stop offset="0.55814" stop-color="#56424D"/>
<stop offset="0.867925" stop-color="#532A4D"/>
</radialGradient>
<radialGradient id="paint11_radial_971_16165" cx="0" cy="0" r="1" gradientUnits="userSpaceOnUse" gradientTransform="translate(16.5 12) rotate(90) scale(2.48437 4.5)">
<stop offset="0.339623" stop-color="#4E3225"/>
<stop offset="0.55814" stop-color="#56424D"/>
<stop offset="0.867925" stop-color="#532A4D"/>
</radialGradient>
<radialGradient id="paint12_radial_971_16165" cx="0" cy="0" r="1" gradientUnits="userSpaceOnUse" gradientTransform="translate(12 20.1667) rotate(-90) scale(3.66667)">
<stop stop-color="#F70A8D"/>
<stop offset="1" stop-color="#89029C"/>
</radialGradient>
<linearGradient id="paint13_linear_971_16165" x1="19.4217" y1="1.68285" x2="19.7052" y2="2.93478" gradientUnits="userSpaceOnUse">
<stop stop-color="#3D98E4"/>
<stop offset="0.53125" stop-color="#3999FF"/>
<stop offset="1" stop-color="#3472EA"/>
</linearGradient>
<linearGradient id="paint14_linear_971_16165" x1="20.5733" y1="5.48588" x2="20.8626" y2="6.80867" gradientUnits="userSpaceOnUse">
<stop stop-color="#3D98E4" stop-opacity="0"/>
<stop offset="0.0263313" stop-color="#3D98E4"/>
<stop offset="0.53125" stop-color="#3999FF"/>
<stop offset="1" stop-color="#3472EA"/>
</linearGradient>
<radialGradient id="paint15_radial_971_16165" cx="0" cy="0" r="1" gradientUnits="userSpaceOnUse" gradientTransform="translate(20.1979 5.34769) rotate(116.667) scale(1.19563 0.291114)">
<stop stop-color="#7EC6FD"/>
<stop offset="1" stop-color="#5CB8FF" stop-opacity="0"/>
</radialGradient>
<linearGradient id="paint16_linear_971_16165" x1="20.898" y1="4.16899" x2="19.6756" y2="3.50169" gradientUnits="userSpaceOnUse">
<stop stop-color="#3D98E4" stop-opacity="0"/>
<stop offset="0.03125" stop-color="#3D98E4"/>
<stop offset="0.53125" stop-color="#3999FF"/>
<stop offset="0.987159" stop-color="#3472EA"/>
<stop offset="1" stop-color="#3472EA" stop-opacity="0"/>
</linearGradient>
<radialGradient id="paint17_radial_971_16165" cx="0" cy="0" r="1" gradientUnits="userSpaceOnUse" gradientTransform="translate(16.8187 3.1813) rotate(-1.59114) scale(1.70139 2.46001)">
<stop stop-color="#2F6FC8"/>
<stop offset="1" stop-color="#2F6FC8" stop-opacity="0"/>
</radialGradient>
<radialGradient id="paint18_radial_971_16165" cx="0" cy="0" r="1" gradientUnits="userSpaceOnUse" gradientTransform="translate(20.8655 1.33802) rotate(118.425) scale(1.76193 1.21858)">
<stop offset="0.364906" stop-color="#3999FF"/>
<stop offset="1" stop-color="#3999FF" stop-opacity="0"/>
</radialGradient>
<radialGradient id="paint19_radial_971_16165" cx="0" cy="0" r="1" gradientUnits="userSpaceOnUse" gradientTransform="translate(19.3036 7.25773) rotate(-63.7046) scale(1.14641 0.956593)">
<stop offset="0.364906" stop-color="#3999FF"/>
<stop offset="1" stop-color="#3999FF" stop-opacity="0"/>
</radialGradient>
<radialGradient id="paint20_radial_971_16165" cx="0" cy="0" r="1" gradientUnits="userSpaceOnUse" gradientTransform="translate(21.7438 1.5924) rotate(124.556) scale(0.853723 0.794784)">
<stop stop-color="#7EC6FD"/>
<stop offset="1" stop-color="#5CB8FF" stop-opacity="0"/>
</radialGradient>
<radialGradient id="paint21_radial_971_16165" cx="0" cy="0" r="1" gradientUnits="userSpaceOnUse" gradientTransform="translate(22.333 5.66304) rotate(167.106) scale(0.50282 0.647382)">
<stop stop-color="#7EC6FD"/>
<stop offset="1" stop-color="#5CB8FF" stop-opacity="0"/>
</radialGradient>
<linearGradient id="paint22_linear_971_16165" x1="16.5974" y1="4.84901" x2="16.5907" y2="5.77808" gradientUnits="userSpaceOnUse">
<stop stop-color="#48D4FF"/>
<stop offset="0.53125" stop-color="#48D4FF"/>
<stop offset="1" stop-color="#40AAFE"/>
</linearGradient>
<linearGradient id="paint23_linear_971_16165" x1="16.7819" y1="7.71917" x2="16.7677" y2="8.69915" gradientUnits="userSpaceOnUse">
<stop stop-color="#3D98E4" stop-opacity="0"/>
<stop offset="0.03125" stop-color="#53D7FF"/>
<stop offset="0.53125" stop-color="#51D6FF"/>
<stop offset="1" stop-color="#41A0FC"/>
</linearGradient>
<radialGradient id="paint24_radial_971_16165" cx="0" cy="0" r="1" gradientUnits="userSpaceOnUse" gradientTransform="translate(16.5401 7.55989) rotate(129.835) scale(0.865405 0.210711)">
<stop stop-color="white" stop-opacity="0.6"/>
<stop offset="1" stop-color="white" stop-opacity="0"/>
</radialGradient>
<linearGradient id="paint25_linear_971_16165" x1="17.2279" y1="6.84461" x2="16.4764" y2="6.17275" gradientUnits="userSpaceOnUse">
<stop stop-color="#3D98E4" stop-opacity="0"/>
<stop offset="0.03125" stop-color="#49C5FF"/>
<stop offset="0.53125" stop-color="#48D4FF"/>
<stop offset="0.987159" stop-color="#3EADFA"/>
<stop offset="1" stop-color="#3472EA" stop-opacity="0"/>
</linearGradient>
<radialGradient id="paint26_radial_971_16165" cx="0" cy="0" r="1" gradientUnits="userSpaceOnUse" gradientTransform="translate(14.5158 5.47587) rotate(11.577) scale(1.23148 1.78058)">
<stop stop-color="#3EAAE1"/>
<stop offset="1" stop-color="#3EAAE1" stop-opacity="0"/>
</radialGradient>
<radialGradient id="paint27_radial_971_16165" cx="0" cy="0" r="1" gradientUnits="userSpaceOnUse" gradientTransform="translate(17.6718 4.84405) rotate(131.593) scale(1.2753 0.88202)">
<stop offset="0.364906" stop-color="#48D4FF"/>
<stop offset="1" stop-color="#48D4FF" stop-opacity="0"/>
</radialGradient>
<radialGradient id="paint28_radial_971_16165" cx="0" cy="0" r="1" gradientUnits="userSpaceOnUse" gradientTransform="translate(15.5588 8.68629) rotate(-90) scale(0.578466 3.3778)">
<stop offset="0.326234" stop-color="#41A0FC"/>
<stop offset="1" stop-color="#41A0FC" stop-opacity="0"/>
</radialGradient>
<radialGradient id="paint29_radial_971_16165" cx="0" cy="0" r="1" gradientUnits="userSpaceOnUse" gradientTransform="translate(18.2488 5.16815) rotate(137.724) scale(0.617931 0.575271)">
<stop stop-color="#CBE8FF"/>
<stop offset="1" stop-color="#CBE8FF" stop-opacity="0"/>
</radialGradient>
<radialGradient id="paint30_radial_971_16165" cx="0" cy="0" r="1" gradientUnits="userSpaceOnUse" gradientTransform="translate(17.9929 8.1342) rotate(-179.726) scale(0.363945 0.46858)">
<stop stop-color="#CBE8FF" stop-opacity="0.6"/>
<stop offset="1" stop-color="#CBE8FF" stop-opacity="0"/>
</radialGradient>
<linearGradient id="paint31_linear_971_16165" x1="14.1906" y1="6.43439" x2="14.0205" y2="7.09261" gradientUnits="userSpaceOnUse">
<stop stop-color="#94CAF9"/>
<stop offset="0.53125" stop-color="#92C3FA"/>
<stop offset="1" stop-color="#8189FF"/>
</linearGradient>
<linearGradient id="paint32_linear_971_16165" x1="13.8105" y1="8.50434" x2="13.626" y2="9.19736" gradientUnits="userSpaceOnUse">
<stop stop-color="#3D98E4" stop-opacity="0"/>
<stop offset="0.0263313" stop-color="#96CDFB"/>
<stop offset="0.53125" stop-color="#96CBFB"/>
<stop offset="1" stop-color="#8596FD"/>
</linearGradient>
<radialGradient id="paint33_radial_971_16165" cx="0" cy="0" r="1" gradientUnits="userSpaceOnUse" gradientTransform="translate(13.6673 8.34825) rotate(143.918) scale(0.633257 0.154187)">
<stop stop-color="#7EC6FD"/>
<stop offset="1" stop-color="#5CB8FF" stop-opacity="0"/>
</radialGradient>
<linearGradient id="paint34_linear_971_16165" x1="14.2828" y1="7.96305" x2="13.8691" y2="7.35238" gradientUnits="userSpaceOnUse">
<stop stop-color="#3D98E4" stop-opacity="0"/>
<stop offset="0.03125" stop-color="#89A6FC"/>
<stop offset="0.53125" stop-color="#92C6F8"/>
<stop offset="0.983855" stop-color="#C6DBF0"/>
<stop offset="0.989204" stop-color="#C6DBF0" stop-opacity="0"/>
</linearGradient>
<radialGradient id="paint35_radial_971_16165" cx="0" cy="0" r="1" gradientUnits="userSpaceOnUse" gradientTransform="translate(12.6016 6.50866) rotate(25.6604) scale(0.90113 1.30293)">
<stop stop-color="#79A1D3"/>
<stop offset="1" stop-color="#79A1D3" stop-opacity="0"/>
</radialGradient>
<radialGradient id="paint36_radial_971_16165" cx="0" cy="0" r="1" gradientUnits="userSpaceOnUse" gradientTransform="translate(14.9541 6.62217) rotate(145.676) scale(0.933195 0.645415)">
<stop offset="0.364906" stop-color="#94CAF9"/>
<stop offset="1" stop-color="#94CAF9" stop-opacity="0"/>
</radialGradient>
<radialGradient id="paint37_radial_971_16165" cx="0" cy="0" r="1" gradientUnits="userSpaceOnUse" gradientTransform="translate(12.64 8.93453) rotate(-73.1416) scale(0.407253 1.74941)">
<stop offset="0.226355" stop-color="#849BF6"/>
<stop offset="1" stop-color="#849BF6" stop-opacity="0"/>
</radialGradient>
<radialGradient id="paint38_radial_971_16165" cx="0" cy="0" r="1" gradientUnits="userSpaceOnUse" gradientTransform="translate(15.3059 6.95495) rotate(151.808) scale(0.452169 0.420952)">
<stop stop-color="#D0EBFF"/>
<stop offset="1" stop-color="#D0EBFF" stop-opacity="0"/>
</radialGradient>
<radialGradient id="paint39_radial_971_16165" cx="0" cy="0" r="1" gradientUnits="userSpaceOnUse" gradientTransform="translate(14.5962 9.01455) rotate(-165.642) scale(0.266315 0.342882)">
<stop stop-color="#D0EBFF"/>
<stop offset="1" stop-color="#D0EBFF" stop-opacity="0"/>
</radialGradient>
</defs>
</svg>
