<svg width="150" height="150" viewBox="0 0 150 150" fill="none" xmlns="http://www.w3.org/2000/svg">
<rect width="150" height="150" fill="#A30FFA"/>
<path d="M74.5656 137.488C65.3361 133.353 42.5241 112.135 33.0111 102.087C20.6511 88.281 9.29907 74.073 8.64207 55.761C7.96557 41.8155 14.7321 28.032 26.2926 19.998C40.1901 10.002 59.5641 9.666 72.4566 21.333C75.0021 23.679 75.0651 23.574 77.5506 21.3195C84.1986 15.3975 92.9601 12.1995 101.824 12.5175C124.27 13.197 142.576 33.36 141.349 55.782C140.645 79.956 118.454 101.578 100.66 117.9C91.7031 125.731 78.0126 137.925 74.5821 137.49H74.5671L74.5656 137.488ZM49.0896 24.7365C42.2346 24.6795 35.2521 27.7695 30.1431 32.5215C3.32607 58.3755 39.0786 97.437 72.3156 122.605C72.8751 123.031 73.5006 123.528 73.9851 123.873C74.6271 124.335 75.1611 124.504 75.8961 123.948C104.249 103.491 128.047 75.3375 129.034 56.649C130.721 42.9585 122.09 30.753 109.312 26.163C97.5141 22.0245 85.3191 27.1455 78.5166 37.5585C77.8011 38.5395 77.1021 39.6045 76.2411 40.419C74.9601 41.556 73.8606 40.7235 72.9711 39.576C72.2391 38.6805 71.4846 37.554 70.7856 36.6015C65.6136 29.2395 57.6141 24.7035 49.1151 24.738H49.0896V24.7365Z" fill="white"/>
<path d="M74.9947 75.894C69.0967 71.997 63.2482 67.494 59.0122 61.761C58.4197 60.9585 53.3272 52.794 55.7557 52.4085C56.2717 52.326 56.8132 52.3185 57.3352 52.3125C58.3447 52.302 59.3527 52.3905 60.3457 52.572C62.2147 52.9125 64.0117 53.58 65.6872 54.468C69.3247 56.397 72.6427 59.3715 74.9947 62.763C77.3452 59.3715 80.6632 56.397 84.3022 54.468C85.9777 53.58 87.7747 52.9125 89.6437 52.572C90.6367 52.392 91.6447 52.302 92.6542 52.3125C93.1762 52.3185 93.7177 52.326 94.2337 52.4085C96.6622 52.794 91.5697 60.9585 90.9772 61.761C86.7412 67.494 80.8927 71.997 74.9947 75.894Z" fill="white"/>
<path d="M84.5361 89.5771C84.5361 94.8466 80.2641 99.1186 74.9946 99.1186C69.7251 99.1186 65.4531 94.8466 65.4531 89.5771C65.4531 84.3076 69.7251 78.9916 74.9946 78.9916C80.2641 78.9916 84.5361 84.3076 84.5361 89.5771Z" fill="white"/>
</svg>
