<svg width="145" height="42" viewBox="0 0 145 42" fill="none" xmlns="http://www.w3.org/2000/svg">
<g id="Group">
<path id="Vector" d="M1.31436 32.7568C0.96084 32.7568 0.641315 32.6222 0.389775 32.3667C0.131436 32.1066 0 31.7918 0 31.4313C0 31.1165 0.115572 30.8245 0.353516 30.5393L0.385241 30.5051C0.623185 30.261 0.935911 30.1356 1.31662 30.1356H11.138C12.9917 28.0345 13.9616 25.6185 14.0273 22.9517H11.3352C8.7382 22.9517 6.47433 22.0118 4.60704 20.1594C2.74202 18.2864 1.79931 16.0051 1.79931 13.377C1.79931 9.84558 3.0706 6.77265 5.57921 4.24496C8.07195 1.73552 11.1222 0.464844 14.6528 0.464844H18.997C21.603 0.464844 23.8691 1.41386 25.7319 3.28909C27.5901 5.13239 28.5351 7.40458 28.5351 10.0395C28.5351 13.5459 27.325 16.5572 24.9388 18.9891C22.7043 21.2909 19.9193 22.6095 16.6606 22.9084C16.6175 25.5113 15.872 27.9364 14.4466 30.1356H29.122C29.5027 30.1356 29.8155 30.2587 30.0534 30.5051L30.0851 30.5393C30.3231 30.8245 30.4387 31.1165 30.4387 31.4313C30.4387 31.7918 30.3072 32.1066 30.0489 32.3667C29.7951 32.6222 29.4755 32.7568 29.1243 32.7568H1.32115H1.31436ZM14.6483 3.08378C11.8247 3.08378 9.45429 4.07386 7.40118 6.11335C5.42738 8.10037 4.42575 10.5459 4.42575 13.377C4.42575 15.3321 5.08746 16.9382 6.44941 18.2864C7.82041 19.6643 9.41804 20.3328 11.3329 20.3328H15.6771C18.5279 20.3328 20.8982 19.3427 22.9196 17.3055C24.9229 15.2911 25.8973 12.9139 25.8973 10.0395C25.8973 8.1095 25.2334 6.50119 23.8714 5.12556C22.5027 3.75221 20.9073 3.08378 18.9924 3.08378H14.6483Z" fill="white"/>
<path id="Vector_2" d="M37.376 41.9984V38.9163C37.376 37.1825 37.9991 35.6768 39.2274 34.4404C40.4398 33.2199 41.9263 32.6016 43.6486 32.6016H62.6342V32.3712C62.6342 31.4131 62.3079 30.6192 61.6349 29.9416C60.9618 29.2641 60.1641 28.9356 59.1965 28.9356H38.7946C38.432 28.9356 38.1011 28.7987 37.8337 28.5364C37.5323 28.2672 37.3782 27.9227 37.3782 27.5075C37.3782 27.0923 37.5323 26.7501 37.8337 26.4809C38.1011 26.2186 38.432 26.0817 38.7946 26.0817H59.1965C60.9346 26.0817 62.4325 26.6999 63.6427 27.9204C64.8528 29.1409 65.4692 30.6374 65.4692 32.3712V35.4533H43.6509C42.6991 35.4533 41.9105 35.7818 41.2374 36.4593C40.5576 37.1437 40.2109 37.9719 40.2109 38.914V39.1445H64.0528C64.4449 39.1445 64.7825 39.2836 65.0567 39.5596C65.3309 39.8357 65.4692 40.1756 65.4692 40.5703C65.4692 40.9649 65.3309 41.3049 65.0567 41.5809C64.7825 41.8569 64.4449 41.9961 64.0528 41.9961H37.376V41.9984ZM36.5828 22.8878C36.2134 22.8878 35.8758 22.7441 35.6038 22.4726C35.3319 22.2012 35.1914 21.8612 35.1914 21.4871C35.1914 21.113 35.3342 20.7753 35.6038 20.5016C35.8735 20.2278 36.2112 20.0864 36.5828 20.0864H66.8016C67.171 20.0864 67.5087 20.2301 67.7806 20.5016C68.0525 20.7731 68.193 21.113 68.193 21.4871C68.193 21.8612 68.0503 22.1989 67.7806 22.4726C67.5109 22.7464 67.1733 22.8878 66.8016 22.8878H36.5828ZM38.3005 16.8652V15.5215C38.3799 10.4296 40.1112 5.9993 43.4492 2.34692L44.7794 0.93024C44.9358 0.747735 45.2145 0.526444 45.6791 0.469411L45.7176 0.464844H45.7561C46.0779 0.464844 46.3929 0.585762 46.6671 0.816174L46.6897 0.834415L46.7101 0.854953C46.9775 1.12187 47.1226 1.46407 47.1226 1.81311C47.1226 2.16215 47.0025 2.47925 46.7736 2.75529L46.7487 2.78495L45.4116 4.20848C42.8962 6.97343 41.4391 10.327 41.0811 14.1778L62.9107 14.3033L62.947 14.3078C63.2959 14.3512 63.5996 14.4949 63.8217 14.7185C64.071 14.9694 64.2092 15.3093 64.2092 15.6766C64.2092 16.0439 64.071 16.3838 63.8217 16.6348C63.5724 16.8857 63.2348 17.0249 62.8699 17.0249L38.3005 16.8652Z" fill="white"/>
<path id="Vector_3" d="M76.1635 36.1912C75.8032 36.1912 75.4859 36.0521 75.2616 35.8011C75.0101 35.5753 74.8741 35.2559 74.8741 34.8932C74.8741 34.5555 75.0078 34.243 75.2639 33.9875C75.4995 33.7502 75.8123 33.6225 76.1635 33.6225L96.5655 33.6476C97.4153 33.6476 98.1654 33.335 98.8565 32.6894C99.482 32.0301 99.8015 31.2659 99.8015 30.4172V5.22247C99.8015 4.86658 99.9261 4.55404 100.164 4.31678C100.418 4.06127 100.731 3.9244 101.064 3.9244C101.397 3.9244 101.712 4.05899 101.968 4.31678C102.224 4.57457 102.355 4.88483 102.355 5.22247V30.4172C102.355 31.9366 101.787 33.3077 100.667 34.4939L100.645 34.5168C99.4661 35.6437 98.0951 36.2163 96.5677 36.2163L76.1658 36.1912H76.1635ZM80.9246 28.6994C78.6404 28.6994 76.6689 27.8804 75.0644 26.2653C73.46 24.6227 72.6465 22.638 72.6465 20.3635V13.2504C72.6465 9.87178 73.8566 6.938 76.2451 4.52894C78.6155 2.14269 81.5297 0.933594 84.9062 0.933594C87.1656 0.933594 89.1371 1.75031 90.7642 3.36319C92.3709 4.98064 93.1821 6.95626 93.1821 9.23985V16.353C93.1821 19.7612 91.972 22.695 89.5835 25.0744C87.2222 27.4766 84.3057 28.6994 80.9224 28.6994H80.9246ZM84.9062 3.50007C82.2277 3.50007 79.9208 4.46506 78.0489 6.36767C76.1295 8.27713 75.1981 10.5265 75.1981 13.2504V20.3635C75.1981 21.9673 75.7443 23.295 76.866 24.4242C78.0059 25.5717 79.3338 26.1307 80.9246 26.1307C83.6009 26.1307 85.8444 25.1908 87.7865 23.2585C89.6764 21.3559 90.635 19.0335 90.635 16.3575V9.24442C90.635 7.65891 90.0798 6.33117 88.9399 5.18367C87.8159 4.05214 86.4971 3.50235 84.9062 3.50235V3.50007Z" fill="white"/>
<path id="Vector_4" d="M110.543 38.5153V21.6405H122.83C126.922 21.6405 130.469 23.1211 133.367 26.0411C136.268 28.9612 137.739 32.5292 137.739 36.6469V38.5131H110.543V38.5153ZM134.992 35.7914C134.722 32.6729 133.485 29.9992 131.31 27.8343C129 25.5324 126.147 24.3644 122.83 24.3644H113.251V35.7914H134.992ZM138.523 18.5265C138.167 18.5265 137.832 18.3759 137.594 18.1113C137.328 17.8672 137.183 17.5273 137.183 17.1532V1.34825C137.183 0.999207 137.331 0.657006 137.598 0.387811C137.845 0.14143 138.181 0 138.523 0C138.865 0 139.18 0.1209 139.454 0.34675L139.502 0.385542L139.54 0.43344C139.767 0.71176 139.885 1.02658 139.885 1.34825V8.25149H143.66C143.98 8.25149 144.292 8.37241 144.569 8.59825L144.591 8.61878L144.612 8.63932C144.861 8.89026 144.999 9.23017 144.999 9.59974C144.999 9.96931 144.861 10.3047 144.612 10.5556C144.344 10.8248 144.007 10.9731 143.658 10.9731H139.882V17.1509C139.882 17.5136 139.746 17.8512 139.502 18.1045C139.227 18.3805 138.89 18.5242 138.518 18.5242L138.523 18.5265ZM110.108 18.4512V0H123.163C125.703 0 127.91 0.923921 129.717 2.74212C131.525 4.56261 132.44 6.78233 132.44 9.33968V18.4489H110.105L110.108 18.4512ZM129.739 15.7251V9.33968C129.739 7.4941 129.109 5.96334 127.813 4.65843C126.519 3.3558 124.998 2.7216 123.165 2.7216H112.813V15.7251H129.739Z" fill="white"/>
</g>
</svg>
